<svg width="45" height="46" viewBox="0 0 45 46" fill="none" xmlns="http://www.w3.org/2000/svg">
<rect opacity="0.2" x="0.5" y="1.17969" width="44" height="44" rx="11.5" stroke="#12ADDD"/>
<path opacity="0.5" d="M23 34.6797C26.1826 34.6797 29.2348 33.4154 31.4853 31.165C33.7357 28.9145 35 25.8623 35 22.6797C35 19.4971 33.7357 16.4448 31.4853 14.1944C29.2348 11.944 26.1826 10.6797 23 10.6797V34.6797Z" fill="#12ADDD"/>
<path d="M12.5147 31.165C14.7652 33.4154 17.8174 34.6797 21 34.6797V10.6797C17.8174 10.6797 14.7652 11.944 12.5147 14.1944C10.2643 16.4448 9 19.4971 9 22.6797C9 25.8623 10.2643 28.9145 12.5147 31.165Z" fill="#1294DD"/>
</svg>
