<svg width="45" height="46" viewBox="0 0 45 46" fill="none" xmlns="http://www.w3.org/2000/svg">
<rect opacity="0.2" x="0.5" y="1.17969" width="44" height="44" rx="11.5" stroke="#38A254"/>
<path d="M19 10.6797H12C10.8954 10.6797 10 11.5751 10 12.6797V32.6797C10 33.7843 10.8954 34.6797 12 34.6797H19C20.1046 34.6797 21 33.7843 21 32.6797V12.6797C21 11.5751 20.1046 10.6797 19 10.6797Z" fill="#38A254"/>
<path opacity="0.6" d="M32 10.6797H25C23.8954 10.6797 23 11.5751 23 12.6797V19.6797C23 20.7843 23.8954 21.6797 25 21.6797H32C33.1046 21.6797 34 20.7843 34 19.6797V12.6797C34 11.5751 33.1046 10.6797 32 10.6797Z" fill="#38A254"/>
<path opacity="0.3" d="M32 23.6797H25C23.8954 23.6797 23 24.5751 23 25.6797V32.6797C23 33.7843 23.8954 34.6797 25 34.6797H32C33.1046 34.6797 34 33.7843 34 32.6797V25.6797C34 24.5751 33.1046 23.6797 32 23.6797Z" fill="#38A254"/>
</svg>
