<svg width="45" height="46" viewBox="0 0 45 46" fill="none" xmlns="http://www.w3.org/2000/svg">
<rect opacity="0.2" x="0.5" y="1.17969" width="44" height="44" rx="11.5" stroke="#EBAF3A"/>
<path fill-rule="evenodd" clip-rule="evenodd" d="M22.021 35.6797C18.8384 35.6797 15.7861 34.4154 13.5357 32.165C11.2853 29.9145 10.021 26.8623 10.021 23.6797C10.021 20.4971 11.2853 17.4448 13.5357 15.1944C15.7861 12.944 18.8384 11.6797 22.021 11.6797V35.6797ZM32.5063 15.1944C30.2558 12.944 27.2036 11.6797 24.021 11.6797L24.021 22.6797H35.9793C35.7439 19.8633 34.5198 17.2079 32.5063 15.1944ZM24.021 35.6797L24.021 24.6797H35.9793C35.7439 27.496 34.5198 30.1514 32.5063 32.165C30.2558 34.4154 27.2036 35.6797 24.021 35.6797Z" fill="#EBAF3A"/>
</svg>
