<svg width="45" height="46" viewBox="0 0 45 46" fill="none" xmlns="http://www.w3.org/2000/svg">
<rect opacity="0.2" x="0.5" y="1.17969" width="44" height="44" rx="11.5" stroke="#FF8800"/>
<path d="M12.4986 14.3138C11.8323 14.6988 11.8323 15.6606 12.4986 16.0456L21.7497 21.3906C22.0593 21.5695 22.4407 21.5695 22.7503 21.3906L32.0014 16.0456C32.6677 15.6606 32.6677 14.6988 32.0014 14.3138L22.7503 8.96874C22.4407 8.78989 22.0593 8.78989 21.7497 8.96874L12.4986 14.3138Z" fill="#F28B41"/>
<path opacity="0.3" d="M12.4986 31.0456C11.8323 30.6606 11.8323 29.6988 12.4986 29.3138L21.7497 23.9687C22.0593 23.7899 22.4407 23.7899 22.7503 23.9687L32.0014 29.3138C32.6677 29.6988 32.6677 30.6606 32.0014 31.0456L22.7503 36.3906C22.4407 36.5695 22.0593 36.5695 21.7497 36.3906L12.4986 31.0456Z" fill="#FF8800"/>
<path opacity="0.8" d="M24.7486 23.5456C24.0823 23.1606 24.0823 22.1988 24.7486 21.8138L32.9997 17.0465C33.6664 16.6613 34.5 17.1424 34.5 17.9124V27.447C34.5 28.2169 33.6664 28.698 32.9997 28.3129L24.7486 23.5456Z" fill="#FF8800"/>
<path opacity="0.6" d="M11.5003 28.3129C10.8336 28.698 10 28.2169 10 27.447V17.9124C10 17.1424 10.8336 16.6613 11.5003 17.0465L19.7514 21.8138C20.4177 22.1988 20.4177 23.1606 19.7514 23.5456L11.5003 28.3129Z" fill="#FF8800"/>
</svg>
