<svg width="66" height="60" viewBox="0 0 66 60" fill="none" xmlns="http://www.w3.org/2000/svg">
<path d="M30.0338 12.2939L27.2762 13.7303C27.0628 13.8404 26.8438 13.9394 26.6201 14.0268L29.3777 12.5904C29.6014 12.503 29.8204 12.4041 30.0338 12.2939Z" fill="#A80000" fill-opacity="0.75"/>
<path d="M29.8495 15.2002L27.0919 16.6366H26.9433H26.7998H26.5948H26.4923H26.3026H26.1591H26.113H26.0412L25.8311 16.6775L28.5886 15.2411L28.7988 15.2002H28.8705H28.9167H29.0602L29.2498 15.2513H29.3523H29.5573H29.7009H29.8495" fill="#A80000" fill-opacity="0.75"/>
<path d="M28.5883 15.3496L25.8307 16.7962L25.6052 16.8269C25.2567 16.887 24.9138 16.9759 24.5801 17.0927L27.3325 15.6563C27.6665 15.5404 28.0093 15.4515 28.3576 15.3905L28.5832 15.3598" fill="#A80000" fill-opacity="0.75"/>
<path d="M27.3226 15.6416L24.5702 17.0779L24.0986 14.4608L26.8562 13.0244L27.3226 15.6416Z" fill="#A80000" fill-opacity="0.75"/>
<path d="M26.856 13.024L24.1241 14.4604C22.669 14.4269 21.2661 13.9138 20.1344 13.0011C19.0027 12.0885 18.206 10.8277 17.8687 9.41575C17.5315 8.00381 17.6727 6.52022 18.2702 5.19676C18.8678 3.87329 19.8881 2.78449 21.1717 2.10043L23.9293 0.664062C22.6473 1.34693 21.6277 2.43353 21.0296 3.75455C20.4314 5.07557 20.2881 6.55681 20.6222 7.96748C20.9562 9.37815 21.7487 10.639 22.8763 11.5536C24.0039 12.4682 25.4031 12.9852 26.856 13.024Z" fill="#A80000" fill-opacity="0.75"/>
<path d="M61.8741 49.2678L59.1165 50.7041L58.9679 50.7808L58.8397 50.8422L58.7013 50.8984L58.5424 50.9648L58.3887 51.0211L58.2503 51.0671L58.1068 51.1131L57.9427 51.1642L57.7838 51.2051L57.6455 51.2409H57.5942H57.4968L57.3174 51.2766H57.1585H57.015H56.9586H56.8612H56.81H56.6972H56.5127H56.3641H56.0514H55.8515H55.7029H55.4927H55.3851H55.1852C53.4751 51.0042 51.9405 50.0736 50.9111 48.6847C49.8817 47.2959 49.4398 45.5598 49.6803 43.8495L52.4379 42.4131C52.1816 44.1331 52.6175 45.8845 53.6506 47.2853C54.6837 48.6862 56.2302 49.6229 57.953 49.8914L58.1529 49.917H58.2554H58.4656H58.6142H58.809H59.2754H59.4599H59.5727H59.6239H59.7213H59.7777H59.9212H60.0801L60.2595 49.8812H60.3518H60.4081L60.5465 49.8454L60.7054 49.8045L60.8694 49.7534L61.013 49.7074L61.1514 49.6614L61.3051 49.6051L61.464 49.5387L61.5973 49.4825L61.7305 49.4211L61.8792 49.3445" fill="#A80000" fill-opacity="0.75"/>
<path d="M61.9302 49.2344L59.1726 50.6707H59.1162L61.8738 49.2344H61.9302Z" fill="#A80000" fill-opacity="0.75"/>
<path d="M53.3093 39.9933L50.5518 41.4297C51.1688 40.4095 52.0554 39.5783 53.1145 39.0272L55.8721 37.5908C54.813 38.1419 53.9263 38.9731 53.3093 39.9933Z" fill="#A80000" fill-opacity="0.75"/>
<path d="M47.7736 40.7099L45.016 42.1463L43.791 38.9618L46.5486 37.5254L47.7736 40.7099Z" fill="#A80000" fill-opacity="0.75"/>
<path d="M52.4384 42.409L49.6809 43.8453L45.0166 42.1483L47.7742 40.7119L52.4384 42.409Z" fill="#A80000" fill-opacity="0.75"/>
<path d="M55.1599 26.7588L52.4023 28.1952L55.1599 26.7588Z" fill="#A80000" fill-opacity="0.75"/>
<path d="M48.948 15.2105L46.1904 16.6468C46.2384 16.6184 46.2881 16.5928 46.3391 16.5702L49.0966 15.1338C49.0456 15.1564 48.996 15.182 48.948 15.2105Z" fill="#A80000" fill-opacity="0.75"/>
<path d="M55.1446 26.7628L52.3871 28.1992L52.2589 28.2656L52.1206 28.3321L51.9565 28.4036L51.8233 28.4598L51.6746 28.5161L51.5157 28.5723L51.3773 28.6183L51.2082 28.6694L51.0698 28.7103L50.9263 28.7461L50.752 28.7819L50.6136 28.8125L50.4445 28.8381H50.301H50.1318H49.9883H49.8243H49.2092H49.0401H48.8966H48.7325H48.5839H48.425H48.261L48.1175 28.8074L47.9535 28.7717L47.8151 28.741L47.651 28.7001L47.5075 28.6541L47.3538 28.6081L47.1897 28.5519L47.0616 28.5007L46.9027 28.4394L46.7643 28.3781L46.6157 28.3116L46.4722 28.24L46.3338 28.1685C46.2808 28.1426 46.2295 28.1136 46.18 28.0816L46.0519 28.01L45.9032 27.918L45.7751 27.8362L45.6521 27.7238L45.5188 27.6267L45.3804 27.5295L45.242 27.4171L45.1395 27.3251L45.0062 27.2075L44.8884 27.095L44.7705 26.9775L44.627 26.8446L47.3845 25.4082L47.5127 25.5411L47.6305 25.6587L47.7484 25.7711L47.8817 25.8887L47.9945 25.9858L48.138 26.0983L48.261 26.1903L48.3943 26.2874L48.5326 26.3845L48.6608 26.4663L48.8094 26.5583L48.9324 26.6299L49.0862 26.7168L49.2297 26.7883L49.3732 26.8599L49.5219 26.9264L49.6603 26.9877L49.8192 27.049L49.9473 27.1002L50.1113 27.1564L50.2651 27.2024L50.4086 27.2484L50.5726 27.2893L50.711 27.32L50.875 27.3557L51.0186 27.3864L51.1826 27.412H51.3415H51.485H51.6541H51.8028H51.9719H52.1154C52.1616 27.412 52.2077 27.412 52.2846 27.412H52.5921H52.7561H52.8996H53.0637H53.2123H53.3814L53.5198 27.3813L53.6941 27.3455L53.8376 27.3097L53.976 27.2688L54.1452 27.2177L54.2835 27.1717L54.4424 27.1155L54.5911 27.0593L54.7243 27.003L54.8884 26.9315L55.0268 26.865L55.1549 26.7986" fill="#A80000" fill-opacity="0.75"/>
<path d="M46.0204 23.2121L43.2628 24.6484C43.0008 23.9531 42.8587 23.2186 42.8425 22.476C42.8216 21.5644 42.9934 20.6586 43.3466 19.8176C43.6998 18.9765 44.2266 18.219 44.8928 17.5944L45.0055 17.4922L45.1234 17.3848L45.2669 17.2672L45.3848 17.1752L45.5181 17.073L45.6616 16.9708L45.7846 16.889L45.9333 16.797C45.9765 16.7652 46.0229 16.7378 46.0716 16.7152L46.1998 16.6385L48.9573 15.2021L48.8241 15.2788L48.6908 15.3606L48.5422 15.4526L48.4192 15.5344L48.2756 15.6366L48.1424 15.7389L48.0245 15.8309L47.881 15.9484L47.7631 16.0558L47.6503 16.158C46.9842 16.7827 46.4574 17.5401 46.1042 18.3812C45.7509 19.2222 45.5792 20.128 45.6001 21.0396C45.6163 21.7822 45.7584 22.5168 46.0204 23.2121Z" fill="#A80000" fill-opacity="0.75"/>
<path d="M39.029 27.4003L36.2715 28.8367L43.2628 24.6502L46.0203 23.2139L39.029 27.4003Z" fill="#A80000" fill-opacity="0.75"/>
<path d="M37.6299 29.5994L34.8877 31.0357C35.5864 30.4788 36.0788 29.7053 36.287 28.8377L39.0445 27.4014C38.8364 28.2689 38.344 29.0424 37.6453 29.5994" fill="#A80000" fill-opacity="0.75"/>
<path d="M36.2258 28.5859L33.4683 30.0223H33.4375L36.1951 28.5859H36.2258Z" fill="#A80000" fill-opacity="0.75"/>
<path d="M36.6921 31.8078L33.9346 33.2442C34.357 32.5576 34.678 31.8139 34.8879 31.036L37.6455 29.5996C37.4404 30.3767 37.1245 31.1203 36.7075 31.8078" fill="#A80000" fill-opacity="0.75"/>
<path d="M23.8475 23.0435L21.0899 24.4594C20.9553 23.7325 20.9927 22.9843 21.1992 22.2744C21.4056 21.5645 21.7754 20.9124 22.2791 20.3701C22.796 19.8327 23.3966 19.3822 24.0576 19.036L26.8152 17.5996C26.1541 17.9459 25.5535 18.3964 25.0366 18.9337C24.5329 19.476 24.1632 20.1281 23.9567 20.838C23.7503 21.548 23.7129 22.2962 23.8475 23.023" fill="#A80000" fill-opacity="0.75"/>
<path d="M28.7832 33.7539L26.0256 35.1902L25.877 34.3622L28.6345 32.9258L28.7832 33.7539Z" fill="#A80000" fill-opacity="0.75"/>
<path d="M24.2831 25.4759L21.5255 26.9174L21.0898 24.4842L23.8474 23.0479L24.2831 25.4759Z" fill="#A80000" fill-opacity="0.75"/>
<path d="M28.6343 32.9289L25.8767 34.3652C24.797 33.7549 23.896 32.8739 23.2627 31.8094L26.0203 30.373C26.652 31.4387 27.5535 32.3201 28.6343 32.9289Z" fill="#A80000" fill-opacity="0.75"/>
<path d="M23.6583 26.9443L20.9007 28.3756C20.8508 28.0969 20.8833 27.8098 20.9944 27.5492C21.1054 27.2887 21.2902 27.0661 21.5261 26.9086L24.2836 25.4824C24.0468 25.639 23.8612 25.8615 23.7501 26.1223C23.6389 26.3831 23.607 26.6707 23.6583 26.9495" fill="#A80000" fill-opacity="0.75"/>
<path d="M23.9142 28.3788L21.1618 29.8151L20.9004 28.3788L23.658 26.9424L23.9142 28.3788Z" fill="#A80000" fill-opacity="0.75"/>
<path d="M26.0202 30.3695L23.2626 31.8059C22.7443 31.7423 22.2601 31.5142 21.8817 31.1552C21.5033 30.7963 21.2507 30.3255 21.1611 29.8123L23.9136 28.376C24.0049 28.8892 24.2588 29.3597 24.6379 29.7185C25.0171 30.0772 25.5015 30.3054 26.0202 30.3695Z" fill="#A80000" fill-opacity="0.75"/>
<path d="M27.0867 35.596L24.3291 37.0273L26.0257 35.1922L28.7832 33.7559L27.0867 35.596Z" fill="#A80000" fill-opacity="0.75"/>
<path d="M25.5495 32.472L22.792 33.9083L13.6377 30.5858L16.3953 29.1494L25.5495 32.472Z" fill="#A80000" fill-opacity="0.75"/>
<path d="M21.0486 40.3341L18.291 41.7705C18.2929 41.5796 18.3404 41.392 18.4296 41.2231C18.5187 41.0542 18.6469 40.9089 18.8036 40.7993C19.8287 40.0785 22.1301 38.4224 23.7241 37.5227C23.9593 37.3877 24.1705 37.215 24.3495 37.0116L27.107 35.5752C26.9281 35.7786 26.7168 35.9513 26.4817 36.0864C24.8876 36.986 22.5657 38.6422 21.5611 39.3629C21.4045 39.4726 21.2763 39.6178 21.1871 39.7867C21.098 39.9556 21.0505 40.1433 21.0486 40.3341Z" fill="#A80000" fill-opacity="0.75"/>
<path d="M7.54736 20.086L4.79492 21.5224L4.91794 21.4559L7.6755 20.0195L7.54736 20.086Z" fill="#A80000" fill-opacity="0.75"/>
<path d="M47.4093 45.4736L44.6517 46.91L19.4287 51.5974L22.1863 50.161L47.4093 45.4736Z" fill="#A80000" fill-opacity="0.75"/>
<path d="M20.9363 49.3957L18.1787 50.8321L18.2915 41.7743L21.049 40.3379L20.9363 49.3957Z" fill="#A80000" fill-opacity="0.75"/>
<path d="M22.1869 50.1603L19.4294 51.5967C18.4042 51.2797 18.2607 51.0855 18.1787 50.8299L20.9363 49.3936C21.0183 49.6338 21.1618 49.8434 22.1869 50.1603Z" fill="#A80000" fill-opacity="0.75"/>
<path d="M13.7859 31.617L11.0283 33.0483C10.4374 33.3594 9.80077 33.5751 9.14209 33.6872C8.47318 33.8039 7.79013 33.816 7.11749 33.723C5.39725 33.4768 3.84356 32.5645 2.79302 31.1839C1.74249 29.8033 1.27972 28.0654 1.50498 26.3469C1.50498 26.2958 1.50498 26.2447 1.50498 26.1936C1.50498 26.1425 1.50498 26.076 1.5306 26.0402C1.54346 25.9897 1.55373 25.9385 1.56136 25.8869L1.60236 25.7029C1.60236 25.6415 1.60236 25.5904 1.64337 25.5393L1.68437 25.3962L1.7305 25.2479C1.7305 25.161 1.76638 25.1201 1.78176 25.0792C1.79714 25.0384 1.82276 24.9617 1.84327 24.9157L1.89452 24.7777L1.9509 24.6345C1.97187 24.5838 1.99583 24.5343 2.02266 24.4863C2.0434 24.4296 2.06913 24.3749 2.09954 24.3227L2.16618 24.1898L2.23281 24.0569C2.27894 23.9854 2.29432 23.9496 2.31482 23.9189L2.40708 23.7605C2.43179 23.7195 2.45918 23.6802 2.48909 23.6429L2.59673 23.5151L2.68386 23.3924L2.79662 23.2391L2.88376 23.1266L2.97602 23.0142L3.07853 22.9017L3.20154 22.7637L3.30406 22.6563L3.40657 22.5541L3.5142 22.4519L3.62184 22.3394L3.74998 22.2321L3.86274 22.1401C3.89859 22.1073 3.93623 22.0766 3.97551 22.0481L4.1344 21.9509L4.27792 21.8487L4.40093 21.7669L4.52394 21.6902L4.64696 21.6085L4.80585 21.5164L7.55829 20.0801L7.40452 20.1721L7.27125 20.2539L7.14824 20.3305L7.02523 20.4123L6.88171 20.5146L6.75357 20.6117C6.7143 20.6402 6.67665 20.671 6.64081 20.7037L6.52805 20.7957L6.38965 20.8826L6.26664 20.9951L6.159 21.0973L6.05649 21.1995L5.95398 21.3069L5.83097 21.4449L5.72846 21.5573L5.63619 21.6698L5.54906 21.7874L5.4363 21.9356L5.34916 22.0634C5.31809 22.1017 5.29063 22.1427 5.26715 22.1861C5.23743 22.2253 5.21005 22.2663 5.18514 22.3087L5.09288 22.4621C5.09288 22.4979 5.057 22.5285 5.01087 22.6001L4.94424 22.733C4.94424 22.7688 4.90836 22.7995 4.87761 22.8659C4.84715 22.9188 4.81977 22.9734 4.7956 23.0295L4.72897 23.1777L4.67259 23.3209C4.67259 23.3515 4.64696 23.3873 4.62133 23.4589C4.5957 23.5304 4.58545 23.5509 4.55982 23.6224C4.53419 23.694 4.55982 23.7042 4.50857 23.7911L4.46244 23.9496C4.46244 23.9802 4.46244 24.016 4.42143 24.0978C4.38043 24.1796 4.42143 24.1949 4.38043 24.2563L4.33942 24.4607C4.33942 24.4965 4.33942 24.5272 4.30867 24.6141C4.27792 24.701 4.30867 24.6857 4.30867 24.7674C4.30867 24.8492 4.30867 24.8697 4.30867 24.9208C4.16567 25.9434 4.267 26.9853 4.60441 27.9615C4.94182 28.9376 5.50575 29.8205 6.25025 30.538C6.99474 31.2556 7.89871 31.7875 8.88849 32.0905C9.87827 32.3935 10.9258 32.459 11.9458 32.2815C12.5895 32.1546 13.2099 31.9305 13.7859 31.617Z" fill="#A80000" fill-opacity="0.75"/>
<path d="M13.7605 47.0355L11.0029 48.4719L16.6411 43.7079L19.3986 42.2715L13.7605 47.0355Z" fill="#A80000" fill-opacity="0.75"/>
<path d="M6.80444 46.4756L4.04688 47.9119H4.052L6.80956 46.4756H6.80444Z" fill="#A80000" fill-opacity="0.75"/>
<path d="M12.9448 58.1645L10.1872 59.6009L10.1104 59.6418L12.8474 58.1952L12.9243 58.1543" fill="#A80000" fill-opacity="0.75"/>
<path d="M6.74291 46.5134L3.98535 47.9702L4.04686 47.9344L6.80442 46.498L6.74291 46.5338" fill="#A80000" fill-opacity="0.75"/>
<path d="M12.8474 58.1934L10.0898 59.6297L10.0283 59.6604L12.7859 58.224L12.8474 58.1934Z" fill="#A80000" fill-opacity="0.75"/>
<path d="M6.66577 46.5497L3.9082 47.9657H3.98509L6.74265 46.5293L6.66577 46.5702" fill="#A80000" fill-opacity="0.75"/>
<path d="M12.8071 58.2334L10.0495 59.6698L9.97266 59.7055L12.7302 58.2692L12.8071 58.2334Z" fill="#A80000" fill-opacity="0.75"/>
<path d="M6.60522 46.5855L3.84766 48.0219L3.90916 47.9657L6.66672 46.5293L6.60522 46.5651" fill="#A80000" fill-opacity="0.75"/>
<path d="M12.7302 58.2725L9.97264 59.7293L9.91113 59.7599L12.6687 58.3236L12.7302 58.2929" fill="#A80000" fill-opacity="0.75"/>
<path d="M6.53295 46.6307L3.77539 48.0671L3.84715 48.0262L6.60471 46.5898L6.53295 46.6307Z" fill="#A80000" fill-opacity="0.75"/>
<path d="M12.6687 58.3061L9.91111 59.7323L9.8291 59.7681L12.5867 58.3317L12.6687 58.2959" fill="#A80000" fill-opacity="0.75"/>
<path d="M6.4663 46.6686L3.71387 48.105L3.77537 48.0692L6.53294 46.6328L6.4663 46.6686Z" fill="#A80000" fill-opacity="0.75"/>
<path d="M12.5866 58.3371L9.82909 59.7734H9.76758L12.5251 58.3422L12.5866 58.3115" fill="#A80000" fill-opacity="0.75"/>
<path d="M6.39403 46.7189L3.62109 48.1552L3.69798 48.1092L6.45041 46.6729L6.37866 46.7189" fill="#A80000" fill-opacity="0.75"/>
<path d="M12.5249 58.3643L9.77244 59.7955L9.69043 59.8313L12.448 58.3949L12.53 58.3643" fill="#A80000" fill-opacity="0.75"/>
<path d="M6.33276 46.7479L3.5752 48.1843L3.62133 48.1434L6.37889 46.707L6.31738 46.7479" fill="#A80000" fill-opacity="0.75"/>
<path d="M12.443 58.4001L9.68541 59.8365L9.6239 59.8621L9.54189 59.8927L9.47526 59.9183L9.39838 59.949H9.33174H9.24973H9.1831H9.10622H9.03446H8.95758H8.88582H8.80893H8.73717H8.66029H8.58341H8.5014H8.37838H8.281L7.96321 60.0001H7.80432H7.74794H7.64543H7.58392H7.48653H6.61519H6.5178H6.45117H6.35891H6.29227H6.20001H6.12826H6.03599H5.96936H5.8771H5.81047H5.71821H5.65158H5.55932H5.49268L5.40042 59.9745H5.33379H5.24666H5.1749L5.08776 59.9439H5.02113L4.934 59.9132H4.86224L4.78023 59.8774H4.70847L4.64696 59.8365H4.5752L4.4932 59.7956L4.40606 59.7292H4.32405L4.25229 59.6934L4.17028 59.6525L4.10365 59.6167L4.02164 59.5758L3.95501 59.54L3.873 59.4889L3.80637 59.4531L3.72436 59.402L3.66285 59.3662L3.57572 59.31L3.51934 59.2742L3.42707 59.2078L3.37582 59.1771L3.23743 59.0749C1.83945 58.0324 0.907507 56.4844 0.642004 54.7638C0.3765 53.0432 0.798637 51.2874 1.81764 49.874L1.91503 49.741L1.95091 49.695C1.97592 49.6683 1.99824 49.6392 2.01754 49.6081L2.08417 49.5059L2.14568 49.4292L2.19181 49.3781L2.25332 49.3014L2.29945 49.2503L2.36608 49.1839L2.41221 49.1328L2.47884 49.0663C2.49719 49.0506 2.51432 49.0335 2.5301 49.0152L2.59673 48.9948L2.64799 48.9436C2.66778 48.9222 2.69017 48.9033 2.71462 48.8874C2.73039 48.8691 2.74753 48.852 2.76587 48.8363L2.83251 48.7801L2.88889 48.7289L2.95552 48.6727L3.0119 48.6267L3.07854 48.5756L3.10929 48.5091L3.17592 48.458L3.2323 48.4171L3.30406 48.366L3.36557 48.3251L3.4322 48.274L3.49371 48.2382L3.56547 48.1922L6.32303 46.7559L6.25127 46.8019L6.18976 46.8376L6.12313 46.8888L6.06162 46.9297L5.98986 46.9808L5.93348 47.0217L5.86685 47.0728L5.80534 47.1188L5.73871 47.1699L5.68233 47.221L5.6157 47.2721L5.55932 47.3233L5.49268 47.3795L5.4363 47.4306L5.37479 47.4868L5.31841 47.5379L5.25691 47.5993C5.24113 47.6176 5.224 47.6347 5.20565 47.6504L5.15952 47.7168L5.11339 47.768L5.04676 47.8344L5.00063 47.8855L4.92887 47.9724L4.88274 48.0235L4.82123 48.1002L4.7751 48.1462L4.70847 48.2331L4.67259 48.2791L4.5752 48.412C3.5562 49.8255 3.13406 51.5813 3.39957 53.3019C3.66507 55.0225 4.59701 56.5704 5.99499 57.613L6.13338 57.7152L6.18464 57.7459L6.2769 57.8123L6.33328 57.8481L6.42041 57.9043L6.48192 57.9401L6.56393 57.9912L6.63056 58.027L6.71257 58.0781L6.7792 58.1139C6.80492 58.1305 6.83243 58.1443 6.86121 58.1548L6.92785 58.1906L7.00985 58.2315L7.07649 58.2672L7.16362 58.303L7.23025 58.3337L7.31226 58.3746L7.38402 58.4001L7.46603 58.4359H7.53779L7.6198 58.4717H7.69156L7.77869 58.5024H7.84532L7.93246 58.533H8.00422H8.09135H8.15798H8.25025H8.31688H8.40914H8.47577H8.56803H8.63466H8.72692H8.79356H8.88582H8.95758H9.04471H9.11647H9.20873H9.25998H9.35737H10.2287H10.3261H10.3876H10.4901H10.5465H10.7054L11.0232 58.4819H11.1206H11.2436H11.3256H11.3974H11.4794H11.5511H11.628H11.6998H11.7766H11.8484H11.9253H11.9919H12.0739H12.1406L12.2174 58.4513H12.2841L12.3661 58.4206H12.4276" fill="#A80000" fill-opacity="0.75"/>
<path d="M26.8565 13.0244L27.3229 15.6416C27.6569 15.5257 27.9997 15.4368 28.348 15.3758L28.5736 15.3451L28.7837 15.3042H28.8555H28.9016H29.0451L29.2501 15.2582H29.3527H29.5577H29.7012H29.8498L29.3783 12.6359C30.1795 12.3223 30.9108 11.8541 31.5302 11.258C32.1496 10.6619 32.6449 9.94982 32.9877 9.16246C33.3306 8.3751 33.5142 7.52799 33.5281 6.66971C33.542 5.81143 33.3859 4.95885 33.0687 4.16087L33.0072 4.01774C33.0081 4.00071 33.0081 3.98365 33.0072 3.96662C33.0072 3.93595 33.0072 3.90017 32.9662 3.8695L32.9406 3.81328C32.9406 3.78261 32.9406 3.75194 32.8996 3.72638L32.8381 3.61903C32.8275 3.58871 32.8138 3.55958 32.797 3.53214L32.7765 3.50147C32.765 3.47155 32.7513 3.44251 32.7355 3.41457L32.7048 3.35834L32.6587 3.27655L32.6279 3.22544L32.551 3.09254L32.469 2.95963L32.4383 2.91874L32.3819 2.83184C32.3687 2.81567 32.3567 2.79859 32.346 2.78073L32.2947 2.70916L32.2537 2.65294L32.2025 2.58137L32.1615 2.53026L32.1102 2.45869L32.0692 2.40758L32.0077 2.33601L31.9718 2.29001L31.8744 2.17755L31.7719 2.0651C31.7613 2.05192 31.7493 2.03992 31.7361 2.02932L31.6694 1.95775L31.6233 1.91175L31.5618 1.85041L31.5157 1.8044L31.4541 1.74818L31.408 1.70217L31.3465 1.64594L31.3004 1.57438L31.2337 1.51815L31.1825 1.45681L31.1107 1.39547L31.0646 1.35969L30.9518 1.2728L30.9057 1.23701L30.834 1.18079L30.7878 1.16034L30.7212 1.11433L30.6648 1.07344L30.5982 1.03255L30.5418 0.991656L30.4649 0.945651L30.4034 0.904758L30.3368 0.863865L30.2753 0.833196L30.2035 0.792302L30.1471 0.761633L30.0446 0.705405L29.9729 0.669623L29.8908 0.623619L29.8293 0.598061C29.8087 0.583487 29.7863 0.571472 29.7627 0.562279L29.7012 0.531609L29.6294 0.495828L29.5628 0.47027L29.4859 0.434488H29.4244L29.3475 0.383372L29.286 0.357814L29.204 0.327144H29.1476L29.04 0.270916H28.9785L28.8657 0.214688H28.8093L28.7376 0.173795H28.671H28.5941H28.5274H28.4454H28.3839H28.3019L28.225 0.0511163H28.1379H28.0815L27.9329 0H27.7894H27.7381H27.6407H27.4254H27.3383H26.6361H26.5233H26.467H26.3696H26.3081H26.2158H26.1748H26.0825H26.0262H25.9236H25.8724H25.7801H25.7135H25.6212H25.5546H25.4623H25.3957H25.2983H25.2368L25.1343 0.0306698H25.083L24.9703 0.0613395H24.9242L24.7653 0.117567L24.6115 0.173795C23.2066 0.736177 22.0388 1.76406 21.3047 3.08444C20.5706 4.40483 20.315 5.9371 20.5809 7.42339C20.8469 8.90967 21.6181 10.2592 22.7648 11.2449C23.9115 12.2306 25.3637 12.7922 26.877 12.8353L26.8565 13.0244Z" fill="#F0783C"/>
<path d="M59.8651 36.9437C59.1625 36.8287 58.4457 36.8287 57.7431 36.9437C56.829 37.1033 55.9601 37.4571 55.1951 37.9809C54.4302 38.5048 53.7871 39.1866 53.3095 39.98L46.5488 37.5264L47.7738 40.711L52.4381 42.408C52.1818 44.1281 52.6178 45.8794 53.6509 47.2803C54.684 48.6811 56.2305 49.6179 57.9532 49.8863L58.1531 49.9119H58.2557H58.4658H58.6144H58.8092H59.2756H59.4602H59.5729H59.6242H59.7216H59.778H59.9215H60.0804L60.2598 49.8761H60.352H60.4084L60.5468 49.8403L60.7057 49.7994L60.8697 49.7483L61.0132 49.7023L61.1516 49.6563L61.3054 49.6001L61.4643 49.5336L61.5975 49.4774L61.7308 49.4161L61.8794 49.3394L62.0281 49.2627L62.1562 49.1911L62.2844 49.1196L62.4228 49.0327L62.5611 48.9407C62.6045 48.9172 62.6457 48.8898 62.6842 48.8589L62.802 48.772L62.9353 48.6749L63.0788 48.4857L63.1916 48.3886L63.2992 48.2915C63.3402 48.2608 63.3761 48.2251 63.4274 48.179L63.5453 48.0666L63.6478 47.9592L63.7452 47.8519L63.863 47.7241L63.9656 47.6014C63.9656 47.5759 64.0117 47.5452 64.0578 47.489L64.1501 47.3714L64.2526 47.2283C64.2526 47.1976 64.2987 47.1618 64.3448 47.0954L64.4269 46.9727C64.4269 46.9318 64.4781 46.896 64.5037 46.85L64.596 46.6916C64.6245 46.6472 64.6502 46.6011 64.6729 46.5535C64.6729 46.5229 64.7088 46.4871 64.7446 46.4206L64.8113 46.2877L64.8882 46.1191L64.9548 45.9708C64.9548 45.9402 64.9548 45.9044 65.0112 45.8328L65.0624 45.6948C65.0624 45.6437 65.0983 45.5977 65.1239 45.5108C65.1443 45.4608 65.1614 45.4096 65.1752 45.3574C65.1752 45.3268 65.1752 45.291 65.2162 45.2143C65.2572 45.1376 65.2418 45.1172 65.2572 45.0661C65.2726 45.0149 65.2572 44.9689 65.3033 44.8718C65.3495 44.7747 65.3033 44.8003 65.3341 44.7185C65.3648 44.6367 65.3341 44.6469 65.3648 44.5651C65.3956 44.4833 65.3648 44.4629 65.3648 44.4118C65.6199 42.6954 65.1852 40.948 64.1553 39.5495C63.1254 38.1511 61.5836 37.2146 59.8651 36.9437Z" fill="#F0783C"/>
<path d="M47.3843 25.4039L47.5125 25.5368L47.6304 25.6543L47.7483 25.7668L47.8815 25.8843L47.9943 25.9815L48.1378 26.0939L48.2608 26.1859L48.3941 26.2831L48.5325 26.3802L48.6606 26.462L48.8093 26.554L48.9323 26.6255L49.086 26.7124L49.2296 26.784L49.3731 26.8556L49.5217 26.922L49.6601 26.9833L49.819 27.0447L49.9471 27.0958L50.1112 27.152L50.2649 27.198L50.4084 27.244L50.5725 27.2849L50.7108 27.3156L50.8749 27.3514L51.0184 27.3821L51.1824 27.4076H51.3413H51.4848H51.654H51.8026H51.9717H52.1153C52.1614 27.4076 52.2075 27.4076 52.2844 27.4076H52.5919H52.756H52.8995H53.0635H53.2121H53.3813L53.5197 27.3769L53.6939 27.3412L53.8375 27.3054L53.9758 27.2645L54.145 27.2134L54.2834 27.1674L54.4423 27.1111L54.5909 27.0549L54.7242 26.9987L54.8882 26.9271L55.0266 26.8607L55.1547 26.7942C55.2113 26.769 55.2661 26.74 55.3187 26.7073L55.452 26.6358L55.5853 26.554L55.7339 26.4568L55.8569 26.3751L56.0004 26.2728L56.1337 26.1757L56.2516 26.0837L56.3951 25.961L56.513 25.8588L56.6258 25.7566C57.8864 24.5626 58.6212 22.919 58.6693 21.1859C58.7173 19.4527 58.0746 17.7712 56.882 16.5096C56.8437 16.4614 56.8007 16.4169 56.7539 16.3767L56.636 16.254L56.5181 16.1467L56.3849 16.0291L56.2721 15.932L56.1337 15.8195L56.0107 15.7224L55.8723 15.6253L55.7339 15.5333L55.6058 15.4464L55.4571 15.3595L55.3341 15.2828L55.1803 15.201L55.042 15.1295L54.8984 15.0579L54.7447 14.9864L54.6114 14.9301L54.4525 14.8688L54.3193 14.8177L54.1552 14.7614L54.0066 14.7154L53.858 14.6694L53.6991 14.6285L53.5555 14.5928L53.3915 14.557H53.2531L53.084 14.5314L52.9302 14.5059H52.7765H52.6124H52.474H51.8026H51.654H51.4899H51.3464H51.1773H51.0338L50.8646 14.5365H50.7262L50.552 14.5774L50.4084 14.6132L50.27 14.649L50.1009 14.7001L49.9574 14.7461L49.8036 14.8023L49.655 14.8637L49.5166 14.9199L49.3577 14.9864L49.2193 15.0528L49.0912 15.1193L48.9271 15.2062L48.7939 15.2828L48.6606 15.3646L48.512 15.4566L48.389 15.5384L48.2454 15.6406L48.1122 15.7429L47.9943 15.8349L47.8508 15.9525L47.7329 16.0598L47.6201 16.162C46.954 16.7867 46.4272 17.5441 46.074 18.3852C45.7207 19.2262 45.549 20.132 45.5699 21.0436C45.5861 21.7862 45.7282 22.5208 45.9902 23.2161L39.0296 27.3974C38.8215 28.2649 38.3291 29.0385 37.6304 29.5954C37.4253 30.3724 37.1094 31.1161 36.6924 31.8036L47.3843 25.4039Z" fill="#F0783C"/>
<path d="M43.5291 35.5372C42.3348 35.1947 39.5773 34.4279 37.7679 34.1212C37.5028 34.0779 37.2465 33.9916 37.0094 33.8657L34.7746 32.7104L34.626 31.8823C35.4303 30.9439 35.9715 29.81 36.1944 28.5956C36.6542 28.3625 37.0269 27.9884 37.2575 27.5283C37.4882 27.0682 37.5647 26.5464 37.4758 26.0398L37.2195 24.6034C37.1701 24.323 37.0394 24.0632 36.8436 23.856C36.6477 23.6489 36.3953 23.5036 36.1175 23.4379L35.6818 21.0048C35.5569 20.2739 35.2624 19.5823 34.8219 18.985C34.3814 18.3877 33.8071 17.9013 33.1447 17.5647C33.1037 17.5647 33.0627 17.5238 29.2646 16.9053H29.1672H28.9981L28.8597 16.9308H28.6495C27.2779 17.2062 26.0249 17.897 25.0616 18.909C24.558 19.4513 24.1882 20.1034 23.9817 20.8133C23.7753 21.5233 23.7379 22.2714 23.8725 22.9983L24.2825 25.4826C24.0461 25.6383 23.8608 25.8599 23.7496 26.1198C23.6384 26.3798 23.6063 26.6665 23.6572 26.9445L23.9135 28.3809C24.0049 28.8941 24.2587 29.3646 24.6379 29.7234C25.017 30.0821 25.5014 30.3103 26.0201 30.3744C26.6519 31.4401 27.5533 32.3214 28.6342 32.9302L28.7777 33.7583L27.0862 35.5934C26.9073 35.7968 26.696 35.9695 26.4609 36.1045C24.8669 37.0042 22.545 38.6604 21.5404 39.3811C21.3837 39.4907 21.2555 39.636 21.1664 39.8049C21.0772 39.9738 21.0297 40.1615 21.0278 40.3523L20.915 49.4101C20.997 49.6504 21.1406 49.8599 22.1657 50.1769L47.3887 45.4946C47.5152 45.2757 47.579 45.0264 47.5732 44.7739L44.3287 36.2886C44.2636 36.1097 44.1574 35.9485 44.0185 35.818C43.8797 35.6875 43.712 35.5913 43.5291 35.5372Z" fill="#F0783C"/>
<path d="M9.87532 32.3066C10.548 32.3995 11.231 32.3874 11.8999 32.2708C12.8325 32.1093 13.7182 31.746 14.4948 31.2064C15.2714 30.6668 15.92 29.9641 16.3951 29.1476L25.5493 32.4702C25.3659 32.2533 25.1948 32.0263 25.0368 31.7903C24.3474 31.5564 23.7336 31.1422 23.2594 30.5911C22.7852 30.0399 22.4679 29.372 22.3407 28.6569V28.57L17.2613 26.7247C17.4858 25 17.0175 23.2567 15.9585 21.875C14.8994 20.4932 13.3355 19.5851 11.6078 19.3486H11.4079H11.249H11.1003H10.9107H10.4238H10.2546H10.1008H9.95733H9.77281L9.61904 19.3742H9.47552L9.31663 19.4049L9.14236 19.4458L8.99372 19.4866L8.8502 19.5275L8.71181 19.5684L8.53242 19.6298L8.3889 19.6809L8.25564 19.7371L8.12237 19.7933C8.06425 19.8149 8.00773 19.8405 7.95323 19.87L7.81484 19.9365L7.68157 20.0029L7.55343 20.0694L7.39966 20.1614L7.2664 20.2432L7.14339 20.3198L7.02037 20.4016L6.87686 20.5039L6.74872 20.601C6.70944 20.6295 6.6718 20.6603 6.63595 20.693L6.52319 20.785L6.38993 20.8821L6.26691 20.9946L6.15927 21.0968L6.05676 21.199L5.95425 21.3064L5.83124 21.4444L5.72873 21.5569L5.63647 21.6693L5.54933 21.7869L5.43657 21.9351L5.34943 22.0629C5.31836 22.1012 5.2909 22.1423 5.26742 22.1856C5.23651 22.224 5.20906 22.265 5.18541 22.3083L5.09315 22.4616C5.09315 22.4974 5.05727 22.5281 5.01114 22.5996L4.94451 22.7325C4.94451 22.7683 4.90863 22.799 4.87788 22.8654C4.84742 22.9183 4.82004 22.973 4.79587 23.029L4.72924 23.1772L4.67286 23.3204C4.67286 23.351 4.64723 23.3868 4.6216 23.4584C4.59597 23.5299 4.58572 23.5504 4.56009 23.622C4.53447 23.6935 4.56009 23.7037 4.50884 23.7906L4.46271 23.9491C4.46271 23.9798 4.46271 24.0156 4.4217 24.0973C4.3807 24.1791 4.4217 24.1945 4.3807 24.2558L4.33969 24.4603C4.33969 24.496 4.33969 24.5267 4.30894 24.6136C4.27819 24.7005 4.30894 24.6852 4.30894 24.767C4.30894 24.8487 4.30894 24.8692 4.30894 24.9203C4.07992 26.6335 4.53509 28.3679 5.57633 29.7496C6.61756 31.1312 8.16149 32.0496 9.87532 32.3066Z" fill="#F0783C"/>
<path d="M13.6221 46.9518L13.5708 46.9212L13.4786 46.8547L13.4222 46.8189L13.3607 46.7474L13.2992 46.7116C13.2719 46.6917 13.2427 46.6746 13.2121 46.6605L13.1505 46.6247L13.0685 46.5736L13.0019 46.5378L12.9199 46.4918L12.8481 46.4407H12.7456L12.6739 46.4049L12.5919 46.364L12.5252 46.3333L12.4432 46.2976L12.3715 46.2669L12.2895 46.2362L12.2177 46.2055L12.1306 46.1749H12.0639L11.9768 46.1442H11.905H11.823H11.7513H11.6641H11.5924H11.5052H11.4335H11.3463H11.2746H11.1875H11.1157H11.0286H10.9568H10.8697H10.7979H10.7108H10.639H10.5468H10.475H10.3161H10.2238H9.3525H9.24998H9.1936H9.02958H8.84506H8.71692L8.56316 46.1749L8.37351 46.2158L8.26075 46.2413L8.23512 45.9295H8.13261H8.07623H7.98397H7.92246L7.83532 45.9551H7.77382L7.69181 45.9857H7.62517L7.54317 46.0164L7.47653 46.042L7.39965 46.0726L7.33302 46.0982L7.25613 46.134L7.1895 46.1647L7.11262 46.1953L7.04598 46.226L6.9691 46.2669L6.90759 46.2976L6.83071 46.3333L6.7692 46.3691L6.69232 46.41L6.63081 46.4458L6.55905 46.4867L6.49242 46.5225L6.42066 46.5685L6.35916 46.6094L6.2874 46.6554L6.22589 46.6912L6.15926 46.7423L6.09775 46.7832L6.02599 46.8343L5.96961 46.8752L5.90298 46.9263L5.84147 46.9723L5.77484 47.0285C5.75367 47.0407 5.73463 47.0562 5.71846 47.0745L5.65183 47.1256L5.59545 47.1768L5.52881 47.233L5.47243 47.2841L5.41092 47.3403L5.35454 47.3914L5.29304 47.4528C5.27726 47.4711 5.26013 47.4882 5.24178 47.5039L5.15977 47.7186L5.11364 47.7697L5.04701 47.8362L5.00088 47.8873L4.92912 47.9742L4.88299 48.0253L4.82148 48.102L4.77535 48.148L4.70872 48.2349L4.67284 48.2809L4.57546 48.4138C3.55645 49.8272 3.13431 51.583 3.39982 53.3036C3.66532 55.0242 4.59726 56.5722 5.99524 57.6147L6.13363 57.7169L6.18489 57.7476L6.27715 57.8141L6.33353 57.8498L6.42066 57.9061L6.48217 57.9418L6.56418 57.993L6.63081 58.0287L6.71282 58.0799L6.77945 58.1156C6.80517 58.1323 6.83268 58.146 6.86146 58.1565L6.9281 58.1923L7.01011 58.2332L7.07674 58.269L7.16387 58.3048L7.23051 58.3354L7.31251 58.3763L7.38427 58.4019L7.46628 58.4377H7.53804L7.62005 58.4735H7.69181L7.77894 58.5041H7.84557L7.93271 58.5348H8.00447H8.0916H8.15824H8.2505H8.31713H8.40939H8.47602H8.56828H8.63491H8.72717H8.79381H8.88607H8.95783H9.04496H9.11672H9.20898H9.26023H9.35762H10.229H10.3264H10.3879H10.4904H10.5468H10.7056L11.0234 58.4837H11.1208H11.2438H11.3258H11.3976H11.4796H11.5514H11.6283H11.7H11.7769H11.8487H11.9255H11.9922H12.0742H12.1408L12.2177 58.453H12.2843L12.3663 58.4223H12.4278L12.5099 58.3917L12.5714 58.361L12.6534 58.3252L12.7149 58.2946L12.7918 58.2588L12.8481 58.1974L12.9302 58.1565L12.9865 58.1259L13.0685 58.0799L13.1249 58.0492L13.2018 58.0032L13.2633 57.9674L13.3351 57.9214L13.3966 57.8856L13.4683 57.8396L13.5298 57.7987L13.6016 57.7527L13.658 57.7118L13.7297 57.6607L13.7861 57.6198L13.8579 57.5636L13.9143 57.5227L13.986 57.4665L14.0373 57.4205L14.109 57.3642L14.1603 57.3182L14.232 57.2569L14.2833 57.2109L14.3858 57.1751L14.4371 57.1291L14.5037 57.0626L14.555 57.0166L14.6165 56.9502C14.6322 56.9319 14.6494 56.9148 14.6677 56.8991L14.7292 56.8275L14.7754 56.7764C14.8002 56.7551 14.8225 56.7311 14.842 56.7048C14.8584 56.6902 14.8722 56.6729 14.883 56.6537L14.9496 56.577L14.9906 56.5259C15.0144 56.4999 15.0366 56.4726 15.0573 56.4441L15.0931 56.3981C15.129 56.3572 15.1598 56.3112 15.1957 56.2652C15.9598 55.2126 16.3976 53.9595 16.455 52.6612C16.5124 51.363 16.1868 50.0764 15.5186 48.9607L19.373 45.7046L19.414 42.29L13.7759 47.0541L13.6221 46.9518Z" fill="#F0783C"/>
</svg>
