<svg width="66" height="62" viewBox="0 0 66 62" fill="none" xmlns="http://www.w3.org/2000/svg">
<path d="M25.8859 7.89789L24.219 11.0504L23.8867 4.70598L25.5593 1.54785L25.8859 7.89789Z" fill="#A80000" fill-opacity="0.75"/>
<path d="M24.2079 7.875L22.5184 11.0331C22.4921 11.0857 22.4483 11.1275 22.3945 11.1514L24.084 7.99322C24.1368 7.96795 24.1802 7.92654 24.2079 7.875Z" fill="#A80000" fill-opacity="0.75"/>
<path d="M25.7676 9.20792L24.0781 12.3661C24.2254 11.9434 24.266 11.4909 24.1964 11.0488L25.8859 7.89062C25.9614 8.33254 25.9207 8.78651 25.7676 9.20792Z" fill="#A80000" fill-opacity="0.75"/>
<path d="M24.0842 8.0127L22.3948 11.1708C22.1267 11.1919 21.8575 11.1919 21.5895 11.1708H21.3867L23.0762 8.0127H23.2789C23.5469 8.03372 23.8162 8.03372 24.0842 8.0127Z" fill="#A80000" fill-opacity="0.75"/>
<path d="M23.0759 7.98615L21.3864 11.1443L20.8233 11.1161H20.7275L22.417 7.95801H22.5071H23.1041" fill="#A80000" fill-opacity="0.75"/>
<path d="M49.1055 22.8154L47.433 25.9736L42.0098 26.2269L43.6823 23.0688L49.1055 22.8154Z" fill="#A80000" fill-opacity="0.75"/>
<path d="M43.6818 23.0705L41.9924 26.2287C41.1983 26.2681 41.0857 26.1949 41.0068 26.0429L42.6963 22.8848C42.7751 23.0368 42.8934 23.1099 43.6875 23.0705" fill="#A80000" fill-opacity="0.75"/>
<path d="M22.3894 7.95801L20.6999 11.1161H20.3789C19.6088 11.1804 18.8691 11.4456 18.2336 11.8852C17.5982 12.3248 17.0893 12.9234 16.7578 13.6213L18.4473 10.4631C18.7787 9.7653 19.2876 9.16667 19.9231 8.72706C20.5585 8.28745 21.2983 8.02227 22.0684 7.95801H22.3894Z" fill="#A80000" fill-opacity="0.75"/>
<path d="M42.6912 22.8823L41.0018 26.0404C40.8497 25.7308 41.0975 25.2073 41.0356 24.0307C40.906 21.4411 38.1747 19.6791 35.8714 19.7861C34.9958 19.8598 34.1516 20.1467 33.4124 20.6216C32.6732 21.0966 32.0616 21.7451 31.6309 22.5107L33.3203 19.3526C33.7499 18.5799 34.3639 17.9253 35.1077 17.447C35.8514 16.9687 36.7019 16.6816 37.5834 16.6111C39.8867 16.5041 42.6124 18.2661 42.7475 20.8557C42.8095 22.0322 42.5561 22.5445 42.7081 22.8654" fill="#A80000" fill-opacity="0.75"/>
<path d="M56.4541 32.2976L54.7646 35.4557L54.866 35.1855L56.5555 32.0273C56.5142 32.1212 56.4804 32.2112 56.4541 32.2976Z" fill="#A80000" fill-opacity="0.75"/>
<path d="M25.9706 15.5664L24.2811 18.7245C23.2167 18.7245 23.1548 18.7752 23.0703 18.809L24.7598 15.6508C24.8386 15.6171 24.9118 15.5833 25.9762 15.5664" fill="#A80000" fill-opacity="0.75"/>
<path d="M26.3875 17.5142L24.698 20.6723C24.636 19.4507 24.5741 19.0398 24.2812 18.7245L25.9707 15.5664C26.2579 15.8817 26.3199 16.2926 26.3875 17.5142Z" fill="#A80000" fill-opacity="0.75"/>
<path d="M1.72682 5.55493L0.0373596 8.71306C-0.0578042 8.027 0.0296049 7.32799 0.290779 6.68645L1.98024 3.52832C1.71671 4.16923 1.62922 4.86889 1.72682 5.55493Z" fill="#A80000" fill-opacity="0.75"/>
<path d="M62.7336 34.207L61.0441 37.3652C60.9162 37.6032 60.7592 37.8244 60.5767 38.0238C59.6644 39.0259 58.6169 39.1103 58.3691 39.5888L60.0586 36.4307C60.312 35.9522 61.3595 35.8677 62.2718 34.8657C62.4525 34.6662 62.6077 34.4449 62.7336 34.207Z" fill="#A80000" fill-opacity="0.75"/>
<path d="M24.7546 15.6466L23.0651 18.8047L22.2992 19.0918L22.1134 19.1425L21.9163 19.1876H21.8149H21.7136H21.5953H21.4939H21.3644C20.5016 19.2289 19.6575 18.927 19.0169 18.3478C18.3763 17.7686 17.9912 16.9593 17.9461 16.097C17.908 15.5109 18.0348 14.9259 18.3121 14.4081L20.0016 11.25C19.7251 11.7682 19.5966 12.3525 19.6299 12.9388C19.678 13.8011 20.0646 14.6095 20.7058 15.1883C21.347 15.767 22.1909 16.0693 23.0539 16.0294H23.1778H23.2848H23.3974H23.5044H23.6058L23.8029 15.9844L23.9887 15.9337L24.749 15.6466" fill="#A80000" fill-opacity="0.75"/>
<path d="M33.0779 23.3799L31.3885 26.538C31.3209 26.6619 31.1576 26.735 30.4424 26.7688L32.1375 23.6388C32.8527 23.6051 33.016 23.5319 33.0779 23.408" fill="#A80000" fill-opacity="0.75"/>
<path d="M45.2366 32.418L43.5472 35.5761C43.5202 35.5331 43.5059 35.4833 43.5059 35.4325C43.5059 35.3818 43.5202 35.332 43.5472 35.289L45.2366 32.1309C45.2109 32.1743 45.1973 32.2239 45.1973 32.2744C45.1973 32.3249 45.2109 32.3745 45.2366 32.418Z" fill="#A80000" fill-opacity="0.75"/>
<path d="M32.1377 23.6074L30.4652 26.7656L25.042 27.0076L26.7146 23.8495L32.1377 23.6074Z" fill="#A80000" fill-opacity="0.75"/>
<path d="M26.714 23.8522L25.0415 27.0104L24.7148 20.6659L26.3874 17.5078L26.714 23.8522Z" fill="#A80000" fill-opacity="0.75"/>
<path d="M25.1378 23.9297L23.4652 27.0878L17.1016 27.3862L18.7685 24.228L25.1378 23.9297Z" fill="#A80000" fill-opacity="0.75"/>
<path d="M47.489 39.3954L45.7995 42.5535C46.7456 40.7633 46.7005 38.2244 45.1406 36.8114C44.2621 36.0177 43.6877 35.8826 43.5469 35.5673L45.2363 32.4092C45.3771 32.7244 45.9459 32.8595 46.8244 33.6533C48.3844 35.0663 48.4294 37.5939 47.489 39.3954Z" fill="#A80000" fill-opacity="0.75"/>
<path d="M18.7683 24.2275L17.0788 27.3857C15.8455 27.442 15.44 27.5039 15.1246 27.791C15.0734 27.8385 15.0297 27.8936 14.9951 27.9542L16.6846 24.7961C16.7172 24.7341 16.7611 24.6787 16.8141 24.6329C17.1238 24.3458 17.5293 24.2838 18.7626 24.2275" fill="#A80000" fill-opacity="0.75"/>
<path d="M18.6211 30.1324L16.9316 33.2906C17.2596 32.6914 17.4174 32.0139 17.3878 31.3315C17.3258 30.1549 17.0217 29.6427 17.14 29.333C17.14 29.333 17.14 29.333 17.14 29.288L18.8295 26.1299C18.8275 26.1448 18.8275 26.16 18.8295 26.1749C18.7112 26.4958 19.0153 26.9968 19.0773 28.1734C19.1043 28.8555 18.9467 29.5323 18.6211 30.1324Z" fill="#A80000" fill-opacity="0.75"/>
<path d="M2.75191 24.9791L1.07934 28.1316L0.0712891 8.70989L1.74386 5.55176L2.75191 24.9791Z" fill="#A80000" fill-opacity="0.75"/>
<path d="M9.12659 24.6777L7.45402 27.8359L1.0791 28.1286L2.75167 24.9761L9.12659 24.6777Z" fill="#A80000" fill-opacity="0.75"/>
<path d="M16.9942 29.2105L15.3048 32.3686C15.0426 32.8664 14.6546 33.2868 14.1794 33.5881C13.7041 33.8893 13.1582 34.0608 12.596 34.0856C11.7339 34.1255 10.8909 33.824 10.2498 33.2464C9.6088 32.6689 9.22151 31.8619 9.17202 31.0006C9.09318 29.385 10.0843 28.5574 9.41981 28.0564C9.07628 27.8031 8.66518 27.7806 7.4375 27.8369L9.12696 24.6787C10.349 24.6224 10.7601 24.645 11.1093 24.8983C11.7682 25.3993 10.777 26.2268 10.8615 27.8425C10.9024 28.7083 11.2853 29.5224 11.9263 30.1061C12.5672 30.6898 13.4137 30.9953 14.2798 30.9556C14.843 30.9318 15.3901 30.7607 15.8664 30.4594C16.3427 30.1582 16.7316 29.7372 16.9942 29.2386" fill="#A80000" fill-opacity="0.75"/>
<path d="M31.9344 38.167L30.2449 41.3251C29.9817 41.8237 29.5928 42.2449 29.1167 42.547C28.6406 42.8491 28.0938 43.0217 27.5305 43.0477H27.0912H26.9955H26.8829H26.6914L28.3809 39.8896H28.578H28.6906H28.7807H29.2256C29.788 39.8626 30.3336 39.6896 30.8086 39.3875C31.2836 39.0854 31.6716 38.6647 31.9344 38.167Z" fill="#A80000" fill-opacity="0.75"/>
<path d="M28.3813 39.8393L26.6919 42.9974C25.7796 42.7554 25.7345 42.7385 25.6895 42.7216L27.3789 39.5635C27.424 39.5635 27.469 39.5973 28.3757 39.8393" fill="#A80000" fill-opacity="0.75"/>
<path d="M27.3836 39.5635L25.6942 42.7216C25.0015 42.9299 24.6523 43.1382 24.4834 43.4534L26.1729 40.2953C26.3418 39.9801 26.691 39.7718 27.3836 39.5635Z" fill="#A80000" fill-opacity="0.75"/>
<path d="M66 42.5908L64.3331 45.749L51.3242 60.0534L52.9912 56.8953L66 42.5908Z" fill="#A80000" fill-opacity="0.75"/>
<path d="M48.807 57.1439L47.1344 60.302L32.667 47.2304L34.3339 44.0723L48.807 57.1439Z" fill="#A80000" fill-opacity="0.75"/>
<path d="M52.9735 56.9004L51.284 60.0585C51.2277 60.1261 50.2197 61.3983 49.2285 61.4434L50.918 58.2852C51.9035 58.2402 52.9172 56.9679 52.9679 56.9004" fill="#A80000" fill-opacity="0.75"/>
<path d="M50.941 58.2831L49.2515 61.4413C48.266 61.4919 47.1791 60.366 47.1172 60.3154L48.8067 57.1572C48.863 57.2192 49.933 58.345 50.941 58.2831Z" fill="#A80000" fill-opacity="0.75"/>
<path d="M3.83267 45.9359L2.1601 49.094L1.16895 29.8525L2.83588 26.6943L3.83267 45.9359Z" fill="#A80000" fill-opacity="0.75"/>
<path d="M26.3816 47.957L24.7091 51.1152L5.30273 52.0159L6.96967 48.8577L26.3816 47.957Z" fill="#A80000" fill-opacity="0.75"/>
<path d="M4.62144 48.226L2.93197 51.3841C2.18861 50.7142 2.14355 49.1774 2.14355 49.0986L3.83302 45.9404C3.83302 46.0192 3.8837 47.5561 4.62144 48.226Z" fill="#A80000" fill-opacity="0.75"/>
<path d="M6.96946 48.8559L5.28 52.014C5.20116 52.014 3.66937 52.0478 2.93164 51.3779L4.62111 48.2197C5.36447 48.8896 6.87373 48.8615 6.96946 48.8559Z" fill="#A80000" fill-opacity="0.75"/>
<path d="M37.5662 16.55C39.8695 16.443 42.5951 18.205 42.7303 20.7889C42.7922 21.9711 42.5388 22.4778 42.6909 22.8043C42.7697 22.9563 42.888 23.0238 43.682 22.9901L49.1052 22.7367L48.0859 3.06175C48.0864 2.65084 48.0038 2.24407 47.8432 1.86583C47.6825 1.4876 47.4471 1.14569 47.1511 0.860632C46.9262 0.744377 46.6851 0.662766 46.4358 0.618565C46.3908 0.618565 46.3457 0.618565 45.1237 0.556641L25.5597 1.46861L25.8863 7.81302C25.9539 9.04025 25.9314 9.4512 24.546 9.85652C24.5179 9.85652 24.4897 9.85652 23.5661 9.58631H23.369H23.2564H22.7214C22.2967 9.6051 21.88 9.70742 21.495 9.88742C21.1099 10.0674 20.7642 10.3216 20.4775 10.6353C20.1909 10.949 19.9689 11.3162 19.8244 11.7158C19.6799 12.1154 19.6156 12.5395 19.6353 12.964C19.6848 13.8252 20.0721 14.6322 20.7131 15.2098C21.3542 15.7874 22.1972 16.0889 23.0593 16.0489H23.1832H23.2902H23.4028H23.5098H23.6112L23.8083 16.0039L23.9941 15.9532L24.7544 15.6605C24.8332 15.6267 24.9064 15.5929 25.9708 15.5817C26.258 15.8913 26.3199 16.3023 26.3875 17.5295L26.7142 23.8739L32.1373 23.5249C32.937 23.4911 33.044 23.4066 33.1003 23.249C33.2186 22.9338 32.9089 22.4328 32.8469 21.2506C32.7005 18.7623 35.2516 16.6569 37.5662 16.55Z" fill="#F0783C"/>
<path d="M11.1088 24.8208C11.7677 25.3218 10.7766 26.1494 10.861 27.7594C10.9091 28.6206 11.295 29.4282 11.935 30.0068C12.5749 30.5854 13.4174 30.8884 14.2794 30.85C14.7036 30.8305 15.1197 30.7276 15.5041 30.5473C15.8885 30.367 16.2336 30.1127 16.5196 29.7991C16.8057 29.4854 17.0271 29.1185 17.1713 28.7192C17.3155 28.32 17.3795 27.8963 17.3599 27.4723C17.2754 25.8623 16.2335 25.1304 16.7967 24.5731C17.1064 24.286 17.5119 24.2241 18.7452 24.1678L25.1145 23.8694L24.8386 18.4651C24.7935 17.677 24.7147 17.5701 23.9544 17.5419L23.6841 17.5982L23.3912 17.6489L23.0534 17.6995L22.6535 17.7333H22.5634C20.063 17.8515 17.9399 15.3239 17.8216 13.0158C17.7034 10.7077 19.4548 8.01123 22.0566 7.89301H22.3776H22.4677L23.0646 7.92679H23.2674C23.5353 7.94908 23.8047 7.94908 24.0727 7.92679C24.2191 7.8536 24.2923 7.74101 24.2529 6.94163L23.9713 1.54297L4.71702 2.43805H4.59876C3.78938 2.62198 2.99197 2.8551 2.21098 3.13611C1.52957 3.88483 1.72667 5.3879 1.72667 5.47234L2.73472 24.894L9.10963 24.5956C10.3486 24.5393 10.7372 24.5619 11.1088 24.8208Z" fill="#F0783C"/>
<path d="M61.2584 38.2343C60.3461 37.4068 60.0701 37.1084 60.0082 36.6806C59.8956 35.8643 61.1796 35.9825 62.2608 34.7834C62.5469 34.4671 62.7676 34.0975 62.9103 33.6956C63.053 33.2938 63.1149 32.8677 63.0924 32.4419C63.0699 32.0161 62.9634 31.599 62.7792 31.2144C62.5949 30.8298 62.3365 30.4855 62.0187 30.2011C61.9382 30.1269 61.8535 30.0574 61.7652 29.9928C61.5472 29.8338 61.3108 29.7015 61.0613 29.5987C60.7031 29.4522 60.3218 29.3702 59.935 29.3566H59.6985H59.4676C59.0511 29.4093 58.6482 29.5392 58.2793 29.7394C58.0648 29.8541 57.866 29.996 57.688 30.1616C57.6035 30.2348 57.5247 30.308 56.5617 31.8899C56.5223 31.9856 56.4885 32.07 56.4603 32.1545C56.4322 32.2389 56.404 32.2783 55.7564 32.8188C55.3284 32.8188 54.9961 32.5598 54.0669 31.7323L49.3308 27.4482L45.6928 31.4508C45.1296 32.0137 45.1296 32.1714 45.2141 32.3234C45.3549 32.633 45.9237 32.7737 46.8022 33.5675C48.6606 35.2563 48.3734 38.527 46.8022 40.2328L46.1602 40.7957L46.0588 40.8633C46.0588 40.8633 45.9969 40.9083 45.1803 41.3699L45.0621 41.4206C45.0226 41.4206 44.9888 41.4544 44.2004 41.7133C44.116 41.7133 44.0371 41.7471 42.5729 41.8484C42.4997 41.8484 42.4321 41.8484 41.7789 41.7189C41.4876 41.6242 41.2018 41.5134 40.9229 41.3868C40.8891 41.3868 40.8609 41.3474 40.2358 40.9196L40.1513 40.8407C39.2728 40.047 39.0757 39.4953 37.8987 39.9513L34.2607 43.9482L48.7338 57.0255C48.7901 57.0874 49.8601 58.2077 50.8682 58.1514C51.8762 58.0951 52.8674 56.8341 52.9181 56.7665L65.927 42.462L61.2584 38.2343Z" fill="#F0783C"/>
<path d="M28.8882 33.339H28.7587H28.6517H28.539H28.4377H28.3307L28.1335 33.3784L27.9477 33.429L27.2325 33.7724C26.8164 33.8471 26.3935 33.8773 25.971 33.8625C25.6895 33.5529 25.6219 33.1476 25.5543 31.9204L25.2277 25.5703L19.8045 25.818C19.0104 25.8574 18.9034 25.9419 18.8471 26.0995C18.7289 26.4204 19.033 26.9214 19.0949 28.0923C19.2188 30.5805 16.6902 32.686 14.3813 32.7929C12.0724 32.8999 9.34669 31.1379 9.21154 28.5539C9.14959 27.3774 9.40301 26.8651 9.25096 26.5442C9.17775 26.3978 9.05948 26.3247 8.26544 26.3584L2.85352 26.6118L3.83341 45.8533C3.83341 45.9377 3.88409 47.4746 4.62182 48.1445C5.35956 48.8144 6.87444 48.7806 6.97018 48.7806L26.3821 47.8799L26.0555 41.5299C25.9879 40.3083 26.0161 39.8917 27.3846 39.4864L28.3813 39.7622H28.5784H28.6911H28.7587H28.8769H29.2035C29.6279 39.7434 30.0445 39.6411 30.4292 39.461C30.8139 39.2809 31.1593 39.0267 31.4455 38.7129C31.7317 38.399 31.9531 38.0318 32.097 37.6323C32.2409 37.2327 32.3044 36.8087 32.284 36.3845C32.2274 35.5343 31.8406 34.7399 31.2062 34.1709C30.5717 33.6019 29.7398 33.3033 28.8882 33.339Z" fill="#F0783C"/>
</svg>
