<svg width="60" height="68" viewBox="0 0 60 68" fill="none" xmlns="http://www.w3.org/2000/svg">
<path d="M47.8686 14.2561L43.7832 16.0959C43.8317 16.0037 43.8877 15.9158 43.9506 15.833C44.0427 15.7161 44.1466 15.6092 44.2605 15.5139C44.3865 15.4143 44.5239 15.3302 44.6697 15.2636L48.7551 13.4238C48.6092 13.4905 48.4719 13.5745 48.3459 13.6741C48.2334 13.771 48.1296 13.8778 48.0359 13.9933C47.973 14.076 47.917 14.164 47.8686 14.2561Z" fill="#A80000" fill-opacity="0.75"/>
<path d="M54.0247 35.7676L49.9393 37.6074L49.8525 37.6449L53.9627 35.8051L54.0495 35.7676" fill="#A80000" fill-opacity="0.75"/>
<path d="M45.6684 18.2487L41.583 20.0884L43.7838 16.0898L47.8691 14.25L45.6684 18.2487Z" fill="#A80000" fill-opacity="0.75"/>
<path d="M53.9629 35.7949L49.8776 37.6347L49.7722 37.6722H49.6792H49.5738H49.4684H49.3692H49.0035H48.9043L52.9897 35.8325H53.0888H53.4112H53.5104H53.6158H53.7212H53.8142L53.9196 35.7949" fill="#A80000" fill-opacity="0.75"/>
<path d="M44.7758 19.0889L40.6904 20.9287C41.0669 20.7533 41.3746 20.456 41.5645 20.0839L45.6499 18.2441C45.4552 18.6193 45.1406 18.917 44.7572 19.0889" fill="#A80000" fill-opacity="0.75"/>
<path d="M53.0079 35.9294L48.9225 37.7504C48.5912 37.6321 48.2664 37.4964 47.9492 37.3437L52.0346 35.5039C52.0346 35.5039 52.078 35.5352 53.0079 35.9107" fill="#A80000" fill-opacity="0.75"/>
<path d="M52.0347 35.5205L47.9493 37.3603L44.4033 34.4755L48.4887 32.6357L52.0347 35.5205Z" fill="#A80000" fill-opacity="0.75"/>
<path d="M48.4887 32.6306L44.4033 34.4704L44.2421 34.3453C44.1692 34.2954 44.0925 34.2515 44.0128 34.2138C43.8283 34.1228 43.6285 34.0676 43.4238 34.0511L47.5092 32.1738C47.7051 32.1985 47.8957 32.2556 48.0733 32.3428C48.1531 32.3805 48.2298 32.4244 48.3027 32.4742L48.4639 32.5994" fill="#A80000" fill-opacity="0.75"/>
<path d="M47.5333 32.2176L43.4231 34.0636C43.1845 34.0336 42.9424 34.0506 42.7102 34.1136C42.6294 34.1363 42.5506 34.1656 42.4746 34.2013L46.56 32.3615C46.636 32.3258 46.7148 32.2965 46.7955 32.2739C47.0273 32.2087 47.2694 32.1896 47.5085 32.2176" fill="#A80000" fill-opacity="0.75"/>
<path d="M41.3844 27.6166L37.2929 29.4564C37.4156 29.1301 37.4459 28.7757 37.3802 28.4331C37.3145 28.0904 37.1554 27.773 36.9209 27.5165L41.0062 25.6768C41.2418 25.9326 41.402 26.2497 41.4688 26.5924C41.5356 26.9351 41.5064 27.2898 41.3844 27.6166Z" fill="#A80000" fill-opacity="0.75"/>
<path d="M41.0066 25.6708L36.9212 27.5105L33.834 24.1376L37.9255 22.2979L41.0066 25.6708Z" fill="#A80000" fill-opacity="0.75"/>
<path d="M37.9246 22.2979L33.8331 24.1377C33.619 23.9181 33.4618 23.6488 33.3752 23.3534C33.2887 23.0581 33.2754 22.7457 33.3367 22.444C33.3979 22.1422 33.5318 21.8603 33.7265 21.6232C33.9212 21.386 34.1707 21.2008 34.453 21.0839L38.5446 19.2441C38.2622 19.361 38.0127 19.5462 37.818 19.7834C37.6234 20.0206 37.4895 20.3025 37.4282 20.6042C37.367 20.906 37.3802 21.2183 37.4668 21.5137C37.5534 21.809 37.7106 22.0784 37.9246 22.2979Z" fill="#A80000" fill-opacity="0.75"/>
<path d="M42.4133 34.3077L38.328 36.1474H38.2598L42.3451 34.3077L42.4133 34.2764" fill="#A80000" fill-opacity="0.75"/>
<path d="M39.8289 31.8896L35.7373 33.7294L37.2995 29.4491L41.3849 27.6094L39.8289 31.8896Z" fill="#A80000" fill-opacity="0.75"/>
<path d="M42.345 34.3419L38.2597 36.1817C37.9116 36.2453 37.5594 36.283 37.2058 36.2943H37.1004C37.0332 36.2771 36.967 36.2562 36.902 36.2317L36.7904 36.1879L36.7037 36.1504L36.6045 36.0816L36.5239 36.0315L36.4309 35.9689L36.3503 35.9063L36.2697 35.8688C36.2172 35.8239 36.1676 35.7759 36.1209 35.7249L36.0465 35.6373C36.026 35.6138 36.0073 35.5887 35.9907 35.5622L35.9225 35.4683L35.873 35.3869L35.8172 35.243L35.7738 35.1492L35.7366 35.049C35.7206 35.0149 35.7081 34.9793 35.6994 34.9426C35.6966 34.9114 35.6966 34.88 35.6994 34.8488C35.6994 34.7987 35.6994 34.7612 35.6994 34.7299V34.636C35.6994 34.586 35.6994 34.5484 35.6994 34.5171V34.2981C35.6994 34.248 35.6994 34.2168 35.6994 34.1855C35.6994 34.1542 35.6994 34.1041 35.6994 34.0728V33.9539C35.6994 33.9101 35.6994 33.8726 35.6994 33.8413C35.6994 33.81 35.6994 33.7474 35.7366 33.7099L39.8281 31.8701L39.7847 31.9953C39.7847 32.0328 39.7847 32.0641 39.7847 32.1142V32.2268C39.781 32.2663 39.781 32.3062 39.7847 32.3457C39.7847 32.377 39.7847 32.4083 39.7847 32.4583V32.6774C39.7847 32.6774 39.7847 32.7399 39.7847 32.7963V32.8901V33.009C39.7819 33.0402 39.7819 33.0717 39.7847 33.1029C39.7847 33.1029 39.7847 33.1655 39.8219 33.2093C39.8364 33.2418 39.8488 33.2753 39.8591 33.3094L39.9025 33.4033L39.9583 33.4971L40.0079 33.5785L40.0761 33.6723L40.1319 33.7474L40.2063 33.835L40.3551 33.979L40.4356 34.0478L40.5162 34.1104L40.6092 34.173L40.6898 34.223L40.789 34.2731L40.882 34.3106L40.9874 34.3544L41.1858 34.417H41.2912C41.6447 34.406 41.997 34.3683 42.345 34.3044" fill="#A80000" fill-opacity="0.75"/>
<path d="M52.5676 51.2099L48.4822 53.0497C48.1101 53.2125 47.7145 53.3139 47.3106 53.3501C43.2896 53.7691 39.2366 53.7691 35.2157 53.3501C33.1588 53.1515 31.146 52.6256 29.252 51.7919L33.3373 49.9521C35.2332 50.7815 37.245 51.3092 39.3011 51.5166C43.322 51.9356 47.375 51.9356 51.3959 51.5166C51.7999 51.4804 52.1955 51.379 52.5676 51.2162" fill="#A80000" fill-opacity="0.75"/>
<path d="M33.337 49.9239L29.2517 51.7637C27.3919 50.9189 25.8606 49.3044 24.3418 47.4208L28.4271 45.5811C29.946 47.4584 31.4958 49.0791 33.337 49.9239Z" fill="#A80000" fill-opacity="0.75"/>
<path d="M26.8471 22.2295L22.7618 24.0692C20.9494 24.8894 18.9483 25.1903 16.9778 24.9391C14.0665 24.562 11.4196 23.0422 9.61057 20.7089C7.80156 18.3757 6.97611 15.417 7.31307 12.4737C7.52754 10.5612 8.23286 8.73834 9.35927 7.18536C10.4857 5.63238 11.9942 4.4031 13.7356 3.61906L17.8209 1.7793C16.0795 2.56333 14.571 3.79262 13.4446 5.34559C12.3182 6.89857 11.6129 8.72144 11.3984 10.634C11.0632 13.5762 11.8895 16.5333 13.6983 18.8652C15.5072 21.197 18.153 22.7159 21.0632 23.093C23.0331 23.3433 25.0333 23.0447 26.8471 22.2295Z" fill="#A80000" fill-opacity="0.75"/>
<path d="M10.7348 27.64L6.64941 29.4798L7.12056 29.0292L11.1873 27.1895L10.7162 27.64" fill="#A80000" fill-opacity="0.75"/>
<path d="M10.3077 28.1551L6.22852 29.9949L6.65627 29.4755L10.7416 27.6357L10.3139 28.1551" fill="#A80000" fill-opacity="0.75"/>
<path d="M9.9474 28.7353L5.83105 30.5751L6.12242 30.1245L6.22161 29.9931L10.307 28.1533L10.2078 28.2847L9.9474 28.7353Z" fill="#A80000" fill-opacity="0.75"/>
<path d="M24.4662 65.1973L20.3809 67.0371C20.0698 67.1608 19.7314 67.1975 19.4014 67.1435L23.4867 65.2661C23.8161 65.3258 24.1554 65.2911 24.4662 65.166" fill="#A80000" fill-opacity="0.75"/>
<path d="M23.4866 65.2938L19.4012 67.1398L1.41699 64.8808L5.50854 63.041L23.4866 65.2938Z" fill="#A80000" fill-opacity="0.75"/>
<path d="M58.4577 21.4809L54.0252 20.5172C53.6797 20.4409 53.3619 20.2696 53.107 20.0222C52.852 19.7748 52.6699 19.4609 52.5808 19.1155L51.3409 14.6913C51.3047 14.564 51.257 14.4405 51.1983 14.3221C51.0028 13.8977 50.6573 13.5623 50.2295 13.3817C49.8018 13.2011 49.3226 13.1883 48.886 13.3459C48.6914 13.4161 48.5093 13.5175 48.3467 13.6462C48.2341 13.7431 48.1304 13.8499 48.0367 13.9654C47.9738 14.0481 47.9178 14.136 47.8693 14.2282L45.6685 18.2269C45.505 18.5403 45.257 18.8006 44.9532 18.9778C44.6493 19.155 44.302 19.2417 43.9513 19.2281L39.3576 19.0654C38.9787 19.0393 38.6009 19.1309 38.2751 19.3279C37.9493 19.525 37.691 19.818 37.5351 20.1675C37.3791 20.5171 37.333 20.9065 37.4028 21.2834C37.4726 21.6603 37.655 22.0065 37.9256 22.2756L41.0253 25.6485C41.2608 25.9043 41.421 26.2214 41.4878 26.5641C41.5546 26.9068 41.5254 27.2615 41.4034 27.5884L39.8288 31.8937L39.7854 32.0188C39.7854 32.0564 39.7854 32.0877 39.7854 32.1377V32.2504C39.7816 32.2899 39.7816 32.3297 39.7854 32.3693C39.7854 32.4006 39.7854 32.4319 39.7854 32.4819V32.7009C39.7854 32.7009 39.7854 32.7635 39.7854 32.8198V32.9137V33.0326C39.7826 33.0638 39.7826 33.0952 39.7854 33.1265C39.7854 33.1265 39.7854 33.189 39.8226 33.2328C39.837 33.2654 39.8494 33.2988 39.8598 33.333L39.9032 33.4268L39.959 33.5207L40.0086 33.602L40.0768 33.6959L40.1326 33.771L40.2069 33.8586L40.3557 34.0025L40.4363 34.0714L40.5169 34.134L40.6099 34.1965L40.6905 34.2466L40.7897 34.2967L40.8827 34.3342L40.9881 34.378L41.1864 34.4406H41.2918C41.6454 34.4296 41.9977 34.3919 42.3457 34.3279L42.4139 34.2967L46.5241 32.3881C46.6216 32.3393 46.7232 32.2995 46.8278 32.2692C47.0596 32.204 47.3017 32.1849 47.5407 32.2128C47.7367 32.2375 47.9273 32.2946 48.1049 32.3818C48.1846 32.4195 48.2613 32.4634 48.3343 32.5132L48.4954 32.6384L52.0414 35.5232C52.0414 35.5232 52.0848 35.5545 53.0147 35.9299H53.1139H53.4363H53.5355H53.6409H53.7463H53.8393L53.9446 35.8924L54.0314 35.8548L54.1306 35.8048L54.2112 35.761L54.3104 35.6984L54.391 35.6421L54.4716 35.5732L54.5522 35.5044L54.6204 35.4293L54.6948 35.3479L54.7505 35.2729L54.8187 35.179C54.8187 35.179 54.8187 35.1352 54.8683 35.0976C54.8899 35.0661 54.9086 35.0325 54.9241 34.9975L54.9675 34.9037C54.984 34.8712 54.9985 34.8378 55.0109 34.8035C55.0109 34.8035 55.0109 34.7409 55.0109 34.6971C55.0134 34.6617 55.0134 34.6262 55.0109 34.5908C55.0109 34.5595 55.0109 34.5282 55.0109 34.4781C55.0109 34.4281 55.0109 34.4155 55.0109 34.3717C55.0145 34.3301 55.0145 34.2882 55.0109 34.2466C55.0144 34.2112 55.0144 34.1756 55.0109 34.1402C55.0135 34.0944 55.0135 34.0484 55.0109 34.0025C55.0109 34.0025 55.0109 33.9337 55.0109 33.8962L54.5832 29.2655C54.5495 28.921 54.6062 28.5737 54.7477 28.2585C54.8892 27.9432 55.1104 27.6711 55.3891 27.4695L59.1521 24.9664C59.4664 24.7552 59.7114 24.4543 59.8559 24.1021C60.0003 23.7499 60.0377 23.3623 59.9633 22.9885C59.8888 22.6148 59.7059 22.2719 59.4378 22.0034C59.1697 21.7349 58.8286 21.553 58.4577 21.4809Z" fill="#F0783C"/>
<path d="M21.0631 23.0933C22.4977 23.2729 23.9534 23.1633 25.3458 22.7708C26.7381 22.3782 28.0395 21.7106 29.1743 20.8067C30.3092 19.9027 31.255 18.7803 31.9569 17.5046C32.6588 16.2289 33.1029 14.8253 33.2633 13.375C33.5984 10.4309 32.7704 7.47206 30.959 5.13988C29.1476 2.8077 26.4986 1.29008 23.5862 0.915952C22.1509 0.73627 20.6945 0.845783 19.3013 1.23815C17.9082 1.63052 16.606 2.29794 15.4702 3.20178C14.3344 4.10562 13.3874 5.22792 12.6842 6.5037C11.981 7.77948 11.5355 9.1834 11.3735 10.6342C11.0387 13.5802 11.8683 16.5408 13.6823 18.8733C15.4964 21.2058 18.1484 22.7221 21.0631 23.0933Z" fill="#F0783C"/>
<path d="M50.07 41.7307H49.8717H49.6671H49.4935H49.2703H49.0658H48.8736H48.6442H48.4396H48.235H47.9871H47.7763H47.3237H43.1392H42.8912H42.6681H42.4573H42.2093H41.9985H41.794H41.5522H41.3476L40.7277 41.6744H40.5169C40.4673 41.6744 40.4115 41.6744 37.4978 41.0486C36.5679 40.4604 34.4478 37.4066 33.2947 35.7734C32.1416 34.1401 31.1683 32.7947 30.195 31.587C28.5088 29.4093 27.1512 27.8824 24.0887 26.6559L23.8283 26.562L23.5246 26.4807L23.2332 26.3868L22.9294 26.2867L22.6133 26.1928L22.2847 26.099L21.9499 26.0114L21.6028 25.9238L21.237 25.8549L20.8712 25.7736L20.6915 25.736L20.4869 25.7047H20.3009L20.1025 25.6672H19.9103L19.7182 25.6359H19.5198H19.3276L18.7945 25.5733L18.1311 25.5107H18.0072C17.9576 25.5107 17.908 25.5107 11.2251 27.3067L10.7539 27.7573L10.3262 28.2766L10.227 28.4081L9.94804 28.7335C9.92349 28.7807 9.89659 28.8266 9.86745 28.8711C6.68099 34.5031 5.29855 50.0597 4.15787 61.1046C4.11628 61.3239 4.11951 61.5494 4.16735 61.7674C4.21519 61.9854 4.30663 62.1912 4.43607 62.3723C4.56551 62.5533 4.73022 62.7058 4.9201 62.8203C5.10998 62.9348 5.32104 63.0089 5.54032 63.0382L23.5184 65.291C23.7161 65.3462 23.9236 65.3564 24.1257 65.3206C24.3279 65.2849 24.5196 65.2042 24.687 65.0844C24.8543 64.9645 24.9932 64.8086 25.0934 64.6278C25.1937 64.4471 25.2528 64.2461 25.2666 64.0394C25.4091 63.4512 27.2069 53.0259 28.4592 45.598C29.978 47.4753 31.5279 49.096 33.3691 49.9408C35.2549 50.7692 37.256 51.299 39.3018 51.5115C43.3228 51.9305 47.3758 51.9305 51.3967 51.5115C54.0376 51.2362 55.9842 48.827 50.4544 41.6994L50.07 41.7307Z" fill="#F0783C"/>
<path d="M5.50901 63.0489L1.41746 64.8886C1.19763 64.8602 0.985898 64.7866 0.795299 64.6724C0.6047 64.5582 0.439268 64.4059 0.309184 64.2247C0.179101 64.0436 0.08712 63.8375 0.0389026 63.6192C-0.00931486 63.4008 -0.0127482 63.1748 0.0288139 62.955C1.16949 51.9164 2.55194 36.3598 5.73839 30.7216C5.76753 30.6771 5.79443 30.6311 5.81898 30.5839L9.94773 28.7441C9.92318 28.7914 9.89628 28.8373 9.86714 28.8818C6.68069 34.5137 5.29824 50.0704 4.15756 61.1153C4.11598 61.3345 4.1192 61.5601 4.16704 61.7781C4.21488 61.9961 4.30632 62.2019 4.43576 62.3829C4.5652 62.564 4.72991 62.7164 4.91979 62.831C5.10968 62.9455 5.32073 63.0196 5.54001 63.0489" fill="#A80000" fill-opacity="0.75"/>
</svg>
