<svg width="68" height="68" viewBox="0 0 68 68" fill="none" xmlns="http://www.w3.org/2000/svg">
<path d="M51.6583 11.3165L48.2819 15.0438C47.3694 11.8619 46.0918 9.04377 44.4492 6.95286L47.8256 3.22559C49.4682 5.31649 50.7458 8.13468 51.6583 11.3165Z" fill="#A80000" fill-opacity="0.75"/>
<path d="M61.4225 14.3164L58.1373 18.0437C55.4909 18.771 52.4795 19.2255 49.1943 19.3164L52.5708 15.5891C55.8559 15.4073 58.8673 15.0437 61.4225 14.3164Z" fill="#A80000" fill-opacity="0.75"/>
<path d="M52.5712 15.5891L49.1948 19.3164C48.921 17.771 48.6472 16.3164 48.2822 15.0437L51.6587 11.3164C52.0237 12.68 52.2974 14.0437 52.5712 15.5891Z" fill="#A80000" fill-opacity="0.75"/>
<path d="M50.4717 15.6816L47.0953 19.4088C43.7189 19.4088 40.16 19.1361 36.5098 18.4997L39.8862 14.7725C43.5364 15.4088 47.0953 15.6816 50.4717 15.6816Z" fill="#A80000" fill-opacity="0.75"/>
<path d="M39.7949 14.7707L36.5098 18.498L38.7911 5.31614L42.1676 1.58887L39.7949 14.7707Z" fill="#A80000" fill-opacity="0.75"/>
<path d="M66.8064 36.7721L63.43 40.4994L49.0117 37.863L52.2969 34.1357L66.8064 36.7721Z" fill="#A80000" fill-opacity="0.75"/>
<path d="M52.2973 34.1333L48.9209 37.8605C49.8334 31.9514 50.016 26.406 49.4684 21.406L52.8449 17.6787C53.3924 22.6787 53.3011 28.2242 52.2973 34.1333Z" fill="#A80000" fill-opacity="0.75"/>
<path d="M50.2895 33.68L46.913 37.4982L33.5898 35.0437L36.875 31.3164L50.2895 33.68Z" fill="#A80000" fill-opacity="0.75"/>
<path d="M36.875 31.3159L33.5898 35.0431L36.145 20.5886L39.4301 16.8613L36.875 31.3159Z" fill="#A80000" fill-opacity="0.75"/>
<path d="M59.2321 53.0469L55.8557 56.7741C54.6694 58.0469 53.3918 59.3196 52.1143 60.3196L55.4907 56.5923C56.8595 55.5014 58.1371 54.3196 59.2321 53.0469Z" fill="#A80000" fill-opacity="0.75"/>
<path d="M46.8217 51.6812L43.4453 55.4085C45.7267 50.9539 47.4605 45.6812 48.6468 39.863L52.0233 36.1357C50.8369 41.9539 49.0119 47.2267 46.8217 51.6812Z" fill="#A80000" fill-opacity="0.75"/>
<path d="M55.4909 56.5917L52.1145 60.319C49.6506 58.5008 46.7305 56.8644 43.4453 55.4099L46.8217 51.6826C50.1069 53.1372 53.0271 54.7735 55.4909 56.5917Z" fill="#A80000" fill-opacity="0.75"/>
<path d="M44.8139 50.9571L41.4374 54.6844C38.1523 53.4117 34.5021 52.3208 30.5781 51.5935L33.9546 47.8662C37.8785 48.5935 41.5287 49.5935 44.8139 50.9571Z" fill="#A80000" fill-opacity="0.75"/>
<path d="M33.9546 47.7739L30.5781 51.5921L33.2245 37.1375L36.5097 33.3193L33.9546 47.7739Z" fill="#A80000" fill-opacity="0.75"/>
<path d="M43.4448 57.3191L40.0684 61.0463C40.8897 59.9554 41.6197 58.6827 42.441 57.3191L45.8174 53.5918C45.0874 54.8645 44.2661 56.1373 43.4448 57.3191Z" fill="#A80000" fill-opacity="0.75"/>
<path d="M41.6196 59.5931L38.2432 63.3204C38.8819 62.5931 39.5207 61.7749 40.1595 60.9568L43.5359 57.2295C42.8972 58.1386 42.2584 58.8659 41.6196 59.5931Z" fill="#A80000" fill-opacity="0.75"/>
<path d="M53.7563 57.9561L50.3798 61.6833C45.5433 65.047 39.7943 66.9561 33.7715 67.2288L37.1479 63.5015C43.1707 63.2288 48.9198 61.2288 53.7563 57.9561Z" fill="#A80000" fill-opacity="0.75"/>
<path d="M40.0685 58.2295L36.6921 61.9568C33.7719 65.1386 30.7605 66.8658 27.9316 66.8658L31.3081 63.1386C34.137 63.1386 37.1484 61.4113 40.0685 58.2295Z" fill="#A80000" fill-opacity="0.75"/>
<path d="M31.2168 63.048L27.9316 66.8662L30.213 53.5935L33.5894 49.8662L31.2168 63.048Z" fill="#A80000" fill-opacity="0.75"/>
<path d="M34.3186 0.772461L30.9422 4.49973C29.3909 5.40882 27.8395 6.77246 26.4707 8.40882L29.8471 4.68155C31.216 3.04519 32.7673 1.68155 34.3186 0.772461Z" fill="#A80000" fill-opacity="0.75"/>
<path d="M29.5742 8.22674L26.2891 11.954C26.8366 11.1358 27.4754 10.4086 28.0229 9.77219L31.3993 6.04492C30.7605 6.68129 30.213 7.40856 29.5742 8.22674Z" fill="#A80000" fill-opacity="0.75"/>
<path d="M27.5659 11.4983L24.1895 15.2256C24.8282 14.0438 25.5583 12.9529 26.2883 11.9529L29.6647 8.22559C28.9347 9.22559 28.2047 10.3165 27.5659 11.4983Z" fill="#A80000" fill-opacity="0.75"/>
<path d="M37.7864 14.4091L34.41 18.1364C30.7598 17.4091 27.2921 16.4091 24.1895 15.2273L27.5659 11.5C30.6685 12.6818 34.1362 13.6818 37.7864 14.4091Z" fill="#A80000" fill-opacity="0.75"/>
<path d="M25.5588 10.683L22.1823 14.4102C19.1709 13.1375 16.5245 11.5921 14.2432 10.0466L17.6196 6.31934C19.901 7.86479 22.5473 9.41024 25.5588 10.683Z" fill="#A80000" fill-opacity="0.75"/>
<path d="M21.4526 28.5012L18.0762 32.2284C19.1712 26.5012 20.9963 21.3193 23.1864 17.0466L26.5629 13.3193C24.3727 17.5921 22.5477 22.7739 21.4526 28.5012Z" fill="#A80000" fill-opacity="0.75"/>
<path d="M34.867 30.9545L31.4906 34.6818L18.0762 32.2273L21.4526 28.5L34.867 30.9545Z" fill="#A80000" fill-opacity="0.75"/>
<path d="M4.93502 25.4983L1.55859 29.2256C2.74491 23.771 5.30004 18.862 8.76772 14.9529L12.1441 11.2256C8.58521 15.1347 6.12133 19.9529 4.93502 25.4983Z" fill="#A80000" fill-opacity="0.75"/>
<path d="M19.4445 28.1364L16.0681 31.8636L1.55859 29.2273L4.93502 25.5L19.4445 28.1364Z" fill="#A80000" fill-opacity="0.75"/>
<path d="M20.6312 46.498L17.2548 50.2253C16.7073 45.498 16.7985 39.9526 17.7111 34.2253L21.0875 30.498C20.175 36.2253 20.0837 41.7708 20.6312 46.498Z" fill="#A80000" fill-opacity="0.75"/>
<path d="M31.9465 47.4081L28.57 51.1354C24.6461 50.499 20.9046 50.2263 17.3457 50.2263L20.7221 46.499C24.1898 46.499 28.0225 46.7718 31.9465 47.4081Z" fill="#A80000" fill-opacity="0.75"/>
<path d="M21.726 52.407L18.3496 56.1343C17.9846 54.9525 17.7108 53.6798 17.5283 52.3161L20.9047 48.5889C21.1785 49.9525 21.4523 51.2252 21.726 52.407Z" fill="#A80000" fill-opacity="0.75"/>
<path d="M29.2095 62.678L25.833 66.4053C22.6391 65.3144 19.9927 61.678 18.4414 56.1325L21.8178 52.4053C23.2779 57.9507 25.9243 61.5871 29.2095 62.678Z" fill="#A80000" fill-opacity="0.75"/>
<path d="M18.5317 46.5889L15.1553 50.3161C11.5964 50.498 8.21996 51.0434 5.2998 51.8616L8.67623 48.1343C11.5964 47.2252 14.9728 46.7707 18.5317 46.5889Z" fill="#A80000" fill-opacity="0.75"/>
<path d="M8.67669 48.0434L5.30026 51.8616C1.74133 45.8616 0.0987436 38.6798 1.1938 31.3161L4.57023 27.5889C3.47517 34.8616 5.11775 42.1343 8.67669 48.0434Z" fill="#A80000" fill-opacity="0.75"/>
<path d="M23.6428 61.0431L20.2663 64.7703C14.6085 62.4067 9.95455 58.4976 6.57812 53.6794L9.95455 49.9521C13.2397 54.7703 17.985 58.6794 23.6428 61.0431Z" fill="#A80000" fill-opacity="0.75"/>
<path d="M52.5695 15.5892C55.8546 15.4074 58.866 14.9529 61.5124 14.3165C58.136 9.49831 53.482 5.58922 47.8242 3.22559C49.4668 5.31649 50.7444 8.13468 51.6569 11.3165C52.0219 12.6801 52.2957 14.0438 52.5695 15.5892Z" fill="#F0783C"/>
<path d="M50.4707 15.6798C50.2882 14.3161 50.0145 13.0434 49.6495 11.8616C48.0981 6.31614 45.4517 2.67978 42.1666 1.58887L39.7939 14.8616C43.5354 15.407 47.0943 15.6798 50.4707 15.6798Z" fill="#F0783C"/>
<path d="M62.6989 16.1357C59.7788 16.9539 56.4936 17.4994 52.8434 17.6812C53.391 22.5903 53.2997 28.2267 52.2959 34.1357L66.8054 36.7721C67.9005 29.3176 66.2579 22.1357 62.6989 16.1357Z" fill="#F0783C"/>
<path d="M50.7443 17.7714C47.1854 17.7714 43.3527 17.4987 39.52 16.8623L36.9648 31.3169L50.288 33.7714C51.2006 27.9532 51.2918 22.4987 50.7443 17.7714Z" fill="#F0783C"/>
<path d="M46.8203 51.6812C50.1055 53.1357 53.0256 54.7721 55.4895 56.5903C60.9648 52.2267 64.8888 46.0448 66.4401 38.7721L51.9306 36.1357C50.8355 41.9539 49.0104 47.2267 46.8203 51.6812Z" fill="#F0783C"/>
<path d="M49.9232 35.7739L36.6001 33.3193L34.0449 47.7739C37.9689 48.5012 41.6191 49.5921 44.9042 50.8648C47.0031 46.683 48.8282 41.5012 49.9232 35.7739Z" fill="#F0783C"/>
<path d="M43.4445 57.3161C41.5281 59.9525 39.338 62.1343 37.0566 63.498C43.1707 63.3161 48.9198 61.3161 53.665 57.9525C51.4749 56.4071 48.7373 54.8616 45.7258 53.5889C45.0871 54.8616 44.2658 56.1343 43.4445 57.3161Z" fill="#F0783C"/>
<path d="M41.7101 56.0441C42.4402 55.0441 43.0789 53.9532 43.809 52.7714C40.7063 51.5896 37.2386 50.5896 33.5884 49.8623L31.2158 63.135C34.6835 63.135 38.4249 60.6805 41.7101 56.0441Z" fill="#F0783C"/>
<path d="M29.5735 8.229C28.8434 9.229 28.1134 10.3199 27.4746 11.5017C30.5773 12.6836 34.045 13.6836 37.6951 14.4108L40.0678 1.1381C36.6913 1.04719 32.9499 3.59264 29.5735 8.229Z" fill="#F0783C"/>
<path d="M27.9309 6.95428C29.8473 4.31792 32.0374 2.1361 34.3188 0.772461C28.2047 0.954279 22.4556 2.95428 17.6191 6.31792C19.8093 7.86337 22.5469 9.40882 25.5583 10.6816C26.2883 9.31791 27.1096 8.1361 27.9309 6.95428Z" fill="#F0783C"/>
<path d="M37.4217 16.5001C33.4978 15.6819 29.8476 14.6819 26.5624 13.4092C24.3723 17.6819 22.6385 22.8637 21.4521 28.591L34.7753 31.0455L37.4217 16.5001Z" fill="#F0783C"/>
<path d="M24.5543 12.498C21.2692 11.0434 18.349 9.40705 15.8851 7.58887C10.4099 11.9525 6.4859 18.1343 4.93457 25.407L19.4441 28.0434C20.5391 22.2252 22.3642 16.9525 24.5543 12.498Z" fill="#F0783C"/>
<path d="M20.6308 46.5C24.1897 46.5 28.0224 46.7727 31.8551 47.4091L34.5015 32.9545L21.1783 30.5C20.1745 36.2273 20.0833 41.7727 20.6308 46.5Z" fill="#F0783C"/>
<path d="M20.9043 48.5889C21.0868 49.9525 21.3606 51.2252 21.7256 52.4071C23.2769 57.9525 25.9233 61.5889 29.1172 62.6798L31.4899 49.4071C27.8397 48.8616 24.2807 48.5889 20.9043 48.5889Z" fill="#F0783C"/>
<path d="M19.0793 30.1364L4.56978 27.5C3.47472 34.8636 5.11731 42.1364 8.67624 48.0455C11.5964 47.2273 14.8816 46.6818 18.5318 46.5C17.9842 41.5909 18.0755 36.0455 19.0793 30.1364Z" fill="#F0783C"/>
<path d="M18.8053 48.6816C15.5201 48.8635 12.5087 49.2271 9.8623 49.9544C13.2387 54.7725 17.984 58.6816 23.5505 61.0453C21.9079 58.9544 20.6304 56.1362 19.7178 52.9544C19.3528 51.5907 19.079 50.1362 18.8053 48.6816Z" fill="#F0783C"/>
</svg>
