<svg width="60" height="71" viewBox="0 0 60 71" fill="none" xmlns="http://www.w3.org/2000/svg">
<path d="M39.6934 4.67804L37.5957 5.66249L37.5361 5.56167L39.6338 4.57129L39.6934 4.67804Z" fill="#A80000" fill-opacity="0.75"/>
<path d="M39.6344 4.57486L37.5367 5.56524L37.501 5.50594L39.5986 4.52148L39.6344 4.57486Z" fill="#A80000" fill-opacity="0.75"/>
<path d="M39.9019 5.55942L37.8043 6.54387C37.8046 6.23721 37.7332 5.93467 37.5957 5.66024L39.6933 4.67578C39.8309 4.95022 39.9023 5.25275 39.9019 5.55942Z" fill="#A80000" fill-opacity="0.75"/>
<path d="M39.5985 4.52145L37.5008 5.50591C37.3829 5.31428 37.2268 5.14877 37.042 5.01961L39.1396 4.03516C39.3265 4.16369 39.4848 4.32925 39.6044 4.52145" fill="#A80000" fill-opacity="0.75"/>
<path d="M39.914 5.70183L37.8164 6.69221C37.8196 6.64482 37.8196 6.59727 37.8164 6.54988L39.9021 5.56543C39.9051 5.61085 39.9051 5.65641 39.9021 5.70183" fill="#A80000" fill-opacity="0.75"/>
<path d="M39.1394 4.03244L37.0358 5.0169L37 5.00503L39.0976 4.01465L39.1394 4.03244Z" fill="#A80000" fill-opacity="0.75"/>
<path d="M39.9077 5.82271L37.8101 6.80717C37.8068 6.76968 37.8068 6.73197 37.8101 6.69449L39.9077 5.7041C39.9046 5.74358 39.9046 5.78324 39.9077 5.82271Z" fill="#A80000" fill-opacity="0.75"/>
<path d="M39.9261 5.84306L37.8284 6.82751L37.8105 6.80379L39.9082 5.81934L39.9261 5.84306Z" fill="#A80000" fill-opacity="0.75"/>
<path d="M39.9377 5.88526L37.84 6.87565L37.8281 6.8282L39.9258 5.84375L39.9377 5.88526Z" fill="#A80000" fill-opacity="0.75"/>
<path d="M39.9199 5.94309L37.8223 6.92755L37.8401 6.87417L39.9378 5.88379L39.9199 5.94309Z" fill="#A80000" fill-opacity="0.75"/>
<path d="M39.9082 6.01453L37.8105 6.99898L37.8225 6.92781L39.9201 5.94336L39.9082 6.01453Z" fill="#A80000" fill-opacity="0.75"/>
<path d="M39.8838 6.072L37.7861 7.05645L37.81 6.99715L39.9076 6.0127L39.8838 6.072Z" fill="#A80000" fill-opacity="0.75"/>
<path d="M39.8603 6.12564L37.7627 7.11009L37.7865 7.05672L39.8842 6.07227L39.8603 6.12564Z" fill="#A80000" fill-opacity="0.75"/>
<path d="M38.7578 3.82617L36.6602 4.81063L38.7578 3.82617Z" fill="#A80000" fill-opacity="0.75"/>
<path d="M39.0975 4.01769L36.9998 5.00807C36.901 4.92483 36.7851 4.86411 36.6602 4.83016L38.7578 3.8457C38.8814 3.88 38.9969 3.93847 39.0975 4.01769Z" fill="#A80000" fill-opacity="0.75"/>
<path d="M38.7578 3.84989L36.6602 4.83435L38.7578 3.82617" fill="#A80000" fill-opacity="0.75"/>
<path d="M38.7515 3.79904L36.6538 4.7657H36.624L38.7217 3.78125H38.7515" fill="#A80000" fill-opacity="0.75"/>
<path d="M38.7279 3.78649L36.6243 4.77094L36.6064 4.74722L38.7041 3.75684L38.7279 3.78649Z" fill="#A80000" fill-opacity="0.75"/>
<path d="M39.8428 6.18033L37.7451 7.16478L37.763 7.11141L39.8606 6.12695L39.8428 6.18033Z" fill="#A80000" fill-opacity="0.75"/>
<path d="M39.8241 6.20536L37.7324 7.18982L37.7443 7.1661L39.842 6.18164L39.8241 6.20536Z" fill="#A80000" fill-opacity="0.75"/>
<path d="M39.8125 6.24854L37.7148 7.233L37.7327 7.19149L39.8244 6.20703L39.8125 6.24854Z" fill="#A80000" fill-opacity="0.75"/>
<path d="M38.7044 3.75684L36.6068 4.74722L36.5293 4.74129L38.6269 3.75684H38.7044Z" fill="#A80000" fill-opacity="0.75"/>
<path d="M39.7705 6.33505L37.6729 7.32544L37.7146 7.23055L39.8122 6.24609L39.7705 6.33505Z" fill="#A80000" fill-opacity="0.75"/>
<path d="M39.7471 6.37745L37.6494 7.36191L37.6733 7.32632L39.7709 6.33594L39.7471 6.37745Z" fill="#A80000" fill-opacity="0.75"/>
<path d="M39.7002 6.459L37.6025 7.44346L37.6502 7.36043L39.7479 6.37598L39.7002 6.459Z" fill="#A80000" fill-opacity="0.75"/>
<path d="M39.664 6.53113L37.5664 7.51558L37.6022 7.44442L39.6998 6.45996L39.664 6.53113Z" fill="#A80000" fill-opacity="0.75"/>
<path d="M39.6396 6.57674L37.542 7.5612L37.5658 7.51375L39.6635 6.5293L39.6396 6.57674Z" fill="#A80000" fill-opacity="0.75"/>
<path d="M39.6279 6.59689L37.5303 7.58135L37.5422 7.56356L39.6398 6.5791L39.6279 6.59689Z" fill="#A80000" fill-opacity="0.75"/>
<path d="M39.6221 6.61252L37.5244 7.6029L37.5304 7.57918L39.628 6.59473L39.6221 6.61252Z" fill="#A80000" fill-opacity="0.75"/>
<path d="M39.6162 6.64391L37.5186 7.62836L37.5245 7.60464L39.6221 6.61426L39.6162 6.64391Z" fill="#A80000" fill-opacity="0.75"/>
<path d="M39.5742 6.69197L37.4766 7.67643L37.5183 7.62899L39.6159 6.64453L39.5742 6.69197Z" fill="#A80000" fill-opacity="0.75"/>
<path d="M39.5508 6.70034L37.4531 7.68479L37.477 7.67293L39.5746 6.68848L39.5508 6.70034Z" fill="#A80000" fill-opacity="0.75"/>
<path d="M39.5263 6.73968L37.4287 7.72414L37.4525 7.68856L39.5502 6.7041L39.5263 6.73968Z" fill="#A80000" fill-opacity="0.75"/>
<path d="M38.6266 3.74723L36.5289 4.76727L36.4455 4.70797H36.3978H36.3442H36.2548L36.082 4.66645C36.0247 4.6581 35.9665 4.6581 35.9092 4.66645L37.983 3.58118C38.0405 3.5758 38.0983 3.5758 38.1558 3.58118L38.3286 3.62269H38.418H38.4716H38.5193H38.5551H38.6266" fill="#A80000" fill-opacity="0.75"/>
<path d="M37.983 3.60847L35.8854 4.59885L35.8496 4.58699L37.9472 3.60254L37.983 3.60847Z" fill="#A80000" fill-opacity="0.75"/>
<path d="M39.4609 6.82131L37.3633 7.80576L37.4288 7.72274L39.5265 6.73828L39.4609 6.82131Z" fill="#A80000" fill-opacity="0.75"/>
<path d="M39.3955 6.88848L37.2979 7.87886L37.3634 7.8077L39.461 6.82324L39.3955 6.88848Z" fill="#A80000" fill-opacity="0.75"/>
<path d="M39.3662 6.92328L37.2686 7.90773L37.2984 7.87808L39.396 6.8877L39.3662 6.92328Z" fill="#A80000" fill-opacity="0.75"/>
<path d="M37.948 3.58691L35.8504 4.58916C35.7968 4.58619 35.743 4.58619 35.6895 4.58916L37.7871 3.58691H37.948Z" fill="#A80000" fill-opacity="0.75"/>
<path d="M37.7868 3.59766L35.6892 4.58804L35.6475 4.58211L37.7451 3.59766H37.7868Z" fill="#A80000" fill-opacity="0.75"/>
<path d="M37.7447 3.59766L35.6471 4.58211L35.6113 4.58804L37.709 3.60359L37.7447 3.59766Z" fill="#A80000" fill-opacity="0.75"/>
<path d="M49.633 28.8343L47.5353 29.8188C47.8393 29.6855 48.1064 29.4811 48.3139 29.2229C48.5214 28.9648 48.6632 28.6606 48.7272 28.3362C48.8409 27.7696 48.731 27.1811 48.4203 26.693C48.1096 26.2049 47.622 25.8547 47.0586 25.7149L49.1562 24.7305C49.7196 24.8702 50.2073 25.2205 50.518 25.7086C50.8287 26.1967 50.9386 26.7851 50.8248 27.3517C50.7599 27.6758 50.6178 27.9795 50.4104 28.2375C50.203 28.4955 49.9364 28.7002 49.633 28.8343Z" fill="#A80000" fill-opacity="0.75"/>
<path d="M39.2646 7.02758L37.167 8.01203L37.2683 7.91121L39.3659 6.92676L39.2646 7.02758Z" fill="#A80000" fill-opacity="0.75"/>
<path d="M39.2226 7.05114L37.125 8.04152L37.1667 8.00594L39.2644 7.02148L39.2226 7.05114Z" fill="#A80000" fill-opacity="0.75"/>
<path d="M39.0674 7.13897L36.9697 8.12343C37.0249 8.09544 37.0768 8.06164 37.1247 8.02261L39.2223 7.03223C39.1731 7.07116 39.1213 7.10682 39.0674 7.13897Z" fill="#A80000" fill-opacity="0.75"/>
<path d="M38.9844 7.24039L36.8867 8.22485C36.9344 8.22485 36.9404 8.17741 36.9701 8.14775L39.0678 7.14551C39.038 7.14551 39.032 7.19888 38.9844 7.2226" fill="#A80000" fill-opacity="0.75"/>
<path d="M38.8711 7.29954L36.7734 8.28399L36.8688 8.23062L38.9664 7.24023L38.8711 7.29954Z" fill="#A80000" fill-opacity="0.75"/>
<path d="M38.7764 7.35213L36.6787 8.34252L36.7741 8.28914L38.8717 7.30469L38.7764 7.35213Z" fill="#A80000" fill-opacity="0.75"/>
<path d="M37.7092 3.58691L35.6116 4.58916C35.3853 4.6155 35.1644 4.67547 34.9561 4.76707L37.0418 3.78262C37.2491 3.68836 37.4705 3.62827 37.6973 3.60471" fill="#A80000" fill-opacity="0.75"/>
<path d="M36.2904 4.38281L34.1928 5.3732H34.1689L36.2666 4.38874L36.2904 4.38281Z" fill="#A80000" fill-opacity="0.75"/>
<path d="M36.1839 4.55281L34.0922 5.53726H34.0684L36.166 4.54688L36.1839 4.55281Z" fill="#A80000" fill-opacity="0.75"/>
<path d="M35.9394 5.1084L33.8418 6.09878L35.9394 5.1084Z" fill="#A80000" fill-opacity="0.75"/>
<path d="M36.8154 7.19357L34.7178 8.17803L34.7297 8.16617L36.8273 7.17578L36.8154 7.19357Z" fill="#A80000" fill-opacity="0.75"/>
<path d="M32.4228 4.40767L30.3252 5.3684C30.4459 4.85171 30.63 4.35177 30.8734 3.87986C31.4438 2.84418 32.328 2.01403 33.4001 1.50768L35.4978 0.541016C34.4245 1.04566 33.5398 1.87625 32.9711 2.9132C32.7267 3.38469 32.5425 3.88475 32.4228 4.40174" fill="#A80000" fill-opacity="0.75"/>
<path d="M46.7975 41.8554L44.6999 42.8399C45.0017 42.7082 45.2674 42.5066 45.4748 42.2517C45.6822 41.9968 45.8251 41.6962 45.8917 41.375C46.004 40.8065 45.8895 40.2169 45.5725 39.7309C45.2555 39.245 44.7608 38.9009 44.1934 38.7716L46.291 37.7871C46.852 37.9165 47.3411 38.2564 47.6564 38.7359C47.9717 39.2154 48.0889 39.7976 47.9834 40.3609C47.9177 40.6832 47.7751 40.985 47.5677 41.2409C47.3603 41.4969 47.0941 41.6995 46.7916 41.8317" fill="#A80000" fill-opacity="0.75"/>
<path d="M44.8361 47.9746L42.7385 48.9591L42.667 48.8761L44.7885 47.8916L44.86 47.9746" fill="#A80000" fill-opacity="0.75"/>
<path d="M44.7884 47.9021L42.6908 48.8866L42.6193 48.8035L42.5835 48.768L42.5418 48.7265L42.5061 48.6909L42.4346 48.6612L44.5322 47.6768L44.5799 47.7183H44.6156L44.6573 47.7657L44.6931 47.8013L44.7646 47.8843" fill="#A80000" fill-opacity="0.75"/>
<path d="M44.5325 47.6609L42.4349 48.6572L42.3574 48.586L44.4551 47.6016L44.5325 47.6727" fill="#A80000" fill-opacity="0.75"/>
<path d="M44.4546 47.5887L42.357 48.5731L42.2676 48.5079L44.3652 47.5234L44.4546 47.5887Z" fill="#A80000" fill-opacity="0.75"/>
<path d="M24.2114 5.266L22.1436 6.25045C22.1972 6.01323 22.2627 5.77009 22.3164 5.54473C22.3797 5.26991 22.504 5.01271 22.6804 4.79205C22.8567 4.57139 23.0806 4.39289 23.3354 4.26968L25.433 3.2793C25.1774 3.40381 24.9528 3.58335 24.7756 3.8049C24.5983 4.02646 24.4728 4.28448 24.408 4.56027C24.3544 4.78563 24.2889 5.02878 24.2352 5.266" fill="#A80000" fill-opacity="0.75"/>
<path d="M44.365 47.519L42.2674 48.5035C42.2409 48.4792 42.2107 48.4592 42.178 48.4441L42.1363 48.4145H42.0886H42.0469L41.9992 48.3848H41.9516H41.9039H41.8562H41.8085H41.7549H41.7072H41.6596H41.6119H41.5583H41.5106H41.457H41.4033L43.501 47.4004H43.5546H43.6082H43.6559H43.7095H43.7572H43.8049H43.8525H43.9062H43.9539H44.0015L44.0492 47.43H44.0969H44.1445H44.1863H44.2339H44.2756L44.365 47.4953" fill="#A80000" fill-opacity="0.75"/>
<path d="M23.8662 6.85694L21.7686 7.84732L22.1142 6.25203L24.2118 5.26758L23.8662 6.85694Z" fill="#A80000" fill-opacity="0.75"/>
<path d="M44.2402 51.0831L42.1426 52.0676C42.6268 51.7498 42.967 51.2562 43.0906 50.6923C43.2142 50.1283 43.1114 49.5386 42.804 49.049L42.7385 48.96L44.8361 47.9756L44.9017 48.0645C45.209 48.5541 45.3118 49.1438 45.1882 49.7078C45.0646 50.2718 44.7244 50.7654 44.2402 51.0831Z" fill="#A80000" fill-opacity="0.75"/>
<path d="M43.5017 47.1272L41.4041 48.1116H41.2492H41.1479H41.0466H40.7307L40.6175 48.0642H40.5102H40.4089H40.3017L40.2063 48.0998L40.105 48.1353L40.0156 48.1769L42.1133 47.1865L42.2026 47.1509L42.304 47.1094H42.3993H42.5066H42.6079H42.7151H42.8164H43.2336H43.3349H43.4898" fill="#A80000" fill-opacity="0.75"/>
<path d="M49.1569 24.7333L47.0592 25.7237L21.3096 20.0246L23.4072 19.0342L49.1569 24.7333Z" fill="#A80000" fill-opacity="0.75"/>
<path d="M23.4075 19.0357L21.3099 20.0261L19.5221 19.6228C18.9262 19.4923 18.3303 19.3619 17.7344 19.2432L19.832 18.2588C20.4279 18.3774 21.0238 18.5079 21.6198 18.6383L23.4075 19.0357Z" fill="#A80000" fill-opacity="0.75"/>
<path d="M47.3209 68.5566L45.2232 69.5411C44.2573 69.9944 43.1679 70.1174 42.1245 69.891C41.6358 69.7842 41.1293 69.7012 40.6406 69.5885L42.7383 68.6041C43.2269 68.7108 43.7334 68.7998 44.2221 68.9065C45.2655 69.133 46.3549 69.01 47.3209 68.5566Z" fill="#A80000" fill-opacity="0.75"/>
<path d="M19.8254 18.2518L17.7278 19.2363C17.2306 19.1384 16.715 19.2007 16.2559 19.4142L18.3535 18.406C18.8112 18.1875 19.3285 18.125 19.8254 18.2281" fill="#A80000" fill-opacity="0.75"/>
<path d="M33.0962 53.0063L30.9986 53.9908L29.044 50.9485C29.0262 50.9175 29.0063 50.8878 28.9844 50.8595L31.082 49.8691C31.1039 49.8974 31.1238 49.9271 31.1416 49.9581L33.0962 53.0063Z" fill="#A80000" fill-opacity="0.75"/>
<path d="M31.0821 49.8779L28.9845 50.8683L28.9189 50.7794L31.0166 49.7949L31.0821 49.8779Z" fill="#A80000" fill-opacity="0.75"/>
<path d="M31.0168 49.7881L28.9192 50.7726L28.8477 50.6895L30.9453 49.7051L31.0168 49.7881Z" fill="#A80000" fill-opacity="0.75"/>
<path d="M12.0781 10.0048L9.98047 10.9952C10.052 10.6631 10.1056 10.331 10.1831 10.0048C10.3404 9.3196 10.6516 8.67871 11.0933 8.13024C11.535 7.58178 12.0958 7.13997 12.7336 6.83797L14.8313 5.85352C14.193 6.1548 13.6317 6.59638 13.1899 7.14496C12.7481 7.69354 12.4372 8.3348 12.2807 9.02038C12.2032 9.34655 12.1496 9.67866 12.0781 10.0048Z" fill="#A80000" fill-opacity="0.75"/>
<path d="M30.9455 49.704L28.8479 50.6885L28.7764 50.6114L30.874 49.627L30.9455 49.704Z" fill="#A80000" fill-opacity="0.75"/>
<path d="M30.8733 49.6318L28.7757 50.6162L28.6982 50.5451L30.7959 49.5547C30.82 49.582 30.8459 49.6078 30.8733 49.6318Z" fill="#A80000" fill-opacity="0.75"/>
<path d="M30.7963 49.5468L28.6987 50.5371L28.6152 50.466L30.7129 49.4756L30.7963 49.5468Z" fill="#A80000" fill-opacity="0.75"/>
<path d="M30.7125 49.4778L28.6149 50.4682L28.5315 50.397C28.5177 50.3997 28.5035 50.3997 28.4898 50.397H28.4421H28.3944L28.3527 50.3673H28.305H28.2574H28.2097H28.156H28.1084H28.0607H28.013H27.9594H27.9117H27.8581H27.8045H27.7508H27.7031H27.6436L29.7412 49.377H29.8008H29.8485H29.9021H29.9557H30.0094H30.057H30.1107H30.1583H30.206H30.2537H30.3073H30.355H30.4027H30.4503H30.492L30.5397 49.4066H30.5874H30.6291L30.7125 49.4718" fill="#A80000" fill-opacity="0.75"/>
<path d="M33.4658 57.9662L31.3682 58.9566C31.4338 58.9225 31.4974 58.8849 31.5589 58.8439L35.1344 56.5607C37.0294 55.3746 38.9363 54.1351 40.8314 52.9253L42.1603 52.0772L44.2579 51.0928L42.929 51.9408L37.232 55.5703L33.6565 57.8594C33.5964 57.9007 33.5325 57.9365 33.4658 57.9662Z" fill="#A80000" fill-opacity="0.75"/>
<path d="M33.3945 57.9847L31.2969 58.9691H31.3386L33.466 57.9609H33.4243" fill="#A80000" fill-opacity="0.75"/>
<path d="M46.3082 37.7802L44.2106 38.7647L18.4609 33.0714L20.5586 32.0811L46.3082 37.7802Z" fill="#A80000" fill-opacity="0.75"/>
<path d="M29.7421 49.0088L27.6445 49.9992H27.5432H27.5074H27.4002H26.9771H26.8758H26.7685H26.6672H26.5659L26.4586 50.0348L26.3633 50.0763L28.4609 49.0859L28.5563 49.0503L28.6635 49.0147H28.7648H28.8661H28.9734H29.0747H29.4978H29.6051H29.6587H29.76" fill="#A80000" fill-opacity="0.75"/>
<path d="M28.4424 49.1035L26.3447 50.0939H26.2852L28.3828 49.1094H28.4424" fill="#A80000" fill-opacity="0.75"/>
<path d="M20.559 32.0843L18.4614 33.0747L17.8952 32.9442L17.6926 32.8968L17.2695 32.8019L16.6259 32.6477H16.5365L16.0658 32.5409H15.9704L15.5414 32.4461L15.3924 32.4164L14.8799 32.3097L16.9775 31.3252L17.49 31.426L17.639 31.4616L18.068 31.5506H18.1634L18.6342 31.6573H18.7236L19.3672 31.7996L19.7903 31.9005L19.9929 31.9479L20.5888 32.0724" fill="#A80000" fill-opacity="0.75"/>
<path d="M16.9776 31.2884L14.8799 32.2728C14.3877 32.1651 13.8733 32.2257 13.4199 32.4448L15.5176 31.4603C15.9709 31.2412 16.4853 31.1806 16.9776 31.2884Z" fill="#A80000" fill-opacity="0.75"/>
<path d="M20.8978 49.6783L18.8002 50.6627C19.1024 50.5334 19.3687 50.3331 19.5762 50.079C19.7838 49.825 19.9264 49.5247 19.992 49.2038C20.1026 48.6409 19.9892 48.0572 19.6757 47.576C19.3622 47.0947 18.8731 46.7534 18.3115 46.6241L20.4092 45.6396C20.9702 45.7676 21.4593 46.1077 21.7729 46.588C22.0865 47.0684 22.2001 47.6513 22.0897 48.2135C22.0254 48.5356 21.8834 48.8373 21.6757 49.0925C21.468 49.3477 21.2011 49.5488 20.8978 49.6783Z" fill="#A80000" fill-opacity="0.75"/>
<path d="M20.3856 45.6368L18.2879 46.6213L12.001 45.2276L14.0986 44.2432L20.3856 45.6368Z" fill="#A80000" fill-opacity="0.75"/>
<path d="M14.0989 44.2416L12.0132 45.226C11.5305 45.1242 11.0275 45.1847 10.583 45.398L12.6806 44.4135C13.1251 44.2002 13.6281 44.1397 14.1108 44.2416" fill="#A80000" fill-opacity="0.75"/>
<path d="M2.78221 52.5667L0.68457 53.5512L9.98091 10.9943L12.0785 10.0039L2.78221 52.5667Z" fill="#A80000" fill-opacity="0.75"/>
<path d="M42.7383 68.6062L40.6347 69.5907L3.9082 61.46L6.00584 60.4756L42.7383 68.6062Z" fill="#A80000" fill-opacity="0.75"/>
<path d="M59.8001 19.5188L50.3786 62.6628C50.1941 63.8851 49.9192 65.0923 49.5563 66.2744C49.1193 67.2598 48.3501 68.0622 47.3816 68.543C46.4132 69.0238 45.3064 69.1527 44.2526 68.9075C43.7639 68.8008 43.2574 68.7118 42.7687 68.6051L6.00648 60.4744C5.16121 60.3105 4.37634 59.9218 3.73524 59.3496C3.09415 58.7774 2.62078 58.043 2.36541 57.2246C1.91251 55.6945 2.4548 54.0755 2.78255 52.5692L12.0789 10.0063C12.1504 9.68014 12.204 9.34803 12.2815 9.02186C12.5506 7.82794 13.2846 6.789 14.3225 6.13303C15.3603 5.47706 16.6173 5.25763 17.8176 5.52289L19.6947 5.93209L20.2907 6.06849L21.7209 6.38873L23.8483 6.85724L24.1939 5.26788C24.2476 5.03066 24.3131 4.78751 24.3668 4.56216C24.4751 4.08227 24.7693 3.66428 25.1855 3.39892C25.6016 3.13356 26.1061 3.04224 26.5895 3.14478C27.2868 3.27525 28.0019 3.42351 28.6991 3.5777L32.4057 4.40203C32.5254 3.88505 32.7096 3.38499 32.9539 2.91349C33.5634 1.79823 34.5367 0.923086 35.7133 0.432515C36.8899 -0.0580553 38.1994 -0.134734 39.4256 0.215136C39.5266 0.239 39.6261 0.268703 39.7236 0.304093L40.0216 0.410841C40.121 0.44727 40.2185 0.48884 40.3136 0.535381L40.5996 0.671781L40.8797 0.825973L41.1478 0.997956L41.416 1.1818C42.0984 1.70937 42.6499 2.38584 43.028 3.15906C43.4062 3.93227 43.6009 4.78158 43.5971 5.6415C43.5858 6.03975 43.542 6.43642 43.466 6.82759L49.3179 8.12043C49.4232 8.19676 49.5372 8.26046 49.6576 8.3102C49.9723 8.45118 50.2393 8.67981 50.4263 8.96848C50.6766 9.37222 50.7659 9.85462 50.6766 10.3206C50.5038 11.1746 50.331 11.9515 50.182 12.6454L55.7121 13.873C56.5844 14.0241 57.4113 14.3687 58.1315 14.8811C58.7862 15.3952 59.2902 16.0747 59.591 16.8487C59.8918 17.6227 59.9785 18.4629 59.8418 19.2815C59.834 19.3615 59.8201 19.4409 59.8001 19.5188ZM44.2407 51.0865C44.7265 50.7687 45.0679 50.274 45.1915 49.7086C45.3152 49.1432 45.2113 48.5521 44.9021 48.062L44.8366 47.9731L44.7889 47.896L44.7174 47.8129L44.6816 47.7773L44.6399 47.7299H44.6042L44.5565 47.6884L44.479 47.6172L44.3896 47.552L44.2764 47.469H44.2347H44.187H44.1453H44.0976H44.05L44.0023 47.4393H43.9546H43.9069H43.8533H43.8056H43.758H43.7103H43.6567H43.609H43.5554H43.5017H43.3468H43.2455H42.8283H42.727H42.6198H42.5185H42.4112H42.3158L42.2145 47.4808L42.1073 47.5283L42 47.5816L41.8749 47.6528L38.2993 49.942L33.1089 53.263L31.1424 49.9598C31.1246 49.9288 31.1047 49.899 31.0828 49.8708L31.0172 49.7878L30.9457 49.7047L30.8742 49.6276C30.8467 49.6036 30.8209 49.5779 30.7967 49.5506L30.7133 49.4794L30.6299 49.4142H30.5881H30.5405L30.4868 49.3252H30.4451H30.3975H30.3498H30.3021H30.2485H30.2008H30.1531H30.1055H30.0518H30.0041H29.9505H29.8969H29.8432H29.7956H29.736H29.6347H29.581H29.4738H29.0566H28.9553H28.8481H28.7468H28.6455L28.5382 49.3608L28.4428 49.3964L28.3415 49.4497C28.3056 49.4632 28.2716 49.4811 28.2402 49.5031C28.1992 49.5246 28.1594 49.5483 28.121 49.5743C27.6402 49.895 27.3032 50.3888 27.1809 50.9519C27.0587 51.5149 27.1607 52.1032 27.4655 52.5929L30.606 57.4736C30.7213 57.658 30.8662 57.8223 31.0351 57.9599C31.1435 58.0529 31.2613 58.1344 31.3867 58.2031L31.5774 58.292C31.8379 58.4027 32.1167 58.465 32.3997 58.4759H32.507H32.7215H32.8228L33.0314 58.4344L33.24 58.3691C33.3077 58.3444 33.3734 58.3147 33.4366 58.2802C33.5034 58.2505 33.5672 58.2148 33.6273 58.1734L37.2029 55.8843L42.8998 52.2548L44.2287 51.4068L44.2407 51.0865ZM45.3074 42.3451C45.5934 42.427 45.8932 42.4501 46.1885 42.413C46.4838 42.3759 46.7684 42.2793 47.0251 42.1292C47.2817 41.9791 47.5049 41.7786 47.6811 41.5399C47.8573 41.3011 47.9829 41.0292 48.0501 40.7407C48.1173 40.4521 48.1248 40.1529 48.0721 39.8614C48.0194 39.5699 47.9077 39.292 47.7436 39.0449C47.5795 38.7977 47.3666 38.5864 47.1179 38.4237C46.8691 38.2611 46.5897 38.1506 46.2966 38.0989L20.5588 32.0794L19.9629 31.9549L19.7603 31.9075L19.3372 31.8066L18.6936 31.6643H18.6042L18.1334 31.5576H18.0381L17.609 31.4686L17.46 31.433L16.9476 31.3322C16.6642 31.2673 16.3708 31.2585 16.0842 31.3066C15.7975 31.3546 15.5231 31.4584 15.2768 31.6121C15.0305 31.7658 14.817 31.9663 14.6487 32.2022C14.4803 32.4381 14.3604 32.7047 14.2957 32.9868C14.1806 33.5528 14.29 34.1412 14.6011 34.6287C14.9121 35.1162 15.4006 35.465 15.9643 35.6021L41.702 41.3013L42.6674 41.5148L43.0071 41.5919L43.3706 41.669L43.5256 41.7046L44.3003 41.8706L44.479 41.9062L45.2895 42.0723L45.3074 42.3451ZM48.132 29.0253C48.7048 29.1569 49.3068 29.0573 49.806 28.7483C50.3052 28.4393 50.6611 27.9461 50.7958 27.3766C50.9095 26.81 50.7996 26.2216 50.4889 25.7335C50.1782 25.2454 49.6906 24.8951 49.1272 24.7553L23.4073 19.0325L21.6196 18.6351C21.0236 18.5046 20.4277 18.3742 19.8318 18.2556C19.5482 18.1827 19.2528 18.1671 18.9631 18.2096C18.6733 18.2522 18.3951 18.3521 18.1448 18.5035C17.8945 18.6548 17.6772 18.8545 17.5057 19.0908C17.3342 19.3271 17.212 19.5951 17.1463 19.8792C17.0806 20.1633 17.0728 20.4575 17.1232 20.7446C17.1737 21.0318 17.2814 21.3059 17.4401 21.5509C17.5988 21.7959 17.8051 22.0068 18.047 22.1711C18.2889 22.3355 18.5615 22.4499 18.8485 22.5077L44.5863 28.2069L45.4265 28.3966L45.9867 28.5271L46.4038 28.622L47.119 28.7821H47.2143H47.3454L48.1678 28.9541L48.132 29.0253ZM19.4683 49.8411C20.0308 49.9651 20.6198 49.8626 21.1066 49.5559C21.5934 49.2493 21.9385 48.7634 22.0665 48.2043C22.177 47.6422 22.0634 47.0592 21.7498 46.5789C21.4361 46.0986 20.9471 45.7585 20.386 45.6305L14.0991 44.2428C13.5373 44.117 12.9483 44.218 12.4612 44.5238C11.9742 44.8295 11.6288 45.3149 11.5009 45.8737C11.3894 46.4401 11.5054 47.0274 11.824 47.5097C12.1426 47.9919 12.6385 48.3308 13.2052 48.4534L19.4683 49.8411ZM35.9276 5.11369L35.8978 5.20858V5.70673V5.78976V5.82534V5.9143V5.9736V6.00919V6.08628C35.9123 6.15563 35.9343 6.22323 35.9633 6.28792L35.9991 6.35908L36.0349 6.44804V6.48362L36.0885 6.56072V6.5963V6.63188L36.1481 6.70305C36.1805 6.74912 36.2164 6.79273 36.2553 6.83352H36.2911V6.86317H36.3209V6.89282H36.3507L36.4103 6.95213L36.4639 6.99364C36.5229 7.02998 36.5847 7.0617 36.6486 7.08853H36.6844H36.738H36.7738H36.8155H36.8632H36.9049H36.9704H37.0241H37.0777H37.1671H37.3638H37.5068H37.5485H37.6081H37.6617H37.7094H37.7749H37.8286L38.0252 7.02922H38.0848L38.1921 6.98178L38.2874 6.93434L38.3828 6.87503C38.4483 6.87503 38.4543 6.82166 38.4841 6.79201C38.538 6.75985 38.5898 6.72419 38.639 6.68526H38.6807L38.782 6.58444V6.54886L38.8476 6.47769L38.9072 6.4006V6.36501L38.9489 6.31757V6.27013V6.22268L38.9847 6.15152L39.0323 6.06849V6.02698L39.074 5.93802V5.89651V5.86686V5.81941V5.76604V5.70673V5.63557V5.58219V5.53475C39.0709 5.49528 39.0709 5.45562 39.074 5.41614C39.077 5.37072 39.077 5.32516 39.074 5.27974C39.0744 4.97307 39.003 4.67054 38.8655 4.3961L38.8059 4.28936L38.7701 4.23598C38.6505 4.04378 38.4922 3.87822 38.3053 3.74968H38.2695C38.1689 3.67046 38.0535 3.612 37.9299 3.5777H37.9001H37.8226H37.7511H37.7153H37.6677H37.614H37.5247L37.3518 3.53619C37.2944 3.53081 37.2365 3.53081 37.179 3.53619H36.9049C36.5977 3.5672 36.3019 3.6687 36.0408 3.83271L35.9574 3.89202L35.8859 3.95132L35.8084 4.01062L35.7309 4.07586L36.4818 4.17668L36.446 4.22412V4.27156H36.4103L36.3686 4.32494V4.39017V4.44355L36.1004 4.76972C36.0706 4.82903 36.0527 4.88833 36.0289 4.94764V5.04845C36.0241 5.06705 36.0144 5.08402 36.0008 5.09759C35.9872 5.11115 35.9701 5.12081 35.9514 5.12555" fill="#F0783C"/>
<path d="M6.00646 60.4697L3.90882 61.4542C3.06425 61.2908 2.27987 60.903 1.63884 60.3318C0.997808 59.7607 0.524034 59.0276 0.267754 58.2102C-0.185145 56.6802 0.357141 55.0552 0.684897 53.5489L2.78253 52.5645C2.45478 54.0708 1.91249 55.6898 2.36539 57.2199C2.62076 58.0383 3.09413 58.7727 3.73522 59.3449C4.37632 59.9171 5.16119 60.3058 6.00646 60.4697Z" fill="#A80000" fill-opacity="0.75"/>
</svg>
