<svg width="68" height="70" viewBox="0 0 68 70" fill="none" xmlns="http://www.w3.org/2000/svg">
<path d="M21.8207 25.9193C22.5811 25.8754 23.2937 25.534 23.8041 24.969C24.3146 24.404 24.5819 23.6609 24.5482 22.9004C24.5332 22.5256 24.444 22.1575 24.2857 21.8175C24.1274 21.4774 23.9033 21.172 23.6262 20.9191C23.3491 20.6662 23.0245 20.4706 22.6714 20.3438C22.3182 20.217 21.9433 20.1615 21.5685 20.1804C20.8086 20.2243 20.0966 20.5659 19.5871 21.1311C19.0776 21.6963 18.8116 22.4394 18.8469 23.1993C18.8611 23.5738 18.9497 23.9418 19.1073 24.2818C19.2649 24.6219 19.4886 24.9272 19.7652 25.1803C20.0418 25.4333 20.366 25.6289 20.7188 25.7558C21.0717 25.8826 21.4462 25.9382 21.8207 25.9193Z" fill="#F0783C"/>
<path d="M21.9957 29.8544C20.5058 29.9599 19.1172 30.6466 18.1295 31.7664C17.1419 32.8861 16.6344 34.3491 16.7167 35.8396L16.7577 36.7658L26.4829 36.2558C26.5854 35.254 26.9078 34.2872 27.4273 33.4244C27.018 32.3304 26.2712 31.3949 25.2947 30.7531C24.3183 30.1114 23.1629 29.7966 21.9957 29.8544Z" fill="#F0783C"/>
<path d="M43.5644 24.7836C44.3244 24.7411 45.0369 24.401 45.5475 23.8369C46.0581 23.2729 46.3256 22.5304 46.292 21.7705C46.2769 21.3957 46.1877 21.0277 46.0294 20.6876C45.8712 20.3475 45.647 20.0422 45.3699 19.7892C45.0928 19.5363 44.7683 19.3407 44.4151 19.2139C44.0619 19.0871 43.687 19.0316 43.3122 19.0505C42.5507 19.0929 41.8369 19.4349 41.3269 20.0017C40.8169 20.5685 40.5522 21.314 40.5906 22.0753C40.6064 22.4488 40.696 22.8155 40.8543 23.1542C41.0126 23.4929 41.2365 23.7969 41.5129 24.0487C41.7894 24.3004 42.113 24.495 42.4652 24.6212C42.8173 24.7473 43.1909 24.8025 43.5644 24.7836Z" fill="#F0783C"/>
<path d="M33.3285 39.7618C34.0916 39.7194 34.8069 39.3768 35.318 38.8089C35.8291 38.241 36.0944 37.494 36.0561 36.7311C36.0403 36.3566 35.9505 35.9889 35.792 35.6492C35.6334 35.3095 35.4093 35.0045 35.1323 34.7517C34.8554 34.4989 34.5312 34.3033 34.1783 34.1762C33.8255 34.0491 33.4509 33.993 33.0763 34.0111C32.3164 34.0551 31.6044 34.3967 31.0949 34.9619C30.5854 35.527 30.3194 36.2702 30.3547 37.0301C30.3682 37.4054 30.4561 37.7742 30.6134 38.1152C30.7706 38.4563 30.994 38.7627 31.2706 39.0168C31.5473 39.2709 31.8716 39.4676 32.2249 39.5955C32.5781 39.7234 32.9533 39.7799 33.3285 39.7618Z" fill="#F0783C"/>
<path d="M43.7398 28.7187C42.5716 28.7888 41.4545 29.222 40.5448 29.9577C39.6351 30.6935 38.9782 31.695 38.666 32.8222C39.2712 33.6305 39.6881 34.5639 39.8861 35.5539L49.6113 35.0498L49.5702 34.1235C49.5484 33.3842 49.3796 32.6565 49.0736 31.983C48.7676 31.3095 48.3306 30.7035 47.7879 30.2005C47.2453 29.6974 46.6079 29.3074 45.9129 29.053C45.2179 28.7986 44.4792 28.6849 43.7398 28.7187Z" fill="#F0783C"/>
<path d="M33.5045 43.6955C32.0146 43.801 30.626 44.4877 29.6383 45.6075C28.6506 46.7272 28.1432 48.1902 28.2254 49.6807L28.2665 50.6128L39.3584 50.0266L39.2997 49.1003C39.2771 48.3643 39.1088 47.64 38.8048 46.9692C38.5007 46.2985 38.0668 45.6945 37.5281 45.192C36.9894 44.6896 36.3566 44.2987 35.666 44.0419C34.9754 43.785 34.2408 43.6673 33.5045 43.6955Z" fill="#F0783C"/>
<path d="M58.6563 39.977L66.1819 37.7201L65.695 27.0511L58.0169 25.5915C57.3859 23.686 56.5314 21.862 55.4712 20.1573L59.2428 13.2811L51.3536 6.10003L44.8544 10.4966C43.0539 9.60694 41.1565 8.92829 39.2 8.47417L37.0004 0.970703L26.3191 1.55691L24.7999 9.23625C22.8879 9.88254 21.0574 10.7481 19.3448 11.8156L12.4645 8.07555L5.24387 16.0128L9.59616 22.4611C8.69076 24.2651 7.996 26.1671 7.5256 28.1298L0 30.4042L0.475116 41.0732L8.14149 42.5329C8.77498 44.4374 9.62935 46.2611 10.6872 47.9671L6.91557 54.9019L14.799 62.0595L21.304 57.6571C23.1132 58.5383 25.0186 59.2072 26.9819 59.6502L29.1756 67.1537L39.8569 66.5675L41.3761 58.8881C43.2918 58.2419 45.1262 57.3764 46.8429 56.3088L53.7174 60.0195L60.938 52.0822L56.5857 45.6339C57.4903 43.8337 58.185 41.9357 58.6563 39.977ZM51.7348 38.8691L39.4346 39.5081C39.1985 40.0586 38.8929 40.5767 38.5254 41.0498C39.8995 41.863 41.0485 43.0064 41.868 44.3762C42.6875 45.746 43.1515 47.2987 43.2179 48.8933L43.347 51.7833C43.3678 52.304 43.1824 52.812 42.8311 53.1971C42.4797 53.5822 41.9907 53.8135 41.47 53.8409L26.4657 54.6205C26.2092 54.6347 25.9525 54.5979 25.7104 54.5123C25.4683 54.4266 25.2455 54.2938 25.0551 54.1215C24.8647 53.9492 24.7104 53.7409 24.6012 53.5085C24.4919 53.2762 24.4298 53.0246 24.4186 52.7681L24.2896 49.884C24.218 48.279 24.5448 46.6812 25.2407 45.2329C25.9366 43.7847 26.9801 42.5309 28.2782 41.5832C27.8676 41.1511 27.5165 40.6661 27.2341 40.1412L14.9573 40.7801C14.6999 40.7951 14.4421 40.7588 14.1989 40.6731C13.9557 40.5874 13.7321 40.4542 13.541 40.2812C13.3498 40.1082 13.1951 39.8989 13.0858 39.6656C12.9765 39.4322 12.9148 39.1793 12.9044 38.9219L12.7812 36.0436C12.707 34.438 13.0319 32.839 13.7269 31.3895C14.4219 29.94 15.4653 28.6851 16.764 27.737C15.6451 26.5637 14.9906 25.0243 14.9222 23.4049C14.8452 21.6073 15.4787 19.8516 16.6859 18.5168C17.8931 17.1821 19.5771 16.3753 21.3743 16.2708C22.2633 16.2251 23.1525 16.3561 23.9904 16.6564C24.8284 16.9566 25.5983 17.42 26.2558 18.0198C26.9132 18.6196 27.445 19.3438 27.8203 20.1504C28.1957 20.9571 28.4071 21.8301 28.4424 22.719C28.5155 24.3457 28.0037 25.9448 26.9995 27.227C28.4388 28.0757 29.6285 29.289 30.4485 30.7442C30.5421 30.6983 30.638 30.6572 30.7359 30.6211C31.1282 30.4647 31.5349 30.3469 31.9501 30.2694C32.1554 30.2284 32.3665 30.1991 32.5718 30.1756H32.8886H33.1994C33.4085 30.1638 33.618 30.1638 33.8271 30.1756C34.3516 30.2228 34.869 30.329 35.3697 30.4922C36.0605 28.9627 37.1355 27.638 38.4902 26.6466C37.3753 25.4713 36.7233 23.9327 36.6543 22.3146C36.5773 20.517 37.2108 18.7613 38.418 17.4265C39.6252 16.0917 41.3092 15.285 43.1065 15.1804C43.9929 15.1395 44.8786 15.2741 45.7128 15.5764C46.547 15.8787 47.3131 16.3429 47.9672 16.9421C48.6214 17.5413 49.1505 18.2639 49.5243 19.0682C49.8981 19.8724 50.1091 20.7426 50.1452 21.6287C50.213 23.2556 49.6995 24.8535 48.6964 26.1366C50.0709 26.9508 51.2201 28.0952 52.0396 29.466C52.8591 30.8368 53.3229 32.3905 53.3889 33.986L53.5121 36.8701C53.5186 37.3686 53.3369 37.8513 53.0031 38.2218C52.6694 38.5923 52.2081 38.8234 51.7114 38.8691H51.7348Z" fill="#F0783C"/>
<path d="M41.0414 10.2914L38.8418 2.78795L37 0.970703L39.1996 8.47418L41.0414 10.2914Z" fill="#A80000" fill-opacity="0.75"/>
<path d="M24.4719 23.6868C24.4425 23.8185 24.4033 23.9478 24.3546 24.0737C24.3023 24.2045 24.2416 24.3318 24.1727 24.4547C24.0912 24.6028 23.9949 24.7422 23.8853 24.8709C23.6331 25.1797 23.3192 25.4325 22.9637 25.6131C22.6082 25.7938 22.2189 25.8984 21.8206 25.9202C21.4285 25.9403 21.0365 25.8782 20.6698 25.7379C20.3031 25.5975 19.9698 25.3821 19.6914 25.1054L21.5332 26.9227C21.8116 27.1994 22.1449 27.4148 22.5116 27.5551C22.8783 27.6954 23.2703 27.7576 23.6624 27.7375C24.0607 27.7157 24.45 27.6111 24.8055 27.4304C25.161 27.2497 25.4749 26.9969 25.7271 26.6882C25.8348 26.558 25.9309 26.4187 26.0146 26.272C26.0834 26.1491 26.1442 26.0218 26.1964 25.8909C26.2444 25.7648 26.2836 25.6355 26.3137 25.504C26.3442 25.3688 26.3658 25.2317 26.3782 25.0937C26.387 24.9688 26.387 24.8434 26.3782 24.7185C26.3811 24.6795 26.3811 24.6403 26.3782 24.6013C26.3561 24.3495 26.3029 24.1014 26.2198 23.8627C26.1195 23.5943 25.9812 23.3416 25.8093 23.1123C25.7258 23.0051 25.6357 22.9033 25.5394 22.8075L23.6976 20.9961C23.7952 21.0886 23.8854 21.1885 23.9674 21.2951C24.1394 21.5243 24.2776 21.777 24.378 22.0454C24.4638 22.2834 24.5171 22.5318 24.5364 22.784C24.5364 22.8251 24.5364 22.8602 24.5364 22.9013C24.5453 23.0262 24.5453 23.1515 24.5364 23.2764C24.5269 23.4148 24.5053 23.5521 24.4719 23.6868Z" fill="#A80000" fill-opacity="0.75"/>
<path d="M8.14098 42.5309L0.474609 41.0713L2.31055 42.8885L9.98279 44.3482L8.14098 42.5309Z" fill="#A80000" fill-opacity="0.75"/>
<path d="M12.9049 38.9211C12.9078 38.9483 12.9078 38.9758 12.9049 39.0031C12.9205 39.1752 12.9579 39.3446 13.0164 39.5073C13.0832 39.6908 13.1782 39.8629 13.2979 40.0173C13.3524 40.1014 13.4174 40.1783 13.4915 40.2459L15.3274 42.0631C15.2629 41.9987 15.2042 41.9283 15.1456 41.858C15.0277 41.7033 14.9347 41.5312 14.8699 41.348C14.8115 41.1853 14.774 41.0159 14.7584 40.8438C14.7584 40.8438 14.7584 40.7911 14.7584 40.7618L14.6294 37.8835C14.6136 37.4533 14.6254 37.0225 14.6646 36.5938C14.7305 35.6754 14.9281 34.7713 15.2512 33.909C15.4135 33.4667 15.6096 33.0375 15.8377 32.6252C16.5176 31.417 17.4499 30.3694 18.5711 29.5534C17.9235 28.8862 17.4292 28.0861 17.1223 27.2086C16.9188 26.652 16.7925 26.0702 16.7469 25.4793V25.2155C16.7292 24.9246 16.7292 24.6329 16.7469 24.3421C16.7734 24.0143 16.8244 23.6891 16.8994 23.3689C16.9692 23.0592 17.0634 22.7553 17.1809 22.4603C17.4468 21.777 17.819 21.14 18.2837 20.5727C18.8834 19.8393 19.63 19.2393 20.4755 18.8113C21.321 18.3832 22.2467 18.1366 23.1932 18.0872C24.1269 18.0356 25.0611 18.1806 25.9351 18.5128C26.8092 18.845 27.6036 19.3571 28.267 20.0158L26.4252 18.1986C25.7618 17.5399 24.9674 17.0278 24.0933 16.6955C23.2193 16.3633 22.2851 16.2183 21.3514 16.27C20.4049 16.3193 19.4792 16.566 18.6337 16.994C17.7882 17.4221 17.0416 18.0221 16.4419 18.7555C16.2129 19.0619 16.0107 19.3875 15.8377 19.7286C15.6715 20.0178 15.5283 20.3197 15.4095 20.6314C15.2946 20.9273 15.2005 21.2309 15.128 21.54C15.0558 21.8606 15.0049 22.1857 14.9755 22.5131C14.9578 22.8059 14.9578 23.0996 14.9755 23.3924V23.6503C15.0211 24.2412 15.1474 24.823 15.3509 25.3796C15.5859 26.0309 15.9202 26.6419 16.3422 27.191C16.4834 27.3782 16.6362 27.5563 16.7997 27.7245C16.1445 28.209 15.5533 28.7742 15.04 29.4069C14.6804 29.8405 14.3604 30.3055 14.0839 30.7962C13.858 31.2116 13.662 31.6426 13.4973 32.0859C13.3371 32.5069 13.2039 32.9376 13.0985 33.3755C12.9929 33.8328 12.9204 34.2971 12.8814 34.7648C12.852 35.1864 12.852 35.6095 12.8814 36.0311L12.9049 38.9211Z" fill="#A80000" fill-opacity="0.75"/>
<path d="M28.8584 29.0165C29.5325 29.4133 30.1551 29.8917 30.7119 30.4409L28.8701 28.6237C28.3147 28.0745 27.6919 27.5979 27.0166 27.2051L28.8584 29.0165Z" fill="#A80000" fill-opacity="0.75"/>
<path d="M18.582 38.5834L28.3072 38.0734C28.3361 37.7835 28.3831 37.4957 28.448 37.2116C28.5271 36.9031 28.625 36.5996 28.7413 36.303C28.8626 35.9924 29.0056 35.6907 29.1695 35.4003C29.1695 35.3475 29.2282 35.2947 29.2633 35.242C29.0696 34.738 28.805 34.2643 28.4774 33.8351C28.3194 33.6277 28.1469 33.4318 27.9612 33.2489L26.1076 31.4551C26.6758 32.0239 27.1192 32.7046 27.4098 33.454L27.316 33.6123C27.1521 33.9048 27.009 34.2084 26.8878 34.5209C26.7755 34.8158 26.6814 35.1173 26.6062 35.4237C26.5413 35.7077 26.4943 35.9955 26.4654 36.2854L16.7402 36.7954L18.582 38.5834Z" fill="#A80000" fill-opacity="0.75"/>
<path d="M32.3018 32.5212L32.595 32.3981C32.9879 32.2417 33.3943 32.122 33.8092 32.0405C34.0145 32.0053 34.2257 31.976 34.431 31.9526H34.7477H35.0586C35.2698 31.9526 35.4809 31.9526 35.6862 31.9819C36.2093 32.0257 36.7253 32.1319 37.223 32.2984C37.3462 32.0288 37.4811 31.765 37.6219 31.5129C37.9005 31.0286 38.2184 30.5679 38.5721 30.1353C39.0839 29.5012 39.6753 28.9358 40.3318 28.4529C40.1676 28.2829 40.0209 28.107 39.8743 27.9253C39.4545 27.3748 39.1203 26.7641 38.883 26.1139C38.6855 25.5556 38.5594 24.9745 38.5076 24.3846C38.5076 24.2967 38.5076 24.2087 38.5076 24.1208C38.4841 23.8301 38.4841 23.538 38.5076 23.2474C38.5466 22.9059 38.6153 22.5686 38.7129 22.2391C38.7834 21.9301 38.8756 21.6265 38.9886 21.3305C39.1098 21.0198 39.2529 20.7182 39.4168 20.4277C39.9856 19.4293 40.7947 18.5885 41.7708 17.9814C42.7469 17.3744 43.8591 17.0204 45.0067 16.9515C45.9401 16.9028 46.8734 17.0491 47.7471 17.3812C48.6207 17.7133 49.4154 18.2238 50.0805 18.8801L48.2387 17.0629C47.5749 16.4064 46.7813 15.8957 45.9085 15.5636C45.0358 15.2315 44.1033 15.0852 43.1708 15.1342C42.2232 15.1853 41.2967 15.4333 40.4504 15.8622C39.604 16.2912 38.8565 16.8918 38.2554 17.6256C37.9893 17.933 37.7499 18.2625 37.5398 18.6105C37.3778 18.901 37.2367 19.2027 37.1174 19.5132C36.9999 19.8082 36.9057 20.112 36.8359 20.4218C36.758 20.7414 36.707 21.0669 36.6834 21.3949C36.6657 21.6858 36.6657 21.9775 36.6834 22.2684C36.6776 22.3562 36.6776 22.4444 36.6834 22.5322C36.729 23.123 36.8553 23.7049 37.0588 24.2615C37.2917 24.9125 37.6241 25.5236 38.0442 26.0729C38.1909 26.2546 38.3434 26.4363 38.5017 26.6005C37.8465 27.0849 37.2553 27.6502 36.742 28.2829C36.3842 28.715 36.0625 29.1758 35.7801 29.6605C35.6393 29.9184 35.5044 30.1764 35.3871 30.446C34.8864 30.2829 34.3689 30.1767 33.8444 30.1295C33.6354 30.1176 33.4258 30.1176 33.2168 30.1295H32.9059H32.5892C32.3839 30.1295 32.1727 30.1822 31.9674 30.2233C31.5522 30.3008 31.1456 30.4186 30.7532 30.575C30.6554 30.611 30.5594 30.6521 30.4658 30.6981L32.3018 32.5212Z" fill="#A80000" fill-opacity="0.75"/>
<path d="M46.2209 22.554C46.1887 22.6837 46.1476 22.811 46.0977 22.935C46.0487 23.0662 45.9898 23.1936 45.9218 23.3161C45.8362 23.4634 45.7402 23.6045 45.6344 23.7381C45.3809 24.0465 45.0658 24.2986 44.7093 24.4783C44.3527 24.658 43.9626 24.7613 43.5638 24.7816C43.172 24.8035 42.7799 24.7428 42.4131 24.6034C42.0462 24.4641 41.7129 24.2491 41.4346 23.9726L43.2764 25.7899C43.5547 26.0664 43.8881 26.2813 44.2549 26.4207C44.6217 26.5601 45.0138 26.6208 45.4056 26.5988C45.8041 26.5781 46.1937 26.4739 46.5494 26.2932C46.9051 26.1124 47.2188 25.8591 47.4703 25.5495C47.5799 25.4208 47.6762 25.2814 47.7577 25.1333C47.83 25.0122 47.8909 24.8846 47.9395 24.7523C47.9883 24.6264 48.0275 24.4971 48.0569 24.3654C48.0926 24.231 48.1162 24.0936 48.1272 23.955C48.1272 23.8319 48.1272 23.7088 48.1272 23.5857C48.1272 23.4626 48.1272 23.5036 48.1272 23.4685C48.1032 23.2164 48.048 22.9683 47.963 22.7298C47.8626 22.4615 47.7243 22.2088 47.5524 21.9795C47.4708 21.8726 47.3826 21.7708 47.2885 21.6747L45.4467 19.8574C45.5405 19.9571 45.6285 20.0567 45.7106 20.1623C46.0433 20.593 46.2467 21.1094 46.2972 21.6512C46.2972 21.6923 46.2972 21.7274 46.2972 21.7685C46.2972 21.8095 46.2972 22.0147 46.2972 22.1378C46.2809 22.278 46.2554 22.4171 46.2209 22.554Z" fill="#A80000" fill-opacity="0.75"/>
<path d="M26.3959 49.0403C26.4959 48.599 26.6292 48.1659 26.7947 47.7447C27.1658 46.7748 27.6929 45.8719 28.355 45.0716C28.8685 44.4391 29.4597 43.8739 30.1147 43.3892C29.9504 43.2133 29.7979 43.0316 29.6513 42.844C29.4315 42.5617 29.2353 42.2617 29.0647 41.9471L27.2229 40.1299C27.3935 40.4444 27.5897 40.7444 27.8095 41.0268C27.9561 41.2144 28.1086 41.3961 28.2729 41.572C27.6179 42.0566 27.0267 42.6219 26.5132 43.2544C26.1554 43.6881 25.8374 44.1531 25.563 44.6437C25.3348 45.058 25.1387 45.4891 24.9764 45.9333C24.8126 46.3531 24.6793 46.7841 24.5775 47.223C24.4696 47.6779 24.397 48.1404 24.3605 48.6065C24.3242 49.0275 24.3144 49.4504 24.3312 49.8727L24.4602 52.7568C24.4602 52.7568 24.4602 52.8096 24.4602 52.833C24.4729 53.0056 24.5105 53.1753 24.5717 53.3372C24.6377 53.5199 24.7306 53.6918 24.8473 53.8472C24.906 53.9175 24.9647 53.9879 25.0292 54.0523L26.871 55.8696C26.8042 55.8048 26.7434 55.7342 26.6892 55.6586C26.4605 55.3696 26.3255 55.0179 26.302 54.6503C26.2991 54.625 26.2991 54.5994 26.302 54.5741L26.173 51.6899C26.1465 51.2683 26.1465 50.8454 26.173 50.4237C26.2144 49.9579 26.2888 49.4955 26.3959 49.0403Z" fill="#A80000" fill-opacity="0.75"/>
<path d="M35.9856 37.5266C35.9542 37.6585 35.9131 37.7878 35.8624 37.9135C35.8149 38.0464 35.754 38.1741 35.6806 38.2946C35.5991 38.4445 35.5028 38.5859 35.3931 38.7166C35.1418 39.026 34.828 39.2788 34.4722 39.4586C34.1164 39.6384 33.7267 39.7411 33.3284 39.7601C32.9375 39.7819 32.5463 39.7212 32.1805 39.5818C31.8146 39.4424 31.4823 39.2275 31.2051 38.9511L33.041 40.7684C33.322 41.0479 33.6592 41.2647 34.0303 41.4041C34.4015 41.5436 34.798 41.6026 35.1937 41.5773C35.5916 41.5566 35.9807 41.4531 36.3362 41.2734C36.6918 41.0937 37.0059 40.8418 37.2584 40.5339C37.3681 40.4032 37.4644 40.2618 37.5458 40.1118C37.6158 39.9895 37.6766 39.8621 37.7277 39.7308C37.7764 39.6049 37.8156 39.4756 37.845 39.3439C37.8803 39.2094 37.9038 39.0721 37.9154 38.9335C37.9154 38.8104 37.9154 38.6815 37.9154 38.5584C37.9154 38.4353 37.9154 38.4822 37.9154 38.4411C37.8618 37.9 37.6587 37.3845 37.3288 36.9521C37.2471 36.8471 37.1589 36.7473 37.0648 36.6532L35.1937 34.8359C35.4913 35.1356 35.7213 35.4953 35.8683 35.8911C35.9566 36.1266 36.0118 36.3732 36.0325 36.6239C36.0325 36.6649 36.0325 36.7001 36.0325 36.7411C36.0325 36.7821 36.0325 36.9932 36.0325 37.1163C36.0259 37.2539 36.0102 37.391 35.9856 37.5266Z" fill="#A80000" fill-opacity="0.75"/>
<path d="M50.6026 27.8876C51.2767 28.2844 51.8992 28.7628 52.4561 29.312L50.6143 27.4948C50.0559 26.9473 49.4336 26.4691 48.7607 26.0703L50.6026 27.8876Z" fill="#A80000" fill-opacity="0.75"/>
<path d="M40.3848 42.4792C39.8248 41.9294 39.2005 41.4491 38.5254 41.0488L40.3672 42.8661C41.0454 43.2621 41.672 43.7406 42.2325 44.2906L40.3848 42.4792Z" fill="#A80000" fill-opacity="0.75"/>
<path d="M58.0174 25.5897L59.8592 27.4069C59.7946 27.2135 59.7243 27.0142 59.6539 26.8207C59.0463 25.126 58.2598 23.5009 57.3076 21.9728L61.0792 15.0672L59.2433 13.2793L55.4717 20.1555C56.4203 21.6856 57.2066 23.3104 57.8179 25.0035L58.0174 25.5897Z" fill="#A80000" fill-opacity="0.75"/>
<path d="M51.3824 35.9421V35.7076C51.2894 34.6149 50.882 33.5725 50.2092 32.7062C50.0492 32.4988 49.8747 32.303 49.6872 32.12L47.8513 30.2793C48.0403 30.4608 48.2149 30.6568 48.3733 30.8655C48.7236 31.3252 49.0024 31.8351 49.2004 32.3779C49.3745 32.8575 49.483 33.3583 49.523 33.8669C49.523 33.9431 49.523 34.0252 49.523 34.1014L49.564 35.0276L39.8857 35.5552L41.7217 37.3724L51.4528 36.8683L51.3824 35.9421Z" fill="#A80000" fill-opacity="0.75"/>
<path d="M21.3044 57.6272L14.7994 62.0297L6.91602 54.9014L8.75782 56.7186L16.6412 63.8704L23.1403 59.4738C24.9429 60.3635 26.8423 61.0421 28.8007 61.4962L26.9823 59.6497C25.0178 59.1973 23.1124 58.5186 21.3044 57.6272Z" fill="#A80000" fill-opacity="0.75"/>
<path d="M41.1886 51.8478L41.1475 50.9157V50.6812C41.1069 50.1746 40.9984 49.6758 40.8249 49.1981C40.627 48.6534 40.3482 48.1416 39.9979 47.6798C39.8394 47.4711 39.6649 47.2751 39.4758 47.0936L37.634 45.2764C37.8229 45.458 37.9974 45.654 38.1561 45.8626C38.5076 46.3214 38.7865 46.8315 38.9831 47.375C39.1523 47.8556 39.2588 48.3561 39.2999 48.864C39.2999 48.946 39.2999 49.0222 39.2999 49.0984L39.3409 50.0305L28.249 50.6167L30.085 52.4281L41.1886 51.8478Z" fill="#A80000" fill-opacity="0.75"/>
<path d="M59.4248 45.1597C59.8496 44.0628 60.2004 42.9387 60.4748 41.7949L68.0004 39.538L67.5253 28.869L65.6952 27.0518L66.1703 37.7208L58.6564 39.9777C58.3829 41.1217 58.0321 42.2459 57.6065 43.3425C57.3073 44.128 56.9613 44.896 56.5859 45.6463L60.9382 52.0946L53.6941 60.0494L46.8196 56.3387C45.103 57.4063 43.2685 58.2718 41.3528 58.9181L39.8337 66.6267L29.1523 67.2129L30.9942 69.0302L41.6755 68.444L43.1947 60.7646C45.1197 60.1108 46.9622 59.2353 48.6849 58.156L55.5594 61.8667L62.7624 53.9294L58.4101 47.4811C58.7816 46.7191 59.1198 45.9453 59.4248 45.1597Z" fill="#A80000" fill-opacity="0.75"/>
</svg>
