<svg width="80" height="81" viewBox="0 0 80 81" fill="none" xmlns="http://www.w3.org/2000/svg">
<path d="M54.5743 6.79102L51.3614 10.3768C51.1264 10.6236 50.8112 10.7787 50.4722 10.8142L53.685 7.22848C54.024 7.19295 54.3393 7.03787 54.5743 6.79102Z" fill="#AB3A0A"/>
<path d="M53.6843 7.2168L50.4715 10.8026C49.9075 11.0175 49.4016 11.3614 48.9941 11.8066L52.207 8.22081C52.6158 7.77718 53.1213 7.43364 53.6843 7.2168Z" fill="#AB3A0A"/>
<path d="M49.4594 17.4245L46.2466 21.0103C45.5868 17.4245 44.8123 12.8563 47.2793 10.0594L50.4921 6.47363C47.9893 9.27053 48.7997 13.8531 49.4594 17.4245Z" fill="#AB3A0A"/>
<path d="M49.6951 23.3374L46.4823 26.9231C47.1277 25.8904 46.6114 23.4019 46.2456 21.0281L49.4584 17.4424C49.8242 19.8162 50.3405 22.2975 49.6951 23.3374Z" fill="#AB3A0A"/>
<path d="M51.5751 29.7924L48.3623 33.3782L48.642 33.0555L51.8548 29.4697L51.5751 29.7924Z" fill="#AB3A0A"/>
<path d="M47.5581 26.3356L44.3452 29.9214C45.1741 28.9995 45.8959 27.9866 46.4967 26.9022L49.7095 23.3164C49.1087 24.4009 48.387 25.4137 47.5581 26.3356Z" fill="#AB3A0A"/>
<path d="M35.1518 21.7058L31.939 25.2915V25.2557L35.1518 21.6699" fill="#AB3A0A"/>
<path d="M44.8701 25.2566L41.6572 28.8423C39.8481 30.6291 37.5359 31.8202 35.0307 32.256L34.371 32.3564H34.1128L37.3256 28.7706L37.591 28.7347L38.2436 28.6343C40.7482 28.1969 43.0598 27.006 44.8701 25.2207" fill="#AB3A0A"/>
<path d="M42.8818 37.4291L39.6689 41.0148C40.2599 40.3459 40.6741 39.5397 40.8738 38.6697L44.0866 35.084C43.8869 35.9539 43.4727 36.7601 42.8818 37.4291Z" fill="#AB3A0A"/>
<path d="M37.3265 28.8096L34.1136 32.3953C33.1738 32.685 32.3308 33.2256 31.6753 33.9587L34.8881 30.373C35.54 29.6473 36.3746 29.1099 37.3049 28.8167" fill="#AB3A0A"/>
<path d="M37.2371 32.5947L34.0171 36.1805C34.0277 35.8334 34.1596 35.5009 34.39 35.241L37.6029 31.6553C37.3745 31.9159 37.2451 32.2484 37.2371 32.5947Z" fill="#AB3A0A"/>
<path d="M49.309 28.1084L46.089 31.6942C43.4237 34.7261 39.7985 36.7513 35.8194 37.4314L35.4321 37.4959L38.645 33.9102L39.0394 33.8456C43.018 33.1639 46.6426 31.1389 49.309 28.1084Z" fill="#AB3A0A"/>
<path d="M38.6452 33.881L35.4324 37.4668C35.0778 37.4689 34.735 37.3397 34.4701 37.1039C34.2052 36.8682 34.037 36.5427 33.998 36.1903L37.2181 32.6045C37.2571 32.9569 37.4252 33.2824 37.6901 33.5182C37.955 33.7539 38.2978 33.8832 38.6524 33.881" fill="#AB3A0A"/>
<path d="M60.5334 67.9248L57.3205 71.5106C56.9186 71.962 56.3698 72.2567 55.7715 72.3425L58.9843 68.7567C59.5827 68.671 60.1314 68.3763 60.5334 67.9248Z" fill="#AB3A0A"/>
<path d="M22.6245 36.6564L19.4116 40.2493L31.9403 25.3039L35.1531 21.7109L22.6245 36.6564Z" fill="#AB3A0A"/>
<path d="M22.0241 38.9074L18.8112 42.4932C18.7339 42.1049 18.7447 41.7043 18.8427 41.3208C18.9408 40.9373 19.1236 40.5806 19.3778 40.2772L22.5978 36.6914C22.3415 36.9937 22.1567 37.3501 22.0574 37.7338C21.9581 38.1175 21.9467 38.5187 22.0241 38.9074Z" fill="#AB3A0A"/>
<path d="M58.9834 68.7461L55.7705 72.339L26.7617 76.6635L29.9746 73.0705L58.9834 68.7461Z" fill="#AB3A0A"/>
<path d="M26.9129 70.6872L23.7001 74.2801L18.8091 42.5031L22.0219 38.9102L26.9129 70.6872Z" fill="#AB3A0A"/>
<path d="M38.8451 31.1437L38.4937 31.1939C38.1438 31.2362 37.8218 31.4058 37.589 31.6703C37.3562 31.9348 37.2289 32.2758 37.2315 32.6282C37.2705 32.9806 37.4386 33.3061 37.7035 33.5419C37.9684 33.7776 38.3112 33.9069 38.6658 33.9047L39.0602 33.8402C41.7354 33.3673 44.2682 32.2927 46.4672 30.6975C48.6662 29.1023 50.4739 27.0282 51.7538 24.632C52.808 22.7243 52.3849 19.9489 51.7897 16.9369C50.8789 11.9168 50.4916 8.49603 53.6543 7.2195C53.8484 7.21423 54.0384 7.16241 54.2083 7.06839C54.3781 6.97437 54.523 6.8409 54.6305 6.67924C54.7381 6.51757 54.8052 6.33242 54.8262 6.13939C54.8473 5.94637 54.8217 5.75111 54.7515 5.57005C54.6328 5.27915 54.4218 5.03528 54.151 4.87592C53.8802 4.71656 53.5646 4.65052 53.2527 4.68795C53.1817 4.69707 53.112 4.7139 53.0447 4.73815C47.5728 6.88961 48.6342 12.9424 49.4589 17.4102C49.8247 19.784 50.341 22.2654 49.6956 23.3052C48.6137 25.3598 47.0713 27.1364 45.189 28.4962C43.3068 29.856 41.1356 30.7621 38.8451 31.1437Z" fill="#F0783C"/>
<path d="M61.1925 65.591L56.28 33.6706C56.129 32.8808 55.6828 32.1782 55.0321 31.7056L51.8551 29.4753C49.7365 31.9238 47.0776 33.8462 44.0884 35.0906C43.8591 36.1273 43.3175 37.0688 42.5366 37.7881C41.7556 38.5075 40.7729 38.9702 39.7209 39.1138C38.3205 39.318 36.896 38.962 35.7562 38.1229C34.6165 37.2839 33.8534 36.0295 33.6323 34.6316C33.4507 33.3807 33.7235 32.1061 34.4011 31.0391C35.0787 29.972 36.1163 29.1831 37.3256 28.8155L37.591 28.7796L38.2436 28.6792C40.7482 28.2417 43.0598 27.0509 44.8701 25.2656L38.5807 21.185C38.0359 20.8696 37.4003 20.7483 36.7777 20.8407C36.1551 20.9332 35.5822 21.2341 35.1527 21.6942L22.624 36.6611C22.3588 36.9659 22.1667 37.3271 22.0623 37.7174C21.9579 38.1076 21.944 38.5165 22.0216 38.913L26.9126 70.6685C27.0212 71.3833 27.4003 72.0291 27.9716 72.4722C28.5429 72.9154 29.2626 73.122 29.982 73.0494L58.9836 68.7465C59.3379 68.6887 59.677 68.5605 59.981 68.3695C60.2849 68.1785 60.5476 67.9286 60.7535 67.6346C60.9593 67.3405 61.1042 67.0082 61.1796 66.6572C61.255 66.3062 61.2594 65.9437 61.1925 65.591Z" fill="#F0783C"/>
<path d="M29.98 73.0812L26.76 76.6669C26.0382 76.7389 25.3166 76.5291 24.7459 76.0813C24.1752 75.6336 23.7996 74.9826 23.6978 74.2645L26.9106 70.6787C27.0192 71.3935 27.3983 72.0393 27.9696 72.4824C28.5409 72.9256 29.2606 73.1322 29.98 73.0597" fill="#AB3A0A"/>
</svg>
