<svg width="80" height="81" viewBox="0 0 80 81" fill="none" xmlns="http://www.w3.org/2000/svg">
<path d="M58.9399 38.138L55.893 40.2616C54.6004 40.0769 53.3077 39.8923 52.1074 39.7076L55.1543 37.584C56.3546 37.7686 57.6473 37.9533 58.9399 38.138Z" fill="#AB3A0A"/>
<path d="M58.9399 38.138L55.893 40.2616C54.6004 40.0769 53.3077 39.8923 52.1074 39.7076L55.1543 37.584C56.3546 37.7686 57.6473 37.9533 58.9399 38.138Z" fill="#AB3A0A"/>
<path d="M64.5717 61.8677L61.5248 63.9913L55.8926 40.2623L58.9395 38.1387L64.5717 61.8677Z" fill="#AB3A0A"/>
<path d="M42.043 30.7488L38.9961 32.9647L39.1808 31.4874L42.2277 29.2715L42.043 30.7488Z" fill="#AB3A0A"/>
<path d="M48.6908 39.4272L45.6439 41.5508C46.1979 35.0876 42.2277 33.518 38.9961 32.8717L42.043 30.748C45.2746 31.3944 49.2448 32.964 48.6908 39.4272Z" fill="#AB3A0A"/>
<path d="M48.6908 39.4272L45.6439 41.5508C46.1979 35.0876 42.2277 33.518 38.9961 32.8717L42.043 30.748C45.2746 31.3944 49.2448 32.964 48.6908 39.4272Z" fill="#AB3A0A"/>
<path d="M36.5958 25.3948L33.5488 27.5184C33.7335 26.3181 33.9182 25.2101 34.1028 24.1021L37.1497 21.9785C36.9651 23.0865 36.7804 24.1945 36.5958 25.3948Z" fill="#AB3A0A"/>
<path d="M36.5958 25.3948L33.5488 27.5184C33.7335 26.3181 33.9182 25.2101 34.1028 24.1021L37.1497 21.9785C36.9651 23.0865 36.7804 24.1945 36.5958 25.3948Z" fill="#AB3A0A"/>
<path d="M49.5219 42.1078L46.5673 44.2314L41.8584 40.4459L44.9053 38.3223L49.5219 42.1078Z" fill="#AB3A0A"/>
<path d="M57.9242 50.79L54.9696 52.9136L49.2451 52.0826L52.292 49.959L57.9242 50.79Z" fill="#AB3A0A"/>
<path d="M52.292 49.9548L49.2451 52.0784C50.6301 49.6778 52.1074 47.1849 53.2154 44.692L56.2623 42.5684C55.1543 45.0613 53.677 47.4619 52.292 49.9548Z" fill="#AB3A0A"/>
<path d="M52.292 49.9548L49.2451 52.0784C50.6301 49.6778 52.1074 47.1849 53.2154 44.692L56.2623 42.5684C55.1543 45.0613 53.677 47.4619 52.292 49.9548Z" fill="#AB3A0A"/>
<path d="M41.3042 35.1863L38.3496 37.3099L38.5343 35.8326L41.5812 33.709L41.3042 35.1863Z" fill="#AB3A0A"/>
<path d="M31.0557 20.9654L28.0088 23.089L28.3781 20.9654L31.3327 18.8418L31.0557 20.9654Z" fill="#AB3A0A"/>
<path d="M37.1496 21.8901L34.1026 24.106L28.0088 23.0904L31.0557 20.9668L37.1496 21.8901Z" fill="#AB3A0A"/>
<path d="M42.2274 29.2715L39.1805 31.4874L33.6406 33.611L36.6875 31.4874L42.2274 29.2715Z" fill="#AB3A0A"/>
<path d="M31.3327 18.8397L28.2858 20.9633C26.9008 20.7786 25.5158 20.5016 24.1309 20.317L27.1778 18.1934C28.5627 18.378 29.9477 18.5627 31.3327 18.8397Z" fill="#AB3A0A"/>
<path d="M31.3327 18.8397L28.2858 20.9633C26.9008 20.7786 25.5158 20.5016 24.1309 20.317L27.1778 18.1934C28.5627 18.378 29.9477 18.5627 31.3327 18.8397Z" fill="#AB3A0A"/>
<path d="M44.721 39.8014L41.6741 41.925C41.5818 41.925 41.5818 41.925 41.4895 41.925C41.4895 41.925 41.4895 41.925 41.3971 41.925H41.3048C41.3048 41.925 41.3048 41.925 41.2125 41.925C41.1201 41.925 41.1201 41.925 41.0278 41.925C40.9355 41.925 40.9355 41.925 40.8431 41.925C40.8431 41.925 40.8431 41.925 40.7508 41.925H40.6585C40.6585 41.925 40.6585 41.925 40.5661 41.925H40.4738H40.3815C40.3815 41.925 40.3815 41.925 40.2892 41.925H40.1968C40.1968 41.925 40.1968 41.925 40.1045 41.925H40.0122H39.9198C39.9198 41.925 39.9198 41.925 39.8275 41.925H39.7352C39.7352 41.925 39.7352 41.925 39.6428 41.925C39.6428 41.925 39.6428 41.925 39.5505 41.925C39.5505 41.925 39.5505 41.925 39.4582 41.925C39.4582 41.925 39.4582 41.925 39.3658 41.925C39.3658 41.925 39.3658 41.925 39.2735 41.925C39.2735 41.925 39.2735 41.925 39.1812 41.925C39.1812 41.925 39.1812 41.925 39.0889 41.925H38.9965C38.9965 41.925 38.9965 41.925 38.9042 41.925H38.8119C38.8119 41.925 38.8119 41.925 38.7195 41.925C38.7195 41.925 38.7195 41.925 38.6272 41.925C38.6272 41.925 38.6272 41.925 38.5349 41.925H38.4425C38.3502 41.925 38.3502 41.925 38.2579 41.8327C38.2579 41.8327 38.2579 41.8327 38.1655 41.8327C38.1655 41.8327 38.1655 41.8327 38.0732 41.8327C38.0732 41.8327 38.0732 41.8327 37.9809 41.8327C37.9809 41.8327 37.9809 41.8327 37.8886 41.8327C37.8886 41.8327 37.8886 41.8327 37.7962 41.8327C37.7962 41.8327 37.7962 41.8327 37.7039 41.8327C37.7039 41.8327 37.7039 41.8327 37.6116 41.8327H37.5192C37.5192 41.8327 37.5192 41.8327 37.4269 41.8327C37.4269 41.8327 37.4269 41.8327 37.3346 41.8327C37.3346 41.8327 37.3346 41.8327 37.2422 41.8327C37.2422 41.8327 37.2422 41.8327 37.1499 41.8327C37.1499 41.8327 37.1499 41.8327 37.0576 41.8327C37.0576 41.8327 37.0576 41.8327 36.9652 41.8327C36.9652 41.8327 36.9652 41.8327 36.8729 41.8327C36.8729 41.8327 36.8729 41.8327 36.7806 41.8327C36.7806 41.8327 36.7806 41.8327 36.6882 41.8327C36.6882 41.8327 36.6883 41.8327 36.5959 41.8327H36.5036C36.4113 41.7403 36.4113 41.7403 36.3189 41.7403C36.3189 41.7403 36.3189 41.7403 36.2266 41.7403C36.2266 41.7403 36.2266 41.7403 36.1343 41.7403C36.1343 41.7403 36.1343 41.7403 36.0419 41.648C36.0419 41.648 36.0419 41.648 35.9496 41.648C35.9496 41.648 35.9496 41.648 35.8573 41.5557C35.8573 41.5557 35.8573 41.5557 35.7649 41.4633C35.7649 41.4633 35.7649 41.4633 35.6726 41.371C35.6726 41.371 35.6726 41.371 35.5803 41.371C35.5803 41.371 35.5803 41.371 35.4879 41.2787C35.4879 41.2787 35.4879 41.2787 35.3956 41.1864C35.3956 41.1864 35.3956 41.1864 35.3033 41.094C35.3033 41.094 35.3033 41.094 35.211 41.0017C35.211 41.0017 35.211 41.0017 35.1186 40.9094C35.0263 40.817 35.0263 40.7247 34.934 40.7247C34.934 40.7247 34.934 40.7247 34.934 40.6324C34.934 40.6324 34.934 40.6324 34.8416 40.54C34.8416 40.54 34.8416 40.54 34.7493 40.4477C34.7493 40.4477 34.7493 40.4477 34.657 40.3554C34.657 40.3554 34.657 40.3554 34.657 40.263C34.657 40.263 34.657 40.263 34.5646 40.1707C34.5646 40.1707 34.5646 40.1707 34.5646 40.0784C34.5646 40.0784 34.5646 40.0784 34.5646 39.9861C34.5646 39.9861 34.5646 39.9861 34.5646 39.8937C34.5646 39.8937 34.5646 39.8937 34.4723 39.8014C34.4723 39.8014 34.4723 39.8014 34.4723 39.7091C34.4723 39.7091 34.4723 39.7091 34.4723 39.6167C34.4723 39.6167 34.4723 39.6167 34.4723 39.5244C34.4723 39.5244 34.4723 39.5244 34.4723 39.4321C34.4723 39.4321 34.4723 39.4321 34.4723 39.3397C34.4723 39.3397 34.4723 39.3397 34.4723 39.2474V39.1551C34.4723 39.1551 34.4723 39.1551 34.4723 39.0627V38.9704C34.4723 38.9704 34.4723 38.9704 34.4723 38.8781L34.38 38.7857C34.38 38.7857 34.38 38.6934 34.2876 38.6934C34.2876 38.6934 34.2876 38.6934 34.2876 38.6011V38.5088C34.2876 38.5088 34.2876 38.5088 34.2876 38.4164V38.3241C34.2876 38.3241 34.2876 38.3241 34.2876 38.2318V38.1394V38.0471V37.9548V37.8624V37.7701V37.6778V37.5854V37.4931V37.4008V37.3085V37.2161C34.2876 37.2161 34.2876 37.2161 34.2876 37.1238V37.0315C34.2876 37.0315 34.2876 37.0315 34.2876 36.9391C34.2876 36.8468 34.2876 36.8468 34.1953 36.7545L37.2422 34.6309C37.2422 34.7232 37.2422 34.7232 37.3346 34.8155C37.3346 34.8155 37.3346 34.8155 37.3346 34.9079V35.0002C37.3346 35.0002 37.3346 35.0002 37.3346 35.0925V35.1848V35.2772V35.3695V35.4618V35.5542V35.6465V35.7388V35.8312V35.9235V36.0158V36.1082V36.2005V36.2928C37.3346 36.2928 37.3346 36.2928 37.3346 36.3851V36.4775C37.3346 36.4775 37.3346 36.4775 37.3346 36.5698C37.3346 36.5698 37.3346 36.6621 37.4269 36.6621C37.4269 36.7545 37.5192 36.7545 37.5192 36.7545C37.5192 36.7545 37.5192 36.7545 37.5192 36.8468V36.9391C37.5192 36.9391 37.5192 36.9391 37.5192 37.0315V37.1238C37.5192 37.1238 37.5192 37.1238 37.5192 37.2161C37.5192 37.2161 37.5192 37.2161 37.5192 37.3085C37.5192 37.3085 37.5192 37.3085 37.5192 37.4008C37.5192 37.4008 37.5192 37.4008 37.5192 37.4931C37.5192 37.4931 37.5192 37.4931 37.5192 37.5854C37.5192 37.5854 37.5192 37.5854 37.5192 37.6778C37.5192 37.6778 37.5192 37.6778 37.6116 37.7701C37.6116 37.7701 37.6116 37.7701 37.6116 37.8624C37.6116 37.8624 37.6116 37.8624 37.6116 37.9548C37.6116 37.9548 37.6116 37.9548 37.6116 38.0471C37.6116 38.0471 37.6116 38.0471 37.7039 38.1394C37.7039 38.1394 37.7039 38.1394 37.7039 38.2318C37.7039 38.2318 37.7039 38.2318 37.7962 38.3241C37.7962 38.3241 37.7962 38.3241 37.8886 38.4164C37.8886 38.4164 37.8886 38.4164 37.9809 38.5088C37.9809 38.5088 37.9809 38.5088 37.9809 38.6011C38.0732 38.6934 38.0732 38.7857 38.1655 38.7857C38.1655 38.7857 38.1655 38.7858 38.2579 38.8781C38.2579 38.8781 38.2579 38.8781 38.3502 38.9704C38.3502 38.9704 38.3502 38.9704 38.4425 39.0627C38.4425 39.0627 38.4425 39.0627 38.5349 39.1551C38.5349 39.1551 38.5349 39.1551 38.6272 39.2474C38.6272 39.2474 38.6272 39.2474 38.7195 39.2474C38.7195 39.2474 38.7195 39.2474 38.8119 39.3397C38.8119 39.3397 38.8119 39.3397 38.9042 39.4321C38.9042 39.4321 38.9042 39.4321 38.9965 39.5244C38.9965 39.5244 38.9965 39.5244 39.0889 39.5244C39.0889 39.5244 39.0889 39.5244 39.1812 39.6167C39.1812 39.6167 39.1812 39.6167 39.2735 39.6167C39.2735 39.6167 39.2735 39.6167 39.3658 39.6167C39.4582 39.6167 39.4582 39.7091 39.5505 39.7091H39.6428C39.6428 39.7091 39.6428 39.7091 39.7352 39.7091C39.7352 39.7091 39.7352 39.7091 39.8275 39.7091C39.8275 39.7091 39.8275 39.7091 39.9198 39.7091C39.9198 39.7091 39.9198 39.7091 40.0122 39.7091C40.0122 39.7091 40.0122 39.7091 40.1045 39.7091C40.1045 39.7091 40.1045 39.7091 40.1968 39.7091C40.1968 39.7091 40.1968 39.7091 40.2892 39.7091C40.2892 39.7091 40.2892 39.7091 40.3815 39.7091C40.3815 39.7091 40.3815 39.7091 40.4738 39.7091C40.4738 39.7091 40.4738 39.7091 40.5661 39.7091C40.5661 39.7091 40.5661 39.7091 40.6585 39.7091C40.6585 39.7091 40.6585 39.7091 40.7508 39.7091C40.7508 39.7091 40.7508 39.7091 40.8431 39.7091C40.8431 39.7091 40.8431 39.7091 40.9355 39.7091C40.9355 39.7091 40.9355 39.7091 41.0278 39.7091C41.0278 39.7091 41.0278 39.7091 41.1201 39.7091C41.1201 39.7091 41.1201 39.7091 41.2125 39.7091C41.2125 39.7091 41.2125 39.7091 41.3048 39.7091C41.3971 39.7091 41.3971 39.7091 41.4895 39.8014H41.5818C41.5818 39.8014 41.5818 39.8014 41.6741 39.8014C41.6741 39.8014 41.6741 39.8014 41.7665 39.8014C41.7665 39.8014 41.7664 39.8014 41.8588 39.8014H41.9511C41.9511 39.8014 41.9511 39.8014 42.0434 39.8014H42.1358C42.1358 39.8014 42.1358 39.8014 42.2281 39.8014C42.2281 39.8014 42.2281 39.8014 42.3204 39.8014C42.3204 39.8014 42.3204 39.8014 42.4128 39.8014C42.4128 39.8014 42.4128 39.8014 42.5051 39.8014C42.5051 39.8014 42.5051 39.8014 42.5974 39.8014C42.5974 39.8014 42.5974 39.8014 42.6898 39.8014C42.6898 39.8014 42.6898 39.8014 42.7821 39.8014C42.7821 39.8014 42.7821 39.8014 42.8744 39.8014C42.8744 39.8014 42.8744 39.8014 42.9668 39.8014C42.9668 39.8014 42.9668 39.8014 43.0591 39.8014H43.1514C43.1514 39.8014 43.1514 39.8014 43.2437 39.8014H43.3361C43.3361 39.8014 43.3361 39.8014 43.4284 39.8014H43.5207H43.6131C43.6131 39.8014 43.6131 39.8014 43.7054 39.8014H43.7977C43.7977 39.8014 43.7977 39.8014 43.8901 39.8014C43.9824 39.8014 43.9824 39.8014 44.0747 39.8014C44.1671 39.8014 44.1671 39.8014 44.2594 39.8014C44.2594 39.8014 44.2594 39.8014 44.3517 39.8014H44.444C44.444 39.8014 44.444 39.8014 44.5364 39.8014C44.5364 39.8014 44.6287 39.8014 44.721 39.8014Z" fill="#AB3A0A"/>
<path d="M44.721 39.8014L41.6741 41.925C41.5818 41.925 41.5818 41.925 41.4895 41.925C41.4895 41.925 41.4895 41.925 41.3971 41.925H41.3048C41.3048 41.925 41.3048 41.925 41.2125 41.925C41.1201 41.925 41.1201 41.925 41.0278 41.925C40.9355 41.925 40.9355 41.925 40.8431 41.925C40.8431 41.925 40.8431 41.925 40.7508 41.925H40.6585C40.6585 41.925 40.6585 41.925 40.5661 41.925H40.4738H40.3815C40.3815 41.925 40.3815 41.925 40.2892 41.925H40.1968C40.1968 41.925 40.1968 41.925 40.1045 41.925H40.0122H39.9198C39.9198 41.925 39.9198 41.925 39.8275 41.925H39.7352C39.7352 41.925 39.7352 41.925 39.6428 41.925C39.6428 41.925 39.6428 41.925 39.5505 41.925C39.5505 41.925 39.5505 41.925 39.4582 41.925C39.4582 41.925 39.4582 41.925 39.3658 41.925C39.3658 41.925 39.3658 41.925 39.2735 41.925C39.2735 41.925 39.2735 41.925 39.1812 41.925C39.1812 41.925 39.1812 41.925 39.0889 41.925H38.9965C38.9965 41.925 38.9965 41.925 38.9042 41.925H38.8119C38.8119 41.925 38.8119 41.925 38.7195 41.925C38.7195 41.925 38.7195 41.925 38.6272 41.925C38.6272 41.925 38.6272 41.925 38.5349 41.925H38.4425C38.3502 41.925 38.3502 41.925 38.2579 41.8327C38.2579 41.8327 38.2579 41.8327 38.1655 41.8327C38.1655 41.8327 38.1655 41.8327 38.0732 41.8327C38.0732 41.8327 38.0732 41.8327 37.9809 41.8327C37.9809 41.8327 37.9809 41.8327 37.8886 41.8327C37.8886 41.8327 37.8886 41.8327 37.7962 41.8327C37.7962 41.8327 37.7962 41.8327 37.7039 41.8327C37.7039 41.8327 37.7039 41.8327 37.6116 41.8327H37.5192C37.5192 41.8327 37.5192 41.8327 37.4269 41.8327C37.4269 41.8327 37.4269 41.8327 37.3346 41.8327C37.3346 41.8327 37.3346 41.8327 37.2422 41.8327C37.2422 41.8327 37.2422 41.8327 37.1499 41.8327C37.1499 41.8327 37.1499 41.8327 37.0576 41.8327C37.0576 41.8327 37.0576 41.8327 36.9652 41.8327C36.9652 41.8327 36.9652 41.8327 36.8729 41.8327C36.8729 41.8327 36.8729 41.8327 36.7806 41.8327C36.7806 41.8327 36.7806 41.8327 36.6882 41.8327C36.6882 41.8327 36.6883 41.8327 36.5959 41.8327H36.5036C36.4113 41.7403 36.4113 41.7403 36.3189 41.7403C36.3189 41.7403 36.3189 41.7403 36.2266 41.7403C36.2266 41.7403 36.2266 41.7403 36.1343 41.7403C36.1343 41.7403 36.1343 41.7403 36.0419 41.648C36.0419 41.648 36.0419 41.648 35.9496 41.648C35.9496 41.648 35.9496 41.648 35.8573 41.5557C35.8573 41.5557 35.8573 41.5557 35.7649 41.4633C35.7649 41.4633 35.7649 41.4633 35.6726 41.371C35.6726 41.371 35.6726 41.371 35.5803 41.371C35.5803 41.371 35.5803 41.371 35.4879 41.2787C35.4879 41.2787 35.4879 41.2787 35.3956 41.1864C35.3956 41.1864 35.3956 41.1864 35.3033 41.094C35.3033 41.094 35.3033 41.094 35.211 41.0017C35.211 41.0017 35.211 41.0017 35.1186 40.9094C35.0263 40.817 35.0263 40.7247 34.934 40.7247C34.934 40.7247 34.934 40.7247 34.934 40.6324C34.934 40.6324 34.934 40.6324 34.8416 40.54C34.8416 40.54 34.8416 40.54 34.7493 40.4477C34.7493 40.4477 34.7493 40.4477 34.657 40.3554C34.657 40.3554 34.657 40.3554 34.657 40.263C34.657 40.263 34.657 40.263 34.5646 40.1707C34.5646 40.1707 34.5646 40.1707 34.5646 40.0784C34.5646 40.0784 34.5646 40.0784 34.5646 39.9861C34.5646 39.9861 34.5646 39.9861 34.5646 39.8937C34.5646 39.8937 34.5646 39.8937 34.4723 39.8014C34.4723 39.8014 34.4723 39.8014 34.4723 39.7091C34.4723 39.7091 34.4723 39.7091 34.4723 39.6167C34.4723 39.6167 34.4723 39.6167 34.4723 39.5244C34.4723 39.5244 34.4723 39.5244 34.4723 39.4321C34.4723 39.4321 34.4723 39.4321 34.4723 39.3397C34.4723 39.3397 34.4723 39.3397 34.4723 39.2474V39.1551C34.4723 39.1551 34.4723 39.1551 34.4723 39.0627V38.9704C34.4723 38.9704 34.4723 38.9704 34.4723 38.8781L34.38 38.7857C34.38 38.7857 34.38 38.6934 34.2876 38.6934C34.2876 38.6934 34.2876 38.6934 34.2876 38.6011V38.5088C34.2876 38.5088 34.2876 38.5088 34.2876 38.4164V38.3241C34.2876 38.3241 34.2876 38.3241 34.2876 38.2318V38.1394V38.0471V37.9548V37.8624V37.7701V37.6778V37.5854V37.4931V37.4008V37.3085V37.2161C34.2876 37.2161 34.2876 37.2161 34.2876 37.1238V37.0315C34.2876 37.0315 34.2876 37.0315 34.2876 36.9391C34.2876 36.8468 34.2876 36.8468 34.1953 36.7545L37.2422 34.6309C37.2422 34.7232 37.2422 34.7232 37.3346 34.8155C37.3346 34.8155 37.3346 34.8155 37.3346 34.9079V35.0002C37.3346 35.0002 37.3346 35.0002 37.3346 35.0925V35.1848V35.2772V35.3695V35.4618V35.5542V35.6465V35.7388V35.8312V35.9235V36.0158V36.1082V36.2005V36.2928C37.3346 36.2928 37.3346 36.2928 37.3346 36.3851V36.4775C37.3346 36.4775 37.3346 36.4775 37.3346 36.5698C37.3346 36.5698 37.3346 36.6621 37.4269 36.6621C37.4269 36.7545 37.5192 36.7545 37.5192 36.7545C37.5192 36.7545 37.5192 36.7545 37.5192 36.8468V36.9391C37.5192 36.9391 37.5192 36.9391 37.5192 37.0315V37.1238C37.5192 37.1238 37.5192 37.1238 37.5192 37.2161C37.5192 37.2161 37.5192 37.2161 37.5192 37.3085C37.5192 37.3085 37.5192 37.3085 37.5192 37.4008C37.5192 37.4008 37.5192 37.4008 37.5192 37.4931C37.5192 37.4931 37.5192 37.4931 37.5192 37.5854C37.5192 37.5854 37.5192 37.5854 37.5192 37.6778C37.5192 37.6778 37.5192 37.6778 37.6116 37.7701C37.6116 37.7701 37.6116 37.7701 37.6116 37.8624C37.6116 37.8624 37.6116 37.8624 37.6116 37.9548C37.6116 37.9548 37.6116 37.9548 37.6116 38.0471C37.6116 38.0471 37.6116 38.0471 37.7039 38.1394C37.7039 38.1394 37.7039 38.1394 37.7039 38.2318C37.7039 38.2318 37.7039 38.2318 37.7962 38.3241C37.7962 38.3241 37.7962 38.3241 37.8886 38.4164C37.8886 38.4164 37.8886 38.4164 37.9809 38.5088C37.9809 38.5088 37.9809 38.5088 37.9809 38.6011C38.0732 38.6934 38.0732 38.7857 38.1655 38.7857C38.1655 38.7857 38.1655 38.7858 38.2579 38.8781C38.2579 38.8781 38.2579 38.8781 38.3502 38.9704C38.3502 38.9704 38.3502 38.9704 38.4425 39.0627C38.4425 39.0627 38.4425 39.0627 38.5349 39.1551C38.5349 39.1551 38.5349 39.1551 38.6272 39.2474C38.6272 39.2474 38.6272 39.2474 38.7195 39.2474C38.7195 39.2474 38.7195 39.2474 38.8119 39.3397C38.8119 39.3397 38.8119 39.3397 38.9042 39.4321C38.9042 39.4321 38.9042 39.4321 38.9965 39.5244C38.9965 39.5244 38.9965 39.5244 39.0889 39.5244C39.0889 39.5244 39.0889 39.5244 39.1812 39.6167C39.1812 39.6167 39.1812 39.6167 39.2735 39.6167C39.2735 39.6167 39.2735 39.6167 39.3658 39.6167C39.4582 39.6167 39.4582 39.7091 39.5505 39.7091H39.6428C39.6428 39.7091 39.6428 39.7091 39.7352 39.7091C39.7352 39.7091 39.7352 39.7091 39.8275 39.7091C39.8275 39.7091 39.8275 39.7091 39.9198 39.7091C39.9198 39.7091 39.9198 39.7091 40.0122 39.7091C40.0122 39.7091 40.0122 39.7091 40.1045 39.7091C40.1045 39.7091 40.1045 39.7091 40.1968 39.7091C40.1968 39.7091 40.1968 39.7091 40.2892 39.7091C40.2892 39.7091 40.2892 39.7091 40.3815 39.7091C40.3815 39.7091 40.3815 39.7091 40.4738 39.7091C40.4738 39.7091 40.4738 39.7091 40.5661 39.7091C40.5661 39.7091 40.5661 39.7091 40.6585 39.7091C40.6585 39.7091 40.6585 39.7091 40.7508 39.7091C40.7508 39.7091 40.7508 39.7091 40.8431 39.7091C40.8431 39.7091 40.8431 39.7091 40.9355 39.7091C40.9355 39.7091 40.9355 39.7091 41.0278 39.7091C41.0278 39.7091 41.0278 39.7091 41.1201 39.7091C41.1201 39.7091 41.1201 39.7091 41.2125 39.7091C41.2125 39.7091 41.2125 39.7091 41.3048 39.7091C41.3971 39.7091 41.3971 39.7091 41.4895 39.8014H41.5818C41.5818 39.8014 41.5818 39.8014 41.6741 39.8014C41.6741 39.8014 41.6741 39.8014 41.7665 39.8014C41.7665 39.8014 41.7664 39.8014 41.8588 39.8014H41.9511C41.9511 39.8014 41.9511 39.8014 42.0434 39.8014H42.1358C42.1358 39.8014 42.1358 39.8014 42.2281 39.8014C42.2281 39.8014 42.2281 39.8014 42.3204 39.8014C42.3204 39.8014 42.3204 39.8014 42.4128 39.8014C42.4128 39.8014 42.4128 39.8014 42.5051 39.8014C42.5051 39.8014 42.5051 39.8014 42.5974 39.8014C42.5974 39.8014 42.5974 39.8014 42.6898 39.8014C42.6898 39.8014 42.6898 39.8014 42.7821 39.8014C42.7821 39.8014 42.7821 39.8014 42.8744 39.8014C42.8744 39.8014 42.8744 39.8014 42.9668 39.8014C42.9668 39.8014 42.9668 39.8014 43.0591 39.8014H43.1514C43.1514 39.8014 43.1514 39.8014 43.2437 39.8014H43.3361C43.3361 39.8014 43.3361 39.8014 43.4284 39.8014H43.5207H43.6131C43.6131 39.8014 43.6131 39.8014 43.7054 39.8014H43.7977C43.7977 39.8014 43.7977 39.8014 43.8901 39.8014C43.9824 39.8014 43.9824 39.8014 44.0747 39.8014C44.1671 39.8014 44.1671 39.8014 44.2594 39.8014C44.2594 39.8014 44.2594 39.8014 44.3517 39.8014H44.444C44.444 39.8014 44.444 39.8014 44.5364 39.8014C44.5364 39.8014 44.6287 39.8014 44.721 39.8014Z" fill="#AB3A0A"/>
<path d="M26.8082 20.3198L23.8536 22.4434L17.7598 21.5201L20.7144 19.3965L26.8082 20.3198Z" fill="#AB3A0A"/>
<path d="M47.3062 59.0972L44.2593 61.3132L47.4909 55.2193L50.5378 53.0957L47.3062 59.0972Z" fill="#AB3A0A"/>
<path d="M25.7932 25.2097L22.7463 27.3333C21.6384 27.1487 20.438 27.0563 19.3301 26.8717L22.377 24.748C23.5773 24.9327 24.6853 25.1174 25.7932 25.2097Z" fill="#AB3A0A"/>
<path d="M25.7932 25.2097L22.7463 27.3333C21.6384 27.1487 20.438 27.0563 19.3301 26.8717L22.377 24.748C23.5773 24.9327 24.6853 25.1174 25.7932 25.2097Z" fill="#AB3A0A"/>
<path d="M26.2547 32.1352L23.3001 34.2588C22.5614 31.9506 22.5614 29.8269 22.8384 27.4263L25.8853 25.3027C25.516 27.611 25.516 29.8269 26.2547 32.1352Z" fill="#AB3A0A"/>
<path d="M27.8243 35.278L24.7773 37.4016C28.1013 34.9087 30.2249 31.1231 31.0558 27.1529L34.1028 25.0293C33.2718 29.0919 31.2405 32.7851 27.8243 35.278Z" fill="#AB3A0A"/>
<path d="M27.8243 35.278L24.7773 37.4016C28.1013 34.9087 30.2249 31.1231 31.0558 27.1529L34.1028 25.0293C33.2718 29.0919 31.2405 32.7851 27.8243 35.278Z" fill="#AB3A0A"/>
<path d="M34.0104 39.7073L30.9635 41.8309C28.3782 40.9076 26.347 39.7073 24.7773 37.399L27.8243 35.2754C29.4862 37.5837 31.4252 38.8763 34.0104 39.7073Z" fill="#AB3A0A"/>
<path d="M34.0104 39.7073L30.9635 41.8309C28.3782 40.9076 26.347 39.7073 24.7773 37.399L27.8243 35.2754C29.4862 37.5837 31.4252 38.8763 34.0104 39.7073Z" fill="#AB3A0A"/>
<path d="M32.9028 43.0329L29.9482 45.1565L31.0562 41.8326L34.0108 39.709L32.9028 43.0329Z" fill="#AB3A0A"/>
<path d="M23.2997 33.8887L20.2527 36.0123C18.6831 36.6586 17.3905 36.7509 15.7285 36.7509L18.7754 34.6273C20.4374 34.6273 21.73 34.535 23.2997 33.8887Z" fill="#AB3A0A"/>
<path d="M23.2997 33.8887L20.2527 36.0123C18.6831 36.6586 17.3905 36.7509 15.7285 36.7509L18.7754 34.6273C20.4374 34.6273 21.73 34.535 23.2997 33.8887Z" fill="#AB3A0A"/>
<path d="M68.0803 66.5743L65.0334 68.6979C60.6015 71.8371 55.0617 73.3144 49.3371 72.3911C39.2731 70.8215 31.9789 62.5117 31.1479 52.817L34.1949 50.6934C34.9335 60.3881 42.2277 68.6979 52.2917 70.2675C58.1086 71.1908 63.6484 69.7135 68.0803 66.5743Z" fill="#AB3A0A"/>
<path d="M68.0803 66.5743L65.0334 68.6979C60.6015 71.8371 55.0617 73.3144 49.3371 72.3911C39.2731 70.8215 31.9789 62.5117 31.1479 52.817L34.1949 50.6934C34.9335 60.3881 42.2277 68.6979 52.2917 70.2675C58.1086 71.1908 63.6484 69.7135 68.0803 66.5743Z" fill="#AB3A0A"/>
<path d="M44.2586 42.7554L44.074 44.2327L49.6138 42.109L44.9973 38.3235L44.8126 39.8008C44.7203 39.8008 44.7203 39.8008 44.628 39.8008C44.628 39.8008 44.628 39.8008 44.5356 39.8008H44.4433C44.4433 39.8008 44.4433 39.8008 44.351 39.8008C44.2586 39.8008 44.2586 39.8008 44.1663 39.8008C44.074 39.8008 44.074 39.8008 43.9816 39.8008C43.9816 39.8008 43.9816 39.8008 43.8893 39.8008H43.797C43.797 39.8008 43.797 39.8008 43.7046 39.8008H43.6123H43.52C43.52 39.8008 43.52 39.8008 43.4277 39.8008H43.3353C43.3353 39.8008 43.3353 39.8008 43.243 39.8008H43.1507H43.0583C43.0583 39.8008 43.0583 39.8008 42.966 39.8008H42.8737C42.8737 39.8008 42.8737 39.8008 42.7813 39.8008C42.7813 39.8008 42.7813 39.8008 42.689 39.8008C42.689 39.8008 42.689 39.8008 42.5967 39.8008C42.5967 39.8008 42.5967 39.8008 42.5043 39.8008C42.5043 39.8008 42.5043 39.8008 42.412 39.8008C42.412 39.8008 42.412 39.8008 42.3197 39.8008C42.3197 39.8008 42.3197 39.8008 42.2274 39.8008H42.135C42.135 39.8008 42.135 39.8008 42.0427 39.8008H41.9504C41.9504 39.8008 41.9504 39.8008 41.858 39.8008C41.858 39.8008 41.858 39.8008 41.7657 39.8008C41.7657 39.8008 41.7657 39.8008 41.6734 39.8008H41.581C41.4887 39.8008 41.4887 39.8008 41.3964 39.7084C41.3964 39.7084 41.3964 39.7084 41.304 39.7084C41.304 39.7084 41.304 39.7084 41.2117 39.7084C41.2117 39.7084 41.2117 39.7084 41.1194 39.7084C41.1194 39.7084 41.1194 39.7084 41.0271 39.7084C41.0271 39.7084 41.0271 39.7084 40.9347 39.7084C40.9347 39.7084 40.9347 39.7084 40.8424 39.7084C40.8424 39.7084 40.8424 39.7084 40.7501 39.7084H40.6577C40.6577 39.7084 40.6577 39.7084 40.5654 39.7084C40.5654 39.7084 40.5654 39.7084 40.4731 39.7084C40.4731 39.7084 40.4731 39.7084 40.3807 39.7084C40.3807 39.7084 40.3807 39.7084 40.2884 39.7084C40.2884 39.7084 40.2884 39.7084 40.1961 39.7084C40.1961 39.7084 40.1961 39.7084 40.1037 39.7084C40.1037 39.7084 40.1037 39.7084 40.0114 39.7084C40.0114 39.7084 40.0114 39.7084 39.9191 39.7084C39.9191 39.7084 39.9191 39.7084 39.8268 39.7084C39.8268 39.7084 39.8268 39.7084 39.7344 39.7084H39.6421C39.5498 39.6161 39.5498 39.6161 39.4574 39.6161C39.4574 39.6161 39.4574 39.6161 39.3651 39.6161C39.3651 39.6161 39.3651 39.6161 39.2728 39.6161C39.2728 39.6161 39.2728 39.6161 39.1804 39.5238C39.1804 39.5238 39.1804 39.5238 39.0881 39.5238C39.0881 39.5238 39.0881 39.5238 38.9958 39.4314C38.9958 39.4314 38.9958 39.4314 38.9034 39.3391C38.9034 39.3391 38.9034 39.3391 38.8111 39.2468C38.8111 39.2468 38.8111 39.2468 38.7188 39.2468C38.7188 39.2468 38.7188 39.2468 38.6264 39.1545C38.6264 39.1545 38.6264 39.1545 38.5341 39.0621C38.5341 39.0621 38.5341 39.0621 38.4418 38.9698C38.4418 38.9698 38.4418 38.9698 38.3495 38.8775C38.3495 38.8775 38.3495 38.8775 38.2571 38.7851C38.1648 38.6928 38.1648 38.6005 38.0725 38.6005C38.0725 38.6005 38.0725 38.6005 38.0725 38.5081C38.0725 38.5081 38.0725 38.5081 37.9801 38.4158C37.9801 38.4158 37.9801 38.4158 37.8878 38.3235C37.8878 38.3235 37.8878 38.3235 37.7955 38.2311C37.7955 38.2311 37.7955 38.2311 37.7955 38.1388C37.7955 38.1388 37.7955 38.1388 37.7031 38.0465C37.7031 38.0465 37.7031 38.0465 37.7031 37.9541C37.7031 37.9541 37.7031 37.9541 37.7031 37.8618C37.7031 37.8618 37.7031 37.8618 37.7031 37.7695C37.7031 37.7695 37.7031 37.7695 37.6108 37.6772C37.6108 37.6772 37.6108 37.6772 37.6108 37.5848C37.6108 37.5848 37.6108 37.5848 37.6108 37.4925C37.6108 37.4925 37.6108 37.4925 37.6108 37.4002C37.6108 37.4002 37.6108 37.4002 37.6108 37.3078C37.6108 37.3078 37.6108 37.3078 37.6108 37.2155C37.6108 37.2155 37.6108 37.2155 37.6108 37.1232V37.0308C37.6108 37.0308 37.6108 37.0308 37.6108 36.9385V36.8462C37.6108 36.8462 37.6108 36.8462 37.6108 36.7538L37.5185 36.6615C37.5185 36.6615 37.5185 36.5692 37.4261 36.5692C37.4261 36.5692 37.4261 36.5692 37.4261 36.4769V36.3845C37.4261 36.3845 37.4261 36.3845 37.4261 36.2922V36.1999C37.4261 36.1999 37.4261 36.1999 37.4261 36.1075V36.0152V35.9229V35.8305V35.7382V35.6459V35.5535V35.4612V35.3689V35.2765V35.1842V35.0919C37.4261 35.0919 37.4261 35.0919 37.4261 34.9996V34.9072C37.4261 34.9072 37.4261 34.9072 37.4261 34.8149C37.4261 34.7226 37.4261 34.7226 37.3338 34.6302L44.2586 42.7554ZM36.6875 31.491L41.304 35.2765L41.4887 33.7993C41.581 33.7993 41.581 33.7993 41.6734 33.7993C41.6734 33.7993 41.6734 33.7993 41.7657 33.7993H41.858C41.858 33.7993 41.858 33.7993 41.9504 33.7993H42.0427C42.135 33.7993 42.2274 33.7993 42.2274 33.7993C42.2274 33.7993 42.2274 33.7993 42.3197 33.7993H42.412C42.412 33.7993 42.412 33.7993 42.5043 33.7993H42.5967C42.689 33.7993 42.689 33.7993 42.7813 33.7993C42.7813 33.7993 42.7813 33.7993 42.8737 33.7993H42.966C42.966 33.7993 42.966 33.7993 43.0583 33.7993H43.1507C43.1507 33.7993 43.1507 33.7993 43.243 33.7993H43.3353C43.3353 33.7993 43.3353 33.7993 43.4277 33.7993H43.52C43.52 33.7993 43.52 33.7993 43.6123 33.7993H43.7046C43.7046 33.7993 43.7047 33.7993 43.797 33.7993H43.8893C43.8893 33.7993 43.8893 33.7993 43.9816 33.7993H44.074C44.074 33.7993 44.074 33.7993 44.1663 33.7993H44.2586C44.2586 33.7993 44.2586 33.7993 44.351 33.7993H44.4433H44.5356C44.628 33.7993 44.7203 33.8916 44.7203 33.8916C44.8126 33.8916 44.8126 33.8916 44.8126 33.8916H44.905H44.9973C44.9973 33.8916 44.9973 33.8916 45.0896 33.8916H45.1819H45.2743H45.3666H45.4589H45.5513H45.6436C45.6436 33.8916 45.7359 33.8916 45.7359 33.9839C45.8283 34.0762 45.9206 34.0762 46.0129 34.1686C46.0129 34.1686 46.1053 34.1686 46.1053 34.2609C46.1053 34.2609 46.1053 34.2609 46.1976 34.3532C46.1976 34.3532 46.1976 34.3532 46.2899 34.4456C46.2899 34.4456 46.2899 34.4456 46.3822 34.4456C46.3822 34.4456 46.3822 34.4456 46.4746 34.5379C46.4746 34.5379 46.4746 34.5379 46.5669 34.6302C46.5669 34.6302 46.5669 34.6302 46.6592 34.7226C46.6592 34.7226 46.6592 34.7226 46.7516 34.7226C46.7516 34.7226 46.7516 34.7226 46.8439 34.8149C46.8439 34.8149 46.8439 34.8149 46.9362 34.9072C46.9362 34.9072 46.9362 34.9072 47.0286 34.9996C47.1209 35.0919 47.2132 35.1842 47.2132 35.1842C47.2132 35.1842 47.2132 35.1842 47.3056 35.2765C47.3056 35.2765 47.3056 35.2766 47.3056 35.3689C47.3056 35.3689 47.3056 35.3689 47.3979 35.4612C47.3979 35.4612 47.3979 35.4612 47.4902 35.5535C47.4902 35.5535 47.4902 35.5535 47.5826 35.6459C47.5826 35.6459 47.5826 35.6459 47.5826 35.7382C47.5826 35.7382 47.5826 35.7382 47.6749 35.8305C47.6749 35.8305 47.6749 35.8305 47.6749 35.9229C47.6749 35.9229 47.6749 35.9229 47.6749 36.0152C47.6749 36.0152 47.6749 36.0152 47.6749 36.1075C47.6749 36.1075 47.6749 36.1075 47.6749 36.1999C47.6749 36.1999 47.6749 36.1999 47.6749 36.2922C47.6749 36.2922 47.6749 36.2922 47.6749 36.3845V36.4769C47.6749 36.4769 47.6749 36.4769 47.6749 36.5692V36.6615C47.6749 36.6615 47.6749 36.6615 47.6749 36.7538V36.8462C47.6749 36.8462 47.6749 36.8462 47.6749 36.9385L47.7672 37.0308C47.7672 37.0308 47.7672 37.0308 47.7672 37.1232C47.7672 37.1232 47.7672 37.2155 47.8595 37.2155C47.8595 37.2155 47.8595 37.2155 47.8595 37.3078V37.4002V37.4925V37.5848C47.8595 37.5848 47.8595 37.5848 47.8595 37.6772V37.7695C47.8595 37.7695 47.8595 37.7695 47.8595 37.8618V37.9541V38.0465V38.1388V38.2311V38.3235V38.4158V38.5081V38.6005V38.6928V38.7851V38.8775C47.8595 38.8775 47.8595 38.8775 47.8595 38.9698C47.8595 39.0621 47.8595 39.0621 47.9519 39.1545C48.5059 32.6913 44.5356 31.1217 41.304 30.4753L41.4887 28.998L36.6875 31.491Z" fill="#AB3A0A"/>
<path d="M52.292 49.9548C53.677 47.5542 55.1543 45.0613 56.2622 42.5684C56.7239 45.3383 57.3702 48.1082 57.9242 50.8781L52.292 49.9548Z" fill="#F0783C"/>
<path d="M11.9433 14.7779L14.9902 12.6543C10.466 15.8859 7.14206 20.8718 6.21875 26.8733C4.46446 38.5993 12.4973 49.5867 24.2233 51.4333C27.6395 51.9873 31.0558 51.618 34.1027 50.6946L31.0558 52.8183C28.0088 53.8339 24.5926 54.1109 21.1764 53.5569C9.45033 51.7103 1.41754 40.7229 3.26416 28.9969C4.18747 23.0877 7.41905 18.0095 11.9433 14.7779Z" fill="#AB3A0A"/>
<path d="M34.1027 50.6946L31.0558 52.8183C28.0088 53.8339 24.5926 54.1109 21.1764 53.5569C9.45033 51.7103 1.41754 40.7229 3.26416 28.9969C4.18747 22.9954 7.41905 18.0095 12.0356 14.7779L14.9902 12.6543C10.466 15.8859 7.14206 20.8718 6.21875 26.8733C4.46446 38.5993 12.4973 49.5867 24.2233 51.4333C27.6395 51.9873 31.0558 51.618 34.1027 50.6946Z" fill="#AB3A0A"/>
<path d="M58.7552 27.7969C70.4813 29.6436 78.5141 40.6309 76.7598 52.357C75.0055 64.083 64.0181 72.1158 52.2921 70.2692C42.228 68.6995 34.9339 60.3898 34.1029 50.695C31.056 51.7106 27.6397 51.9876 24.2235 51.4337C12.4974 49.587 4.46465 38.5997 6.21893 26.8736C8.06555 15.1476 18.9606 7.1148 30.6866 8.96142C40.7507 10.531 48.1372 18.8408 48.8758 28.5356C52.0151 27.5199 55.339 27.2429 58.7552 27.7969ZM60.2325 61.1284C61.7098 61.3131 63.0948 61.5901 64.5721 61.7747L58.9399 38.0457C57.6473 37.861 56.3546 37.6763 55.1543 37.4917L43.1513 58.4508C44.5363 58.6355 45.9212 58.9125 47.3062 59.0971L50.6301 53.0033L58.8476 54.2959L60.2325 61.1284ZM36.5958 25.3963C36.7805 24.196 36.9651 23.0881 37.1498 21.9801L31.056 21.0568L31.4253 18.9332C30.0403 18.7485 28.6553 18.4715 27.2704 18.2868L26.9011 20.4105L20.8072 19.4871C20.6226 20.6875 20.4379 21.7954 20.2532 22.9034L30.6866 24.473C30.0403 27.4276 28.563 30.1975 26.2547 32.1365C25.5161 29.8282 25.5161 27.7046 25.7931 25.304C24.6851 25.1193 23.4848 25.027 22.3768 24.8423C22.0075 27.9816 22.0999 30.9362 23.2078 33.9831C21.6382 34.6294 20.3456 34.7218 18.6836 34.7218L18.7759 38.2303C20.8996 38.2303 22.7462 37.9533 24.7775 37.1224C26.8087 40.1693 29.394 41.9236 32.9026 43.1239L34.0105 39.8C31.4253 38.8766 29.394 37.6763 27.8244 35.3681C31.1483 32.8751 33.2719 29.0896 34.1029 25.1193L36.5958 25.3963ZM37.5191 34.0754C36.9651 40.5386 40.9354 42.1082 44.1669 42.7545L43.9823 44.2318L49.5221 42.1082L44.9056 38.3227L44.7209 39.8C44.6286 39.8 44.6286 39.8 44.5363 39.8C44.5363 39.8 44.5363 39.8 44.4439 39.8H44.3516C44.3516 39.8 44.3516 39.8 44.2593 39.8C44.167 39.8 44.167 39.8 44.0746 39.8C43.9823 39.8 43.9823 39.8 43.89 39.8C43.89 39.8 43.89 39.8 43.7976 39.8H43.7053C43.7053 39.8 43.7053 39.8 43.613 39.8H43.5206H43.4283C43.4283 39.8 43.4283 39.8 43.336 39.8H43.2436C43.2436 39.8 43.2436 39.8 43.1513 39.8H43.059H42.9666C42.9666 39.8 42.9666 39.8 42.8743 39.8H42.782C42.782 39.8 42.782 39.8 42.6897 39.8C42.6897 39.8 42.6897 39.8 42.5973 39.8C42.5973 39.8 42.5973 39.8 42.505 39.8C42.505 39.8 42.505 39.8 42.4127 39.8C42.4127 39.8 42.4127 39.8 42.3203 39.8C42.3203 39.8 42.3203 39.8 42.228 39.8C42.228 39.8 42.228 39.8 42.1357 39.8H42.0433C42.0433 39.8 42.0433 39.8 41.951 39.8H41.8587C41.8587 39.8 41.8587 39.8 41.7663 39.8C41.7663 39.8 41.7663 39.8 41.674 39.8C41.674 39.8 41.674 39.8 41.5817 39.8H41.4894C41.397 39.8 41.397 39.8 41.3047 39.7076C41.3047 39.7076 41.3047 39.7076 41.2124 39.7076C41.2124 39.7076 41.2124 39.7076 41.12 39.7076C41.12 39.7076 41.12 39.7076 41.0277 39.7076C41.0277 39.7076 41.0277 39.7076 40.9354 39.7076C40.9354 39.7076 40.9354 39.7076 40.843 39.7076C40.843 39.7076 40.843 39.7076 40.7507 39.7076C40.7507 39.7076 40.7507 39.7076 40.6584 39.7076H40.566C40.566 39.7076 40.566 39.7076 40.4737 39.7076C40.4737 39.7076 40.4737 39.7076 40.3814 39.7076C40.3814 39.7076 40.3814 39.7076 40.2891 39.7076C40.2891 39.7076 40.2891 39.7076 40.1967 39.7076C40.1967 39.7076 40.1967 39.7076 40.1044 39.7076C40.1044 39.7076 40.1044 39.7076 40.0121 39.7076C40.0121 39.7076 40.0121 39.7076 39.9197 39.7076C39.9197 39.7076 39.9197 39.7076 39.8274 39.7076C39.8274 39.7076 39.8274 39.7076 39.7351 39.7076C39.7351 39.7076 39.7351 39.7076 39.6427 39.7076H39.5504C39.4581 39.6153 39.4581 39.6153 39.3657 39.6153C39.3657 39.6153 39.3657 39.6153 39.2734 39.6153C39.2734 39.6153 39.2734 39.6153 39.1811 39.6153C39.1811 39.6153 39.1811 39.6153 39.0887 39.523C39.0887 39.523 39.0887 39.523 38.9964 39.523C38.9964 39.523 38.9964 39.523 38.9041 39.4306C38.9041 39.4306 38.9041 39.4306 38.8118 39.3383C38.8118 39.3383 38.8118 39.3383 38.7194 39.246C38.7194 39.246 38.7194 39.246 38.6271 39.246C38.6271 39.246 38.6271 39.246 38.5348 39.1536C38.5348 39.1536 38.5348 39.1536 38.4424 39.0613C38.4424 39.0613 38.4424 39.0613 38.3501 38.969C38.3501 38.969 38.3501 38.969 38.2578 38.8766C38.2578 38.8766 38.2578 38.8766 38.1654 38.7843C38.0731 38.692 38.0731 38.5997 37.9808 38.5997C37.9808 38.5997 37.9808 38.5997 37.9808 38.5073C37.9808 38.5073 37.9808 38.5073 37.8884 38.415C37.8884 38.415 37.8884 38.415 37.7961 38.3227C37.7961 38.3227 37.7961 38.3227 37.7038 38.2303C37.7038 38.2303 37.7038 38.2303 37.7038 38.138C37.7038 38.138 37.7038 38.138 37.6115 38.0457C37.6115 38.0457 37.6115 38.0457 37.6115 37.9533C37.6115 37.9533 37.6115 37.9533 37.6115 37.861C37.6115 37.861 37.6115 37.861 37.6115 37.7687C37.6115 37.7687 37.6115 37.7687 37.5191 37.6763C37.5191 37.6763 37.5191 37.6763 37.5191 37.584C37.5191 37.584 37.5191 37.584 37.5191 37.4917C37.5191 37.4917 37.5191 37.4917 37.5191 37.3994C37.5191 37.3994 37.5191 37.3994 37.5191 37.307C37.5191 37.307 37.5191 37.307 37.5191 37.2147C37.5191 37.2147 37.5191 37.2147 37.5191 37.1224V37.03C37.5191 37.03 37.5191 37.03 37.5191 36.9377V36.8454C37.5191 36.8454 37.5191 36.8454 37.5191 36.753L37.4268 36.6607C37.4268 36.6607 37.4268 36.5684 37.3345 36.5684C37.3345 36.5684 37.3345 36.5684 37.3345 36.476V36.3837C37.3345 36.3837 37.3345 36.3837 37.3345 36.2914V36.199C37.3345 36.199 37.3345 36.199 37.3345 36.1067V36.0144V35.9221V35.8297V35.7374V35.6451V35.5527V35.4604V35.3681V35.2757V35.1834V35.0911C37.3345 35.0911 37.3345 35.0911 37.3345 34.9987V34.9064C37.3345 34.9064 37.3345 34.9064 37.3345 34.8141C37.6115 34.1678 37.6115 34.1678 37.5191 34.0754ZM36.6881 31.4902L41.3047 35.2757L41.4894 33.7984C41.5817 33.7984 41.5817 33.7984 41.674 33.7984C41.674 33.7984 41.674 33.7984 41.7663 33.7984H41.8587C41.8587 33.7984 41.8587 33.7984 41.951 33.7984H42.0433C42.1357 33.7984 42.228 33.7984 42.228 33.7984C42.228 33.7984 42.228 33.7984 42.3203 33.7984H42.4127C42.4127 33.7984 42.4127 33.7984 42.505 33.7984H42.5973C42.6897 33.7984 42.6897 33.7984 42.782 33.7984C42.782 33.7984 42.782 33.7984 42.8743 33.7984H42.9666C42.9666 33.7984 42.9666 33.7984 43.059 33.7984H43.1513C43.1513 33.7984 43.1513 33.7984 43.2436 33.7984H43.336C43.336 33.7984 43.336 33.7984 43.4283 33.7984H43.5206C43.5206 33.7984 43.5206 33.7984 43.613 33.7984H43.7053C43.7053 33.7984 43.7053 33.7984 43.7976 33.7984H43.89C43.89 33.7984 43.89 33.7984 43.9823 33.7984H44.0746C44.0746 33.7984 44.0746 33.7984 44.1669 33.7984H44.2593C44.2593 33.7984 44.2593 33.7984 44.3516 33.7984H44.4439H44.5363C44.6286 33.7984 44.7209 33.8908 44.7209 33.8908C44.8133 33.8908 44.8133 33.8908 44.8133 33.8908H44.9056H44.9979C44.9979 33.8908 44.9979 33.8908 45.0903 33.8908H45.1826H45.2749H45.3673H45.4596H45.5519H45.6442C45.6442 33.8908 45.7366 33.8908 45.7366 33.9831C45.8289 34.0754 45.9212 34.0754 46.0136 34.1678C46.0136 34.1678 46.1059 34.1678 46.1059 34.2601C46.1059 34.2601 46.1059 34.2601 46.1982 34.3524C46.1982 34.3524 46.1982 34.3524 46.2906 34.4448C46.2906 34.4448 46.2906 34.4448 46.3829 34.4448C46.3829 34.4448 46.3829 34.4448 46.4752 34.5371C46.4752 34.5371 46.4752 34.5371 46.5676 34.6294C46.5676 34.6294 46.5676 34.6294 46.6599 34.7218C46.6599 34.7218 46.6599 34.7218 46.7522 34.7218C46.7522 34.7218 46.7522 34.7218 46.8445 34.8141C46.8445 34.8141 46.8445 34.8141 46.9369 34.9064C46.9369 34.9064 46.9369 34.9064 47.0292 34.9987C47.1215 35.0911 47.2139 35.1834 47.2139 35.1834C47.2139 35.1834 47.2139 35.1834 47.3062 35.2757C47.3062 35.2757 47.3062 35.2757 47.3062 35.3681C47.3062 35.3681 47.3062 35.3681 47.3985 35.4604C47.3985 35.4604 47.3985 35.4604 47.4909 35.5527C47.4909 35.5527 47.4909 35.5527 47.5832 35.6451C47.5832 35.6451 47.5832 35.6451 47.5832 35.7374C47.5832 35.7374 47.5832 35.7374 47.6755 35.8297C47.6755 35.8297 47.6755 35.8297 47.6755 35.9221C47.6755 35.9221 47.6755 35.9221 47.6755 36.0144C47.6755 36.0144 47.6755 36.0144 47.6755 36.1067C47.6755 36.1067 47.6755 36.1067 47.6755 36.199C47.6755 36.199 47.6755 36.199 47.6755 36.2914C47.6755 36.2914 47.6755 36.2914 47.6755 36.3837V36.476C47.6755 36.476 47.6755 36.476 47.6755 36.5684V36.6607C47.6755 36.6607 47.6755 36.6607 47.6755 36.753V36.8454C47.6755 36.8454 47.6755 36.8454 47.6755 36.9377L47.7679 37.03C47.7679 37.03 47.7679 37.03 47.7679 37.1224C47.7679 37.1224 47.7679 37.2147 47.8602 37.2147C47.8602 37.2147 47.8602 37.2147 47.8602 37.307V37.3994V37.4917V37.584C47.8602 37.584 47.8602 37.584 47.8602 37.6763V37.7687C47.8602 37.7687 47.8602 37.7687 47.8602 37.861V37.9533V38.0457V38.138V38.2303V38.3227V38.415V38.5073V38.5997V38.692V38.7843V38.8766C47.8602 38.8766 47.8602 38.8766 47.8602 38.969C47.8602 39.0613 47.8602 39.0613 47.9525 39.1536C48.5065 32.6905 44.5363 31.1208 41.3047 30.4745L41.4894 28.9972L36.6881 31.4902Z" fill="#F0783C"/>
</svg>
