<svg width="80" height="81" viewBox="0 0 80 81" fill="none" xmlns="http://www.w3.org/2000/svg">
<path d="M4.28157 61.5694C3.93982 59.6043 3.6835 57.5538 3.34175 55.5888C3.25631 55.3324 3.25631 54.9907 3.34175 54.7344L3 59.5189C3 59.7752 3 60.117 3 60.3733C3.34175 62.3384 3.59807 64.3889 3.93982 66.354C9.83505 65.6704 15.7303 65.0724 21.6255 64.7306L21.9673 59.9461C16.072 60.2878 10.1768 60.8859 4.28157 61.5694Z" fill="#AB3A0A"/>
<path d="M76.9894 55.4189V55.5898C76.7331 57.4695 76.5622 59.2637 76.3059 61.1433C64.3446 59.8617 52.2978 59.1782 40.251 59.2637C38.0296 59.2637 35.7228 59.3491 33.5014 59.3491L33.1597 64.1336C35.3811 64.0482 37.6879 64.0482 39.9093 64.0482C51.956 63.9628 64.0028 64.6463 75.9641 65.9278C76.2205 64.0482 76.3913 62.254 76.6476 60.3744V60.2035L76.9894 55.4189Z" fill="#AB3A0A"/>
<path d="M33.5014 17.3132C33.5868 17.3132 33.6723 17.3986 33.6723 17.3986L33.8431 15.2627C33.8431 15.3481 33.8431 15.3481 33.8431 15.4336C33.8431 15.519 33.8431 15.519 33.8431 15.6044C33.7577 15.6899 33.7577 15.8608 33.6723 15.9462C33.6723 15.9462 33.6722 16.0316 33.5868 16.0316C33.5014 16.1171 33.4159 16.2025 33.4159 16.288C33.4159 16.288 33.4159 16.3734 33.3305 16.3734C33.3305 16.3734 33.3305 16.3734 33.2451 16.4588C33.1596 16.6297 32.9887 16.7151 32.8179 16.8006C32.9033 16.8006 32.9033 16.886 32.9887 16.886C33.2451 17.1423 33.3305 17.2278 33.5014 17.3132Z" fill="#AB3A0A"/>
<path d="M37.3462 25.9413C37.3462 26.1122 37.3462 26.1976 37.2607 26.3685C37.2607 26.4539 37.2607 26.5394 37.2607 26.6248C37.2607 26.7102 37.1753 26.8811 37.1753 26.9666C37.1753 27.052 37.1753 27.052 37.1753 27.1374C37.1753 27.3083 37.0898 27.3937 37.0898 27.5646C37.1753 27.5646 37.2607 27.5646 37.3462 27.5646L37.517 25.0869C37.517 25.1724 37.517 25.1724 37.517 25.2578C37.517 25.4287 37.517 25.5141 37.517 25.685C37.3462 25.7704 37.3462 25.8559 37.3462 25.9413Z" fill="#AB3A0A"/>
<path d="M66.6518 30.7276L66.8226 27.3955C66.8226 27.6518 66.7372 27.8227 66.7372 28.079C66.7372 28.1645 66.7372 28.3353 66.6518 28.4208C66.5663 28.7625 66.4809 29.1043 66.3954 29.3606C66.31 29.7878 66.1391 30.1295 65.8828 30.5567C66.0537 30.5567 66.1391 30.5567 66.31 30.6422C66.4809 30.6422 66.5663 30.6422 66.6518 30.7276Z" fill="#AB3A0A"/>
<path d="M44.2666 29.786C44.2666 29.8714 44.2666 29.9569 44.2666 30.0423C44.5229 29.786 44.7792 29.7006 45.121 29.7006H45.2919C45.121 29.2734 44.9501 28.9316 44.8647 28.5044C44.7792 28.0772 44.6938 27.6501 44.6938 27.3083C44.6938 27.2229 44.6938 27.052 44.6938 26.9666C44.6938 26.7102 44.6084 26.4539 44.6084 26.1976C44.6084 26.1122 44.6084 26.0267 44.6084 25.9413C44.6084 25.5995 44.6084 25.3432 44.6084 25.0869L44.2666 29.786Z" fill="#AB3A0A"/>
<path d="M65.712 35.7671C65.6266 35.8525 65.6266 35.9379 65.5411 35.9379L65.4557 36.0234C65.3703 36.1088 65.3703 36.1088 65.2848 36.1943C65.2848 36.1943 65.2848 36.1943 65.1994 36.2797C65.1139 36.3651 65.0285 36.4506 64.9431 36.4506H64.8576C64.7722 36.4506 64.6868 36.536 64.6013 36.536C64.5159 36.7923 64.4304 37.1341 64.2596 37.3904C64.2596 37.4758 64.1741 37.5613 64.0887 37.6467C64.0032 37.8176 63.9178 37.9885 63.8324 38.1593C63.8324 38.2448 63.7469 38.3302 63.7469 38.3302C63.4906 38.7574 63.2343 39.0992 62.978 39.4409C62.8926 40.7225 62.8071 42.004 62.7217 43.2856C62.7217 43.4565 62.8071 43.5419 62.8926 43.6274C62.8926 43.6274 62.978 43.6274 62.978 43.7128C63.1489 43.5419 63.2343 43.2856 63.3197 43.1147C63.3197 43.0293 63.4052 43.0293 63.4052 42.9439C63.4052 42.9439 63.4052 42.8584 63.4906 42.8584C63.5761 42.6875 63.6615 42.5167 63.7469 42.3458C63.7469 42.2604 63.8324 42.1749 63.8324 42.0895C63.9178 41.8332 64.0887 41.4914 64.1741 41.2351L64.4304 41.1497C64.5159 41.1497 64.6013 41.0642 64.6868 40.9788C64.6868 40.9788 64.6868 40.9788 64.7722 40.8933C64.8576 40.8079 64.8576 40.8079 64.9431 40.7225L65.0285 40.637C65.1139 40.5516 65.1139 40.4662 65.1994 40.3807L65.2848 40.2953C65.3703 40.2098 65.4557 40.1244 65.4557 39.9535L65.5411 39.8681C65.6266 39.7827 65.6266 39.6972 65.712 39.5263C65.712 39.4409 65.7974 39.3555 65.7974 39.27C65.8829 39.0992 65.9683 38.8428 66.1392 38.5865C66.481 37.7321 66.6518 37.1341 66.7373 36.6214L67.079 31.8369C67.079 31.9224 67.079 31.9224 67.079 32.0078V32.0932C67.079 32.2641 66.9936 32.5204 66.9081 32.7767C66.9081 32.8622 66.9081 32.8622 66.8227 32.9476C66.7373 33.2039 66.6518 33.4602 66.481 33.802C66.3955 34.0583 66.3101 34.3146 66.1392 34.4855C66.1392 34.5709 66.0538 34.6564 66.0538 34.7418C65.9683 34.8272 65.9683 34.9981 65.8829 35.0836C65.8829 35.169 65.7974 35.169 65.7974 35.2544C65.712 35.3399 65.712 35.4253 65.6266 35.5108C65.7975 35.6816 65.7975 35.6816 65.712 35.7671Z" fill="#AB3A0A"/>
<path d="M44.0102 32.0091C43.9248 31.8383 43.9248 31.5819 43.9248 31.4111V31.3256C43.9248 31.1548 43.9248 30.9839 43.9248 30.8984L43.583 35.683C43.583 36.1956 43.6684 36.8791 44.0102 37.8189C44.7791 40.0403 45.4626 40.6384 45.8898 40.6384C46.0607 41.5782 46.4025 42.4326 46.9151 43.287C47.0005 43.2015 47.1714 43.2015 47.2568 43.2015C47.4277 43.1161 47.5132 43.0306 47.5132 42.8598C47.5132 41.5782 47.5132 40.2966 47.5132 38.9296C46.8297 37.9898 46.4025 36.9645 46.2316 35.8538C45.719 35.7684 45.0355 35.2558 44.352 33.0344C44.2665 32.6926 44.1811 32.4363 44.0956 32.18C44.0956 32.18 44.0102 32.0946 44.0102 32.0091Z" fill="#AB3A0A"/>
<path d="M34.5264 45.1659L34.7827 41.6629C34.7827 41.6629 34.7827 41.6629 34.7827 41.5775C34.9536 41.2357 35.1245 40.8086 35.2954 40.3814C35.2954 40.2959 35.3808 40.2105 35.3808 40.125C35.5517 39.6979 35.6371 39.2707 35.7225 38.8435L35.9789 38.758C35.9789 38.758 35.9789 38.758 36.0643 38.758L36.2352 38.5872C36.2352 38.5872 36.2352 38.5872 36.3206 38.5017C36.406 38.4163 36.4915 38.3309 36.4915 38.2454L36.5769 38.16C36.6624 37.9891 36.7478 37.9037 36.8332 37.7328C36.9187 37.5619 37.0041 37.4765 37.0896 37.3056C37.0896 37.3056 37.0896 37.2202 37.175 37.2202C37.2604 37.0493 37.3459 36.8784 37.3459 36.7075C37.3459 36.6221 37.4313 36.6221 37.4313 36.5367C37.5167 36.2803 37.6022 36.1095 37.6876 35.8531C37.9439 35.0842 38.0294 34.4861 38.1148 34.0589L38.4566 29.2744C38.4566 29.4453 38.3711 29.6162 38.3711 29.787C38.2857 30.2142 38.2002 30.556 38.0294 31.1541C37.9439 31.4104 37.8585 31.6667 37.7731 31.8376C37.7731 31.923 37.6876 32.0084 37.6876 32.0084C37.6022 32.1793 37.6022 32.3502 37.5167 32.4356C37.5167 32.5211 37.4313 32.5211 37.4313 32.6065C37.3459 32.7774 37.2604 32.9483 37.175 33.0337C37.0896 33.2046 37.0041 33.3754 36.8332 33.4609L36.7478 33.5463C36.6624 33.6318 36.5769 33.7172 36.4915 33.8026L36.406 33.8881C36.3206 33.9735 36.2352 33.9735 36.2352 34.0589H36.1497C36.0643 34.0589 35.9789 34.1444 35.8934 34.1444C35.808 34.5716 35.7225 34.9988 35.5517 35.426C35.5517 35.5114 35.4662 35.5968 35.4662 35.6823C35.2954 36.1095 35.1245 36.4512 34.9536 36.8784C34.8682 37.0493 34.6973 37.3056 34.6118 37.4765C34.6118 38.4163 34.6973 39.3561 34.6973 40.3814C34.6973 40.3814 34.6973 40.3814 34.6973 40.4668C34.6118 40.5522 34.5264 40.6377 34.3555 40.6377C31.9633 42.1756 29.6564 43.7134 27.3496 45.3368C28.2894 46.2766 29.1438 47.131 30.0836 48.0708C31.707 47.0455 33.074 46.1057 34.5264 45.1659Z" fill="#AB3A0A"/>
<path d="M29.4862 54.1384C29.7426 53.7966 29.9134 53.3694 30.1697 53.0277L30.5115 48.2432C29.9134 49.0975 29.4008 50.0374 28.8027 50.8917C29.059 52.0024 29.3154 53.0277 29.4862 54.1384Z" fill="#AB3A0A"/>
<path d="M25.0433 55.758C25.2142 54.2201 25.2997 52.6822 25.4705 51.1444C24.9579 50.4608 24.4453 49.8628 23.8472 49.1793C23.6763 49.0084 23.5055 48.8375 23.42 48.5812C24.2744 47.4705 25.1288 46.4453 25.9832 45.3346C23.42 43.8821 20.7714 42.5151 18.1229 41.0627C18.0374 40.1228 17.952 39.0976 17.8665 38.1578C17.0976 37.2179 16.4995 36.1072 16.1578 34.9966C15.6452 34.9966 14.9616 34.4839 14.0218 32.7752C13.9364 32.6043 13.851 32.4334 13.7655 32.1771C13.5946 31.8353 13.5092 31.4936 13.4238 31.2373V31.1518C13.4238 31.0664 13.4238 31.0664 13.3383 30.981C13.2529 30.8101 13.2529 30.6392 13.1674 30.4683C13.1674 30.3829 13.1674 30.2975 13.1674 30.2975C13.1674 30.1266 13.1674 29.9557 13.1674 29.8703V29.7848C13.2529 28.9304 13.851 28.6741 14.449 28.5887C14.2781 28.0761 14.1073 27.5634 13.9364 27.0508C13.851 26.8799 13.851 26.7091 13.851 26.5382C13.7655 26.2819 13.6801 25.9401 13.6801 25.6838C13.6801 25.5129 13.6801 25.3421 13.5946 25.1712C13.5946 24.9149 13.5092 24.6585 13.5092 24.4877C13.5092 24.3168 13.5092 24.2314 13.5092 24.0605C13.5092 23.8896 13.5092 23.7187 13.5092 23.5479L13.1674 28.3324C13.1674 28.7596 13.1674 29.2722 13.2529 29.6994L12.9111 34.4839C12.9111 34.9966 13.082 35.8509 13.5946 36.9616C14.6199 39.183 15.4743 39.7811 15.9869 39.7811C16.3287 40.8918 16.9267 42.0025 17.6957 42.9423C17.7811 43.8821 17.8665 44.9074 17.952 45.8472C19.8316 46.787 21.7113 47.8123 23.5909 48.8375L23.3346 53.2803C23.7618 54.1347 24.4453 54.9036 25.0433 55.758Z" fill="#AB3A0A"/>
<path d="M24.7011 59.7768L24.3594 64.5614C26.3245 64.4759 28.375 64.3905 30.34 64.305L30.6818 59.5205C28.7167 59.6059 26.6662 59.6914 24.7011 59.7768Z" fill="#AB3A0A"/>
<path d="M75.7079 52.4271C72.034 49.1805 67.7621 46.2756 63.1485 43.8833C63.1485 43.8833 63.063 43.8833 63.063 43.7979C62.8922 43.7124 62.8067 43.627 62.8922 43.4561C62.9776 42.1745 63.063 40.893 63.1485 39.6114C63.4048 39.2697 63.6611 38.8425 63.9174 38.5007C63.9174 38.4153 64.0029 38.3298 64.0029 38.3298C64.0883 38.159 64.1737 37.9881 64.2592 37.8172C64.3446 37.7318 64.3446 37.6463 64.43 37.5609C64.5155 37.3046 64.6864 36.9628 64.7718 36.7065C64.8572 36.7065 64.9427 36.7065 65.0281 36.6211H65.1136C65.199 36.6211 65.2844 36.5356 65.3699 36.4502C65.3699 36.4502 65.3699 36.4502 65.4553 36.3648C65.5407 36.2793 65.5407 36.2793 65.6262 36.1939L65.7116 36.1084C65.7971 36.023 65.7971 35.9376 65.8825 35.9376C65.8825 35.8521 65.9679 35.8521 65.9679 35.7667C66.0534 35.6813 66.0534 35.5958 66.1388 35.5104C66.1388 35.4249 66.2242 35.4249 66.2242 35.3395C66.3097 35.2541 66.3097 35.0832 66.3951 34.9977C66.3951 34.9123 66.4806 34.8269 66.4806 34.7414C66.566 34.5706 66.6514 34.3142 66.8223 34.0579C66.9932 33.7162 67.0786 33.4599 67.1641 33.2035C67.1641 33.1181 67.1641 33.1181 67.2495 33.0327C67.3349 32.7764 67.3349 32.6055 67.4204 32.3492V32.2637C67.5058 31.4094 67.2495 30.9822 66.8223 30.8113C66.7369 30.7258 66.6514 30.7258 66.566 30.7258C66.3951 30.7258 66.3097 30.6404 66.1388 30.6404C66.3097 30.2132 66.4806 29.8715 66.6514 29.4443C66.7369 29.1025 66.8223 28.7608 66.9078 28.5045C66.9078 28.419 66.9078 28.2481 66.9932 28.1627C66.9932 27.9918 67.0786 27.7355 67.0786 27.4792C67.1641 26.7957 67.0786 26.1976 66.9078 25.5141C66.566 23.9762 65.7116 22.5238 64.43 21.3277C63.6611 20.6442 62.8067 19.9606 61.8669 19.448C61.098 18.9354 60.2436 18.5936 59.3038 18.2519C58.5348 17.9956 57.7659 17.8247 56.9969 17.8247C56.4843 17.7393 55.8862 17.7393 55.3736 17.7393C53.8357 17.7393 52.3833 18.081 51.0163 18.5936C49.8201 19.1063 48.8803 19.7898 48.1968 20.7296C48.0259 20.7296 44.6084 20.9859 44.7793 26.0268C44.7793 26.1122 44.7793 26.1976 44.7793 26.2831C44.7793 26.5394 44.7793 26.7957 44.8647 27.052C44.8647 27.1374 44.8647 27.3083 44.8647 27.3938C44.9502 27.7355 44.9502 28.1627 45.0356 28.5899C45.121 29.0171 45.2919 29.4443 45.4628 29.786H45.2919C44.9502 29.786 44.6939 29.8715 44.4375 30.1278C44.1812 30.3841 44.0103 30.8113 44.0958 31.4948V31.5802C44.0958 31.7511 44.1812 31.922 44.1812 32.1783C44.1812 32.2637 44.1812 32.3492 44.2667 32.3492C44.3521 32.6055 44.4375 32.8618 44.523 33.2035C45.2919 35.4249 45.9754 36.023 46.4026 36.023C46.6589 37.1337 47.0861 38.159 47.6842 39.0988C47.6842 40.3803 47.6842 41.6619 47.6842 43.0289C47.6842 43.1998 47.5987 43.2852 47.4279 43.3707C47.3424 43.3707 47.257 43.4561 47.0861 43.4561C46.3172 43.7979 44.6939 44.4814 42.6433 45.5066C40.0802 44.1396 37.8588 43.1144 36.4064 42.5163C35.3811 48.1552 34.4413 53.8796 33.5015 59.5185C35.7229 59.433 38.0297 59.433 40.2511 59.433C52.2978 59.3476 64.3446 60.0311 76.3059 61.3127C76.5623 59.433 76.7331 57.6388 76.9894 55.7592C77.0749 54.3922 76.6477 53.2815 75.7079 52.4271Z" fill="#F0783C"/>
<path d="M28.8021 50.8889C29.4002 50.0345 29.9128 49.0947 30.5109 48.2403C30.4255 48.1549 30.34 48.0694 30.2546 47.984C29.3148 47.0442 28.4604 46.1898 27.5206 45.25C29.8274 43.6266 32.1342 42.0888 34.5265 40.5509C34.6119 40.4654 34.6974 40.38 34.8682 40.38C34.8682 40.38 34.8682 40.38 34.8682 40.2946C34.8682 39.3547 34.7828 38.3295 34.7828 37.3897C34.9537 37.2188 35.0391 36.9625 35.1245 36.7916C35.2954 36.4498 35.5517 36.0226 35.6372 35.5955C35.6372 35.51 35.7226 35.4246 35.7226 35.3391C35.8935 34.912 35.9789 34.4848 36.0644 34.0576C36.1498 34.0576 36.2352 34.0576 36.3207 33.9721H36.4061C36.4916 33.9721 36.577 33.8867 36.577 33.8013L36.6624 33.7158C36.7479 33.6304 36.8333 33.5449 36.9187 33.4595L37.0042 33.3741C37.0896 33.2032 37.1751 33.1178 37.3459 32.9469C37.4314 32.776 37.5168 32.6906 37.6023 32.5197C37.6023 32.4343 37.6877 32.4342 37.6877 32.3488C37.7731 32.1779 37.7731 32.0925 37.8586 31.9216C37.8586 31.8362 37.944 31.7507 37.944 31.7507C38.0294 31.4944 38.1149 31.3236 38.2003 31.0672C38.3712 30.5546 38.4566 30.1274 38.5421 29.7002C38.7984 28.0769 38.2003 27.5643 37.5168 27.4788C37.4314 27.4788 37.3459 27.4788 37.2605 27.4788C37.2605 27.3934 37.3459 27.2225 37.3459 27.0517C37.3459 26.9662 37.3459 26.9662 37.3459 26.8808C37.3459 26.7953 37.4314 26.6245 37.4314 26.539C37.4314 26.4536 37.4314 26.3681 37.4314 26.2827C37.4314 26.1973 37.4314 26.0264 37.5168 25.8555C37.5168 25.7701 37.5168 25.6846 37.5168 25.5992C37.5168 25.4283 37.5168 25.3429 37.5168 25.172C37.6023 22.8652 37.1751 19.4477 33.7575 17.3971C33.6721 17.3971 33.5867 17.3117 33.5867 17.3117C33.4158 17.2263 33.2449 17.1408 33.074 17.0554C32.9886 17.0554 32.9886 16.97 32.9032 16.97C33.074 16.8845 33.2449 16.7136 33.3303 16.6282C33.3303 16.6282 33.3303 16.6282 33.4158 16.5428C33.4158 16.5428 33.4158 16.4573 33.5012 16.4573C33.5867 16.3719 33.6721 16.2865 33.6721 16.201C33.6721 16.201 33.6721 16.1156 33.7575 16.1156C33.7575 15.8593 33.7575 15.6884 33.7575 15.6029C33.7575 15.5175 33.7575 15.5175 33.7575 15.4321C33.7575 15.2612 33.7575 15.1758 33.7575 15.0049C33.7575 15.0049 32.7323 15.0903 31.1944 15.2612C29.7419 15.3466 27.9477 15.5175 26.3244 15.5175C25.47 15.5175 24.6157 15.5175 24.0176 15.4321C23.7613 15.4321 23.505 15.4321 23.2487 15.4321C20.2583 15.4321 17.4389 17.4826 17.1825 19.1913C17.0117 19.1913 13.167 19.6185 13.2524 24.0613C13.2524 24.2322 13.2524 24.3176 13.2524 24.4885C13.2524 24.7448 13.3378 24.9157 13.3378 25.172C13.3378 25.3429 13.3378 25.5138 13.4233 25.6846C13.5087 25.941 13.5941 26.2827 13.5941 26.539C13.6796 26.7099 13.6796 26.8808 13.6796 27.0517C13.8505 27.5643 14.0213 27.9915 14.1922 28.5895C13.5941 28.675 12.9961 28.8459 12.9106 29.7857V29.8711C12.9106 30.042 12.9106 30.1274 12.9106 30.2983C12.9106 30.3837 12.9106 30.4692 12.9106 30.4692C12.9106 30.6401 12.9961 30.8109 13.0815 30.9818C13.0815 31.0672 13.0815 31.0672 13.167 31.1527V31.2381C13.2524 31.4944 13.4233 31.8362 13.5087 32.1779C13.5941 32.4343 13.6796 32.6051 13.765 32.776C14.7048 34.5702 15.3883 34.9974 15.901 34.9974C16.2427 36.1081 16.8408 37.2188 17.6097 38.1586C17.6952 39.0984 17.7806 40.1237 17.8661 41.0635C20.5146 42.4305 23.1632 43.883 25.7264 45.3354C24.872 46.4461 24.0176 47.4714 23.1632 48.582C23.3341 48.7529 23.505 48.9238 23.5904 49.1801C24.103 49.8636 24.6157 50.4617 25.2137 51.1452C25.0429 52.6831 24.9574 54.221 24.7865 55.7588C24.7011 57.1259 24.5302 58.4074 24.4448 59.7744C26.4099 59.689 28.4604 59.6036 30.4254 59.5181C30.34 57.7239 29.9128 55.9297 29.4856 54.1355C29.3148 53.0248 29.0584 51.9996 28.8021 50.8889Z" fill="#F0783C"/>
<path d="M4.53777 52.0863C3.59795 53.0261 3.08532 54.3076 3.34163 55.5892C3.68339 57.5543 3.9397 59.6048 4.28145 61.5699C10.1767 60.8864 16.0719 60.2883 21.9671 59.9466C20.3438 54.3931 18.6351 48.8396 16.8409 43.2861C12.2272 45.7638 8.12617 48.7542 4.53777 52.0863Z" fill="#F0783C"/>
</svg>
