<svg width="80" height="81" viewBox="0 0 80 81" fill="none" xmlns="http://www.w3.org/2000/svg">
<path d="M13.4156 22.0146L16.8708 24.2764C16.0418 25.3223 15.3025 26.4363 14.6606 27.6064L11.2349 25.352C11.875 24.1785 12.6144 23.062 13.445 22.0146" fill="#AB3A0A"/>
<path d="M11.2343 25.3525L14.6895 27.6069C14.1703 28.5558 13.7198 29.5406 13.3413 30.5538L9.91553 28.3289C10.2923 27.315 10.7429 26.33 11.2637 25.382" fill="#AB3A0A"/>
<path d="M9.91593 28.3282L13.3712 30.5899C13.012 31.5511 12.7191 32.5357 12.4945 33.5368L9.00977 31.2604C9.23649 30.2598 9.52937 29.2753 9.88646 28.3135" fill="#AB3A0A"/>
<path d="M9.0093 31.2627L12.4645 33.5244C12.3319 34.1359 12.214 34.7548 12.1256 35.3883L8.67041 33.1266C8.75882 32.493 8.87669 31.8742 9.0093 31.2627Z" fill="#AB3A0A"/>
<path d="M25.3144 14.0039L28.7696 16.2656C25.5322 17.1678 22.5371 18.7811 20.0026 20.988L16.5474 18.7337C19.0796 16.5218 22.0753 14.9056 25.3144 14.0039Z" fill="#AB3A0A"/>
<path d="M21.4149 25.8523L24.8701 28.114C22.201 27.2522 19.6514 26.0566 17.2819 24.5557L13.8267 22.2939C16.1869 23.7926 18.7265 24.9881 21.3854 25.8523" fill="#AB3A0A"/>
<path d="M32.1648 13.1931L35.62 15.4475C35.0822 15.4475 34.397 15.9043 33.6603 16.8473L30.2051 14.5855C30.9418 13.6425 31.627 13.171 32.1648 13.1931Z" fill="#AB3A0A"/>
<path d="M30.2054 14.5859L33.6606 16.8477C33.2435 17.3922 32.8738 17.9714 32.5555 18.579L29.0708 16.3246C29.3892 15.7147 29.7589 15.1331 30.1759 14.5859" fill="#AB3A0A"/>
<path d="M29.0702 16.3232L32.5254 18.5776C32.0169 19.5276 31.5762 20.5123 31.2067 21.5245L27.7515 19.2701C28.1183 18.2569 28.559 17.2719 29.0702 16.3232Z" fill="#AB3A0A"/>
<path d="M27.781 19.2852L31.2362 21.5395C30.8369 22.6166 30.4927 23.7133 30.2048 24.8253L26.7422 22.6151C27.0663 21.402 27.4126 20.3043 27.781 19.322" fill="#AB3A0A"/>
<path d="M32.833 13.4355L36.2882 15.6899C36.091 15.5495 35.8592 15.4654 35.6178 15.4468L32.1626 13.1924C32.404 13.2111 32.6358 13.2951 32.833 13.4355Z" fill="#AB3A0A"/>
<path d="M8.50062 37.5205L11.9558 39.7749C12.0611 41.2683 12.3078 42.7484 12.6926 44.1952L9.21524 41.8966C8.83329 40.4642 8.58664 38.9991 8.47852 37.5205" fill="#AB3A0A"/>
<path d="M9.21533 41.8965L12.6706 44.1582C13.3361 46.6439 14.3957 49.0068 15.809 51.1571L12.3538 48.9027C10.948 46.7484 9.89597 44.3831 9.23743 41.8965" fill="#AB3A0A"/>
<path d="M20.3033 37.905L23.7585 40.1668L11.9562 39.7837L8.50098 37.5293L20.3033 37.905Z" fill="#AB3A0A"/>
<path d="M25.7022 26.8906L29.1574 29.1524C28.9143 30.8616 28.6564 32.6665 28.487 34.6188L25.0317 32.3645C25.2012 30.4048 25.459 28.5998 25.7022 26.8906Z" fill="#AB3A0A"/>
<path d="M25.0313 32.3623L28.4865 34.6167C28.4497 35.0145 28.4202 35.4123 28.3908 35.8175L24.9355 33.5632C24.9355 33.158 24.9945 32.7528 25.0313 32.3623Z" fill="#AB3A0A"/>
<path d="M21.3115 49.9941L24.7667 52.2559C22.6709 52.7937 20.6511 53.5932 18.755 54.6355L15.2998 52.3811C17.2027 51.335 19.23 50.533 21.3336 49.9941" fill="#AB3A0A"/>
<path d="M24.8423 38.0842L28.3343 40.2944C28.3343 42.011 28.3343 43.6612 28.4449 45.1862L24.9896 42.9245C24.9012 41.3995 24.8718 39.7566 24.8791 38.04" fill="#AB3A0A"/>
<path d="M24.9531 42.9326L28.4083 45.1944C28.4526 45.8206 28.4968 46.4247 28.5631 47.0067L25.1078 44.7523C25.0415 44.1703 24.9973 43.5588 24.9531 42.9326Z" fill="#AB3A0A"/>
<path d="M43.8038 16.8378L47.259 19.0995C45.7381 18.1167 44.1059 17.3179 42.3966 16.7199L38.9414 14.4287C40.6514 15.0376 42.2834 15.8462 43.8038 16.8378Z" fill="#AB3A0A"/>
<path d="M15.2812 52.3867L18.7586 54.6411L18.9943 54.8695L15.517 52.6077L15.2812 52.3867Z" fill="#AB3A0A"/>
<path d="M15.5171 52.6104L18.9723 54.8721C20.0214 55.8685 21.1581 56.7685 22.3686 57.5611L18.9134 55.3068C17.7044 54.5092 16.568 53.6069 15.5171 52.6104Z" fill="#AB3A0A"/>
<path d="M37.4317 27.2664L40.8575 29.5281C38.9018 29.757 36.9318 29.8407 34.9637 29.7786C33.0009 29.7165 31.0456 29.5071 29.1141 29.1524L25.7031 26.8906C27.6346 27.2454 29.5899 27.4547 31.5527 27.5168C33.5208 27.5827 35.4911 27.499 37.4465 27.2664" fill="#AB3A0A"/>
<path d="M38.9414 14.4287L42.3966 16.7199C43.1266 18.4319 43.7227 20.198 44.1795 22.0022L40.7243 19.7405C40.2689 17.9262 39.6728 16.1503 38.9414 14.4287Z" fill="#AB3A0A"/>
<path d="M40.7251 19.7109L44.1803 21.9727C44.3866 22.7094 44.5708 23.5345 44.7476 24.3523L41.2924 22.0905C41.1156 21.2728 40.9314 20.4771 40.7251 19.7109Z" fill="#AB3A0A"/>
<path d="M37.6745 38.4624L41.1297 40.7167L28.296 40.3115L24.8408 38.0498L37.6745 38.4624Z" fill="#AB3A0A"/>
<path d="M41.7939 26.4424L45.2786 28.6968C45.3818 29.684 45.4702 30.6712 45.5291 31.6436L42.0739 29.3893C42.015 28.3873 41.9266 27.4001 41.8234 26.4424" fill="#AB3A0A"/>
<path d="M42.0439 29.4121L45.4992 31.6665C45.5974 33.2283 45.6367 34.7951 45.617 36.3668L42.1618 34.1124C42.1618 32.5432 42.1618 30.9666 42.0439 29.4121Z" fill="#AB3A0A"/>
<path d="M50.0668 23.1064L53.5221 25.3608C50.951 26.8682 48.1738 27.9925 45.2781 28.6982L41.7935 26.4438C44.6982 25.7376 47.4851 24.6134 50.0668 23.1064Z" fill="#AB3A0A"/>
<path d="M25.7466 49.1885L29.2018 51.4502C29.3786 52.4006 29.5702 53.2846 29.7838 54.095L26.3286 51.8407C26.1149 51.0229 25.916 50.1388 25.7466 49.1885Z" fill="#AB3A0A"/>
<path d="M26.3286 51.8438L29.8059 54.0981C30.6826 57.4207 31.8246 59.6235 32.8412 60.596L29.3639 58.3343C28.3472 57.3618 27.2053 55.1664 26.3286 51.8438Z" fill="#AB3A0A"/>
<path d="M29.3638 58.333L32.819 60.5947C32.945 60.7189 33.0832 60.83 33.2316 60.9263L29.8058 58.6719C29.6574 58.5728 29.5192 58.4593 29.3932 58.333" fill="#AB3A0A"/>
<path d="M35.8618 49.5041L39.317 51.7659C37.649 51.4744 35.9627 51.2996 34.2705 51.2428C32.5784 51.199 30.8852 51.2654 29.2018 51.4417L25.7466 49.18C27.4303 49.0074 29.1232 48.9409 30.8152 48.9811C32.507 49.0452 34.1928 49.2199 35.8618 49.5041Z" fill="#AB3A0A"/>
<path d="M42.0724 38.6094L45.5276 40.8637C45.5276 41.3352 45.4613 41.7994 45.4171 42.2709L41.9619 40.0091C42.0061 39.545 42.043 39.0735 42.0724 38.6094Z" fill="#AB3A0A"/>
<path d="M41.9619 40.008L45.4172 42.2697C45.233 44.362 44.953 46.4469 44.5773 48.4803L41.1221 46.1964C41.4978 44.1557 41.7778 42.0782 41.9619 39.9785" fill="#AB3A0A"/>
<path d="M47.2676 38.7666L50.7302 41.0283L45.529 40.8589L42.0737 38.6045L47.2676 38.7666Z" fill="#AB3A0A"/>
<path d="M49.132 34.3281L52.5872 36.6046C52.403 36.8993 52.2262 37.194 52.0568 37.5034L48.6016 35.2417C48.771 34.9396 48.9405 34.6375 49.132 34.3429" fill="#AB3A0A"/>
<path d="M48.6015 35.2256L52.0567 37.4873C51.7401 38.0716 51.4644 38.6772 51.2316 39.2997L47.7764 37.0453C48.0106 36.421 48.2862 35.8131 48.6015 35.2256Z" fill="#AB3A0A"/>
<path d="M47.7768 37.0498L51.232 39.3042C51.0322 39.8481 50.8673 40.4042 50.7384 40.9692L47.2832 38.7074C47.4111 38.1446 47.576 37.5909 47.7768 37.0498Z" fill="#AB3A0A"/>
<path d="M47.2832 38.7041L50.7384 40.9658V41.0248L47.2832 38.763V38.7115" fill="#AB3A0A"/>
<path d="M40.2248 50.6143L43.68 52.8686C43.3411 54.1063 42.9433 55.2851 42.5602 56.3975L39.105 54.1358C39.5175 53.0233 39.8859 51.8446 40.2248 50.6143Z" fill="#AB3A0A"/>
<path d="M39.1046 54.1387L42.5599 56.4004C42.1059 57.6371 41.5668 58.8408 40.9464 60.003L37.4912 57.7412C38.1143 56.5804 38.6535 55.3765 39.1046 54.1387Z" fill="#AB3A0A"/>
<path d="M37.4914 57.7412L40.9466 60.0029C40.8876 60.1208 40.8213 60.2387 40.755 60.3566L37.2998 58.0948C37.3661 57.977 37.4324 57.8591 37.4914 57.7412Z" fill="#AB3A0A"/>
<path d="M46.0146 12.9814L49.4772 15.2432C50.8716 16.1489 52.1788 17.1823 53.3819 18.33L49.9193 16.0683C48.7149 14.9221 47.4078 13.8888 46.0146 12.9814Z" fill="#AB3A0A"/>
<path d="M49.9194 16.0713L53.382 18.333C56.9654 21.7553 59.5568 26.0827 60.8819 30.8573L57.4266 28.5956C56.1016 23.821 53.5102 19.4935 49.9268 16.0713" fill="#AB3A0A"/>
<path d="M57.4179 28.5566L60.8732 30.8184C59.3887 31.1224 57.9727 31.6968 56.6959 32.5128L53.2407 30.2585C54.5156 29.4371 55.9321 28.86 57.4179 28.5566Z" fill="#AB3A0A"/>
<path d="M44.9897 52.7508L48.445 55.0346C46.9386 54.1491 45.3403 53.4302 43.6784 52.8907L40.2231 50.6143C41.886 51.1482 43.4847 51.8647 44.9897 52.7508Z" fill="#AB3A0A"/>
<path d="M48.2253 49.4609L51.6806 51.7227C50.6559 52.4248 49.7399 53.2738 48.9621 54.2423L45.5068 51.9805C46.2847 51.012 47.2006 50.1631 48.2253 49.4609Z" fill="#AB3A0A"/>
<path d="M45.5359 51.9844L48.9617 54.2461C48.7701 54.4892 48.5859 54.7471 48.4165 54.9828L44.9907 52.7506C45.1602 52.4853 45.3443 52.2275 45.5359 52.0138" fill="#AB3A0A"/>
<path d="M43.6505 55.2119L47.1057 57.4736C46.9804 57.7462 46.8626 58.0336 46.7594 58.3135L43.3042 56.0518C43.4073 55.7718 43.5252 55.4919 43.6505 55.2119Z" fill="#AB3A0A"/>
<path d="M43.3037 56.0518L46.7516 58.3135C46.5479 58.8618 46.3806 59.4229 46.2506 59.9932L42.7954 57.7315C42.9264 57.1615 43.0937 56.6004 43.2964 56.0518" fill="#AB3A0A"/>
<path d="M42.8022 57.7354L46.2574 59.9971C46.1985 60.2697 46.1469 60.5423 46.0954 60.8296L42.6401 58.5678C42.6843 58.2879 42.7433 58.0079 42.8022 57.7354Z" fill="#AB3A0A"/>
<path d="M42.2487 61.0397L45.704 63.3015C41.5604 65.1463 37.0211 65.9253 32.4995 65.5676C27.9779 65.2099 23.6176 63.7268 19.8156 61.2534L16.3604 58.999C20.1638 61.4694 24.5242 62.95 29.0454 63.3064C33.5667 63.6628 38.1053 62.8836 42.2487 61.0397Z" fill="#AB3A0A"/>
<path d="M42.64 58.5605L46.0952 60.8223L45.7047 63.3124L42.2495 61.0507L42.64 58.5605Z" fill="#AB3A0A"/>
<path d="M52.2754 52.1807L55.7306 54.4424L56.3863 54.8992L52.9311 52.6374C52.7101 52.4901 52.489 52.3427 52.2754 52.1807Z" fill="#AB3A0A"/>
<path d="M47.8264 69.0224L51.2816 71.2841C51.0198 71.2213 50.7706 71.1141 50.5449 70.9673L47.1191 68.6982C47.3449 68.845 47.594 68.9521 47.8559 69.015" fill="#AB3A0A"/>
<path d="M64.9482 34.2529L68.4035 36.5073C68.8453 36.8011 69.2617 37.1313 69.6485 37.4945L66.1933 35.2401C65.8103 34.8726 65.3934 34.5421 64.9482 34.2529Z" fill="#AB3A0A"/>
<path d="M66.1943 35.2412L69.6496 37.4956C70.8074 38.6027 71.6383 40.0071 72.0513 41.5549L68.596 39.3005C68.1831 37.7527 67.3522 36.3483 66.1943 35.2412Z" fill="#AB3A0A"/>
<path d="M68.5953 39.2988L72.0505 41.5532C72.1944 42.1082 72.2856 42.6755 72.3231 43.2477L68.8532 41.0228C68.8151 40.4531 68.7238 39.8883 68.5806 39.3357" fill="#AB3A0A"/>
<path d="M68.8525 41.0232L72.3225 43.2333C72.3372 43.5278 72.3372 43.8229 72.3225 44.1174C72.3225 44.2647 72.3225 44.4121 72.3225 44.5594L68.8525 42.3198C68.8525 42.1724 68.8525 42.0177 68.8525 41.8704C68.8525 41.5757 68.8525 41.281 68.8525 40.9863" fill="#AB3A0A"/>
<path d="M68.8526 42.3184L72.3079 44.5727C72.277 44.9698 72.2154 45.3639 72.1237 45.7515L68.6685 43.4971C68.7591 43.1093 68.8207 42.7153 68.8526 42.3184Z" fill="#AB3A0A"/>
<path d="M68.6616 43.501L72.1168 45.7553C72.038 46.1333 71.9321 46.5051 71.8 46.8678L68.3374 44.6061C68.4711 44.2457 68.5794 43.8764 68.6616 43.501Z" fill="#AB3A0A"/>
<path d="M68.3369 44.6055L71.7995 46.8672C71.6527 47.2503 71.4829 47.6243 71.2912 47.987L67.8359 45.7327C68.0291 45.3681 68.1989 44.9916 68.3443 44.6055" fill="#AB3A0A"/>
<path d="M67.8294 45.7305L71.2847 47.9848C71.0499 48.4155 70.7814 48.8269 70.4816 49.2152L67.019 46.9534C67.3219 46.5685 67.593 46.1595 67.8294 45.7305Z" fill="#AB3A0A"/>
<path d="M67.0187 46.9512L70.4813 49.2129C69.6322 50.3031 68.5378 51.1776 67.2871 51.7651C66.0364 52.3527 64.6647 52.6369 63.2835 52.5945C61.6949 52.5473 60.1501 52.0629 58.819 51.1947L55.3638 48.933C56.6944 49.8022 58.2395 50.2867 59.8283 50.3327C61.2088 50.3775 62.5802 50.0944 63.8301 49.5066C65.08 48.9188 66.1728 48.043 67.0187 46.9512Z" fill="#AB3A0A"/>
<path d="M67.813 53.0098L71.2682 55.2715C71.7505 55.584 72.202 55.9417 72.6164 56.3397L69.1612 54.078C68.7447 53.6822 68.2935 53.3247 67.813 53.0098Z" fill="#AB3A0A"/>
<path d="M69.1611 54.0771L72.6164 56.3389C73.8258 57.4901 74.6929 58.9538 75.1212 60.5677L71.666 58.3059C71.2376 56.692 70.3706 55.2283 69.1611 54.0771Z" fill="#AB3A0A"/>
<path d="M71.667 58.3076L75.1222 60.5694C75.2625 61.1026 75.3537 61.6476 75.3948 62.1975L71.9396 59.9431C71.8991 59.3908 71.8078 58.8433 71.667 58.3076Z" fill="#AB3A0A"/>
<path d="M71.9404 59.9385L75.3956 62.1928L75.9408 69.2064L72.4856 66.9447L71.9404 59.9385Z" fill="#AB3A0A"/>
<path d="M72.4854 66.9404L75.9406 69.2022C75.9445 69.2586 75.9445 69.3152 75.9406 69.3716L72.5369 67.1099C72.5406 67.0535 72.5406 66.9969 72.5369 66.9404" fill="#AB3A0A"/>
<path d="M72.5369 67.1104L75.9921 69.3721C76.0031 69.4922 76.0031 69.613 75.9921 69.7331L72.4927 67.4787C72.5037 67.3562 72.5037 67.2329 72.4927 67.1104" fill="#AB3A0A"/>
<path d="M72.4925 67.4785L75.9477 69.7624C75.9407 69.8713 75.9259 69.9796 75.9035 70.0865L72.4409 67.8321C72.4688 67.7261 72.4861 67.6175 72.4925 67.508" fill="#AB3A0A"/>
<path d="M72.4414 67.8047L75.904 70.0591C75.904 70.1696 75.8451 70.2727 75.8083 70.3758L72.353 68.1141C72.3893 68.013 72.4188 67.9097 72.4414 67.8047Z" fill="#AB3A0A"/>
<path d="M72.3524 68.1113L75.8076 70.3731C75.7661 70.482 75.7168 70.5879 75.6603 70.6899L72.2051 68.4281C72.2616 68.3261 72.3108 68.2203 72.3524 68.1113Z" fill="#AB3A0A"/>
<path d="M72.2049 68.4297L75.6602 70.6914C75.5955 70.8163 75.519 70.9347 75.4318 71.045L71.9766 68.7907C72.0612 68.6759 72.1375 68.5553 72.2049 68.4297Z" fill="#AB3A0A"/>
<path d="M71.9769 68.7891L75.4321 71.0434C75.0355 71.5326 74.4757 71.8622 73.8555 71.9717C70.1131 72.5983 66.3168 72.8451 62.5247 72.7084C58.7371 72.599 54.9703 72.1053 51.2824 71.235L47.8271 69.0248C51.5151 69.8951 55.2819 70.3888 59.0695 70.4983C62.8616 70.6349 66.6578 70.3881 70.4003 69.7615C71.0229 69.6444 71.5826 69.307 71.9769 68.8112" fill="#AB3A0A"/>
<path d="M44.991 52.7496C45.8548 51.4623 46.9517 50.3479 48.2252 49.4638C45.9965 48.0946 43.6123 46.9965 41.1232 46.1927C41.5814 43.6831 41.8987 41.1497 42.0736 38.6045L47.2748 38.7666C47.6316 37.1963 48.2598 35.7004 49.1313 34.3463L42.162 34.1252C42.1879 31.5638 42.0649 29.0031 41.7936 26.456C44.6998 25.7507 47.4871 24.6238 50.067 23.1113C51.5384 25.2929 52.6133 27.717 53.2423 30.2722C54.5171 29.4508 55.9336 28.8737 57.4195 28.5704C55.8871 22.9923 52.614 18.049 48.0768 14.4606C43.5395 10.8721 37.9752 8.82593 32.1941 8.61994C24.9612 8.47334 17.9593 11.1689 12.6919 16.1278C7.42443 21.0866 4.31163 27.9133 4.02189 35.1419C3.83427 39.7626 4.82912 44.3546 6.91224 48.4833C8.99536 52.612 12.0978 56.1407 15.9258 58.7353C19.7539 61.3298 24.1808 62.9044 28.7874 63.3099C33.394 63.7154 38.028 62.9383 42.2504 61.0524L42.6408 58.5623C42.8285 57.4054 43.1679 56.2784 43.6501 55.2102C41.7021 56.5058 39.5576 57.4786 37.2996 58.0908C38.5815 55.727 39.5711 53.2159 40.2465 50.6131C41.9018 51.1485 43.4929 51.865 44.991 52.7496ZM32.1646 13.195C33.5571 13.2392 35.7083 16.6134 36.8649 22.905C35.1796 23.0892 33.4836 23.1581 31.7889 23.1113C30.0973 23.0638 28.4111 22.8989 26.7424 22.6176C28.3779 16.385 30.7722 13.1508 32.1646 13.195ZM25.3131 13.998C24.0228 16.3631 23.0329 18.8801 22.3663 21.4905C20.3252 20.7995 18.3719 19.8723 16.5462 18.7278C19.0784 16.5159 22.0741 14.8997 25.3131 13.998ZM13.4151 22.0062C15.8908 23.6565 18.5834 24.9557 21.4159 25.8666C20.9392 28.3859 20.6486 30.937 20.5465 33.499L8.6706 33.1159C9.24765 29.0599 10.8842 25.2278 13.4151 22.0062ZM8.50115 37.5289L20.2887 37.9046C20.2887 40.4831 20.3845 43.0617 20.5834 45.5665C17.678 46.2673 14.8925 47.3944 12.3174 48.9112C10.0913 45.5066 8.77725 41.5873 8.50115 37.5289ZM15.279 52.3886C17.1819 51.3424 19.2091 50.5404 21.3127 50.0016C21.7893 52.6295 22.5552 55.1967 23.5966 57.6561C20.4835 56.5066 17.6489 54.7114 15.279 52.3886ZM30.4481 58.9086C29.0557 58.8643 26.9118 55.4828 25.7478 49.1838C27.4315 49.0112 29.1244 48.9448 30.8164 48.9849C32.5085 49.0454 34.1945 49.2201 35.863 49.508C34.1612 55.7112 31.8405 58.9528 30.4481 58.9086ZM36.8355 45.1319C34.9048 44.7706 32.9491 44.5588 30.9859 44.4983C29.0176 44.435 27.0474 44.5212 25.0921 44.7561C24.8847 42.5277 24.7962 40.2898 24.8269 38.052L37.6606 38.4645C37.4396 40.881 37.1744 43.1574 36.8355 45.1319ZM24.9374 33.5653C25.0995 31.1415 25.4089 28.9461 25.6741 26.8906C27.6056 27.2454 29.5609 27.4547 31.5237 27.5168C33.4918 27.5827 35.4621 27.499 37.4175 27.2664C37.6311 29.3365 37.6974 31.5393 37.7564 33.9779L24.9374 33.5653ZM47.3264 19.7076C45.4107 20.7263 43.3868 21.527 41.2926 22.0946C40.7623 19.4697 39.9751 16.9034 38.9425 14.4327C42.0983 15.538 44.9641 17.341 47.3264 19.7076Z" fill="#F0783C"/>
<path d="M51.4371 41.3244C51.3898 42.4693 51.5699 43.6122 51.967 44.6871C52.3641 45.762 52.9703 46.7476 53.7506 47.5868C54.5309 48.426 55.4697 49.1022 56.5129 49.5764C57.5562 50.0505 58.683 50.3132 59.8283 50.3492C62.1447 50.4129 64.3926 49.5592 66.0827 47.9739C67.7729 46.3886 68.7686 44.2 68.8532 41.8843C68.8995 40.7414 68.7194 39.6006 68.3234 38.5275C67.9273 37.4545 67.323 36.4703 66.5452 35.6316C65.7674 34.7929 64.8315 34.1162 63.7913 33.6404C62.7511 33.1647 61.6272 32.8993 60.484 32.8594C58.1638 32.7898 55.9103 33.6408 54.2154 35.2267C52.5204 36.8127 51.5216 39.0047 51.4371 41.3244Z" fill="#F0783C"/>
<path d="M72.4853 66.9461L71.9401 59.9399C71.8239 58.4286 71.3316 56.9703 70.5082 55.6978C69.6847 54.4253 68.5561 53.3788 67.2251 52.6537C64.9758 54.1086 62.3365 54.8436 59.6589 54.7607C56.9968 54.671 54.4259 53.7686 52.2917 52.1748C50.9262 52.8357 49.7372 53.8116 48.8227 55.022C47.9082 56.2324 47.2943 57.6427 47.0315 59.1368L45.9559 66.0841C45.8535 66.7192 45.9874 67.3697 46.3322 67.9128C46.677 68.4558 47.2089 68.8536 47.8272 69.031C51.5151 69.9013 55.2819 70.395 59.0696 70.5044C62.8617 70.6411 66.6579 70.3943 70.4003 69.7677C71.0447 69.6571 71.6214 69.3018 72.01 68.776C72.3985 68.2502 72.5688 67.5945 72.4853 66.9461Z" fill="#F0783C"/>
</svg>
