<svg width="80" height="81" viewBox="0 0 80 81" fill="none" xmlns="http://www.w3.org/2000/svg">
<path d="M63.8256 29.3014L59.6216 31.5682L64.3772 26.6311L68.5812 24.3643L63.8256 29.3014Z" fill="#AB3A0A"/>
<path d="M63.558 29.5016L59.354 31.7684C59.4522 31.7133 59.5427 31.6454 59.6231 31.5666L63.8271 29.2998C63.7502 29.3827 63.6591 29.451 63.558 29.5016Z" fill="#AB3A0A"/>
<path d="M74.9578 39.042L70.7538 41.3021L63.9399 41.3828L68.1439 39.116L74.9578 39.042Z" fill="#AB3A0A"/>
<path d="M68.1443 39.1162L63.9403 41.383C63.7597 41.3815 63.5815 41.4254 63.4224 41.5108L67.6196 39.244C67.7823 39.1616 67.9619 39.1178 68.1443 39.1162Z" fill="#AB3A0A"/>
<path d="M59.4871 34.1316L55.2831 36.3984C55.3842 36.3016 55.4622 36.1833 55.5115 36.0522C55.5608 35.9212 55.58 35.7808 55.5677 35.6413C55.5554 35.5019 55.512 35.3669 55.4406 35.2465C55.3692 35.1261 55.2717 35.0232 55.1553 34.9455L59.3526 32.6787C59.4695 32.7559 59.5675 32.8583 59.6396 32.9784C59.7116 33.0986 59.7557 33.2334 59.7686 33.3729C59.7815 33.5124 59.7629 33.6529 59.7142 33.7843C59.6654 33.9156 59.5878 34.0343 59.4871 34.1316Z" fill="#AB3A0A"/>
<path d="M59.3465 32.6817L55.1492 34.9485C54.9553 34.7525 54.6917 34.6412 54.416 34.6391C54.2582 34.6426 54.1036 34.6842 53.9653 34.7602L58.1424 32.4934C58.2812 32.4195 58.4359 32.3802 58.5931 32.379C58.7285 32.377 58.8628 32.4029 58.9877 32.455C59.1127 32.507 59.2256 32.5842 59.3196 32.6817" fill="#AB3A0A"/>
<path d="M52.465 23.826L48.261 26.0928L48.1265 19.2453L52.3305 16.9785L52.465 23.826Z" fill="#AB3A0A"/>
<path d="M51.8652 24.7665L47.668 27.0602C47.8398 26.9697 47.9849 26.8358 48.0888 26.6717C48.1926 26.5077 48.2516 26.3192 48.2599 26.1252L52.4639 23.8584C52.4548 24.0539 52.3948 24.2437 52.2898 24.4088C52.1848 24.574 52.0384 24.7089 51.8652 24.8001" fill="#AB3A0A"/>
<path d="M69.2074 55.9264L65.0034 58.1931L60.0527 53.3636L64.2567 51.1035L69.2074 55.9264Z" fill="#AB3A0A"/>
<path d="M64.2566 51.1027L60.0526 53.3627C59.8589 53.1714 59.5984 53.0629 59.3262 53.06C59.168 53.0605 59.0126 53.1022 58.8755 53.1811L63.0728 50.9143C63.2116 50.8404 63.3662 50.8012 63.5234 50.8C63.6599 50.7975 63.7954 50.8231 63.9215 50.8751C64.0476 50.9272 64.1617 51.0047 64.2566 51.1027Z" fill="#AB3A0A"/>
<path d="M55.4384 38.3281L51.2344 40.5949L55.2769 36.3977L59.4809 34.1309L55.4384 38.3281Z" fill="#AB3A0A"/>
<path d="M53.958 42.9328L49.7607 45.2198C50.3236 44.9133 50.7905 44.4569 51.1099 43.9013C51.4293 43.3456 51.5886 42.7124 51.5701 42.0718C51.5682 41.5684 51.4533 41.0719 51.2338 40.6189L55.4513 38.3252C55.6659 38.7799 55.7806 39.2753 55.7876 39.7781C55.8059 40.4204 55.6458 41.0552 55.3253 41.612C55.0047 42.1689 54.5361 42.6261 53.9715 42.9328" fill="#AB3A0A"/>
<path d="M53.9584 36.7952L49.7544 39.062C49.2221 38.7404 48.6138 38.5663 47.992 38.5575C47.424 38.5648 46.8659 38.7078 46.3643 38.9745L50.5683 36.7077C51.0882 36.429 51.6717 36.2905 52.2615 36.3058C52.8512 36.3212 53.4267 36.4898 53.9315 36.7952" fill="#AB3A0A"/>
<path d="M53.0589 40.9933L48.8549 43.2534C48.6481 43.365 48.4173 43.425 48.1823 43.4283C47.7974 43.4284 47.4277 43.2778 47.1524 43.0088C46.8771 42.7398 46.718 42.3737 46.7092 41.9888C46.7046 41.7235 46.7731 41.4621 46.9072 41.2331C47.0412 41.0041 47.2357 40.8165 47.4693 40.6906L51.6666 38.4238C51.4337 38.55 51.2402 38.7379 51.1073 38.967C50.9744 39.196 50.9072 39.4573 50.9132 39.722C50.9167 39.9716 50.9842 40.2161 51.1091 40.4322C51.2341 40.6483 51.4124 40.8287 51.6269 40.9562C51.8415 41.0838 52.0852 41.1541 52.3347 41.1606C52.5843 41.1671 52.8313 41.1095 53.0522 40.9933" fill="#AB3A0A"/>
<path d="M52.337 38.2627C52.7213 38.2608 53.091 38.4099 53.3665 38.6779C53.642 38.9458 53.8013 39.3112 53.8101 39.6954C53.8182 39.8875 53.7877 40.0792 53.7201 40.2592C53.6526 40.4392 53.5496 40.6037 53.4172 40.7431C53.2847 40.8824 53.1256 40.9937 52.9493 41.0702C52.773 41.1468 52.5831 41.1871 52.3908 41.1887C52.0059 41.1888 51.6362 41.0382 51.3609 40.7692C51.0856 40.5002 50.9266 40.1341 50.9178 39.7492C50.9115 39.558 50.9434 39.3674 51.0117 39.1886C51.0799 39.0098 51.1832 38.8464 51.3153 38.708C51.4475 38.5696 51.6059 38.4589 51.7813 38.3825C51.9568 38.306 52.1457 38.2653 52.337 38.2627Z" fill="#DA6D36"/>
<path d="M40.5444 32.0707L36.3472 34.3375C37.635 32.2386 38.302 29.8178 38.2709 27.3555C38.2166 25.4062 37.7198 23.4948 36.818 21.7658L41.0153 19.499C41.9221 21.2264 42.4214 23.1385 42.4749 25.0887C42.507 27.552 41.8374 29.9737 40.5444 32.0707Z" fill="#AB3A0A"/>
<path d="M54.4027 59.106L50.1987 61.3661L50.1045 56.4895L54.3085 54.2227L54.4027 59.106Z" fill="#AB3A0A"/>
<path d="M41.8912 37.2371L37.6872 39.5039L36.3486 34.3313L40.5459 32.0645L41.8912 37.2371Z" fill="#AB3A0A"/>
<path d="M54.309 54.2293L50.1049 56.4961C50.022 52.7347 48.7868 49.0893 46.5664 46.0521C44.3459 43.0149 41.247 40.7321 37.688 39.5119L41.892 37.2451C45.4499 38.4669 48.5478 40.7502 50.768 43.787C52.9882 46.8239 54.2241 50.4684 54.309 54.2293Z" fill="#AB3A0A"/>
<path d="M52.7606 63.5804L48.5566 65.8472C49.1139 65.2454 49.5459 64.5389 49.8277 63.7687C50.1094 62.9985 50.2353 62.1799 50.1979 61.3607L54.4019 59.1006C54.4395 59.9189 54.3137 60.7364 54.0319 61.5056C53.7501 62.2747 53.318 62.9801 52.7606 63.5804Z" fill="#AB3A0A"/>
<path d="M62.9715 60.8594L58.7675 63.1262C55.6143 64.8103 52.1103 65.7318 48.5366 65.8167L52.7608 63.5836C56.3343 63.4971 59.838 62.5757 62.9917 60.893" fill="#AB3A0A"/>
<path d="M34.8085 38.9794L30.6045 41.2462C30.6987 41.0281 30.8586 40.8447 31.0619 40.7216L35.2726 38.4951C35.068 38.6136 34.9075 38.7954 34.8152 39.0131" fill="#AB3A0A"/>
<path d="M49.8416 63.2256L45.6376 65.4857C45.0166 65.8204 44.3249 66.0025 43.6196 66.017L47.8169 63.7502C48.5357 63.7475 49.2428 63.5673 49.8752 63.2256" fill="#AB3A0A"/>
<path d="M30.6449 47.6451L26.4409 49.9119L30.6046 41.2482L34.8086 38.9814L30.6449 47.6451Z" fill="#AB3A0A"/>
<path d="M9.20762 54.8436L5.00361 57.1037C4.94095 54.1526 5.69406 51.2414 7.17997 48.6909C8.66588 46.1404 10.8269 44.0496 13.4251 42.6486L17.6291 40.3818C15.0309 41.7845 12.87 43.8767 11.3842 46.4282C9.89838 48.9797 9.14523 51.8917 9.20762 54.8436Z" fill="#AB3A0A"/>
<path d="M47.7835 63.749L43.5863 66.0158L9.63135 66.406L13.8354 64.1392L47.7835 63.749Z" fill="#AB3A0A"/>
<path d="M9.30843 59.7243L5.10442 61.9911L5.01025 57.1077L9.20753 54.8477L9.30843 59.7243Z" fill="#AB3A0A"/>
<path d="M13.8349 64.1371L9.63088 66.4039C9.04354 66.4128 8.46023 66.3056 7.91445 66.0884C7.36867 65.8712 6.87118 65.5483 6.45054 65.1383C6.0299 64.7283 5.69441 64.2393 5.46333 63.6992C5.23225 63.1592 5.11014 62.5788 5.104 61.9914L9.30801 59.7246C9.31415 60.312 9.43626 60.8924 9.66734 61.4324C9.89842 61.9724 10.2339 62.4615 10.6545 62.8715C11.0752 63.2815 11.5727 63.6044 12.1185 63.8216C12.6642 64.0388 13.2475 64.146 13.8349 64.1371Z" fill="#AB3A0A"/>
<path d="M34.9968 34.5071L30.7995 36.7739C29.351 37.5522 27.7353 37.9676 26.091 37.9846C23.3455 37.9942 20.7057 36.9266 18.7387 35.0111C16.7716 33.0957 15.6343 30.4852 15.5709 27.7403C15.5329 25.8448 16.0182 23.9756 16.9735 22.338C17.9288 20.7004 19.317 19.3578 20.9857 18.4579L25.183 16.1709C23.5206 17.0753 22.1391 18.4198 21.19 20.0571C20.2409 21.6944 19.7606 23.5613 19.8018 25.4533C19.8599 28.1982 20.9922 30.8108 22.9554 32.73C24.9187 34.6492 27.5563 35.722 30.3018 35.7178C31.9465 35.7041 33.5629 35.2884 35.0102 34.5071" fill="#AB3A0A"/>
<path d="M63.5248 50.793C63.6614 50.7934 63.7966 50.8209 63.9225 50.874C64.0484 50.9271 64.1624 51.0048 64.258 51.1025L69.2086 55.9253C72.7748 51.8002 74.8189 46.5771 75 41.1272L68.1862 41.1877C68.0485 41.1983 67.9102 41.1796 67.7804 41.1328C67.6505 41.086 67.5321 41.0121 67.4329 40.9161C67.3337 40.8201 67.256 40.7041 67.205 40.5758C67.154 40.4476 67.1307 40.31 67.1369 40.172C67.1242 40.0342 67.1413 39.8953 67.1868 39.7646C67.2324 39.6339 67.3055 39.5145 67.4011 39.4145C67.4967 39.3144 67.6126 39.236 67.7411 39.1845C67.8696 39.133 68.0076 39.1097 68.1458 39.116L74.9597 39.042C74.6469 33.5491 72.386 28.3476 68.583 24.3717L63.8275 29.3089C63.7346 29.4074 63.6233 29.4866 63.4998 29.542C63.3763 29.5974 63.243 29.6279 63.1077 29.6318C62.8337 29.6279 62.5715 29.5196 62.3746 29.3291C62.2769 29.235 62.1992 29.1221 62.1462 28.9973C62.0931 28.8725 62.0658 28.7382 62.0658 28.6026C62.0658 28.467 62.0931 28.3328 62.1462 28.2079C62.1992 28.0831 62.2769 27.9703 62.3746 27.8762L67.1301 22.939C63.0487 19.2781 57.8114 17.1665 52.332 16.9727L52.4666 23.8201C52.4543 24.0888 52.3443 24.3437 52.1572 24.5369C51.9702 24.7302 51.719 24.8484 51.4509 24.8695C51.3148 24.8712 51.1798 24.8462 51.0534 24.7958C50.9271 24.7454 50.8119 24.6705 50.7144 24.5756C50.617 24.4807 50.5392 24.3675 50.4855 24.2424C50.4318 24.1174 50.4033 23.9831 50.4016 23.847L50.267 16.9996C47.0388 17.1401 43.8811 17.9899 41.0182 19.4883C41.925 21.2157 42.4243 23.1278 42.4778 25.078C42.5099 27.5413 41.8403 29.963 40.5474 32.06L41.8926 37.2326C45.4516 38.4548 48.5502 40.7391 50.7705 43.7772C52.9908 46.8154 54.2261 50.4614 54.3096 54.2235L54.4038 59.1069C54.4414 59.9252 54.3156 60.7427 54.0338 61.5119C53.752 62.281 53.3199 62.9864 52.7625 63.5867C58.42 63.4431 63.8209 61.196 67.9104 57.284L62.8589 52.5755C62.7602 52.4813 62.6816 52.3681 62.6279 52.2426C62.5743 52.1172 62.5466 51.9822 62.5466 51.8457C62.5466 51.7093 62.5743 51.5743 62.6279 51.4488C62.6816 51.3234 62.7602 51.2101 62.8589 51.1159C63.0331 50.9294 63.2705 50.8144 63.5248 50.793ZM59.4889 34.1317L55.4531 38.329C55.6677 38.7837 55.7824 39.2791 55.7894 39.7819C55.8047 40.2435 55.7272 40.7034 55.5615 41.1344C55.3958 41.5655 55.1453 41.9589 54.8248 42.2913C54.5042 42.6238 54.1202 42.8885 53.6955 43.0698C53.2708 43.2511 52.814 43.3454 52.3522 43.3469C51.8852 43.3567 51.4209 43.2734 50.9864 43.1019C50.5518 42.9304 50.1559 42.674 49.8215 42.3478C49.4871 42.0216 49.2211 41.632 49.0389 41.2019C48.8567 40.7717 48.762 40.3096 48.7603 39.8424C48.7441 39.3803 48.8209 38.9197 48.9862 38.4879C49.1515 38.056 49.4019 37.6618 49.7225 37.3287C50.0431 36.9955 50.4274 36.7301 50.8526 36.5484C51.2778 36.3667 51.7351 36.2722 52.1975 36.2707C52.8186 36.2782 53.4266 36.4499 53.9598 36.7685L57.9015 32.6721C57.9942 32.5739 58.1057 32.4954 58.2293 32.441C58.3529 32.3867 58.4862 32.3578 58.6212 32.356C58.7566 32.354 58.8909 32.3798 59.0159 32.4319C59.1408 32.484 59.2538 32.5611 59.3477 32.6586C59.4686 32.7348 59.5704 32.8377 59.6454 32.9593C59.7203 33.081 59.7664 33.2182 59.7801 33.3605C59.7937 33.5027 59.7745 33.6462 59.7241 33.7799C59.6736 33.9136 59.5932 34.034 59.4889 34.1317Z" fill="#F0783C"/>
<path d="M35.7171 38.3486C35.5197 38.3505 35.3275 38.4119 35.1655 38.5247C35.0035 38.6375 34.8793 38.7965 34.809 38.9809L30.6453 47.6445L26.1319 39.0818C26.0172 38.9067 25.8632 38.7609 25.6822 38.6558C25.5012 38.5507 25.2982 38.4893 25.0893 38.4764C22.9677 38.4955 20.8709 38.9356 18.9207 39.7713C16.9704 40.6069 15.2055 41.8214 13.7282 43.3444C12.2509 44.8674 11.0906 46.6685 10.3148 48.6433C9.53888 50.6181 9.16278 52.7272 9.20828 54.8485L9.30917 59.7251C9.31531 60.3125 9.43742 60.8929 9.6685 61.4329C9.89958 61.973 10.2351 62.4621 10.6557 62.8721C11.0763 63.2821 11.5738 63.6049 12.1196 63.8221C12.6654 64.0393 13.2487 64.1466 13.836 64.1377L47.7842 63.7475C48.3688 63.7451 48.9469 63.6256 49.4844 63.3959C50.022 63.1662 50.508 62.831 50.9137 62.4102C51.3195 61.9894 51.6367 61.4915 51.8467 60.946C52.0567 60.4005 52.1551 59.8184 52.1362 59.2341L52.0353 54.3507C52.0169 52.2279 51.5799 50.1295 50.7494 48.1757C49.9189 46.222 48.7112 44.4512 47.1955 42.9648C45.6797 41.4784 43.8857 40.3056 41.916 39.5135C39.9464 38.7214 37.8399 38.3255 35.7171 38.3486Z" fill="#F0783C"/>
<path d="M30.3025 35.7118C31.6555 35.6882 32.9904 35.3976 34.2307 34.8565C35.4709 34.3154 36.592 33.5346 37.5296 32.5589C38.4672 31.5832 39.2027 30.4318 39.6939 29.171C40.1852 27.9102 40.4225 26.5647 40.3921 25.2119C40.334 22.4677 39.2015 19.8558 37.2381 17.9376C35.2747 16.0195 32.6371 14.9482 29.8922 14.9541C28.5401 14.9786 27.2061 15.2697 25.9667 15.8106C24.7273 16.3516 23.6069 17.1319 22.6696 18.1067C21.7323 19.0815 20.9965 20.2316 20.5046 21.4913C20.0126 22.7509 19.774 24.0953 19.8026 25.4473C19.8607 28.1922 20.993 30.8048 22.9562 32.724C24.9194 34.6432 27.557 35.716 30.3025 35.7118Z" fill="#F0783C"/>
</svg>
