<svg width="80" height="81" viewBox="0 0 80 81" fill="none" xmlns="http://www.w3.org/2000/svg">
<path d="M61.9371 35.8307L55.6548 38.7542L56.3419 32.9421L62.6243 30.0186L61.9371 35.8307Z" fill="#AB3A0A"/>
<path d="M57.3446 37.4311L51.0342 40.3546C51.1182 39.9816 51.2888 39.6334 51.5323 39.3378C51.7758 39.0421 52.0855 38.8073 52.4365 38.6522L58.7469 35.7217C58.3963 35.8794 58.0872 36.1158 57.8439 36.4124C57.6005 36.709 57.4296 37.0577 57.3446 37.4311Z" fill="#AB3A0A"/>
<path d="M67.9325 59.8145L61.6221 62.738C60.1362 63.4315 58.5229 63.8138 56.8823 63.8613L63.1927 60.9378C64.838 60.8922 66.4563 60.5098 67.9466 59.8145" fill="#AB3A0A"/>
<path d="M62.6245 30.026L56.3141 32.9495C56.8915 28.3234 55.6184 23.6568 52.7695 19.9563C49.9205 16.2559 45.7239 13.8181 41.085 13.1689C37.8057 12.6998 34.46 13.1844 31.4512 14.5643L37.7616 11.6408C40.7714 10.264 44.1161 9.77953 47.3954 10.2454C52.0335 10.8963 56.229 13.3345 59.0776 17.0346C61.9263 20.7346 63.2001 25.4002 62.6245 30.026Z" fill="#AB3A0A"/>
<path d="M58.6488 60.4825L52.3664 63.406L50.5645 63.1618L56.8468 60.2383L58.6488 60.4825Z" fill="#AB3A0A"/>
<path d="M54.9327 57.7707L48.6504 60.6872L51.0624 40.3483L57.3447 37.4248L54.9327 57.7707Z" fill="#AB3A0A"/>
<path d="M56.8818 60.2455L50.5714 63.169C50.0007 63.0654 49.489 62.7547 49.1354 62.2971C48.7817 61.8394 48.6114 61.2675 48.6572 60.692L54.9676 57.7686C54.9217 58.344 55.0921 58.916 55.4458 59.3736C55.7994 59.8312 56.3111 60.1419 56.8818 60.2455Z" fill="#AB3A0A"/>
<path d="M54.7088 64.1892L48.3984 67.1127C48.6791 66.9825 48.9529 66.8381 49.2188 66.6801C50.5742 65.9403 51.6647 64.7991 52.3389 63.4147L58.6493 60.4912C57.9751 61.8756 56.8846 63.0168 55.5292 63.7566C55.2633 63.9146 54.9895 64.059 54.7088 64.1892Z" fill="#AB3A0A"/>
<path d="M56.5804 68.1943L50.27 71.1248C47.4023 72.4575 43.7703 73.0436 39.4512 72.6808L45.7616 69.7573C50.0807 70.1201 53.7127 69.534 56.5804 68.1943Z" fill="#AB3A0A"/>
<path d="M23.6327 24.7156L17.3223 27.6391C17.7387 23.9865 19.0892 20.5011 21.2447 17.5158C23.4002 14.5304 26.2887 12.1447 29.6346 10.5866L35.945 7.66309C32.5991 9.22123 29.7106 11.6069 27.5551 14.5923C25.3996 17.5776 24.0491 21.063 23.6327 24.7156Z" fill="#AB3A0A"/>
<path d="M22.9176 30.7361L16.6353 33.6666L17.3504 27.6452L23.6328 24.7217L22.9176 30.7361Z" fill="#AB3A0A"/>
<path d="M43.1322 72.2219L36.8218 75.1454C35.8321 75.6079 34.7288 75.7751 33.6456 75.6268C32.1041 75.398 30.7119 74.5828 29.7624 73.3529C28.8129 72.123 28.3801 70.5744 28.5552 69.0332C28.6692 68.0583 29.0318 67.1285 29.6085 66.3323C30.1853 65.5361 30.9571 64.8998 31.8506 64.484L38.161 61.5605C37.2675 61.9763 36.4957 62.6126 35.9189 63.4088C35.3422 64.205 34.9796 65.1348 34.8656 66.1098C34.6905 67.6509 35.1233 69.1995 36.0728 70.4294C37.0223 71.6593 38.4145 72.4745 39.956 72.7033C41.0392 72.8516 42.1425 72.6844 43.1322 72.2219Z" fill="#AB3A0A"/>
<path d="M27.6584 55.9053L21.348 58.8288C20.9922 58.9968 20.5962 59.062 20.2051 59.0172L26.5155 56.0937C26.9066 56.1386 27.3026 56.0733 27.6584 55.9053Z" fill="#AB3A0A"/>
<path d="M26.5149 56.1194L20.2326 59.0429L15.8994 58.4499L22.1818 55.5264L26.5149 56.1194Z" fill="#AB3A0A"/>
<path d="M22.1816 55.5254L15.8712 58.4489C12.5953 57.9687 9.63651 56.2367 7.62304 53.6208C5.60957 51.0049 4.7 47.711 5.08747 44.4385C5.32349 42.3705 6.08799 40.3972 7.30805 38.7067C8.52812 37.0162 10.1631 35.665 12.057 34.7819L18.3673 31.8584C16.4682 32.7378 14.8276 34.0874 13.6024 35.7781C12.3773 37.4689 11.6086 39.4441 11.3698 41.515C10.9829 44.7917 11.8963 48.0892 13.9156 50.7059C15.9349 53.3226 18.9006 55.0517 22.1816 55.5254Z" fill="#AB3A0A"/>
<path d="M47.8859 5.87694C53.6787 6.70824 58.9158 9.75908 62.48 14.3787C66.0442 18.9983 67.6534 24.8209 66.9643 30.6045L66.2632 36.619C69.0455 37.5428 71.4239 39.3909 72.9993 41.8529C74.5747 44.315 75.2513 47.2414 74.9154 50.141C74.5875 53.0404 73.2229 55.7258 71.0708 57.7073C68.9187 59.6889 66.1224 60.8344 63.1921 60.9349C62.2948 63.7516 60.3581 66.1251 57.7722 67.5773C54.7432 69.3426 50.7115 70.1659 45.7754 69.7542C45.2247 70.7759 44.3738 71.6059 43.3364 72.1333C42.2989 72.6607 41.1244 72.8604 39.9698 72.7056C38.4283 72.4769 37.0362 71.6617 36.0867 70.4317C35.1371 69.2018 34.7044 67.6532 34.8794 66.1121C34.9669 65.3569 35.2045 64.6265 35.5784 63.9636C35.9524 63.3007 36.4552 62.7185 37.0575 62.2509C37.6599 61.7833 38.3497 61.4397 39.0869 61.2401C39.824 61.0405 40.5937 60.989 41.3511 61.0884C42.4994 61.2582 43.5738 61.7551 44.4447 62.5189C45.3155 63.2828 45.9457 64.2811 46.2592 65.3934C50.4241 65.7074 53.4881 64.9469 55.5495 63.7468C56.905 63.007 57.9954 61.8658 58.6697 60.4814L56.8817 60.2372C56.311 60.1336 55.7993 59.8229 55.4457 59.3652C55.092 58.9076 54.9216 58.3357 54.9675 57.7602L57.3445 37.4214C57.4628 36.8728 57.7715 36.3833 58.2164 36.0388C58.6614 35.6943 59.2141 35.5168 59.7775 35.5375L61.937 35.8305L62.6382 30.0184C63.215 25.3852 61.9364 20.7122 59.0788 17.0095C56.2212 13.3068 52.0142 10.8718 47.367 10.2308C45.0916 9.9119 42.7749 10.0524 40.5553 10.644C38.3356 11.2355 36.2585 12.266 34.4478 13.6739C32.6371 15.0818 31.1299 16.8382 30.0163 18.8384C28.9027 20.8386 28.2054 23.0415 27.9661 25.3157L27.2649 31.1209L29.4385 31.4209C30.0086 31.5246 30.5196 31.8356 30.8721 32.2934C31.2246 32.7512 31.3934 33.3231 31.3456 33.8978L28.9336 54.2367C28.8516 54.8002 28.5544 55.3105 28.1038 55.6614C27.6532 56.0123 27.084 56.1767 26.5147 56.1206L22.1815 55.5275C18.9005 55.0538 15.9347 53.3246 13.9155 50.7079C11.8962 48.0913 10.9828 44.7937 11.3697 41.5171C11.6946 38.6489 13.0352 35.9896 15.1512 34.0155C17.2673 32.0415 20.0205 30.8818 22.9177 30.7441L23.6189 24.7227C23.9314 21.8842 24.8123 19.1369 26.2097 16.6429C27.607 14.1489 29.4924 11.9588 31.7546 10.2021C34.0167 8.44533 36.6096 7.15749 39.3803 6.41462C42.1509 5.67176 45.043 5.48893 47.8859 5.87694Z" fill="#F0783C"/>
</svg>
