<svg width="78" height="67" viewBox="0 0 78 67" fill="none" xmlns="http://www.w3.org/2000/svg">
<path d="M71.0837 40.1644L66.3074 42.9184L59.3003 40.7364L64.0766 37.9824L71.0837 40.1644Z" fill="#A80000" fill-opacity="0.75"/>
<path d="M64.0767 37.9798L59.3004 40.7338L56.9297 19.7327L61.706 16.9717L64.0767 37.9798Z" fill="#A80000" fill-opacity="0.75"/>
<path d="M76.7263 58.8165L71.943 61.5705C71.6427 61.7454 71.309 61.8538 70.964 61.8883C70.6301 61.9243 70.2925 61.8929 69.9707 61.796C69.6489 61.699 69.3495 61.5383 69.0898 61.3233L73.8661 58.5693C74.126 58.784 74.4255 58.9444 74.7472 59.0414C75.0689 59.1384 75.4064 59.1699 75.7403 59.1343C76.0873 59.0986 76.4231 58.9904 76.7263 58.8165Z" fill="#A80000" fill-opacity="0.75"/>
<path d="M73.8671 58.5668L69.0908 61.3208L65.5312 58.4044L70.3076 55.6504L73.8671 58.5668Z" fill="#A80000" fill-opacity="0.75"/>
<path d="M58.0414 42.9015L53.2651 45.6556C53.4504 45.2532 53.7562 44.9197 54.1393 44.7022L58.9226 41.9482C58.5387 42.1668 58.2309 42.4997 58.0414 42.9015Z" fill="#A80000" fill-opacity="0.75"/>
<path d="M58.0419 45.0386L53.2656 47.7926C53.0836 47.4715 52.9838 47.1096 52.9752 46.7396C52.9667 46.3697 53.0496 46.0035 53.2166 45.6742L58.0419 42.9131C57.8785 43.2435 57.7976 43.6092 57.8061 43.9785C57.8146 44.3477 57.9124 44.7092 58.0908 45.0315" fill="#A80000" fill-opacity="0.75"/>
<path d="M64.9575 57.4676L60.1812 60.2216L53.293 47.7862L58.0693 45.0322L64.9575 57.4676Z" fill="#A80000" fill-opacity="0.75"/>
<path d="M67.993 58.3424L63.2097 61.0964C62.9459 61.2438 62.656 61.3373 62.3565 61.3718C61.7754 61.4314 61.1946 61.2562 60.7411 60.8846C60.5097 60.7063 60.319 60.4799 60.1816 60.2208L64.9579 57.4668C65.1719 57.85 65.4911 58.1626 65.877 58.3668C66.2628 58.571 66.699 58.6582 67.1328 58.6178C67.4345 58.5834 67.7267 58.4898 67.993 58.3424Z" fill="#A80000" fill-opacity="0.75"/>
<path d="M59.755 41.6738C60.0661 41.6367 60.3816 41.6705 60.6781 41.7726L74.0349 45.9248C74.6004 46.1039 75.0732 46.5009 75.3508 47.0296C75.6283 47.5584 75.6882 48.1763 75.5175 48.7494C75.4392 49.0263 75.3086 49.2853 75.1329 49.5121L73.4755 51.6305L77.035 54.547C77.565 54.9756 77.9057 55.5983 77.983 56.2795C78.0603 56.9607 77.8678 57.6451 77.4476 58.1837C77.2415 58.4499 76.984 58.6711 76.6907 58.8338C76.3974 58.9965 76.0743 59.0972 75.7413 59.1299C75.4074 59.1656 75.0698 59.134 74.7481 59.037C74.4264 58.9401 74.127 58.7796 73.8671 58.565L70.3076 55.6697L68.6223 57.7882C68.3929 58.072 68.0983 58.2948 67.7641 58.4372C67.4299 58.5797 67.0663 58.6374 66.7049 58.6054C66.3436 58.5733 65.9955 58.4525 65.6909 58.2535C65.3864 58.0544 65.1348 57.7832 64.9579 57.4634L58.0417 45.028C57.8632 44.7056 57.7655 44.3441 57.757 43.9749C57.7484 43.6057 57.8294 43.24 57.9927 42.9095C58.1545 42.5664 58.4022 42.2719 58.7112 42.0552C59.0203 41.8384 59.3801 41.707 59.755 41.6738Z" fill="#F0783C"/>
<path d="M46.7263 27.461L41.957 30.2432C42.1515 30.007 42.3889 29.8105 42.6563 29.6642L47.4396 26.9102C47.1713 27.0552 46.9337 27.2519 46.7403 27.4892" fill="#A80000" fill-opacity="0.75"/>
<path d="M46.0414 28.3424L41.2651 31.0964L41.9505 30.2208L46.7268 27.4668L46.0414 28.3424Z" fill="#A80000" fill-opacity="0.75"/>
<path d="M51.4614 35.8882L46.6851 38.6422L41.6851 34.5606L46.4614 31.8066L51.4614 35.8882Z" fill="#A80000" fill-opacity="0.75"/>
<path d="M46.4604 31.8078L41.6841 34.5618C41.1771 34.157 40.8487 33.5666 40.7702 32.9188C40.6916 32.271 40.8693 31.618 41.2645 31.1017L46.0408 28.3477C45.6473 28.8647 45.4708 29.5172 45.5493 30.1645C45.6278 30.8117 45.955 31.4019 46.4604 31.8078Z" fill="#A80000" fill-opacity="0.75"/>
<path d="M47.4536 40.9671L42.6772 43.7211L46.6843 38.6368L51.4606 35.8828L47.4536 40.9671Z" fill="#A80000" fill-opacity="0.75"/>
<path d="M51.4459 45.3593L46.6696 48.1133C46.3816 48.2794 46.0624 48.3828 45.7325 48.417C45.1009 48.4846 44.4682 48.2996 43.9702 47.9015L48.7535 45.1475C49.249 45.5451 49.8794 45.7303 50.5088 45.663C50.8389 45.6299 51.1583 45.5264 51.4459 45.3593Z" fill="#A80000" fill-opacity="0.75"/>
<path d="M48.7546 45.1496L43.9713 47.9036L43.9224 47.8683L48.7057 45.1143L48.7546 45.1496Z" fill="#A80000" fill-opacity="0.75"/>
<path d="M28.838 10.1367L24.0617 12.8907L24.0337 12.8978L28.81 10.1438L28.838 10.1367Z" fill="#A80000" fill-opacity="0.75"/>
<path d="M37.9566 26.6158L33.1733 29.3698C33.2836 28.7286 33.6406 28.1574 34.1664 27.781C34.2359 27.7298 34.3083 27.6827 34.3831 27.6397L39.1595 24.8857C39.0846 24.9287 39.0122 24.9758 38.9427 25.027C38.6823 25.2126 38.461 25.4487 38.2917 25.7215C38.1224 25.9942 38.0085 26.2982 37.9566 26.6158Z" fill="#A80000" fill-opacity="0.75"/>
<path d="M48.7052 45.1164L43.9219 47.8704L43.0967 47.1925L47.873 44.4385L48.7052 45.1164Z" fill="#A80000" fill-opacity="0.75"/>
<path d="M48.3698 26.5794C49.0146 26.5101 49.6604 26.7004 50.167 27.109L57.8944 33.4644C58.397 33.8743 58.7249 34.4632 58.8105 35.1098C58.8533 35.4316 58.8314 35.7587 58.7461 36.0718C58.6607 36.3848 58.5138 36.6773 58.314 36.9317L52.1461 44.7488C51.949 45.0056 51.7024 45.2194 51.4211 45.3772C51.1398 45.535 50.8298 45.6335 50.5097 45.6668C49.8803 45.7341 49.2499 45.549 48.7544 45.1513L48.7055 45.116L47.8733 44.4098C47.3658 44.0038 47.0372 43.4122 46.9587 42.7632C46.8802 42.1142 47.058 41.4601 47.4537 40.9426L51.4608 35.9007L46.4607 31.805C45.9552 31.3991 45.628 30.8089 45.5495 30.1616C45.471 29.5144 45.6476 28.8619 46.0411 28.3448L46.7404 27.4692C47.1466 26.9679 47.732 26.6483 48.3698 26.5794Z" fill="#F0783C"/>
<path d="M47.873 44.4318L43.0967 47.1929C42.5877 46.7879 42.2579 46.1961 42.1793 45.5466C42.1007 44.8971 42.2796 44.2425 42.6771 43.7257L47.4534 40.9717C47.0577 41.4892 46.8799 42.1433 46.9584 42.7923C47.0369 43.4412 47.3655 44.0328 47.873 44.4389" fill="#A80000" fill-opacity="0.75"/>
<path d="M28.8109 10.1592L24.0346 12.9132C23.7 12.9509 23.3765 13.0566 23.0835 13.2239L27.8598 10.4911C28.1537 10.3259 28.4768 10.2203 28.8109 10.1804" fill="#A80000" fill-opacity="0.75"/>
<path d="M30.398 14.969L25.6217 17.723C26.0503 17.471 26.397 17.0984 26.6193 16.6507C26.8416 16.203 26.9299 15.6996 26.8734 15.202C26.7993 14.524 26.4648 13.9024 25.9418 13.4707C25.4188 13.0389 24.749 12.8315 24.0762 12.8929L28.8525 10.1389C29.5249 10.0793 30.1937 10.2874 30.7163 10.7188C31.2389 11.1502 31.5739 11.7708 31.6497 12.448C31.7064 12.9464 31.6175 13.4507 31.3938 13.8987C31.1701 14.3466 30.8215 14.7187 30.391 14.969" fill="#A80000" fill-opacity="0.75"/>
<path d="M21.3341 10.9395L16.5578 13.6935H16.5298L21.3131 10.9395H21.3341Z" fill="#A80000" fill-opacity="0.75"/>
<path d="M21.3135 10.9277L16.5302 13.6817C16.1954 13.723 15.8721 13.831 15.5791 13.9995L20.3554 11.2455C20.6496 11.074 20.9758 10.9658 21.3135 10.9277Z" fill="#A80000" fill-opacity="0.75"/>
<path d="M22.8944 15.7517L18.1181 18.5057C18.5486 18.2554 18.8972 17.8833 19.1209 17.4353C19.3446 16.9874 19.4335 16.4831 19.3768 15.9847C19.301 15.308 18.9658 14.6881 18.443 14.2578C17.9202 13.8276 17.2513 13.6211 16.5796 13.6826L21.3559 10.9286C22.0276 10.8671 22.6965 11.0736 23.2193 11.5038C23.7421 11.9341 24.0773 12.554 24.1531 13.2307C24.2098 13.7291 24.1209 14.2334 23.8972 14.6813C23.6735 15.1293 23.3249 15.5013 22.8944 15.7517Z" fill="#A80000" fill-opacity="0.75"/>
<path d="M39.1601 49.5283L34.3838 52.2823C33.8918 52.571 33.3117 52.6665 32.7544 52.5507L37.5377 49.7967C37.7695 49.8319 38.0052 49.8319 38.237 49.7967C38.5593 49.77 38.8731 49.6788 39.1601 49.5283Z" fill="#A80000" fill-opacity="0.75"/>
<path d="M26.1601 29.6711L21.3838 32.4251C21.5781 32.1869 21.8154 31.988 22.0831 31.839L26.8664 29.085C26.5977 29.2325 26.3602 29.4316 26.1671 29.6711" fill="#A80000" fill-opacity="0.75"/>
<path d="M37.5447 49.7933L32.7615 52.5473L31.8174 52.3849L36.5937 49.6309L37.5447 49.7933Z" fill="#A80000" fill-opacity="0.75"/>
<path d="M34.621 46.7234L29.8447 49.4774L33.1735 29.3731L37.9567 26.6191L34.621 46.7234Z" fill="#A80000" fill-opacity="0.75"/>
<path d="M36.5932 49.622L31.8169 52.376C31.1867 52.2619 30.6264 51.9017 30.2574 51.3733C30.0628 51.1024 29.9257 50.7939 29.8547 50.467C29.7837 50.1401 29.7803 49.802 29.8448 49.4737L34.6211 46.7197C34.5586 47.0458 34.563 47.3813 34.634 47.7056C34.7049 48.0299 34.841 48.3361 35.0337 48.6052C35.4053 49.1308 35.9644 49.4903 36.5932 49.6079" fill="#A80000" fill-opacity="0.75"/>
<path d="M40.0759 24.6004C40.3079 24.5681 40.5432 24.5681 40.7752 24.6004L41.7472 24.7699C42.3832 24.8982 42.9439 25.2734 43.3087 25.8149C43.6736 26.3563 43.8135 27.0206 43.6983 27.6651L40.3486 47.7976C40.2443 48.432 39.8978 48.9999 39.3835 49.3794C39.0481 49.6248 38.6554 49.7781 38.2437 49.8242C38.0119 49.8595 37.7761 49.8595 37.5443 49.8242L36.5933 49.6618C35.9566 49.5319 35.3963 49.1539 35.0338 48.6096C34.8392 48.3388 34.7021 48.0303 34.6311 47.7034C34.5601 47.3765 34.5567 47.0383 34.6212 46.7101L37.9569 26.6059C38.0088 26.2883 38.1227 25.9843 38.292 25.7115C38.4613 25.4388 38.6826 25.2027 38.943 25.017C39.2778 24.7801 39.6686 24.6364 40.0759 24.6004Z" fill="#F0783C"/>
<path d="M13.838 11.7305L9.05467 14.4845H9.03369L13.81 11.7305H13.838Z" fill="#A80000" fill-opacity="0.75"/>
<path d="M13.8096 11.7217L9.03325 14.4757C8.69631 14.517 8.37074 14.6249 8.0752 14.7935L12.8515 12.0394C13.147 11.8709 13.4726 11.7629 13.8096 11.7217Z" fill="#A80000" fill-opacity="0.75"/>
<path d="M15.3837 16.5521L10.6004 19.3061C11.0373 19.0611 11.3927 18.6909 11.6217 18.2423C11.8507 17.7937 11.943 17.2866 11.8871 16.7851C11.8113 16.1084 11.476 15.4885 10.9532 15.0582C10.4304 14.628 9.76154 14.4215 9.08984 14.483L13.8731 11.729C14.5452 11.6657 15.2151 11.8714 15.7383 12.302C16.2615 12.7327 16.5963 13.3536 16.6704 14.0311C16.7254 14.5325 16.6326 15.0392 16.4037 15.4877C16.1749 15.9361 15.82 16.3064 15.3837 16.5521Z" fill="#A80000" fill-opacity="0.75"/>
<path d="M30.8801 47.5304L26.1038 50.2844C25.6825 50.5245 25.1997 50.6319 24.7175 50.5929C24.2352 50.5539 23.7756 50.3703 23.3975 50.0655L28.1738 47.3115C28.6721 47.7146 29.3081 47.9025 29.943 47.8341C30.2729 47.8 30.5921 47.6965 30.8801 47.5304Z" fill="#A80000" fill-opacity="0.75"/>
<path d="M61.7058 16.9717L56.9295 19.7327L7.86572 24.9159L12.642 22.1619L61.7058 16.9717Z" fill="#A80000" fill-opacity="0.75"/>
<path d="M19.9918 37.4949L15.2085 40.2489L21.3834 32.4317L26.1597 29.6777L19.9918 37.4949Z" fill="#A80000" fill-opacity="0.75"/>
<path d="M4.81737 12.7383L0.0410631 15.4923C-0.0967331 14.3021 0.114003 13.0972 0.647207 12.0266C1.18041 10.9561 2.01269 10.0668 3.04111 9.46885L7.82441 6.71484C6.79532 7.31252 5.96213 8.20149 5.42773 9.27195C4.89334 10.3424 4.68115 11.5475 4.81737 12.7383Z" fill="#A80000" fill-opacity="0.75"/>
<path d="M28.1734 47.3122L23.3971 50.0662L15.6348 43.7179L20.4111 40.9639L28.1734 47.3122Z" fill="#A80000" fill-opacity="0.75"/>
<path d="M27.8034 28.7766C28.4479 28.7103 29.0926 28.9003 29.6006 29.3062L30.4468 30.0124C30.9533 30.4173 31.2819 31.007 31.3617 31.6543C31.4415 32.3016 31.2661 32.9546 30.8734 33.4726V33.5149L26.8733 38.5145L31.9013 42.6173C32.411 43.0199 32.742 43.61 32.8219 44.2584C32.9018 44.9069 32.7242 45.5609 32.3279 46.0774V46.1198L31.6286 46.946C31.4306 47.2013 31.1837 47.4135 30.9025 47.57C30.6213 47.7266 30.3117 47.8242 29.9922 47.8569C29.3573 47.9253 28.7213 47.7375 28.223 47.3344L20.4606 40.979C19.9531 40.5729 19.6246 39.9813 19.546 39.3323C19.4675 38.6834 19.6453 38.0293 20.041 37.5118L26.2089 29.6946C26.6009 29.1896 27.1734 28.86 27.8034 28.7766Z" fill="#F0783C"/>
<path d="M20.4112 40.9653L15.6349 43.7193C15.1263 43.3142 14.7964 42.7231 14.7165 42.0741C14.6367 41.4251 14.8134 40.7704 15.2083 40.2521L19.9916 37.498C19.5959 38.0156 19.418 38.6696 19.4966 39.3186C19.5751 39.9676 19.9037 40.5592 20.4112 40.9653Z" fill="#A80000" fill-opacity="0.75"/>
<path d="M60.58 58.9814L55.8037 61.7354L11.9009 66.3749L16.6772 63.6209L60.58 58.9814Z" fill="#A80000" fill-opacity="0.75"/>
<path d="M9.9358 58.1128L5.15949 60.8668L0.0405273 15.4894L4.81683 12.7354L9.9358 58.1128Z" fill="#A80000" fill-opacity="0.75"/>
<path d="M60.5099 0.626754C62.1231 0.466142 63.734 0.953234 64.9943 1.98267C66.2545 3.01212 67.0628 4.50115 67.2443 6.1277L71.0835 40.1361L64.0764 38.0176L61.7057 16.9742L12.642 22.1645L16.5441 56.766L56.9784 52.5291L60.5798 59.0257L16.677 63.6157C15.0624 63.7745 13.4507 63.2859 12.1895 62.2555C10.9284 61.2251 10.1189 59.7354 9.93564 58.1077L4.81668 12.7302C4.72236 11.9292 4.78627 11.1173 5.00472 10.3414C5.22316 9.56554 5.5918 8.8411 6.08931 8.21C6.58682 7.57891 7.20333 7.05371 7.90315 6.66477C8.60298 6.27583 9.37224 6.03088 10.1664 5.9441L60.5099 0.626754ZM29.4185 15.2865C29.7492 15.2496 30.0694 15.1473 30.3609 14.9853C30.6524 14.8233 30.9094 14.6049 31.1172 14.3426C31.325 14.0803 31.4796 13.7791 31.5721 13.4564C31.6646 13.1337 31.6932 12.7958 31.6563 12.4619C31.5804 11.7846 31.2455 11.1641 30.7229 10.7327C30.2003 10.3013 29.5314 10.0932 28.859 10.1528C28.1963 10.2342 27.5922 10.5767 27.1783 11.1057C26.7644 11.6347 26.5742 12.3075 26.6492 12.9774C26.7351 13.6481 27.0738 14.2595 27.5948 14.6843C28.1159 15.1092 28.7791 15.3148 29.4465 15.2583L29.4185 15.2865ZM21.9149 16.0774C22.2455 16.0405 22.5658 15.9382 22.8573 15.7762C23.1487 15.6142 23.4057 15.3958 23.6136 15.1335C23.8214 14.8712 23.976 14.57 24.0685 14.2473C24.161 13.9246 24.1896 13.5867 24.1527 13.2528C24.0768 12.5761 23.7416 11.9562 23.2188 11.5259C22.696 11.0957 22.0271 10.8892 21.3554 10.9507C20.6919 11.0304 20.0866 11.3724 19.6724 11.9019C19.2582 12.4314 19.0687 13.1051 19.1456 13.7753C19.2281 14.4475 19.566 15.061 20.0878 15.4865C20.6097 15.912 21.2747 16.1163 21.9428 16.0562L21.9149 16.0774ZM14.4182 16.8683C14.7487 16.8314 15.0686 16.729 15.3598 16.567C15.6509 16.4049 15.9075 16.1864 16.1147 15.9239C16.322 15.6615 16.4759 15.3603 16.5676 15.0376C16.6593 14.715 16.687 14.3772 16.649 14.0437C16.5749 13.3662 16.2402 12.7452 15.7169 12.3146C15.1937 11.884 14.5239 11.6782 13.8518 11.7416C13.5199 11.7809 13.199 11.8863 12.9078 12.0517C12.6165 12.2172 12.3607 12.4393 12.1551 12.7054C11.9496 12.9714 11.7984 13.276 11.7103 13.6015C11.6222 13.927 11.599 14.2669 11.642 14.6016C11.7228 15.2744 12.0602 15.889 12.5825 16.3149C13.1047 16.7407 13.7708 16.9443 14.4392 16.8824" fill="#F0783C"/>
<path d="M16.6772 63.6203L11.8869 66.3743C10.2722 66.533 8.66051 66.0445 7.39937 65.0141C6.13822 63.9837 5.32873 62.494 5.14551 60.8663L9.92181 58.1123C10.105 59.74 10.9145 61.2297 12.1757 62.2601C13.4368 63.2905 15.0485 63.779 16.6632 63.6203" fill="#A80000" fill-opacity="0.75"/>
</svg>
