<svg width="80" height="69" viewBox="0 0 80 69" fill="none" xmlns="http://www.w3.org/2000/svg">
<path d="M71.664 24.7825L66.6857 26.909L64.2891 26.4624L69.2673 24.3359L71.6711 24.7754" fill="#A80000" fill-opacity="0.75"/>
<path d="M69.2592 24.3394L64.281 26.4659H64.0747C63.6409 26.3808 63.5414 26.0548 63.6409 25.509L64.2241 22.1704L69.2024 20.0439L68.6192 23.3825C68.5196 23.9283 68.6192 24.2614 69.053 24.3394C69.1193 24.3436 69.1858 24.3436 69.2521 24.3394" fill="#A80000" fill-opacity="0.75"/>
<path d="M69.2102 20.0272L64.2319 22.1537C64.4595 21.4449 64.3101 21.1046 63.5207 20.9558L53.8486 19.1695C53.6511 19.1134 53.4417 19.1134 53.2441 19.1695L58.2224 17.0431C58.42 16.9869 58.6293 16.9869 58.8269 17.0431L68.499 18.8364C69.2813 18.9782 69.4306 19.3255 69.2102 20.0272Z" fill="#A80000" fill-opacity="0.75"/>
<path d="M56.8988 21.8912L51.9205 24.0177C51.6042 24.0723 51.2792 24.048 50.9746 23.9468L55.9529 21.8203C56.2577 21.9206 56.5831 21.9426 56.8988 21.8841" fill="#A80000" fill-opacity="0.75"/>
<path d="M66.2443 55.1846L61.2803 57.3394L66.6995 26.938L71.6635 24.7832L66.2443 55.1846Z" fill="#A80000" fill-opacity="0.75"/>
<path d="M66.1443 55.9159L61.166 58.0423L61.294 57.3335L66.2723 55.207L66.1514 55.9159" fill="#A80000" fill-opacity="0.75"/>
<path d="M63.7771 59.0292L58.7988 61.1557C59.4081 60.8586 59.9395 60.4239 60.3506 59.8861C60.7618 59.3484 61.0413 58.7225 61.1671 58.0581L66.1453 55.9316C66.0288 56.5991 65.7563 57.2299 65.3498 57.773C64.9433 58.316 64.4143 58.7561 63.8055 59.0575" fill="#A80000" fill-opacity="0.75"/>
<path d="M49.6013 29.7539L44.623 31.8804C44.9075 31.3559 45.3342 29.4137 46.1165 29.0806L51.0948 26.9541C50.3409 27.2802 49.8858 29.2294 49.6013 29.7539Z" fill="#A80000" fill-opacity="0.75"/>
<path d="M39.6089 12.2045L34.6306 14.3309C34.7244 13.5949 34.5416 12.8502 34.1175 12.2404C33.6934 11.6306 33.058 11.1987 32.3335 11.0278L37.3118 8.90137C38.0365 9.06924 38.6728 9.49943 39.0972 10.1085C39.5217 10.7175 39.704 11.4619 39.6089 12.1974" fill="#A80000" fill-opacity="0.75"/>
<path d="M51.523 41.1182L46.5447 43.2446C46.2492 43.3717 45.9225 43.4087 45.606 43.351L50.5842 41.2245C50.9008 41.2823 51.2275 41.2453 51.523 41.1182Z" fill="#A80000" fill-opacity="0.75"/>
<path d="M37.3131 8.89365L32.3349 11.0201C31.788 10.919 31.2233 10.9831 30.7134 11.2044L35.6916 9.07795C36.2007 8.85323 36.7664 8.78892 37.3131 8.89365Z" fill="#A80000" fill-opacity="0.75"/>
<path d="M37.9392 14.28L32.9609 16.4064C33.3977 16.2367 33.7821 15.9554 34.0754 15.5909C34.3687 15.2264 34.5608 14.7914 34.6322 14.3296L39.6105 12.2031C39.5381 12.6655 39.3459 13.101 39.0527 13.4665C38.7596 13.832 38.3758 14.1149 37.9392 14.2871" fill="#A80000" fill-opacity="0.75"/>
<path d="M45.9753 33.78L40.9971 35.9065C42.4903 34.8488 43.7292 33.4736 44.6241 31.8804L49.6024 29.7539C48.7053 31.3436 47.4667 32.716 45.9753 33.7729" fill="#A80000" fill-opacity="0.75"/>
<path d="M50.5841 41.2316L45.6201 43.3793L40.272 42.3941L45.236 40.2393L50.5841 41.2316Z" fill="#A80000" fill-opacity="0.75"/>
<path d="M68.3695 65.7346L63.3913 67.8611C62.1408 68.4008 60.7667 68.5919 59.4158 68.414C58.4628 68.2722 57.4956 68.1092 56.5141 67.932C54.5726 67.5847 52.56 67.1523 50.4976 66.7837L55.4758 64.6572C57.5525 65.04 59.5651 65.4653 61.5209 65.8268C62.5023 66.004 63.4695 66.1741 64.4225 66.3088C65.766 66.4748 67.1296 66.2764 68.3695 65.7346Z" fill="#A80000" fill-opacity="0.75"/>
<path d="M44.0983 39.4096L39.12 41.536C38.9971 41.2442 38.8972 40.9432 38.8213 40.6358C38.4444 38.644 39.5325 37.0421 41.0046 35.9009L45.9829 33.7744C44.5605 34.9227 43.4226 36.5246 43.7996 38.5093C43.8768 38.8163 43.9766 39.1172 44.0983 39.4096Z" fill="#A80000" fill-opacity="0.75"/>
<path d="M45.2368 40.2495L40.2585 42.3759C40.0193 42.3373 39.7923 42.2443 39.595 42.1042C39.3977 41.9641 39.2354 41.7805 39.1206 41.5679L44.0989 39.4414C44.2118 39.6589 44.3741 39.8471 44.5729 39.9911C44.7717 40.1351 45.0014 40.2308 45.2439 40.2707" fill="#A80000" fill-opacity="0.75"/>
<path d="M35.3713 24.1915L30.3931 26.318C30.4463 26.2716 30.5063 26.2334 30.5709 26.2046L35.5491 24.0781C35.4845 24.1069 35.4246 24.1451 35.3713 24.1915Z" fill="#A80000" fill-opacity="0.75"/>
<path d="M43.7141 43.468L38.7358 45.5945C38.7635 45.3659 38.851 45.1487 38.9895 44.9645C39.1281 44.7804 39.3129 44.6358 39.5253 44.5454L44.5035 42.4189C44.2898 42.5093 44.104 42.6548 43.9652 42.8404C43.8265 43.026 43.7398 43.2451 43.7141 43.4751" fill="#A80000" fill-opacity="0.75"/>
<path d="M34.9954 24.7365L30.0171 26.8629C30.1107 26.6589 30.2381 26.472 30.394 26.3101L35.3723 24.1836C35.2195 24.348 35.0925 24.5344 34.9954 24.7365Z" fill="#A80000" fill-opacity="0.75"/>
<path d="M31.0627 10.5079L26.0844 12.6343C26.1521 12.267 26.1463 11.89 26.0674 11.525C25.9884 11.1599 25.8379 10.814 25.6245 10.5071C25.411 10.2001 25.1389 9.93826 24.8236 9.73647C24.5083 9.53469 24.1561 9.39697 23.7873 9.33122C23.2921 9.24354 22.782 9.30525 22.3223 9.50843L27.3005 7.38196C27.7597 7.1768 28.2697 7.11264 28.7656 7.19767C29.1344 7.26341 29.4866 7.40113 29.8018 7.60292C30.1171 7.8047 30.3893 8.06657 30.6027 8.3735C30.8162 8.68042 30.9667 9.02635 31.0456 9.39141C31.1246 9.75647 31.1304 10.1335 31.0627 10.5008" fill="#A80000" fill-opacity="0.75"/>
<path d="M29.3269 12.7381L24.3486 14.8646C24.7891 14.653 25.1743 14.3425 25.4742 13.9576C25.774 13.5727 25.9803 13.1237 26.0768 12.646L31.0551 10.5195C30.9599 10.9988 30.7533 11.4491 30.452 11.8344C30.1506 12.2197 29.7629 12.5292 29.3198 12.7381" fill="#A80000" fill-opacity="0.75"/>
<path d="M35.5628 29.5327L30.5846 31.6591C30.576 31.6111 30.5541 31.5664 30.5214 31.5301C30.4888 31.4938 30.4466 31.4673 30.3997 31.4536L29.5249 31.2905L34.5032 29.1641L35.3779 29.3271C35.4251 29.3379 35.468 29.3626 35.501 29.398C35.534 29.4334 35.5555 29.4778 35.5628 29.5256" fill="#A80000" fill-opacity="0.75"/>
<path d="M36.1322 33.3777L31.1539 35.5042C30.9832 34.2283 30.8125 32.9524 30.585 31.6694L35.5632 29.543C35.7908 30.833 35.9615 32.1089 36.1322 33.3848" fill="#A80000" fill-opacity="0.75"/>
<path d="M34.5033 29.1724L29.525 31.2989H29.4254C29.3792 31.2842 29.3295 31.2842 29.2832 31.2989L34.2615 29.1724C34.3082 29.1613 34.357 29.1613 34.4037 29.1724H34.5033Z" fill="#A80000" fill-opacity="0.75"/>
<path d="M36.1115 33.4794L31.1475 35.6342L31.1688 35.5208L36.1328 33.373L36.1115 33.4794Z" fill="#A80000" fill-opacity="0.75"/>
<path d="M42.8959 52.0159L37.939 54.1707L38.7497 45.6223L43.7138 43.4746L42.8959 52.0159Z" fill="#A80000" fill-opacity="0.75"/>
<path d="M48.7916 53.1043L43.8275 55.2591L37.939 54.1675L42.8959 52.0127L48.7916 53.1043Z" fill="#A80000" fill-opacity="0.75"/>
<path d="M31.7019 30.6785L26.7236 32.8049C27.8046 30.799 28.9354 28.8639 30.0164 26.8579L34.9947 24.7314C33.9137 26.7374 32.7829 28.6725 31.7019 30.6785Z" fill="#A80000" fill-opacity="0.75"/>
<path d="M55.4478 64.6166L50.4838 66.7643L39.4604 64.73L44.4245 62.5752L55.4478 64.6166Z" fill="#A80000" fill-opacity="0.75"/>
<path d="M22.3721 9.02049L17.3939 11.147C17.4909 10.4104 17.3094 9.66418 16.8848 9.05362C16.4602 8.44305 15.8228 8.01181 15.0967 7.84385C14.5562 7.7462 13.9986 7.81288 13.4966 8.03523L18.4748 5.90876C18.9778 5.68976 19.5343 5.6232 20.075 5.71738C20.8003 5.88679 21.4367 6.31836 21.861 6.92856C22.2854 7.53875 22.4675 8.28416 22.3721 9.02049Z" fill="#A80000" fill-opacity="0.75"/>
<path d="M20.7058 11.0778L15.7275 13.2043C16.1649 13.0343 16.5499 12.7531 16.8444 12.3888C17.1389 12.0244 17.3324 11.5895 17.4059 11.1274L22.3842 9.00098C22.3127 9.46177 22.1215 9.8959 21.8296 10.2602C21.5376 10.6246 21.1551 10.9064 20.72 11.0778" fill="#A80000" fill-opacity="0.75"/>
<path d="M55.9249 21.8176L50.968 23.9653L13.2256 16.9905L18.1896 14.8428L55.9249 21.8176Z" fill="#A80000" fill-opacity="0.75"/>
<path d="M34.4896 50.4606L29.5326 52.6155L22.876 51.3892L27.84 49.2344L34.4896 50.4606Z" fill="#A80000" fill-opacity="0.75"/>
<path d="M27.8411 49.2413L22.8628 51.3677C23.8727 45.9027 24.8399 40.3739 25.7644 35.1215C25.9362 34.3003 26.262 33.5188 26.7245 32.8179L31.7028 30.6914C31.2421 31.3941 30.9143 32.1748 30.7356 32.9951C29.8181 38.2475 28.8509 43.755 27.8411 49.2413Z" fill="#A80000" fill-opacity="0.75"/>
<path d="M44.4252 62.5825L39.4469 64.709C29.0352 62.7881 6.02141 58.4218 4.90485 58.1028C3.27652 57.5874 1.89205 56.499 1.00997 55.0407C0.127897 53.5824 -0.191475 51.854 0.111495 50.1782L7.37976 8.59157C7.592 7.4202 8.09308 6.31978 8.83793 5.38933C9.58279 4.45888 10.548 3.72758 11.6469 3.26123L16.6251 1.13477C15.5337 1.60686 14.5762 2.34052 13.838 3.27048C13.0997 4.20044 12.6035 5.29786 12.3936 6.46511L5.07554 48.0092C4.76764 49.69 5.08629 51.4251 5.97158 52.8883C6.85687 54.3515 8.24786 55.4421 9.88312 55.9551C11.0068 56.2811 34.0064 60.6404 44.4252 62.5613" fill="#A80000" fill-opacity="0.75"/>
<path d="M52.7175 29.9891C52.5824 29.174 52.4472 27.6783 51.8072 27.1113C51.7197 27.0319 51.6151 26.9736 51.5014 26.9412H51.416C50.463 26.7711 49.9296 29.1881 49.6025 29.7765C48.7054 31.3661 47.4668 32.7385 45.9755 33.7955C44.5531 34.9438 43.4152 36.5457 43.7921 38.5304C43.8724 38.8328 43.9746 39.1289 44.098 39.4164C44.2109 39.6339 44.3732 39.8222 44.572 39.9662C44.7708 40.1101 45.0005 40.2059 45.243 40.2458L50.591 41.231C50.8258 41.2709 51.0664 41.2592 51.2961 41.1967C51.5258 41.1343 51.739 41.0226 51.9209 40.8695C52.4587 40.2504 52.8655 39.5296 53.1173 38.7501C53.369 37.9706 53.4604 37.1485 53.386 36.3331C53.3586 35.4098 53.2755 34.489 53.1371 33.5757C53.0375 32.3637 52.8953 31.2083 52.7175 29.9891Z" fill="#F0783C"/>
<path d="M49.8442 43.1894L45.2073 42.3317C45.0337 42.3058 44.8565 42.3151 44.6865 42.3589C44.5165 42.4026 44.3571 42.4801 44.2177 42.5866C44.0784 42.6931 43.9619 42.8264 43.8754 42.9787C43.7888 43.131 43.7339 43.299 43.7139 43.4729L42.896 51.9788L48.7917 53.1058L50.9252 44.7984C50.9655 44.6217 50.9692 44.4386 50.936 44.2603C50.9028 44.0821 50.8335 43.9125 50.7324 43.7619C50.6312 43.6113 50.5002 43.4828 50.3475 43.3844C50.1948 43.286 50.0236 43.2196 49.8442 43.1894Z" fill="#F0783C"/>
<path d="M36.2033 24.91C36.1798 24.7012 36.1221 24.4977 36.0326 24.3075C36.004 24.2454 35.9626 24.19 35.9112 24.1448C35.8597 24.0997 35.7994 24.0657 35.734 24.0452C35.6667 24.0401 35.5991 24.0502 35.5363 24.0748C35.4735 24.0993 35.4171 24.1377 35.3712 24.187C35.2185 24.3514 35.0914 24.5378 34.9943 24.7399C33.9133 26.7458 32.7826 28.6809 31.7016 30.6869C31.2409 31.3896 30.9131 32.1703 30.7343 32.9906C29.8169 38.2429 28.8497 43.7505 27.8398 49.2368L34.4894 50.463C35.4708 44.8846 36.5305 39.1219 37.455 33.8412C37.5081 33.5601 37.5081 33.2716 37.455 32.9906C37.0567 30.3183 36.6372 27.5893 36.2033 24.91ZM36.1109 33.4797C34.8734 33.189 33.5577 32.948 32.1994 32.6929C32.2634 32.6007 32.3487 32.4448 32.4341 32.2959C32.9461 31.3107 33.508 30.3396 34.0698 29.3756C34.148 29.1984 34.2476 29.1062 34.404 29.1346H34.5036L35.3784 29.2976C35.4256 29.3084 35.4685 29.3331 35.5014 29.3685C35.5344 29.4039 35.5559 29.4483 35.5633 29.4961C35.7908 30.7861 35.9615 32.062 36.1322 33.3379L36.1109 33.4797Z" fill="#F0783C"/>
<path d="M74.2021 10.5209L20.6857 0.632876C18.8083 0.300749 16.8753 0.724791 15.3112 1.8119C13.7471 2.899 12.6798 4.5603 12.3436 6.43104L5.07532 48.0035C4.76743 49.6843 5.08607 51.4194 5.97136 52.8826C6.85666 54.3458 8.24765 55.4364 9.8829 55.9494C11.0066 56.2754 34.0062 60.6347 44.425 62.5556L55.4767 64.6182C57.5534 65.001 59.566 65.4263 61.5218 65.7878C62.5032 65.965 63.4704 66.1351 64.4234 66.2698C66.279 66.5276 68.1625 66.0576 69.6774 64.9589C71.1923 63.8603 72.2203 62.2185 72.5451 60.3795C75.2973 45.3028 77.2531 34.1531 79.8916 19.0339C80.2162 17.1588 79.8072 15.2311 78.7488 13.6475C77.6905 12.0638 76.0632 10.9449 74.2021 10.5209ZM34.0417 11.1447C34.1802 10.4149 34.6006 9.7684 35.2123 9.34424C35.8241 8.92008 36.5784 8.75212 37.3132 8.87648C38.0378 9.04435 38.6741 9.47453 39.0986 10.0836C39.523 10.6926 39.7054 11.437 39.6103 12.1725C39.475 12.9049 39.056 13.5549 38.4439 13.982C37.8318 14.409 37.0756 14.5789 36.3388 14.4549C35.6022 14.3037 34.9524 13.8753 34.5245 13.2587C34.0967 12.6422 33.9238 11.8851 34.0417 11.1447ZM25.6071 9.50733C25.6734 9.15035 25.8096 8.80989 26.008 8.50538C26.2063 8.20086 26.4628 7.93827 26.763 7.73258C27.0631 7.52689 27.401 7.38214 27.7573 7.30659C28.1135 7.23104 28.4813 7.22617 28.8394 7.29226C29.1976 7.35835 29.5392 7.4941 29.8447 7.69177C30.1502 7.88944 30.4137 8.14515 30.6201 8.4443C30.8265 8.74345 30.9717 9.08019 31.0475 9.43529C31.1233 9.79038 31.1282 10.1569 31.0619 10.5139C31.0077 10.891 30.8779 11.2535 30.68 11.5795C30.4822 11.9056 30.2205 12.1885 29.9105 12.4115C29.6005 12.6345 29.2485 12.7929 28.8757 12.8773C28.5029 12.9616 28.1169 12.9702 27.7407 12.9026C27.3733 12.826 27.0251 12.6763 26.7172 12.4624C26.4093 12.2484 26.1479 11.9747 25.9486 11.6577C25.7494 11.3406 25.6164 10.9867 25.5578 10.6172C25.4991 10.2477 25.5159 9.87021 25.6071 9.50733ZM16.8027 7.99045C16.9396 7.25933 17.3592 6.6111 17.9712 6.18548C18.5831 5.75987 19.3384 5.59095 20.0741 5.71513C20.7994 5.88454 21.4358 6.31611 21.8601 6.92631C22.2845 7.5365 22.4666 8.28191 22.3712 9.01824C22.236 9.75066 21.817 10.4006 21.2049 10.8277C20.5927 11.2548 19.8366 11.4247 19.0998 11.3006C18.3649 11.1462 17.7172 10.7171 17.29 10.1014C16.8627 9.48573 16.6883 8.73032 16.8027 7.99045ZM66.2369 55.1838L66.116 55.8926C65.4332 58.494 63.6837 59.7061 61.1662 59.2454L57.5463 58.5791L45.1575 56.2825L44.8659 56.2329L16.6107 51.0089C13.6308 50.4631 12.2938 48.5634 12.8628 45.3383C14.7972 34.2736 16.0631 27.0152 18.0117 15.8938C18.0615 15.589 18.1184 15.2771 18.1895 14.866L55.9248 21.8408C57.0484 22.0464 57.0484 22.0464 57.2547 20.8627C57.4325 19.8349 57.5889 18.9559 57.7667 17.9352C57.8947 17.2264 58.1508 16.9429 58.8335 17.0634L68.5056 18.8567C69.2878 18.9985 69.4372 19.3458 69.2167 20.0475L68.6336 23.3861C68.534 23.9319 68.6336 24.265 69.0674 24.343C69.1337 24.3472 69.2002 24.3472 69.2665 24.343L71.6703 24.7824L66.2369 55.1838Z" fill="#F0783C"/>
</svg>
