<svg width="72" height="69" viewBox="0 0 72 69" fill="none" xmlns="http://www.w3.org/2000/svg">
<path d="M52.2603 25.0557L49.0367 28.5738C49.0057 28.2474 49.0447 27.9182 49.1509 27.6074C49.2571 27.2966 49.4283 27.0111 49.6535 26.7691L52.8705 23.251C52.6475 23.4941 52.4782 23.78 52.3731 24.0906C52.2681 24.4012 52.2297 24.7298 52.2603 25.0557Z" fill="#A80000" fill-opacity="0.75"/>
<path d="M36.4608 12.6296L33.2438 16.1478L28.1431 11.509L31.3667 7.98438L36.4608 12.6296Z" fill="#A80000" fill-opacity="0.75"/>
<path d="M47.6435 23.5164L44.4199 27.0346L38.5962 21.4055L41.8198 17.8809L47.6435 23.5164Z" fill="#A80000" fill-opacity="0.75"/>
<path d="M38.4963 33.1911L35.2727 36.7093C35.2343 36.3705 35.2681 36.0275 35.372 35.7022C35.4759 35.3769 35.6477 35.0764 35.8763 34.8199L39.0999 31.3018C38.8699 31.5574 38.6973 31.8578 38.5933 32.1833C38.4893 32.5088 38.4562 32.8522 38.4963 33.1911Z" fill="#A80000" fill-opacity="0.75"/>
<path d="M54.9665 55.8284L51.7429 59.3465L49.0366 28.5758L52.2602 25.0576L54.9665 55.8284Z" fill="#A80000" fill-opacity="0.75"/>
<path d="M24.4874 41.3345L21.2506 44.8527C21.2108 44.4751 21.2491 44.0935 21.3631 43.7308C21.4771 43.3681 21.6644 43.0317 21.9139 42.7418L25.1375 39.2236C24.8877 39.5134 24.7001 39.8497 24.5861 40.2125C24.4722 40.5752 24.4341 40.9569 24.4742 41.3345" fill="#A80000" fill-opacity="0.75"/>
<path d="M40.5598 56.8982L37.3362 60.4163L35.2534 36.7144L38.477 33.1963L40.5598 56.8982Z" fill="#A80000" fill-opacity="0.75"/>
<path d="M41.8128 17.8906L38.5892 21.4153C29.1968 30.6252 17.6577 37.4441 4.97353 41.2798C4.65757 41.3679 4.33292 41.4225 4.00513 41.4427C0.602432 41.6902 -1.1553 37.5336 0.841217 35.3836L4.06482 31.8655C2.07494 34.0415 3.82604 38.1721 7.22873 37.9245C7.54753 37.8945 7.86283 37.8356 8.17061 37.7486C20.8628 33.9169 32.411 27.1004 41.8128 17.8906Z" fill="#A80000" fill-opacity="0.75"/>
<path d="M25.9536 57.9872L22.73 61.5053L21.2642 44.8658L24.4878 41.3477L25.9536 57.9872Z" fill="#A80000" fill-opacity="0.75"/>
<path d="M10.9499 49.6731L7.72626 53.1912C7.68421 52.8135 7.72136 52.4314 7.83544 52.0683C7.94952 51.7053 8.1381 51.369 8.38955 51.0803L11.6132 47.5557C11.3615 47.8456 11.1729 48.1829 11.0588 48.5471C10.9447 48.9112 10.9077 49.2944 10.9499 49.6731Z" fill="#A80000" fill-opacity="0.75"/>
<path d="M11.7655 59.0402L8.54856 62.5584L7.72607 53.2027L10.943 49.6846L11.7655 59.0402Z" fill="#A80000" fill-opacity="0.75"/>
<path d="M7.25593 37.9267C7.57473 37.8966 7.89003 37.8378 8.1978 37.7508C20.8818 33.9115 32.4207 27.0906 41.8135 17.8797L47.6372 23.5153L54.7743 0.386719L31.3666 7.98983L36.4607 12.6286C27.6058 21.033 17.4972 27.2224 5.87628 30.8057C1.42558 32.1087 3.13024 38.2264 7.25593 37.9267Z" fill="#F0783C"/>
<path d="M71.4754 54.6066L65.7579 55.0301L63.0383 24.2594C62.9617 23.603 62.6342 22.9997 62.1219 22.5715C61.6096 22.1434 60.9509 21.9223 60.279 21.953L54.7737 22.3635C54.4253 22.3717 54.082 22.4486 53.7644 22.5897C53.4468 22.7308 53.1614 22.9331 52.925 23.1848C52.6886 23.4364 52.5062 23.7321 52.3885 24.0544C52.2708 24.3767 52.2203 24.7189 52.2399 25.0607L54.9661 55.8315L51.1521 56.1116L49.0694 32.4097C49.0525 32.0768 48.9664 31.7508 48.8163 31.4517C48.6663 31.1527 48.4556 30.887 48.1971 30.6709C47.9386 30.4549 47.6379 30.2931 47.3134 30.1955C46.9888 30.0979 46.6474 30.0665 46.3101 30.1034L40.8048 30.5138C40.4687 30.5274 40.1392 30.6095 39.8372 30.7547C39.5351 30.9 39.2671 31.1053 39.05 31.3577C38.833 31.61 38.6718 31.9039 38.5765 32.2208C38.4812 32.5376 38.4539 32.8704 38.4965 33.1981L40.5792 56.9L36.5597 57.1996L35.1004 40.5666C35.0886 40.2209 35.0067 39.8809 34.8597 39.5666C34.7127 39.2523 34.5034 38.9698 34.2441 38.7357C33.9848 38.5016 33.6807 38.3206 33.3494 38.2032C33.0181 38.0858 32.6663 38.0343 32.3146 38.0518L26.8159 38.4557C26.4689 38.4918 26.1328 38.596 25.8275 38.7621C25.5222 38.9281 25.254 39.1527 25.0388 39.4224C24.8235 39.6922 24.6656 40.0017 24.5743 40.3325C24.4831 40.6634 24.4604 41.0088 24.5076 41.3484L25.9735 57.988L22.3718 58.2551L21.5295 48.8929C21.5175 48.5483 21.4361 48.2095 21.2899 47.896C21.1437 47.5826 20.9357 47.3008 20.6778 47.0668C20.4199 46.8329 20.1173 46.6516 19.7876 46.5334C19.4579 46.4152 19.1075 46.3624 18.7569 46.3781L13.2516 46.7885C12.9044 46.8237 12.568 46.9273 12.2626 47.0932C11.9572 47.2591 11.689 47.4838 11.4741 47.7539C11.2592 48.024 11.102 48.3339 11.0119 48.6651C10.9219 48.9962 10.9008 49.3419 10.9499 49.6812L11.7658 59.0239L5.83594 59.4669L6.33341 65.0829L71.9994 60.2096L71.4754 54.6066Z" fill="#F0783C"/>
<path d="M71.973 60.2178L68.7494 63.7359L3.10986 68.6092L6.33347 65.0911L71.973 60.2178Z" fill="#A80000" fill-opacity="0.75"/>
<path d="M6.33338 65.0955L3.10977 68.6137L2.6123 62.9976L5.83591 59.4795L6.33338 65.0955Z" fill="#A80000" fill-opacity="0.75"/>
</svg>
