<svg width="70" height="71" viewBox="0 0 70 71" fill="none" xmlns="http://www.w3.org/2000/svg">
<path d="M56.9371 30.651L50.6548 33.5745L51.3419 27.7624L57.6243 24.8389L56.9371 30.651Z" fill="#A80000" fill-opacity="0.75"/>
<path d="M52.3446 32.2514L46.0342 35.1749C46.1182 34.8019 46.2888 34.4537 46.5323 34.1581C46.7758 33.8625 47.0855 33.6277 47.4365 33.4725L53.7469 30.542C53.3963 30.6997 53.0872 30.9361 52.8439 31.2327C52.6005 31.5293 52.4296 31.878 52.3446 32.2514Z" fill="#A80000" fill-opacity="0.75"/>
<path d="M62.9325 54.6348L56.6221 57.5583C55.1362 58.2518 53.5229 58.6341 51.8823 58.6816L58.1927 55.7581C59.838 55.7125 61.4563 55.3301 62.9466 54.6348" fill="#A80000" fill-opacity="0.75"/>
<path d="M57.625 24.8454L51.3146 27.7689C51.892 23.1428 50.6189 18.4762 47.77 14.7757C44.921 11.0752 40.7244 8.63744 36.0855 7.9882C32.8062 7.51916 29.4605 8.00377 26.4517 9.38366L32.7621 6.46017C35.7718 5.08335 39.1166 4.59886 42.3959 5.0647C47.034 5.71565 51.2295 8.15386 54.0781 11.8539C56.9268 15.5539 58.2006 20.2196 57.625 24.8454Z" fill="#A80000" fill-opacity="0.75"/>
<path d="M53.6488 55.3028L47.3664 58.2263L45.5645 57.9821L51.8468 55.0586L53.6488 55.3028Z" fill="#A80000" fill-opacity="0.75"/>
<path d="M49.9327 52.59L43.6504 55.5065L46.0624 35.1676L52.3447 32.2441L49.9327 52.59Z" fill="#A80000" fill-opacity="0.75"/>
<path d="M51.8818 55.0658L45.5714 57.9893C45.0007 57.8857 44.489 57.575 44.1354 57.1174C43.7817 56.6598 43.6114 56.0878 43.6572 55.5124L49.9676 52.5889C49.9217 53.1643 50.0921 53.7363 50.4458 54.1939C50.7994 54.6515 51.3111 54.9622 51.8818 55.0658Z" fill="#A80000" fill-opacity="0.75"/>
<path d="M49.7093 59.0075L43.3989 61.931C43.6796 61.8009 43.9534 61.6565 44.2193 61.4984C45.5747 60.7587 46.6652 59.6174 47.3394 58.2331L53.6498 55.3096C52.9756 56.6939 51.8851 57.8352 50.5297 58.575C50.2638 58.733 49.99 58.8774 49.7093 59.0075Z" fill="#A80000" fill-opacity="0.75"/>
<path d="M51.5804 63.0146L45.27 65.9451C42.4023 67.2778 38.7703 67.8639 34.4512 67.5011L40.7616 64.5776C45.0807 64.9404 48.7127 64.3543 51.5804 63.0146Z" fill="#A80000" fill-opacity="0.75"/>
<path d="M18.6327 19.536L12.3223 22.4594C12.7387 18.8068 14.0892 15.3214 16.2447 12.3361C18.4002 9.3507 21.2887 6.96504 24.6346 5.40689L30.945 2.4834C27.5991 4.04155 24.7106 6.42721 22.5551 9.41258C20.3996 12.3979 19.0491 15.8833 18.6327 19.536Z" fill="#A80000" fill-opacity="0.75"/>
<path d="M17.9176 25.5564L11.6353 28.4869L12.3504 22.4655L18.6328 19.542L17.9176 25.5564Z" fill="#A80000" fill-opacity="0.75"/>
<path d="M38.1322 67.0422L31.8218 69.9657C30.8321 70.4282 29.7288 70.5954 28.6456 70.4471C27.1041 70.2183 25.7119 69.4031 24.7624 68.1732C23.8129 66.9433 23.3801 65.3947 23.5552 63.8536C23.6692 62.8786 24.0318 61.9488 24.6085 61.1526C25.1853 60.3564 25.9571 59.7201 26.8506 59.3044L33.161 56.3809C32.2675 56.7966 31.4957 57.4329 30.9189 58.2291C30.3422 59.0253 29.9796 59.9551 29.8656 60.9301C29.6905 62.4712 30.1233 64.0198 31.0728 65.2497C32.0223 66.4796 33.4145 67.2948 34.956 67.5236C36.0392 67.6719 37.1425 67.5047 38.1322 67.0422Z" fill="#A80000" fill-opacity="0.75"/>
<path d="M22.6579 50.7275L16.3475 53.651C15.9917 53.819 15.5958 53.8843 15.2046 53.8394L21.515 50.9159C21.9062 50.9608 22.3021 50.8955 22.6579 50.7275Z" fill="#A80000" fill-opacity="0.75"/>
<path d="M21.5149 50.9407L15.2326 53.8642L10.8994 53.2712L17.1818 50.3477L21.5149 50.9407Z" fill="#A80000" fill-opacity="0.75"/>
<path d="M17.1816 50.3458L10.8712 53.2693C7.59532 52.789 4.63651 51.057 2.62304 48.4411C0.609566 45.8252 -0.3 42.5313 0.0874662 39.2588C0.323487 37.1908 1.08799 35.2175 2.30805 33.527C3.52812 31.8365 5.16306 30.4853 7.05695 29.6022L13.3673 26.6787C11.4682 27.5581 9.8276 28.9077 8.60244 30.5985C7.37729 32.2892 6.60857 34.2644 6.36982 36.3353C5.98292 39.612 6.8963 42.9095 8.91558 45.5262C10.9349 48.1429 13.9006 49.8721 17.1816 50.3458Z" fill="#A80000" fill-opacity="0.75"/>
<path d="M42.8859 0.697257C48.6787 1.52855 53.9158 4.57939 57.48 9.19899C61.0442 13.8186 62.6534 19.6412 61.9643 25.4249L61.2632 31.4393C64.0455 32.3632 66.4239 34.2112 67.9993 36.6732C69.5747 39.1353 70.2513 42.0617 69.9154 44.9613C69.5875 47.8607 68.2229 50.5461 66.0708 52.5276C63.9187 54.5092 61.1224 55.6547 58.1921 55.7552C57.2948 58.5719 55.3581 60.9454 52.7722 62.3976C49.7432 64.1629 45.7115 64.9862 40.7754 64.5745C40.2247 65.5962 39.3738 66.4262 38.3364 66.9536C37.2989 67.481 36.1244 67.6807 34.9698 67.526C33.4283 67.2972 32.0362 66.482 31.0867 65.2521C30.1371 64.0222 29.7044 62.4735 29.8794 60.9324C29.9669 60.1772 30.2045 59.4468 30.5784 58.7839C30.9524 58.121 31.4552 57.5388 32.0575 57.0712C32.6599 56.6036 33.3497 56.26 34.0869 56.0604C34.824 55.8609 35.5937 55.8093 36.3511 55.9087C37.4994 56.0786 38.5738 56.5754 39.4447 57.3392C40.3155 58.1031 40.9457 59.1014 41.2592 60.2137C45.4241 60.5277 48.4881 59.7672 50.5495 58.5671C51.905 57.8273 52.9954 56.6861 53.6697 55.3017L51.8817 55.0575C51.311 54.9539 50.7993 54.6432 50.4457 54.1856C50.092 53.728 49.9216 53.156 49.9675 52.5806L52.3445 32.2417C52.4628 31.6932 52.7715 31.2037 53.2164 30.8591C53.6614 30.5146 54.2141 30.3371 54.7775 30.3578L56.937 30.6509L57.6382 24.8388C58.215 20.2055 56.9364 15.5325 54.0788 11.8298C51.2212 8.12707 47.0142 5.69206 42.367 5.0511C40.0916 4.73221 37.7749 4.87274 35.5553 5.4643C33.3356 6.05586 31.2585 7.08633 29.4478 8.49421C27.6371 9.90209 26.1299 11.6585 25.0163 13.6587C23.9027 15.6589 23.2054 17.8618 22.9661 20.136L22.2649 25.9412L24.4385 26.2412C25.0086 26.3449 25.5196 26.6559 25.8721 27.1137C26.2246 27.5715 26.3934 28.1434 26.3456 28.7181L23.9336 49.057C23.8516 49.6205 23.5544 50.1308 23.1038 50.4817C22.6532 50.8326 22.084 50.9971 21.5147 50.9409L17.1815 50.3478C13.9005 49.8741 10.9347 48.1449 8.91547 45.5283C6.89619 42.9116 5.98281 39.614 6.36971 36.3374C6.69461 33.4692 8.03517 30.8099 10.1512 28.8359C12.2673 26.8618 15.0205 25.7021 17.9177 25.5644L18.6189 19.543C18.9314 16.7045 19.8123 13.9572 21.2097 11.4632C22.607 8.96921 24.4924 6.77916 26.7546 5.0224C29.0167 3.26564 31.6096 1.9778 34.3803 1.23493C37.1509 0.492068 40.043 0.309243 42.8859 0.697257Z" fill="#F0783C"/>
</svg>
