<svg width="80" height="80" viewBox="0 0 80 80" fill="none" xmlns="http://www.w3.org/2000/svg">
<path d="M79.5 40C79.5 61.7777 61.8525 79.5 40 79.5C18.2223 79.5 0.5 61.8525 0.5 40C0.5 18.2223 18.1475 0.5 40 0.5C61.8531 0.5 79.5 18.1469 79.5 40Z" stroke="#DD4B39" stroke-miterlimit="10"/>
<path d="M18.0094 40.5833C17.8954 46.453 21.8312 52.0321 27.3072 53.8337C32.441 55.5772 38.7155 54.2987 42.138 49.8237C44.6478 46.6855 45.2183 42.5011 44.9331 38.6074C40.5409 38.5492 36.1487 38.6074 31.7565 38.6074C31.7565 40.1765 31.7565 41.8037 31.7565 43.3729C34.3804 43.431 37.0043 43.431 39.6282 43.4891C38.9437 45.8137 37.4606 47.964 35.179 48.7776C30.7297 50.7536 25.0826 48.1384 23.7136 43.431C22.0594 38.8979 24.7974 33.435 29.3607 32.0984C32.1557 31.1104 35.0649 32.2146 37.5177 33.7256C38.7155 32.5633 39.8564 31.3429 40.9972 30.0643C38.2592 27.7397 34.7226 26.2868 31.129 26.6355C23.9418 26.6936 17.7242 33.3769 18.0094 40.5833Z" fill="#DC4E41"/>
<path d="M54.058 34.584C54.058 35.9173 54.058 37.2507 54 38.584C52.6667 38.584 51.3333 38.584 50 38.584V42.584C51.3333 42.584 52.6667 42.584 54 42.584C54 43.9173 54 45.2507 54 46.584C55.3333 46.584 56.6667 46.584 58 46.584C58 45.2507 58 43.9173 58 42.584C59.3333 42.584 60.6667 42.584 62 42.584V38.584C60.6667 38.584 59.3333 38.584 58 38.584C58 37.2507 58 35.9173 58 34.584C56.7246 34.584 55.3913 34.584 54.058 34.584Z" fill="#DC4E41"/>
<path d="M18.0095 40.1206C17.7237 33.1746 23.9543 26.6767 31.0996 26.6207C34.7009 26.3406 38.2449 27.685 40.9887 29.9256C39.8455 31.158 38.7022 32.3343 37.5018 33.4547C35.101 31.9982 32.1857 30.9339 29.3276 31.8862C24.7546 33.1746 22.0108 38.4401 23.6685 42.8094C25.0404 47.4027 30.7567 49.8675 35.1582 47.9629C37.4446 47.1787 38.988 45.1061 39.6168 42.8654C36.9874 42.8094 34.3579 42.8654 31.7284 42.7534C31.7284 41.2409 31.7284 39.6725 31.7284 38.16C36.1299 38.16 40.5314 38.16 44.9329 38.16C45.2187 41.9131 44.6471 45.9463 42.132 48.9712C38.7022 53.2845 32.4144 54.5728 27.2698 52.8363C21.8393 51.1558 17.8951 45.7783 18.0095 40.1206Z" fill="white"/>
<path d="M54 34.584H58C58 35.9173 58 37.2507 58 38.584C59.3333 38.584 60.6667 38.584 62 38.584V42.584C60.6667 42.584 59.3333 42.584 58 42.584C58 43.9173 58 45.2507 58 46.584C56.6667 46.584 55.3333 46.584 54 46.584C54 45.2507 54 43.9173 54 42.584C52.6667 42.584 51.3333 42.584 50 42.584V38.584C51.3333 38.584 52.6667 38.584 54 38.584C54 37.2507 54 35.9173 54 34.584Z" fill="white"/>
</svg>
