<svg width="80" height="80" viewBox="0 0 80 80" fill="none" xmlns="http://www.w3.org/2000/svg">
<path d="M57.6304 49.9153C57.5724 49.8583 57.5724 49.8583 57.6304 49.9153C57.1667 49.6301 56.7031 49.573 56.4713 49.4589C54.6168 48.8884 52.9941 47.6332 51.777 46.0928C51.0816 45.237 50.56 44.3242 50.1543 43.2972C49.9804 42.8408 49.9804 42.3844 50.2123 42.0991C50.56 41.6427 51.1975 41.3004 51.835 41.0722C52.5884 40.844 53.3418 40.5587 54.0372 39.9882C54.1531 39.8741 54.269 39.76 54.327 39.5888C54.327 39.5318 54.3849 39.4747 54.3849 39.4176C54.4429 39.2465 54.4429 39.0183 54.327 38.8471C54.1531 38.4478 53.8054 38.2766 53.5736 38.1054C53.1679 37.8772 52.7043 37.8772 52.2406 37.9913C51.777 38.1054 51.4293 38.2766 51.0816 38.3337C50.6179 38.3907 50.1543 38.4478 49.7486 38.2766C49.7486 38.2195 49.7486 38.1054 49.7486 37.9913C49.6907 37.1926 49.8066 36.3939 49.8066 35.5381C49.8645 34.2829 49.9225 32.9707 49.6907 31.6585C49.285 29.4335 47.8361 27.4937 45.9816 26.2385C44.6487 25.3257 43.0839 24.8122 41.4612 24.641C40.9396 24.584 40.3601 24.584 39.8385 24.584C37.6363 24.584 35.3761 25.1545 33.6374 26.5238C32.3045 27.5507 31.2613 28.92 30.6238 30.4033C29.9863 31.9438 30.0443 33.5983 30.1602 35.1387C30.2182 36.2227 30.3341 37.2496 30.2182 38.2766C30.2182 38.3336 30.2182 38.3337 30.2182 38.3337C29.6966 38.4478 29.175 38.3907 28.6534 38.2766C28.3057 38.2195 27.9 38.0484 27.4364 37.9343C27.0307 37.8202 26.5671 37.9343 26.2773 38.2195C26.0455 38.3907 25.6398 38.676 25.6398 39.1894C25.6398 39.2465 25.6398 39.2465 25.6398 39.3035C25.6978 39.5888 25.8716 39.817 26.0455 39.9311C26.2193 40.0452 26.3352 40.1593 26.4512 40.2164C27.2625 40.7299 28.1318 40.9581 28.8852 41.2433C29.4068 41.4715 29.8704 41.8139 29.9863 42.2703C30.1023 42.8408 29.8704 43.4684 29.5807 44.096C28.7114 45.7505 27.4364 47.2338 25.8716 48.2608C25.0603 48.8313 24.133 49.2307 23.1478 49.4589C23.1478 49.4589 23.1478 49.4589 23.0898 49.4589C22.916 49.5159 22.3944 49.573 22.1046 50.0294C22.1046 50.0865 22.0467 50.0865 22.0467 50.1435C21.9307 50.4288 22.0467 50.7141 22.2205 50.8852C22.3364 51.0564 22.5103 51.1134 22.6262 51.2275C23.4376 51.6839 24.3069 51.9122 25.1762 52.0833C25.7557 52.1974 26.2773 52.2545 26.7409 52.4827C26.7409 52.5397 26.7989 52.6538 26.9148 52.882C27.0307 53.3385 27.1466 53.8519 27.3205 54.3654C27.3784 54.5366 27.4943 54.6507 27.6682 54.6507C28.0159 54.7077 28.2477 54.5936 28.3057 54.5936H28.3636C29.7545 54.3654 31.0875 54.1372 32.3625 54.4795C33.6954 54.8218 34.7965 55.6776 36.0715 56.4764C36.9408 56.9898 37.926 57.5033 39.0272 57.5604C39.8965 57.6174 40.7078 57.5604 41.5771 57.5033C42.2726 57.4462 42.968 57.218 43.5476 56.8187C44.8805 56.077 46.0975 55.1642 47.4305 54.5936C47.8361 54.4225 48.3577 54.4225 48.9952 54.4225C50.0963 54.3654 51.1975 54.4225 52.2406 54.5936C52.2986 54.5936 52.2986 54.5936 52.3566 54.5936C52.4725 54.5936 52.6463 54.4795 52.7043 54.3654C52.7622 54.2513 52.8202 54.1943 52.8202 54.1372C52.8781 54.0231 52.8781 53.966 52.8202 54.0802C52.8202 54.0802 52.8781 54.0231 52.8781 53.966C53.052 53.3385 53.1679 52.7679 53.5156 52.3686C53.6895 52.2545 53.9213 52.1404 54.2111 52.1404H54.269C55.1963 52.0263 56.0656 51.6839 56.877 51.3987C57.1667 51.2846 57.6304 51.1134 57.9201 50.7141C58.094 50.5999 57.9781 50.1435 57.6304 49.9153Z" fill="white"/>
<path d="M79.5 40C79.5 61.7777 61.8525 79.5 40 79.5C18.2223 79.5 0.5 61.8525 0.5 40C0.5 18.2223 18.1475 0.5 40 0.5C61.8531 0.5 79.5 18.1469 79.5 40Z" stroke="#FFFC00" stroke-miterlimit="10"/>
</svg>
