<svg width="80" height="80" viewBox="0 0 80 80" fill="none" xmlns="http://www.w3.org/2000/svg">
<path d="M79.5 40C79.5 61.7777 61.8525 79.5 40 79.5C18.2223 79.5 0.5 61.8525 0.5 40C0.5 18.2223 18.1475 0.5 40 0.5C61.8531 0.5 79.5 18.1469 79.5 40Z" stroke="#05CC47" stroke-miterlimit="10"/>
<path d="M52 21.584H44.3582L41.194 27.5273C40.8358 28.2265 40.0597 28.6927 39.2239 28.6927H28.0597V38.132H34.0896C34.7463 38.132 35.1642 38.8312 34.8657 39.4139L28 52.3493V58.584H35.6418L38.806 52.6407C39.1642 51.9415 39.9403 51.4753 40.7761 51.4753H51.9403V42.036H45.9104C45.2537 42.036 44.8358 41.3367 45.1343 40.7541L52 27.8186V21.584Z" fill="white"/>
</svg>
