<svg width="80" height="80" viewBox="0 0 80 80" fill="none" xmlns="http://www.w3.org/2000/svg">
<path d="M40.8084 21.584C30.2695 21.584 25 28.8442 25 34.8547C25 35.9854 25.1198 37.0566 25.4192 38.0682C26.018 40.3296 27.3952 42.1744 29.5509 43.0076C30.0898 43.1861 30.509 43.0076 30.6886 42.472C30.8084 42.1149 31.0479 41.1628 31.1078 40.7462C31.2874 40.2106 31.2276 40.0321 30.8084 39.556C30.2695 38.9609 29.8503 38.2468 29.6108 37.3541C29.4311 36.759 29.3713 36.1044 29.3713 35.3903C29.3713 30.0344 33.5629 25.2141 40.2695 25.2141C46.1976 25.2141 49.491 28.7252 49.491 33.367C49.491 34.7357 49.3713 36.0449 49.0719 37.2946C48.1737 41.5793 45.7186 44.6739 42.485 44.6739C40.1497 44.6739 38.4132 42.829 39.012 40.5677C39.3114 39.2584 39.7904 37.9492 40.2096 36.6995C40.6287 35.3308 40.988 34.0216 40.988 33.0099C40.988 31.2841 40.0299 29.7964 37.994 29.7964C35.5988 29.7964 33.7425 32.1768 33.7425 35.2713C33.7425 35.8664 33.8024 36.402 33.9222 36.878C34.1018 38.0087 34.4611 38.6633 34.4611 38.6633C34.4611 38.6633 32.0659 48.542 31.6467 50.2678C30.8084 53.7194 31.5269 57.9446 31.5868 58.3612C31.6467 58.5992 31.9461 58.6587 32.1258 58.4802C32.3653 58.1826 35.1796 54.8501 36.1377 51.5175C36.4371 50.5653 37.6946 45.6855 37.6946 45.6855C38.4731 47.1138 40.6886 48.3635 43.0838 48.3635C48.8922 48.3635 53.1437 44.1978 54.521 38.1873C54.8204 36.8185 55 35.3308 55 33.7835C54.8204 27.4755 49.2515 21.584 40.8084 21.584Z" fill="white"/>
<path d="M79.5 40C79.5 61.7777 61.8525 79.5 40 79.5C18.2223 79.5 0.5 61.8525 0.5 40C0.5 18.2223 18.1475 0.5 40 0.5C61.8531 0.5 79.5 18.1469 79.5 40Z" stroke="#BD081C" stroke-miterlimit="10"/>
</svg>
