<svg width="80" height="80" viewBox="0 0 80 80" fill="none" xmlns="http://www.w3.org/2000/svg">
<path d="M26.6327 41.2524H32.3773C33.6745 41.2524 35.8364 41.8059 35.8364 44.2658C35.8364 45.5572 34.8481 47.0332 33.5509 47.0332H26.6327V41.2524ZM45.1018 29.6909H55.4791V33.1348H45.1018V29.6909ZM54.1202 41.2524H46.4608C46.7079 39.223 48.2521 37.8086 50.2905 37.8086C52.3289 37.8086 53.8114 39.223 54.1202 41.2524ZM46.2755 43.5278H59C59 43.3433 59 43.1588 59 42.9129C59 38.1776 55.5409 34.3032 50.3523 34.3032C45.1018 34.3032 41.6427 38.1776 41.6427 42.9129C41.6427 47.7096 45.1018 51.5225 50.3523 51.5225C55.5409 51.5225 58.0735 48.5706 58.8147 44.6348H54.1202C53.6878 46.6642 52.4524 48.0786 50.2905 48.0786C48.1285 48.1401 46.4608 46.1107 46.2755 43.5278ZM40.5309 44.6963C40.5309 42.1749 38.8631 40.0225 36.5776 39.223C38.2454 38.2391 39.3573 36.3941 39.3573 34.3647C39.3573 31.1669 36.7629 28.584 33.6127 28.584H22V51.584H33.5509C37.3806 51.584 40.5309 48.5091 40.5309 44.6963ZM32.3773 37.8086H26.6327V33.1963H32.3773C33.6745 33.1963 34.7245 34.2417 34.7245 35.5332C34.7245 36.7631 33.6745 37.8086 32.3773 37.8086Z" fill="white"/>
<path d="M79.5 40C79.5 61.7777 61.8525 79.5 40 79.5C18.2223 79.5 0.5 61.8525 0.5 40C0.5 18.2223 18.1475 0.5 40 0.5C61.8531 0.5 79.5 18.1469 79.5 40Z" stroke="#1769FF" stroke-miterlimit="10"/>
</svg>
