<svg width="80" height="80" viewBox="0 0 80 80" fill="none" xmlns="http://www.w3.org/2000/svg">
<path d="M79.5 40C79.5 61.7777 61.8525 79.5 40 79.5C18.2223 79.5 0.5 61.8525 0.5 40C0.5 18.2223 18.1475 0.5 40 0.5C61.8531 0.5 79.5 18.1469 79.5 40Z" stroke="#00B9D8" stroke-miterlimit="10"/>
<path d="M57.8234 32.0329C55.8298 43.2239 44.5532 52.6932 41.1889 54.8453C37.8246 56.9975 34.7095 53.9845 33.5881 51.7094C32.2798 49.1269 28.4794 34.9229 27.4825 33.7546C26.4857 32.5863 23.4329 34.9229 23.4329 34.9229L22 33.0167C22 33.0167 28.1056 25.8225 32.7782 24.9001C37.7 23.9778 37.7 32.4018 38.8837 37.075C40.0052 41.6252 40.8151 44.2077 41.8119 44.2077C42.8087 44.2077 44.7401 41.6867 46.8583 37.8129C48.9766 33.939 46.7961 30.4956 42.6841 32.9552C44.304 23.1784 59.8171 20.8418 57.8234 32.0329Z" fill="white"/>
</svg>
