<svg width="80" height="80" viewBox="0 0 80 80" fill="none" xmlns="http://www.w3.org/2000/svg">
<path d="M41.6964 24.4399C50.1906 25.7366 54.0629 29.8861 55.1247 38.5741C55.1247 38.6389 55.1247 38.7038 55.1247 38.7686C55.1871 39.5466 54.9997 40.584 56.0615 40.584C56.9359 40.584 56.9984 39.9356 56.9984 39.2224C56.9984 39.0279 56.9984 38.7686 56.9984 38.6389C57.1233 30.4696 50.0657 22.8838 41.9463 22.6245C41.3217 22.6893 40.0725 22.1706 40.0101 23.597C39.8852 24.5047 40.947 24.3102 41.6964 24.4399Z" fill="white"/>
<path d="M51.0876 37.5495C51.1526 38.1213 51.2825 38.6932 52.2567 38.5661C52.7763 38.5026 52.9062 38.1849 52.9711 37.8672C53.0361 37.5495 52.9711 37.1047 52.9711 36.8505C53.0361 31.8945 48.5546 27.3832 43.1639 26.7478C42.3195 26.6208 41.2154 26.2395 41.0206 27.3832C40.8257 28.5905 42.0597 28.4634 42.8391 28.5905C48.2948 29.7342 50.1784 31.6403 51.0876 36.8505C51.0227 37.1047 51.0876 37.3589 51.0876 37.5495Z" fill="white"/>
<path d="M43.5222 30.5851C42.9085 30.5851 42.363 30.6524 42.0903 31.2581C41.7493 32.2002 42.4312 32.4021 43.1812 32.5367C45.4995 32.8732 46.7268 34.2191 46.9996 36.5072C46.9996 36.7764 47.136 37.0456 47.3405 37.2475C47.5451 37.4494 47.8178 37.584 48.0905 37.584C48.2951 37.584 48.4315 37.5167 48.5678 37.4494C48.9769 37.1802 49.0452 36.6418 48.977 36.1034C49.0452 33.4789 46.045 30.5178 43.5222 30.5851Z" fill="white"/>
<path d="M55.2813 47.8074C54.1868 46.9601 53.0278 46.178 51.8689 45.3307C49.551 43.7665 47.4907 43.6361 45.8167 46.178C44.8509 47.6119 43.4988 47.6771 42.0823 47.0253C38.2192 45.2655 35.2575 42.5933 33.4547 38.6827C33.1971 38.0961 33.004 37.5095 33.004 36.9229C32.9396 35.8801 33.3903 34.9676 34.5492 34.1855C35.515 33.5337 36.4808 32.7516 36.4164 31.3829C36.2876 29.5579 31.7806 23.3661 30.0422 22.7795C29.334 22.5188 28.5614 22.5188 27.8531 22.7795C23.6681 24.1482 21.994 27.6026 23.6037 31.5784C24.5051 33.7944 25.5353 35.9452 26.7586 37.9005C31.9094 46.5691 39.4425 52.8913 49.1647 57.0626C49.8729 57.3233 50.5812 57.4536 50.9675 57.584C53.6717 57.584 56.891 54.9769 57.7924 52.435C58.6294 49.9583 56.7622 48.9806 55.2813 47.8074Z" fill="white"/>
<path d="M79.5 40C79.5 61.7777 61.8525 79.5 40 79.5C18.2223 79.5 0.5 61.8525 0.5 40C0.5 18.2223 18.1475 0.5 40 0.5C61.8532 0.5 79.5 18.1469 79.5 40Z" stroke="#8F5DB7" stroke-miterlimit="10"/>
</svg>
