<svg width="80" height="80" viewBox="0 0 80 80" fill="none" xmlns="http://www.w3.org/2000/svg">
<path d="M79.5 40C79.5 61.7777 61.8525 79.5 40 79.5C18.2223 79.5 0.5 61.8525 0.5 40C0.5 18.2226 18.147 0.500464 39.9991 0.5C61.8542 0.575562 79.5 18.2241 79.5 40Z" stroke="#FF4500" stroke-miterlimit="10"/>
<path d="M61 38.269C61 35.4033 58.6202 33.047 55.7259 33.047C54.2466 33.047 52.9602 33.6201 51.9954 34.5754C49.0368 32.6649 45.242 31.4549 41.1256 31.3275C41.1256 29.6081 41.8974 27.9523 43.3124 26.8697C44.6631 25.7871 46.464 25.3413 48.2006 25.7234L48.4579 25.7871C48.4579 25.8508 48.4579 25.9145 48.4579 25.9781C48.4579 28.3981 50.4518 30.3723 52.8959 30.3723C55.34 30.3723 57.3338 28.3981 57.3338 25.9781C57.3338 23.5582 55.34 21.584 52.8959 21.584C51.3522 21.584 49.9372 22.4119 49.1654 23.6219L48.7152 23.5582C46.3354 23.0487 43.827 23.6219 41.8974 25.1503C39.9678 26.6786 38.8744 28.9713 38.8744 31.3912C34.758 31.5823 30.9632 32.7922 28.0046 34.6391C27.0398 33.6838 25.7534 33.1107 24.2741 33.1107C21.3798 33.1107 19 35.4669 19 38.3327C19 40.3705 20.1577 42.09 21.83 42.9816C21.7014 43.6184 21.6371 44.3189 21.6371 44.9558C21.6371 52.4704 29.8698 58.584 40.0322 58.584C50.1945 58.584 58.4273 52.4704 58.4273 44.9558C58.4273 44.2552 58.3629 43.6184 58.2343 42.9816C59.8423 42.0263 61 40.2432 61 38.269ZM52.7672 23.8129C53.925 23.8129 54.8897 24.7682 54.8897 25.9145C54.8897 27.0608 53.925 28.016 52.7672 28.016C51.6095 28.016 50.6447 27.0608 50.6447 25.9145C50.6447 24.7682 51.6095 23.8129 52.7672 23.8129ZM21.1868 38.269C21.1868 36.6132 22.5375 35.2759 24.2098 35.2759C24.9173 35.2759 25.5605 35.5306 26.075 35.9127C24.4671 37.2501 23.245 38.9058 22.4732 40.6253C21.6371 40.1158 21.1868 39.2243 21.1868 38.269ZM51.6095 52.7251C48.5222 55.0177 44.4058 56.2914 39.9678 56.2914C35.5299 56.2914 31.4135 55.0177 28.3262 52.7251C25.4319 50.5599 23.8239 47.8215 23.8239 44.8921C23.8239 41.9627 25.4319 39.2242 28.3262 37.059C31.4135 34.7664 35.5299 33.4928 39.9678 33.4928C44.4058 33.4928 48.5222 34.7664 51.6095 37.059C54.5038 39.2242 56.1118 41.9627 56.1118 44.8921C56.0475 47.7578 54.5038 50.5599 51.6095 52.7251ZM57.4625 40.689C56.6907 38.9058 55.4686 37.3138 53.8606 35.9764C54.3752 35.5943 55.0184 35.3396 55.7259 35.3396C57.3982 35.3396 58.7489 36.6769 58.7489 38.3327C58.6845 39.2242 58.2343 40.1158 57.4625 40.689Z" fill="white"/>
<path d="M33.5 44.584C34.8807 44.584 36 43.4647 36 42.084C36 40.7033 34.8807 39.584 33.5 39.584C32.1193 39.584 31 40.7033 31 42.084C31 43.4647 32.1193 44.584 33.5 44.584Z" fill="white"/>
<path d="M46.5 39.584C45.0811 39.584 44 40.7326 44 42.084C44 43.4353 45.1486 44.584 46.5 44.584C47.9189 44.584 49 43.4353 49 42.084C49 40.7326 47.9189 39.584 46.5 39.584Z" fill="white"/>
<path d="M46.0646 47.6057C44.3747 49.2651 42.0999 50.164 39.825 50.164C37.2251 50.164 34.8203 49.0577 33.0004 46.9834C32.5454 46.4994 31.8304 46.4303 31.3755 46.9143C30.9205 47.3983 30.8555 48.1588 31.3105 48.6428C33.5203 51.132 36.5752 52.584 39.825 52.584C42.7498 52.584 45.4797 51.4085 47.6245 49.3343C48.0795 48.8503 48.1445 48.0897 47.6895 47.6057C47.2996 47.1908 46.5196 47.1217 46.0646 47.6057Z" fill="white"/>
</svg>
