<svg width="80" height="80" viewBox="0 0 80 80" fill="none" xmlns="http://www.w3.org/2000/svg">
<path d="M26 40.1517V55.584H33V38.8808V34.584H26V40.1517Z" fill="white"/>
<path d="M29.5 24.584C27.5492 24.584 26 26.1332 26 28.084C26 30.0348 27.5492 31.584 29.5 31.584C31.4508 31.584 33 30.0348 33 28.084C33 26.1332 31.4508 24.584 29.5 24.584Z" fill="white"/>
<path d="M56.8552 41.0409C56.3709 37.0581 54.5549 34.584 49.1674 34.584C45.959 34.584 43.8404 35.7909 42.9929 37.4202H42.8718V34.584H37V38.6271V55.584H43.1139V45.2047C43.1139 42.4891 43.6588 39.834 47.0487 39.834C50.378 39.834 50.6807 42.9719 50.6807 45.3857V55.584H56.9763V44.0581C57.0368 42.9719 56.9762 42.0064 56.8552 41.0409Z" fill="white"/>
<path d="M79.5 40C79.5 61.7777 61.8525 79.5 40 79.5C18.2223 79.5 0.5 61.8525 0.5 40C0.5 18.2226 18.147 0.500464 39.9991 0.5C61.8542 0.575562 79.5 18.2241 79.5 40Z" stroke="#00A0DC" stroke-miterlimit="10"/>
</svg>
