<svg width="80" height="80" viewBox="0 0 80 80" fill="none" xmlns="http://www.w3.org/2000/svg">
<path d="M79.5 40C79.5 61.7777 61.8525 79.5 40 79.5C18.2223 79.5 0.5 61.8525 0.5 40C0.5 18.2226 18.147 0.500464 39.9991 0.5C61.8542 0.575562 79.5 18.2241 79.5 40Z" stroke="#8921B4" stroke-miterlimit="10"/>
<path fill-rule="evenodd" clip-rule="evenodd" d="M61 30.1391C61 30.0074 60.9337 29.9416 60.801 29.9416C59.9384 29.9416 59.1422 29.9416 58.2796 30.0074C54.3649 30.0733 50.4502 30.1391 46.5355 30.205C45.7393 30.205 44.9431 30.2708 44.0806 30.2708C43.9479 30.2708 43.9479 30.3366 43.9479 30.4025C43.9479 31.1925 43.9479 31.9167 43.9479 32.7067C43.9479 32.8384 43.9479 32.8384 44.0806 32.8384C44.545 32.8384 45.0758 32.9042 45.5403 32.9042C47 32.97 48.5261 33.0359 49.9858 33.0359C50.0521 33.0359 50.1185 33.0359 50.1848 33.0359C50.0521 33.1676 49.9858 33.2334 49.9194 33.2992C47.3318 35.4718 44.8104 37.6444 42.2228 39.817C42.0237 40.0145 42.0237 40.0145 41.8246 39.7511C39.5687 37.0519 37.3791 34.2868 35.1232 31.5875C34.5924 30.9291 34.0616 30.3366 33.5308 29.6783C33.5972 29.6783 33.5972 29.6783 33.6635 29.6783C34.5261 29.6124 35.3223 29.5466 36.1848 29.4808C37.1137 29.4149 38.0427 29.3491 38.9052 29.2832C39.0379 29.2832 39.1043 29.2174 39.1043 29.0857C39.1706 28.2957 39.237 27.5057 39.3033 26.7815C39.3033 26.6498 39.3033 26.584 39.1706 26.584C32.5355 26.584 25.9005 26.584 19.199 26.584C19.0663 26.584 19 26.584 19 26.7815C19 27.5057 19 28.2957 19 29.0199C19 29.2832 19 29.2832 19.2654 29.2832C21.1232 29.4149 22.981 29.5466 24.9052 29.6783C25.0379 29.6783 25.1043 29.7441 25.237 29.8099C26.8957 31.785 28.4881 33.7601 30.1469 35.7352C32.2701 38.3028 34.4597 40.9362 36.5829 43.5038C36.6493 43.5696 36.7156 43.7013 36.7156 43.7671C36.7156 44.623 36.7156 45.4789 36.7156 46.3347C36.7156 47.7831 36.7156 49.1657 36.7156 50.6141C36.7156 50.6799 36.7156 50.8116 36.5829 50.8116C35.654 50.8774 34.7251 50.9432 33.7962 51.0091C32.6682 51.0749 31.5403 51.2066 30.4123 51.2724C30.2796 51.2724 30.2133 51.3382 30.2133 51.4699C30.2133 52.1283 30.2133 52.7866 30.2133 53.3792C30.2133 53.6425 30.1469 53.5767 30.4123 53.5767C36.9147 53.5767 43.4834 53.5767 49.9858 53.5767H50.0521C50.1848 53.5767 50.1848 53.5767 50.1848 53.445C50.1848 52.7866 50.1848 52.0625 50.1848 51.4041C50.1848 51.2724 50.1185 51.2724 50.0521 51.2724C49.7204 51.2724 49.455 51.2066 49.1896 51.2066C47.3981 51.1407 45.673 51.0749 43.8815 51.0091C43.6825 51.0091 43.6825 50.9432 43.6825 50.8116C43.7488 48.3756 43.8152 45.9397 43.8815 43.5038C43.8815 43.438 43.9479 43.3721 44.0142 43.3063C44.8768 42.5821 45.7393 41.7921 46.6019 41.0679C49.3886 38.5661 52.1754 36.1302 54.9621 33.6942C55.0284 33.6284 55.1611 33.5626 55.2275 33.5626C55.6256 33.5626 56.0237 33.4967 56.4218 33.4967C57.8815 33.3651 59.2749 33.2992 60.7346 33.1676C60.8673 33.1676 60.9336 33.1017 60.9336 32.97C61 31.9825 61 31.0608 61 30.1391Z" fill="#FDFDFD"/>
<path fill-rule="evenodd" clip-rule="evenodd" d="M61 35.8537C60.9351 35.9885 60.9351 36.1907 60.8701 36.3256C60.4805 38.0784 60.026 39.8312 59.6364 41.584C59.1818 43.5391 58.7273 45.4941 58.2727 47.5166C58.2727 47.584 58.2727 47.584 58.2078 47.584C57.5585 47.5166 56.8442 47.4492 56.1948 47.3817C56.1299 47.3817 56.1299 47.3817 56.0649 47.3817C56 47.3817 56 47.3818 56 47.3143C56 47.0447 56 46.8424 56 46.5727C56 46.3705 56 46.1008 56 45.8986C56 45.2244 56 44.5503 56.0649 43.8761C56.0649 43.1345 56.0649 42.393 56.1299 41.6514C56.1299 40.9098 56.1948 40.1683 56.1948 39.4267C56.1948 38.6851 56.1948 37.9436 56.2598 37.202C56.2598 36.6627 56.2597 36.1233 56.3247 35.6514C56.3247 35.584 56.3247 35.584 56.3896 35.584C56.7792 35.584 57.2338 35.6514 57.6234 35.6514C57.8831 35.6514 58.1429 35.6514 58.4026 35.7188C58.8571 35.7188 59.3766 35.7862 59.8961 35.7862C60.2208 35.7862 60.5454 35.7862 60.8701 35.8537C60.8052 35.8537 60.8701 35.8537 61 35.8537Z" fill="#FDFDFD"/>
<path fill-rule="evenodd" clip-rule="evenodd" d="M57.6667 51.584C57.2 51.584 56.8 51.584 56.3333 51.584C56.2667 51.584 56.2667 51.584 56.2667 51.5071C56.2667 51.0455 56.2 50.5071 56.1333 50.0455C56.0667 49.584 56.0667 49.1225 56 48.6609C56 48.584 56 48.584 56.0667 48.584C56.2667 48.584 56.5333 48.6609 56.7333 48.6609C57.0667 48.6609 57.3333 48.7378 57.6667 48.7378C58 48.8148 58.4 48.8148 58.7333 48.8148C58.8 48.8148 58.8667 48.8148 58.9333 48.8148C59 48.8148 59 48.8148 59 48.8917C59 49.7378 59 50.584 59 51.4301C59 51.5071 59 51.5071 58.9333 51.5071C58.6 51.584 58.1333 51.584 57.6667 51.584Z" fill="#FDFDFD"/>
</svg>
