<svg width="80" height="80" viewBox="0 0 80 80" fill="none" xmlns="http://www.w3.org/2000/svg">
<path fill-rule="evenodd" clip-rule="evenodd" d="M50.3392 40.1111C50.3392 34.5735 45.6878 30.1216 40.0277 30.1216C34.3115 30.1216 29.7162 34.5735 29.7162 40.1111C29.7162 45.6488 34.3115 50.1006 40.0277 50.1006C45.7438 50.1006 50.3392 45.5945 50.3392 40.1111ZM50.1711 28.7101C49.2744 28.7101 48.4899 29.4158 48.4899 30.3388C48.4899 31.2074 49.2184 31.9675 50.1711 31.9675C51.0677 31.9675 51.8523 31.2617 51.8523 30.3388C51.7963 29.4701 51.0677 28.7101 50.1711 28.7101ZM31.5655 26.4299H48.4338C51.5721 26.4299 54.094 28.9272 54.094 31.9132V48.2547C54.094 51.295 51.5161 53.7381 48.4338 53.7381H31.5655C28.4272 53.7381 25.9054 51.295 25.9054 48.2547V31.9132C25.9054 28.873 28.4833 26.4299 31.5655 26.4299ZM48.4338 24.584H31.5655C27.4185 24.584 24 27.8957 24 31.9132V48.2547C24 52.2723 27.4185 55.584 31.5655 55.584H48.4338C52.5808 55.584 55.9993 52.2723 55.9993 48.2547V31.9132C56.0554 27.8957 52.6369 24.584 48.4338 24.584ZM31.8457 40.1111C31.8457 35.7136 35.4884 32.1847 40.0277 32.1847C44.567 32.1847 48.2097 35.7136 48.2097 40.1111C48.2097 44.5087 44.567 48.0376 40.0277 48.0376C35.4884 48.0376 31.8457 44.4544 31.8457 40.1111Z" fill="white"/>
<path d="M79.5 40C79.5 61.7777 61.8525 79.5 40 79.5C18.2223 79.5 0.5 61.8525 0.5 40C0.5 18.2226 18.147 0.500464 39.9992 0.5C61.8542 0.575562 79.5 18.2241 79.5 40Z" stroke="url(#paint0_linear)" stroke-miterlimit="10"/>
<defs>
<linearGradient id="paint0_linear" x1="-1.74221" y1="40.0106" x2="81.8745" y2="40.0106" gradientUnits="userSpaceOnUse">
<stop stop-color="#FEC053"/>
<stop offset="0.3273" stop-color="#F2203E"/>
<stop offset="0.6485" stop-color="#B729A8"/>
<stop offset="1" stop-color="#5342D6"/>
</linearGradient>
</defs>
</svg>
