<svg width="80" height="80" viewBox="0 0 80 80" fill="none" xmlns="http://www.w3.org/2000/svg">
<path d="M57 29.7764C55.7428 30.3174 54.4308 30.6962 53.0096 30.8585C54.4308 29.9928 55.5788 28.6942 56.0707 27.071C54.7042 27.8285 53.2283 28.4237 51.6431 28.7483C50.3858 27.4497 48.582 26.584 46.5595 26.584C42.7331 26.584 39.5627 29.614 39.5627 33.4016C39.5627 33.9427 39.6173 34.4297 39.7267 34.9708C33.9325 34.7002 28.7942 31.9948 25.3505 27.8826C24.7492 28.9106 24.4212 30.0469 24.4212 31.2914C24.4212 33.6722 25.6784 35.7283 27.537 36.9728C26.3891 36.9187 25.2958 36.6481 24.3666 36.107C24.3666 36.1611 24.3666 36.1611 24.3666 36.2153C24.3666 37.081 24.5305 37.8926 24.8585 38.7042C25.7331 40.8144 27.6463 42.4377 29.9968 42.9247C29.3955 43.087 28.7942 43.1411 28.1382 43.1411C27.7009 43.1411 27.2637 43.087 26.8264 43.0329C27.701 45.7383 30.2701 47.6862 33.3312 47.7403C30.926 49.58 27.9196 50.6622 24.6399 50.6622C24.0932 50.6622 23.5466 50.608 23 50.5539C26.1158 52.5018 29.7781 53.584 33.7138 53.584C44.6463 53.584 51.3151 46.117 53.119 38.3255C53.4469 36.9728 53.6109 35.566 53.6109 34.2132C53.6109 33.9427 53.6109 33.6181 53.6109 33.3475C54.8682 32.3195 56.0707 31.1291 57 29.7764Z" fill="white"/>
<path d="M79.5 40C79.5 61.7777 61.8525 79.5 40 79.5C18.2223 79.5 0.5 61.8525 0.5 40C0.5 18.2226 18.147 0.500464 39.9992 0.5C61.8542 0.575562 79.5 18.2241 79.5 40Z" stroke="#1DA1F2" stroke-miterlimit="10"/>
</svg>
