<svg width="80" height="80" viewBox="0 0 80 80" fill="none" xmlns="http://www.w3.org/2000/svg">
<path d="M42.5744 33.1065V30.293C42.5744 28.9425 43.4602 28.6049 44.1246 28.6049C44.7336 28.6049 48 28.6049 48 28.6049V22.584H42.6851C36.7612 22.584 35.4325 27.0856 35.4325 29.8991V33.0502H32V37.3267V40.084H35.4325C35.4325 48.0181 35.4325 57.584 35.4325 57.584H42.2976C42.2976 57.584 42.2976 47.9055 42.2976 40.084H47.391L47.6125 37.3267L48 33.0502H42.5744V33.1065Z" fill="white"/>
<path d="M79.5 40C79.5 61.7777 61.8525 79.5 40 79.5C18.2223 79.5 0.5 61.8525 0.5 40C0.5 18.2226 18.147 0.500464 39.9991 0.5C61.8542 0.575562 79.5 18.2241 79.5 40Z" stroke="#3B5998" stroke-miterlimit="10"/>
</svg>
