<svg width="80" height="80" viewBox="0 0 80 80" fill="none" xmlns="http://www.w3.org/2000/svg">
<path d="M58.939 38.6386C58.695 28.6354 50.4607 20.584 40.3355 20.584C30.3323 20.584 22.1589 28.4524 21.7319 38.2726C21.7319 38.5166 21.7319 38.8215 21.7319 39.0655C21.7319 42.5423 22.7079 45.836 24.4157 48.6418L21 58.584L31.3082 55.2902C33.992 56.7541 37.0417 57.6081 40.3355 57.6081C50.6437 57.6081 59 49.3127 59 39.1265C58.939 38.9435 58.939 38.8215 58.939 38.6386ZM40.3355 54.6803C37.1637 54.6803 34.1749 53.7044 31.7351 52.1185L25.6966 54.0093L27.6485 48.2148C25.7576 45.653 24.6597 42.4813 24.6597 39.1265C24.6597 38.6386 24.6597 38.0896 24.7207 37.6016C25.5136 29.7333 32.1621 23.5727 40.3355 23.5727C48.5698 23.5727 55.3403 29.9162 55.9502 37.9066C56.0112 38.3336 56.0113 38.6996 56.0113 39.1265C55.9503 47.7268 48.9358 54.6803 40.3355 54.6803Z" fill="white"/>
<path d="M48.0448 43.3775C47.5729 43.1216 45.4497 41.9702 45.0369 41.8423C44.624 41.7143 44.3291 41.5864 44.0342 42.0981C43.7393 42.5459 42.9136 43.6334 42.6187 43.9532C42.3828 44.273 42.0879 44.337 41.6751 44.0811C41.2033 43.8253 39.7878 43.3135 38.1364 41.7143C36.8389 40.435 35.9542 38.8998 35.6593 38.388C35.4234 37.9402 35.6593 37.6844 35.8362 37.4285C36.0131 37.2366 36.3081 36.8528 36.485 36.5969C36.544 36.533 36.6029 36.469 36.6619 36.3411C36.7799 36.1492 36.8389 36.0212 36.9568 35.7654C37.1338 35.4455 37.0158 35.1896 36.8979 34.9338C36.7799 34.6779 35.8952 32.3751 35.5413 31.4156C35.1874 30.4561 34.8336 30.648 34.5387 30.648C34.3028 30.648 34.0079 30.584 33.713 30.584C33.4181 30.584 32.9463 30.7119 32.5334 31.1597C32.1206 31.6075 31 32.7589 31 35.1257C31 35.7014 31.1179 36.2131 31.2359 36.7249C31.7077 38.388 32.6514 39.7953 32.8283 40.0512C33.0642 40.371 35.8952 45.2965 40.3776 47.2155C44.8599 49.1346 44.8599 48.4949 45.6856 48.4309C46.5113 48.3669 48.2807 47.2795 48.6936 46.1921C49.0474 45.1046 49.0474 44.1451 48.9294 43.9532C48.7525 43.7613 48.4576 43.6334 48.0448 43.3775Z" fill="white"/>
<path d="M79.5 40C79.5 61.7777 61.8525 79.5 40 79.5C18.2223 79.5 0.5 61.8525 0.5 40C0.5 18.2226 18.147 0.500464 39.9992 0.5C61.8542 0.575562 79.5 18.2241 79.5 40Z" stroke="#25D366" stroke-miterlimit="10"/>
</svg>
