<svg width="80" height="80" viewBox="0 0 80 80" fill="none" xmlns="http://www.w3.org/2000/svg">
<path d="M59.5506 31.8164C59.5506 31.8164 59.1653 28.9546 57.9454 27.7463C56.4045 26.0928 54.7351 26.0928 53.9647 26.0292C48.3788 25.584 39.9679 25.584 39.9679 25.584C39.9679 25.584 31.557 25.584 25.9711 26.0292C25.2007 26.1564 23.4671 26.1564 21.9904 27.7463C20.7705 29.0182 20.3853 31.8164 20.3853 31.8164C20.3853 31.8164 20 35.1235 20 38.4941V38.8757V41.6103C20 44.9809 20.3853 48.2879 20.3853 48.2879C20.3853 48.2879 20.7705 51.1498 21.9904 52.3581C23.5313 54.0116 25.5217 53.948 26.4205 54.1388C29.6308 54.4568 40.0321 54.584 40.0321 54.584C40.0321 54.584 48.443 54.584 54.0289 54.1388C54.7993 54.0116 56.5329 54.0116 58.0096 52.4217C59.2295 51.1498 59.6147 48.3515 59.6147 48.3515C59.6147 48.3515 60 44.9809 60 41.6739V39.13V38.5577C60 35.1871 59.5506 31.8164 59.5506 31.8164ZM46.6452 39.6388L35.8587 45.4261V36.5226V33.7879L40.7384 36.3954L46.6452 39.6388Z" fill="white"/>
<path d="M79.5 40C79.5 61.7777 61.8525 79.5 40 79.5C18.2223 79.5 0.5 61.8525 0.5 40C0.5 18.2226 18.147 0.500464 39.9992 0.5C61.8542 0.575562 79.5 18.2241 79.5 40Z" stroke="#CD201F" stroke-miterlimit="10"/>
</svg>
