<svg width="80" height="80" viewBox="0 0 80 80" fill="none" xmlns="http://www.w3.org/2000/svg">
<path d="M79.5 40C79.5 61.7777 61.8525 79.5 40 79.5C18.2223 79.5 0.5 61.8525 0.5 40C0.5 18.2226 18.147 0.500464 39.9991 0.5C61.8542 0.575562 79.5 18.2241 79.5 40Z" stroke="url(#paint0_linear)" stroke-miterlimit="10"/>
<path d="M29 31.584C24.464 31.584 20.648 34.75 20.072 38.9484C20 39.2925 20 39.7054 20 40.1184C20 44.7986 24.032 48.584 29 48.584C33.968 48.584 38 44.7986 38 40.1184C38 38.8795 37.712 37.6407 37.208 36.6083C35.768 33.6488 32.6 31.584 29 31.584Z" fill="white"/>
<path d="M59.928 39.3929C59.568 35.0393 55.68 31.584 51 31.584C47.328 31.584 44.232 33.6571 42.792 36.6287C42.288 37.6653 42 38.9092 42 40.084C42 44.7832 46.032 48.584 51 48.584C55.968 48.584 60 44.7832 60 40.084C60 39.8076 60 39.6002 59.928 39.3929Z" fill="white"/>
<defs>
<linearGradient id="paint0_linear" x1="-1.77643" y1="40.0112" x2="81.8403" y2="40.0112" gradientUnits="userSpaceOnUse">
<stop stop-color="#0D65D3"/>
<stop offset="1" stop-color="#FF0080"/>
</linearGradient>
</defs>
</svg>
