<svg width="80" height="80" viewBox="0 0 80 80" fill="none" xmlns="http://www.w3.org/2000/svg">
<path d="M79.5 40C79.5 61.7777 61.8525 79.5 40 79.5C18.2223 79.5 0.5 61.8525 0.5 40C0.5 18.2223 18.1475 0.5 40 0.5C61.8531 0.5 79.5 18.1469 79.5 40Z" stroke="#01A7FF" stroke-miterlimit="10"/>
<path d="M57.0541 43.4917C57.3001 42.3225 57.4231 41.0917 57.4231 39.8609C57.4231 39.4301 57.4231 38.9994 57.3616 38.5686C56.6851 29.8301 49.3053 22.8763 40.2035 22.8763C39.2196 22.8763 38.2356 22.9378 37.2516 23.1224C35.7141 22.1378 33.9307 21.584 31.9627 21.584C26.4279 21.584 22 26.0148 22 31.4301C22 33.2763 22.492 34.9378 23.353 36.4148C23.23 37.0301 23.107 37.6455 23.0455 38.2609C22.984 38.7532 22.984 39.3071 22.984 39.7994C22.984 49.1532 30.6713 56.7225 40.142 56.7225C41.1875 56.7225 42.2945 56.5994 43.2785 56.4148C44.6929 57.1532 46.2919 57.584 48.0138 57.584C53.5487 57.584 57.9766 53.1532 57.9766 47.7378C58.0996 46.2609 57.7306 44.784 57.0541 43.4917ZM49.0593 47.9224C48.2598 49.0301 47.0913 49.8917 45.5539 50.5071C44.0164 51.1224 42.233 51.4301 40.2035 51.4301C37.7436 51.4301 35.6526 50.9994 34.0537 50.1378C32.8852 49.5224 31.9627 48.6609 31.2248 47.6763C30.4868 46.6301 30.1178 45.584 30.1178 44.5994C30.1178 43.984 30.3638 43.4301 30.8558 42.9994C31.3478 42.5686 31.9012 42.3224 32.6392 42.3224C33.2542 42.3224 33.7462 42.5071 34.1767 42.8148C34.5457 43.1224 34.9147 43.6147 35.1607 44.2917C35.4682 44.9686 35.7756 45.584 36.1446 46.0148C36.4521 46.4455 36.9441 46.8148 37.5591 47.1224C38.1741 47.4301 39.0351 47.5532 40.0805 47.5532C41.495 47.5532 42.6635 47.2455 43.5244 46.6917C44.3854 46.1378 44.8159 45.3994 44.8159 44.5994C44.8159 43.9224 44.5699 43.4301 44.1394 42.9994C43.6474 42.5686 43.0325 42.2609 42.2945 42.0148C41.495 41.7686 40.4495 41.5224 39.1581 41.2148C37.3746 40.8455 35.8371 40.4148 34.6687 39.8609C33.4387 39.3686 32.4547 38.6301 31.7167 37.7071C31.4708 37.3994 31.2863 37.0917 31.1018 36.784C30.7328 36.0455 30.6098 35.2455 30.6098 34.3224C30.6098 33.0301 30.9788 31.8609 31.7783 30.8763C32.5162 29.8917 33.6847 29.0917 35.0992 28.5994C36.5136 28.0455 38.2356 27.7994 40.142 27.7994C41.6795 27.7994 43.0325 27.984 44.1394 28.2917C45.3079 28.6609 46.2304 29.0917 46.9684 29.7071C47.7063 30.2609 48.3213 30.9378 48.6288 31.5532C48.9978 32.2301 49.1823 32.8455 49.1823 33.4609C49.1823 34.0763 48.9363 34.6301 48.5058 35.1224C48.0138 35.6148 47.4603 35.8609 46.7224 35.8609C46.1074 35.8609 45.6154 35.7378 45.2464 35.4301C44.9389 35.1224 44.5699 34.6917 44.2009 34.0763C43.7704 33.2763 43.2785 32.6609 42.6635 32.1686C42.11 31.7378 41.126 31.4917 39.773 31.4917C38.5431 31.4917 37.5591 31.7378 36.8211 32.2301C36.0831 32.7224 35.7756 33.2148 35.7756 33.8301C35.7756 34.1994 35.8986 34.5686 36.1446 34.8148C36.3906 35.1224 36.7596 35.3686 37.1901 35.5532C37.6206 35.7994 38.1126 35.984 38.6046 36.1071C38.6661 36.1071 38.7891 36.1686 38.9121 36.1686C39.404 36.2917 40.0805 36.4763 41.003 36.6609C42.4175 36.9686 43.6474 37.2763 44.8159 37.6455C45.9844 38.0148 46.9684 38.4455 47.7678 38.9378C48.5673 39.4917 49.2438 40.1686 49.7358 40.9686C50.2278 41.7686 50.4123 42.8148 50.4123 43.984C50.2893 45.584 49.8588 46.8148 49.0593 47.9224Z" fill="white"/>
</svg>
