<svg width="80" height="80" viewBox="0 0 80 80" fill="none" xmlns="http://www.w3.org/2000/svg">
<path d="M79.5 40C79.5 61.7777 61.8525 79.5 40 79.5C18.2223 79.5 0.5 61.8525 0.5 40C0.5 18.2226 18.147 0.500464 39.9991 0.5C61.8542 0.575562 79.5 18.2241 79.5 40Z" stroke="#6441A5" stroke-miterlimit="10"/>
<path d="M57.131 22.584H26.2207C25.9724 22.584 25.6621 22.7094 25.5379 22.9603L22.1241 28.6682C22.0621 28.7937 22 28.9191 22 29.0446V51.8134C22 52.2524 22.3724 52.6288 22.8069 52.6288H27.7724C28.0207 52.6288 28.269 52.7542 28.4552 53.0051L31 57.2076C31.1241 57.4585 31.3724 57.584 31.6828 57.584H34.6621C34.9103 57.584 35.1586 57.4585 35.3448 57.2076L37.9517 52.9424C38.0759 52.6915 38.3241 52.5661 38.6345 52.5661H47.7586C47.9448 52.5661 48.1931 52.5033 48.3172 52.3152L57.7517 42.7811C57.8759 42.6557 58 42.4048 58 42.2166V23.3367C57.8759 22.9603 57.5655 22.584 57.131 22.584ZM54.2138 39.9585C54.2138 40.084 54.1517 40.2094 54.0897 40.2722L46.8897 47.5481C46.8276 47.6109 46.7035 47.6736 46.5793 47.6736H35.531C35.3448 47.6736 35.2207 47.7363 35.1586 47.9245L33.5448 50.7471C33.3586 51.0607 32.9241 51.0607 32.8 50.7471L31.1862 47.9245C31.1241 47.799 30.9379 47.6736 30.8138 47.6736H28.6414C28.3931 47.6736 28.2069 47.4854 28.2069 47.2345V29.2955C28.2069 29.0446 28.3931 28.8564 28.6414 28.8564H53.7793C54.0276 28.8564 54.2138 29.0446 54.2138 29.2955V39.9585Z" fill="white"/>
<path d="M34 41.1873V33.9807C34 33.7823 34.1967 33.584 34.3934 33.584H37.6066C37.8033 33.584 38 33.7823 38 33.9807V41.1873C38 41.3856 37.8033 41.584 37.6066 41.584H34.3934C34.1967 41.584 34 41.4518 34 41.1873Z" fill="white"/>
<path d="M43 41.1873V33.9807C43 33.7823 43.1967 33.584 43.3934 33.584H46.6066C46.8033 33.584 47 33.7823 47 33.9807V41.1873C47 41.3856 46.8033 41.584 46.6066 41.584H43.3934C43.1967 41.584 43 41.4518 43 41.1873Z" fill="white"/>
</svg>
