<svg width="80" height="80" viewBox="0 0 80 80" fill="none" xmlns="http://www.w3.org/2000/svg">
<path d="M79.5 40C79.5 61.7777 61.8525 79.5 40 79.5C18.2223 79.5 0.5 61.8525 0.5 40C0.5 18.2226 18.147 0.500464 39.9992 0.5C61.8542 0.575562 79.5 18.2241 79.5 40Z" stroke="#007EE5" stroke-miterlimit="10"/>
<path d="M40 29.0718L51.2849 35.958L40 42.8441L28.7152 35.958L40 29.0718ZM51.2273 48.4783L47.8879 50.6409L40.0576 44.21L32.2273 50.6409L28.8879 48.4783V50.9254L40.1152 57.584L51.3424 50.9254V48.4783H51.2273ZM51.2849 35.958L59 29.8116L47.8303 22.584L40 29.0149L32.1697 22.584L21 29.8116L28.7152 35.958L21 42.0474L32.1697 49.275L40 42.8441L47.8303 49.275L59 42.0474L51.2849 35.958Z" fill="white"/>
</svg>
