<svg width="80" height="80" viewBox="0 0 80 80" fill="none" xmlns="http://www.w3.org/2000/svg">
<path d="M57.8756 37.1522L57.5648 36.5477L57.0674 36.185C56.3834 35.7014 53.0259 36.185 52.1554 35.3992C51.5337 34.8552 51.4093 33.7671 51.2228 32.3767C50.8497 29.6565 50.601 29.5356 50.228 28.6289C48.6736 25.3646 44.3834 22.9467 41.399 22.584H33.4404C27.1606 22.584 22 27.5408 22 33.6462V39.0261V46.5218C22 52.5667 27.1606 57.584 33.4404 57.584H46.5596C52.8394 57.584 57.9378 52.6272 57.9378 46.5218L58 39.147V37.5754L57.8756 37.1522ZM33.5648 31.6513H39.8446C41.0259 31.6513 42.0207 32.6185 42.0207 33.7671C42.0207 34.9156 41.0259 35.8828 39.8446 35.8828H33.5026C32.3212 35.8828 31.3264 34.9156 31.3264 33.7671C31.3886 32.5581 32.3213 31.6513 33.5648 31.6513ZM46.3731 48.5166H33.5026C32.3212 48.5166 31.3264 47.5494 31.3264 46.4009C31.3264 45.2524 32.3212 44.2852 33.5026 44.2852H46.3731C47.5544 44.2852 48.5492 45.2524 48.5492 46.4009C48.5492 47.5494 47.6166 48.5166 46.3731 48.5166Z" fill="white"/>
<path d="M79.5 40C79.5 61.7777 61.8525 79.5 40 79.5C18.2223 79.5 0.5 61.8525 0.5 40C0.5 18.2226 18.147 0.500464 39.9992 0.5C61.8542 0.575562 79.5 18.2241 79.5 40Z" stroke="#F57D00" stroke-miterlimit="10"/>
</svg>
